<svg width="454" height="178" viewBox="0 0 454 178" fill="none" xmlns="http://www.w3.org/2000/svg">
<g clip-path="url(#clip0_5066_3282)">
<path d="M38.8921 29.855C38.8921 39.0648 32.1575 42.5184 17.1916 42.5184C12.5867 42.5184 5.42993 41.6167 5.42993 41.6167L0 42.5184V0.90179L5.42993 0H20.7987C27.8787 0 35.2657 2.32163 35.2657 9.30571C35.2657 14.9275 32.2534 17.1916 29.2602 17.8631C34.7477 19.2638 38.8921 22.9285 38.8921 29.855ZM5.42993 0.90179V20.722C11.7808 20.2423 16.1555 17.4218 22.7366 17.2108H22.6215C27.2648 17.1916 29.855 13.6995 29.855 9.05628C29.855 3.24261 24.5402 0.90179 19.8969 0.90179H5.42993ZM18.0934 41.6167C29.6056 41.6167 33.4622 35.6111 33.4622 29.855C33.4622 22.6791 28.8957 18.5155 23.5041 18.0934C16.4625 18.0934 12.0303 21.1441 5.41074 21.643V40.7149C5.41074 40.7149 13.4693 41.6167 18.0742 41.6167H18.0934Z" fill="white"/>
<path d="M128.073 20.8179C128.073 35.2849 118.115 42.5184 106.373 42.5184C94.6304 42.5184 84.6724 35.2849 84.6724 20.8179C84.6724 6.35091 94.6112 0 106.373 0C118.135 0 128.073 6.33172 128.073 20.7987V20.8179ZM122.643 20.8179C122.643 6.35091 112.685 0.920977 104.55 0.920977C93.6903 0.920977 90.0831 10.879 90.0831 20.8179C90.0831 35.2849 100.041 41.6167 108.176 41.6167C119.036 41.6167 122.643 30.7568 122.643 20.8179Z" fill="white"/>
<path d="M211.748 36.3211C207.469 40.4655 201.675 42.7104 195.708 42.4993C183.946 42.4993 174.007 35.2658 174.007 20.7988C174.007 6.33176 183.965 4.00814e-05 195.708 4.00814e-05C200.485 -0.0958951 205.167 1.28557 209.139 3.95257L207.565 7.61729C204.265 3.43452 199.238 0.959391 193.904 0.90183C183.044 0.90183 179.437 10.8599 179.437 20.7988C179.437 35.2658 189.395 41.5975 197.53 41.5975C202.941 41.4632 207.834 38.3357 210.194 33.4622L211.767 36.3211H211.748Z" fill="white"/>
<path d="M288.995 0V5.42993L283.565 6.33172V1.82277H274.528V41.6167L269.098 42.5184V1.82277H260.061V5.44911L254.631 6.35091V0.90179L260.042 0V0.90179H269.079L274.528 0V0.90179H283.565L288.995 0Z" fill="white"/>
<path d="M373.917 20.8179C373.917 35.2849 363.959 42.5184 352.216 42.5184C340.474 42.5184 330.516 35.2849 330.516 20.8179C330.516 6.35091 340.435 0 352.197 0C363.959 0 373.898 6.33172 373.898 20.7987L373.917 20.8179ZM368.487 20.8179C368.487 6.35091 358.529 0.920977 350.394 0.920977C339.534 0.920977 335.927 10.879 335.927 20.8179C335.927 35.2849 345.885 41.6167 354.02 41.6167C364.88 41.6167 368.487 30.7568 368.487 20.8179Z" fill="white"/>
<path d="M453.351 41.6167L449.725 42.5184C449.725 36.2635 445.312 19.4365 432.111 19.0143L427.103 23.2163V41.6167L421.673 42.5184V0.90179L427.122 0V22.0267L453.37 0L453.946 0.690733L433.185 18.1126C447.192 18.573 453.332 33.5965 453.332 41.6167H453.351Z" fill="white"/>
</g>
<path d="M7.1 127.2C6.31333 127.2 5.56667 127.067 4.86 126.8C4.15333 126.52 3.52667 126.093 2.98 125.52C2.43333 124.933 2 124.193 1.68 123.3C1.36 122.407 1.2 121.34 1.2 120.1V119.7C1.2 118.5 1.36 117.467 1.68 116.6C2 115.733 2.43333 115.02 2.98 114.46C3.52667 113.9 4.15333 113.487 4.86 113.22C5.56667 112.94 6.31333 112.8 7.1 112.8C7.86 112.8 8.55333 112.9 9.18 113.1C9.82 113.3 10.38 113.587 10.86 113.96C11.34 114.333 11.7267 114.793 12.02 115.34C12.3267 115.887 12.52 116.507 12.6 117.2H10.6C10.4133 116.293 10.02 115.613 9.42 115.16C8.82 114.707 8.04667 114.48 7.1 114.48C6.60667 114.48 6.12667 114.573 5.66 114.76C5.19333 114.947 4.77333 115.247 4.4 115.66C4.04 116.06 3.74667 116.593 3.52 117.26C3.30667 117.927 3.2 118.74 3.2 119.7V120.1C3.2 121.113 3.32 121.967 3.56 122.66C3.8 123.34 4.10667 123.893 4.48 124.32C4.85333 124.747 5.27333 125.053 5.74 125.24C6.20667 125.427 6.66 125.52 7.1 125.52C8.14 125.52 8.95333 125.267 9.54 124.76C10.1267 124.253 10.48 123.6 10.6 122.8H12.6C12.4933 123.573 12.28 124.24 11.96 124.8C11.64 125.347 11.2333 125.8 10.74 126.16C10.26 126.52 9.70667 126.787 9.08 126.96C8.46667 127.12 7.80667 127.2 7.1 127.2ZM19.5938 127.2C18.9138 127.2 18.2671 127.093 17.6538 126.88C17.0404 126.653 16.5004 126.32 16.0338 125.88C15.5671 125.427 15.1938 124.86 14.9137 124.18C14.6338 123.5 14.4938 122.707 14.4938 121.8V121.4C14.4938 120.547 14.6338 119.793 14.9137 119.14C15.1938 118.487 15.5671 117.947 16.0338 117.52C16.5004 117.08 17.0404 116.753 17.6538 116.54C18.2671 116.313 18.9138 116.2 19.5938 116.2C20.2738 116.2 20.9204 116.313 21.5338 116.54C22.1471 116.753 22.6871 117.08 23.1538 117.52C23.6204 117.947 23.9938 118.487 24.2738 119.14C24.5538 119.793 24.6938 120.547 24.6938 121.4V121.8C24.6938 122.707 24.5538 123.5 24.2738 124.18C23.9938 124.86 23.6204 125.427 23.1538 125.88C22.6871 126.32 22.1471 126.653 21.5338 126.88C20.9204 127.093 20.2738 127.2 19.5938 127.2ZM19.5938 125.6C19.9938 125.6 20.3938 125.533 20.7938 125.4C21.1938 125.253 21.5471 125.033 21.8538 124.74C22.1604 124.433 22.4071 124.04 22.5938 123.56C22.7938 123.08 22.8938 122.493 22.8938 121.8V121.4C22.8938 120.76 22.7938 120.213 22.5938 119.76C22.4071 119.307 22.1604 118.933 21.8538 118.64C21.5471 118.347 21.1938 118.133 20.7938 118C20.3938 117.867 19.9938 117.8 19.5938 117.8C19.1938 117.8 18.7938 117.867 18.3938 118C17.9938 118.133 17.6404 118.347 17.3338 118.64C17.0271 118.933 16.7738 119.307 16.5738 119.76C16.3871 120.213 16.2938 120.76 16.2938 121.4V121.8C16.2938 122.493 16.3871 123.08 16.5738 123.56C16.7738 124.04 17.0271 124.433 17.3338 124.74C17.6404 125.033 17.9938 125.253 18.3938 125.4C18.7938 125.533 19.1938 125.6 19.5938 125.6ZM27.1859 116.4H31.7859C33.0926 116.4 34.0526 116.673 34.6659 117.22C35.2793 117.753 35.5859 118.447 35.5859 119.3C35.5859 119.527 35.5459 119.76 35.4659 120C35.3859 120.227 35.2726 120.44 35.1259 120.64C34.9926 120.84 34.8259 121.013 34.6259 121.16C34.4393 121.307 34.2259 121.42 33.9859 121.5C34.6393 121.66 35.1326 121.967 35.4659 122.42C35.8126 122.86 35.9859 123.38 35.9859 123.98C35.9859 124.9 35.6793 125.633 35.0659 126.18C34.4526 126.727 33.4926 127 32.1859 127H27.1859V116.4ZM32.1859 125.44C32.9326 125.44 33.4593 125.307 33.7659 125.04C34.0726 124.773 34.2259 124.393 34.2259 123.9C34.2259 123.393 34.0726 123.007 33.7659 122.74C33.4593 122.46 32.9326 122.32 32.1859 122.32H28.9459V125.44H32.1859ZM31.7859 120.88C32.5459 120.88 33.0726 120.747 33.3659 120.48C33.6726 120.213 33.8259 119.847 33.8259 119.38C33.8259 118.94 33.6726 118.593 33.3659 118.34C33.0726 118.087 32.5459 117.96 31.7859 117.96H28.9459V120.88H31.7859ZM38.4945 116.4H40.1345V118.4C40.4945 117.693 40.9945 117.153 41.6345 116.78C42.2879 116.393 43.0412 116.2 43.8945 116.2C45.2279 116.2 46.2945 116.64 47.0945 117.52C47.8945 118.387 48.2945 119.68 48.2945 121.4V121.8C48.2945 122.707 48.1879 123.5 47.9745 124.18C47.7612 124.847 47.4612 125.407 47.0745 125.86C46.6879 126.3 46.2212 126.633 45.6745 126.86C45.1412 127.087 44.5479 127.2 43.8945 127.2C42.9879 127.2 42.2279 127 41.6145 126.6C41.0145 126.2 40.5612 125.7 40.2545 125.1V131H38.4945V116.4ZM43.4945 125.64C43.9212 125.64 44.3212 125.56 44.6945 125.4C45.0679 125.227 45.3879 124.98 45.6545 124.66C45.9345 124.34 46.1479 123.94 46.2945 123.46C46.4545 122.98 46.5345 122.427 46.5345 121.8V121.4C46.5345 120.827 46.4545 120.313 46.2945 119.86C46.1479 119.407 45.9345 119.027 45.6545 118.72C45.3879 118.4 45.0679 118.16 44.6945 118C44.3212 117.84 43.9212 117.76 43.4945 117.76C43.0145 117.76 42.5745 117.84 42.1745 118C41.7745 118.147 41.4345 118.36 41.1545 118.64C40.8745 118.907 40.6545 119.227 40.4945 119.6C40.3345 119.973 40.2545 120.373 40.2545 120.8V122.4C40.2545 122.88 40.3345 123.32 40.4945 123.72C40.6545 124.12 40.8745 124.46 41.1545 124.74C41.4345 125.02 41.7745 125.24 42.1745 125.4C42.5745 125.56 43.0145 125.64 43.4945 125.64ZM55.1992 127.2C54.5192 127.2 53.8726 127.093 53.2592 126.88C52.6459 126.667 52.1059 126.34 51.6392 125.9C51.1726 125.447 50.7992 124.88 50.5192 124.2C50.2392 123.52 50.0992 122.72 50.0992 121.8V121.4C50.0992 120.52 50.2326 119.76 50.4992 119.12C50.7659 118.467 51.1192 117.927 51.5592 117.5C52.0126 117.06 52.5326 116.733 53.1192 116.52C53.7192 116.307 54.3459 116.2 54.9992 116.2C56.5592 116.2 57.7659 116.627 58.6192 117.48C59.4726 118.333 59.8992 119.54 59.8992 121.1V122.22H51.8592C51.8592 122.847 51.9592 123.373 52.1592 123.8C52.3592 124.227 52.6192 124.573 52.9392 124.84C53.2592 125.107 53.6126 125.3 53.9992 125.42C54.3992 125.54 54.7992 125.6 55.1992 125.6C55.9992 125.6 56.6126 125.467 57.0392 125.2C57.4792 124.933 57.7926 124.567 57.9792 124.1H59.6992C59.5926 124.607 59.3992 125.053 59.1192 125.44C58.8526 125.827 58.5192 126.153 58.1192 126.42C57.7326 126.673 57.2859 126.867 56.7792 127C56.2859 127.133 55.7592 127.2 55.1992 127.2ZM55.0992 117.8C54.6859 117.8 54.2859 117.86 53.8992 117.98C53.5126 118.087 53.1659 118.267 52.8592 118.52C52.5659 118.76 52.3259 119.067 52.1392 119.44C51.9526 119.813 51.8592 120.26 51.8592 120.78H58.2392C58.2259 120.233 58.1326 119.773 57.9592 119.4C57.7992 119.013 57.5792 118.707 57.2992 118.48C57.0192 118.24 56.6859 118.067 56.2992 117.96C55.9259 117.853 55.5259 117.8 55.0992 117.8ZM62.4008 116.4H64.2808L68.0608 123L71.8408 116.4H73.6008V127H71.8408V119.3L68.7008 124.7H67.3008L64.1608 119.3V127H62.4008V116.4ZM81.1953 127.2C80.5153 127.2 79.8686 127.093 79.2553 126.88C78.642 126.667 78.102 126.34 77.6353 125.9C77.1686 125.447 76.7953 124.88 76.5153 124.2C76.2353 123.52 76.0953 122.72 76.0953 121.8V121.4C76.0953 120.52 76.2286 119.76 76.4953 119.12C76.762 118.467 77.1153 117.927 77.5553 117.5C78.0086 117.06 78.5286 116.733 79.1153 116.52C79.7153 116.307 80.342 116.2 80.9953 116.2C82.5553 116.2 83.762 116.627 84.6153 117.48C85.4686 118.333 85.8953 119.54 85.8953 121.1V122.22H77.8553C77.8553 122.847 77.9553 123.373 78.1553 123.8C78.3553 124.227 78.6153 124.573 78.9353 124.84C79.2553 125.107 79.6086 125.3 79.9953 125.42C80.3953 125.54 80.7953 125.6 81.1953 125.6C81.9953 125.6 82.6086 125.467 83.0353 125.2C83.4753 124.933 83.7886 124.567 83.9753 124.1H85.6953C85.5886 124.607 85.3953 125.053 85.1153 125.44C84.8486 125.827 84.5153 126.153 84.1153 126.42C83.7286 126.673 83.282 126.867 82.7753 127C82.282 127.133 81.7553 127.2 81.1953 127.2ZM81.0953 117.8C80.682 117.8 80.282 117.86 79.8953 117.98C79.5086 118.087 79.162 118.267 78.8553 118.52C78.562 118.76 78.322 119.067 78.1353 119.44C77.9486 119.813 77.8553 120.26 77.8553 120.78H84.2353C84.222 120.233 84.1286 119.773 83.9553 119.4C83.7953 119.013 83.5753 118.707 83.2953 118.48C83.0153 118.24 82.682 118.067 82.2953 117.96C81.922 117.853 81.522 117.8 81.0953 117.8ZM88.3969 116.4H90.1569V120.82H95.6369V116.4H97.3969V127H95.6369V122.38H90.1569V127H88.3969V116.4ZM100.604 116.4H102.364V120.82H107.844V116.4H109.604V127H107.844V122.38H102.364V127H100.604V116.4ZM117.211 127.2C116.531 127.2 115.884 127.093 115.271 126.88C114.658 126.653 114.118 126.32 113.651 125.88C113.184 125.427 112.811 124.86 112.531 124.18C112.251 123.5 112.111 122.707 112.111 121.8V121.4C112.111 120.547 112.251 119.793 112.531 119.14C112.811 118.487 113.184 117.947 113.651 117.52C114.118 117.08 114.658 116.753 115.271 116.54C115.884 116.313 116.531 116.2 117.211 116.2C117.891 116.2 118.538 116.313 119.151 116.54C119.764 116.753 120.304 117.08 120.771 117.52C121.238 117.947 121.611 118.487 121.891 119.14C122.171 119.793 122.311 120.547 122.311 121.4V121.8C122.311 122.707 122.171 123.5 121.891 124.18C121.611 124.86 121.238 125.427 120.771 125.88C120.304 126.32 119.764 126.653 119.151 126.88C118.538 127.093 117.891 127.2 117.211 127.2ZM117.211 125.6C117.611 125.6 118.011 125.533 118.411 125.4C118.811 125.253 119.164 125.033 119.471 124.74C119.778 124.433 120.024 124.04 120.211 123.56C120.411 123.08 120.511 122.493 120.511 121.8V121.4C120.511 120.76 120.411 120.213 120.211 119.76C120.024 119.307 119.778 118.933 119.471 118.64C119.164 118.347 118.811 118.133 118.411 118C118.011 117.867 117.611 117.8 117.211 117.8C116.811 117.8 116.411 117.867 116.011 118C115.611 118.133 115.258 118.347 114.951 118.64C114.644 118.933 114.391 119.307 114.191 119.76C114.004 120.213 113.911 120.76 113.911 121.4V121.8C113.911 122.493 114.004 123.08 114.191 123.56C114.391 124.04 114.644 124.433 114.951 124.74C115.258 125.033 115.611 125.253 116.011 125.4C116.411 125.533 116.811 125.6 117.211 125.6ZM129.203 127.2C128.523 127.2 127.876 127.093 127.263 126.88C126.65 126.667 126.11 126.34 125.643 125.9C125.176 125.447 124.803 124.88 124.523 124.2C124.243 123.52 124.103 122.72 124.103 121.8V121.4C124.103 120.52 124.236 119.76 124.503 119.12C124.77 118.467 125.123 117.927 125.563 117.5C126.016 117.06 126.536 116.733 127.123 116.52C127.723 116.307 128.35 116.2 129.003 116.2C130.563 116.2 131.77 116.627 132.623 117.48C133.476 118.333 133.903 119.54 133.903 121.1V122.22H125.863C125.863 122.847 125.963 123.373 126.163 123.8C126.363 124.227 126.623 124.573 126.943 124.84C127.263 125.107 127.616 125.3 128.003 125.42C128.403 125.54 128.803 125.6 129.203 125.6C130.003 125.6 130.616 125.467 131.043 125.2C131.483 124.933 131.796 124.567 131.983 124.1H133.703C133.596 124.607 133.403 125.053 133.123 125.44C132.856 125.827 132.523 126.153 132.123 126.42C131.736 126.673 131.29 126.867 130.783 127C130.29 127.133 129.763 127.2 129.203 127.2ZM129.103 117.8C128.69 117.8 128.29 117.86 127.903 117.98C127.516 118.087 127.17 118.267 126.863 118.52C126.57 118.76 126.33 119.067 126.143 119.44C125.956 119.813 125.863 120.26 125.863 120.78H132.243C132.23 120.233 132.136 119.773 131.963 119.4C131.803 119.013 131.583 118.707 131.303 118.48C131.023 118.24 130.69 118.067 130.303 117.96C129.93 117.853 129.53 117.8 129.103 117.8ZM141.405 116.4H143.165V120.82H148.645V116.4H150.405V127H148.645V122.38H143.165V127H141.405V116.4ZM158.012 127.2C157.332 127.2 156.685 127.093 156.072 126.88C155.458 126.667 154.918 126.34 154.452 125.9C153.985 125.447 153.612 124.88 153.332 124.2C153.052 123.52 152.912 122.72 152.912 121.8V121.4C152.912 120.52 153.045 119.76 153.312 119.12C153.578 118.467 153.932 117.927 154.372 117.5C154.825 117.06 155.345 116.733 155.932 116.52C156.532 116.307 157.158 116.2 157.812 116.2C159.372 116.2 160.578 116.627 161.432 117.48C162.285 118.333 162.712 119.54 162.712 121.1V122.22H154.672C154.672 122.847 154.772 123.373 154.972 123.8C155.172 124.227 155.432 124.573 155.752 124.84C156.072 125.107 156.425 125.3 156.812 125.42C157.212 125.54 157.612 125.6 158.012 125.6C158.812 125.6 159.425 125.467 159.852 125.2C160.292 124.933 160.605 124.567 160.792 124.1H162.512C162.405 124.607 162.212 125.053 161.932 125.44C161.665 125.827 161.332 126.153 160.932 126.42C160.545 126.673 160.098 126.867 159.592 127C159.098 127.133 158.572 127.2 158.012 127.2ZM157.912 117.8C157.498 117.8 157.098 117.86 156.712 117.98C156.325 118.087 155.978 118.267 155.672 118.52C155.378 118.76 155.138 119.067 154.952 119.44C154.765 119.813 154.672 120.26 154.672 120.78H161.052C161.038 120.233 160.945 119.773 160.772 119.4C160.612 119.013 160.392 118.707 160.112 118.48C159.832 118.24 159.498 118.067 159.112 117.96C158.738 117.853 158.338 117.8 157.912 117.8ZM168.813 127.2C167.48 127.2 166.433 126.92 165.673 126.36C164.913 125.8 164.493 125.013 164.413 124H166.173C166.267 124.52 166.54 124.92 166.993 125.2C167.46 125.467 168.067 125.6 168.813 125.6C169.733 125.6 170.4 125.447 170.813 125.14C171.24 124.82 171.453 124.44 171.453 124C171.453 123.48 171.28 123.073 170.933 122.78C170.587 122.473 169.987 122.32 169.133 122.32H167.313V120.88H169.013C169.747 120.88 170.267 120.74 170.573 120.46C170.893 120.18 171.053 119.787 171.053 119.28C171.053 118.88 170.867 118.533 170.493 118.24C170.12 117.947 169.56 117.8 168.813 117.8C168 117.8 167.407 117.933 167.033 118.2C166.673 118.453 166.453 118.82 166.373 119.3H164.613C164.653 118.86 164.773 118.453 164.973 118.08C165.187 117.693 165.473 117.36 165.833 117.08C166.193 116.8 166.62 116.587 167.113 116.44C167.62 116.28 168.187 116.2 168.813 116.2C169.493 116.2 170.08 116.28 170.573 116.44C171.08 116.587 171.5 116.8 171.833 117.08C172.167 117.347 172.413 117.667 172.573 118.04C172.733 118.413 172.813 118.827 172.813 119.28C172.813 119.787 172.687 120.233 172.433 120.62C172.18 120.993 171.773 121.287 171.213 121.5C171.96 121.7 172.48 122.02 172.773 122.46C173.067 122.9 173.213 123.413 173.213 124C173.213 124.44 173.12 124.853 172.933 125.24C172.747 125.627 172.467 125.967 172.093 126.26C171.733 126.54 171.273 126.767 170.713 126.94C170.167 127.113 169.533 127.2 168.813 127.2ZM178.741 127.2C178.154 127.2 177.634 127.12 177.181 126.96C176.741 126.787 176.368 126.553 176.061 126.26C175.754 125.967 175.521 125.62 175.361 125.22C175.201 124.82 175.121 124.38 175.121 123.9C175.121 122.847 175.428 122.087 176.041 121.62C176.668 121.153 177.561 120.92 178.721 120.92H182.161V120.2C182.161 119.293 181.954 118.667 181.541 118.32C181.141 117.973 180.534 117.8 179.721 117.8C178.961 117.8 178.408 117.947 178.061 118.24C177.714 118.52 177.521 118.84 177.481 119.2H175.721C175.748 118.773 175.861 118.38 176.061 118.02C176.274 117.647 176.554 117.327 176.901 117.06C177.261 116.793 177.688 116.587 178.181 116.44C178.674 116.28 179.221 116.2 179.821 116.2C181.074 116.2 182.068 116.5 182.801 117.1C183.548 117.687 183.921 118.653 183.921 120V124.3C183.921 124.86 183.921 125.353 183.921 125.78C183.934 126.193 183.968 126.6 184.021 127H182.481C182.441 126.693 182.414 126.407 182.401 126.14C182.388 125.86 182.381 125.547 182.381 125.2C182.101 125.76 181.648 126.233 181.021 126.62C180.394 127.007 179.634 127.2 178.741 127.2ZM179.121 125.6C179.534 125.6 179.921 125.547 180.281 125.44C180.654 125.32 180.981 125.153 181.261 124.94C181.541 124.713 181.761 124.44 181.921 124.12C182.081 123.8 182.161 123.427 182.161 123V122.28H179.021C178.368 122.28 177.854 122.413 177.481 122.68C177.108 122.933 176.921 123.34 176.921 123.9C176.921 124.393 177.094 124.8 177.441 125.12C177.801 125.44 178.361 125.6 179.121 125.6ZM187.03 116.4H191.63C192.936 116.4 193.896 116.673 194.51 117.22C195.123 117.753 195.43 118.447 195.43 119.3C195.43 119.527 195.39 119.76 195.31 120C195.23 120.227 195.116 120.44 194.97 120.64C194.836 120.84 194.67 121.013 194.47 121.16C194.283 121.307 194.07 121.42 193.83 121.5C194.483 121.66 194.976 121.967 195.31 122.42C195.656 122.86 195.83 123.38 195.83 123.98C195.83 124.9 195.523 125.633 194.91 126.18C194.296 126.727 193.336 127 192.03 127H187.03V116.4ZM192.03 125.44C192.776 125.44 193.303 125.307 193.61 125.04C193.916 124.773 194.07 124.393 194.07 123.9C194.07 123.393 193.916 123.007 193.61 122.74C193.303 122.46 192.776 122.32 192.03 122.32H188.79V125.44H192.03ZM191.63 120.88C192.39 120.88 192.916 120.747 193.21 120.48C193.516 120.213 193.67 119.847 193.67 119.38C193.67 118.94 193.516 118.593 193.21 118.34C192.916 118.087 192.39 117.96 191.63 117.96H188.79V120.88H191.63ZM198.338 116.4H200.098V124.4L205.578 116.4H207.338V127H205.578V119L200.098 127H198.338V116.4ZM214.645 127.2C213.965 127.2 213.332 127.093 212.745 126.88C212.159 126.653 211.652 126.32 211.225 125.88C210.799 125.427 210.459 124.86 210.205 124.18C209.965 123.5 209.845 122.707 209.845 121.8V121.4C209.845 120.547 209.979 119.793 210.245 119.14C210.512 118.487 210.865 117.947 211.305 117.52C211.745 117.08 212.252 116.753 212.825 116.54C213.412 116.313 214.019 116.2 214.645 116.2C215.272 116.2 215.832 116.287 216.325 116.46C216.832 116.633 217.265 116.873 217.625 117.18C217.999 117.487 218.299 117.847 218.525 118.26C218.765 118.673 218.939 119.12 219.045 119.6H217.245C217.139 119.347 217.012 119.113 216.865 118.9C216.732 118.673 216.559 118.48 216.345 118.32C216.145 118.16 215.905 118.033 215.625 117.94C215.345 117.847 215.019 117.8 214.645 117.8C214.259 117.8 213.885 117.873 213.525 118.02C213.165 118.153 212.845 118.367 212.565 118.66C212.285 118.94 212.059 119.307 211.885 119.76C211.725 120.213 211.645 120.76 211.645 121.4V121.8C211.645 122.48 211.725 123.067 211.885 123.56C212.059 124.04 212.285 124.433 212.565 124.74C212.845 125.033 213.165 125.253 213.525 125.4C213.885 125.533 214.259 125.6 214.645 125.6C215.299 125.6 215.845 125.44 216.285 125.12C216.739 124.8 217.059 124.36 217.245 123.8H219.045C218.792 124.853 218.272 125.687 217.485 126.3C216.699 126.9 215.752 127.2 214.645 127.2ZM221.444 116.4H223.204V124.4L228.684 116.4H230.444V127H228.684V119L223.204 127H221.444V116.4ZM233.651 116.4H235.531L239.311 123L243.091 116.4H244.851V127H243.091V119.3L239.951 124.7H238.551L235.411 119.3V127H233.651V116.4ZM252.445 127.2C251.765 127.2 251.119 127.093 250.505 126.88C249.892 126.653 249.352 126.32 248.885 125.88C248.419 125.427 248.045 124.86 247.765 124.18C247.485 123.5 247.345 122.707 247.345 121.8V121.4C247.345 120.547 247.485 119.793 247.765 119.14C248.045 118.487 248.419 117.947 248.885 117.52C249.352 117.08 249.892 116.753 250.505 116.54C251.119 116.313 251.765 116.2 252.445 116.2C253.125 116.2 253.772 116.313 254.385 116.54C254.999 116.753 255.539 117.08 256.005 117.52C256.472 117.947 256.845 118.487 257.125 119.14C257.405 119.793 257.545 120.547 257.545 121.4V121.8C257.545 122.707 257.405 123.5 257.125 124.18C256.845 124.86 256.472 125.427 256.005 125.88C255.539 126.32 254.999 126.653 254.385 126.88C253.772 127.093 253.125 127.2 252.445 127.2ZM252.445 125.6C252.845 125.6 253.245 125.533 253.645 125.4C254.045 125.253 254.399 125.033 254.705 124.74C255.012 124.433 255.259 124.04 255.445 123.56C255.645 123.08 255.745 122.493 255.745 121.8V121.4C255.745 120.76 255.645 120.213 255.445 119.76C255.259 119.307 255.012 118.933 254.705 118.64C254.399 118.347 254.045 118.133 253.645 118C253.245 117.867 252.845 117.8 252.445 117.8C252.045 117.8 251.645 117.867 251.245 118C250.845 118.133 250.492 118.347 250.185 118.64C249.879 118.933 249.625 119.307 249.425 119.76C249.239 120.213 249.145 120.76 249.145 121.4V121.8C249.145 122.493 249.239 123.08 249.425 123.56C249.625 124.04 249.879 124.433 250.185 124.74C250.492 125.033 250.845 125.253 251.245 125.4C251.645 125.533 252.045 125.6 252.445 125.6ZM264.438 127.2C263.758 127.2 263.111 127.093 262.498 126.88C261.884 126.667 261.344 126.34 260.878 125.9C260.411 125.447 260.038 124.88 259.757 124.2C259.478 123.52 259.338 122.72 259.338 121.8V121.4C259.338 120.52 259.471 119.76 259.738 119.12C260.004 118.467 260.358 117.927 260.798 117.5C261.251 117.06 261.771 116.733 262.358 116.52C262.958 116.307 263.584 116.2 264.238 116.2C265.798 116.2 267.004 116.627 267.858 117.48C268.711 118.333 269.138 119.54 269.138 121.1V122.22H261.098C261.098 122.847 261.198 123.373 261.398 123.8C261.598 124.227 261.858 124.573 262.178 124.84C262.498 125.107 262.851 125.3 263.238 125.42C263.638 125.54 264.038 125.6 264.438 125.6C265.238 125.6 265.851 125.467 266.278 125.2C266.718 124.933 267.031 124.567 267.218 124.1H268.938C268.831 124.607 268.638 125.053 268.358 125.44C268.091 125.827 267.758 126.153 267.358 126.42C266.971 126.673 266.524 126.867 266.018 127C265.524 127.133 264.998 127.2 264.438 127.2ZM264.338 117.8C263.924 117.8 263.524 117.86 263.138 117.98C262.751 118.087 262.404 118.267 262.098 118.52C261.804 118.76 261.564 119.067 261.377 119.44C261.191 119.813 261.098 120.26 261.098 120.78H267.478C267.464 120.233 267.371 119.773 267.198 119.4C267.038 119.013 266.818 118.707 266.538 118.48C266.258 118.24 265.924 118.067 265.538 117.96C265.164 117.853 264.764 117.8 264.338 117.8ZM276.639 116.4H278.519L282.299 123L286.079 116.4H287.839V127H286.079V119.3L282.939 124.7H281.539L278.399 119.3V127H276.639V116.4ZM295.434 127.2C294.754 127.2 294.107 127.093 293.494 126.88C292.88 126.667 292.34 126.34 291.874 125.9C291.407 125.447 291.034 124.88 290.754 124.2C290.474 123.52 290.334 122.72 290.334 121.8V121.4C290.334 120.52 290.467 119.76 290.734 119.12C291 118.467 291.354 117.927 291.794 117.5C292.247 117.06 292.767 116.733 293.354 116.52C293.954 116.307 294.58 116.2 295.234 116.2C296.794 116.2 298 116.627 298.854 117.48C299.707 118.333 300.134 119.54 300.134 121.1V122.22H292.094C292.094 122.847 292.194 123.373 292.394 123.8C292.594 124.227 292.854 124.573 293.174 124.84C293.494 125.107 293.847 125.3 294.234 125.42C294.634 125.54 295.034 125.6 295.434 125.6C296.234 125.6 296.847 125.467 297.274 125.2C297.714 124.933 298.027 124.567 298.214 124.1H299.934C299.827 124.607 299.634 125.053 299.354 125.44C299.087 125.827 298.754 126.153 298.354 126.42C297.967 126.673 297.52 126.867 297.014 127C296.52 127.133 295.994 127.2 295.434 127.2ZM295.334 117.8C294.92 117.8 294.52 117.86 294.134 117.98C293.747 118.087 293.4 118.267 293.094 118.52C292.8 118.76 292.56 119.067 292.374 119.44C292.187 119.813 292.094 120.26 292.094 120.78H298.474C298.46 120.233 298.367 119.773 298.194 119.4C298.034 119.013 297.814 118.707 297.534 118.48C297.254 118.24 296.92 118.067 296.534 117.96C296.16 117.853 295.76 117.8 295.334 117.8ZM301.24 125.44H302.54C302.687 125.24 302.82 124.933 302.94 124.52C303.06 124.107 303.167 123.62 303.26 123.06C303.353 122.5 303.42 121.893 303.46 121.24C303.513 120.573 303.54 119.893 303.54 119.2V116.4H310.94V125.44H312.44V129.5H310.76V127H302.92V129.5H301.24V125.44ZM309.18 125.44V117.96H305.26V119.6C305.26 120.16 305.24 120.72 305.2 121.28C305.16 121.827 305.1 122.353 305.02 122.86C304.94 123.353 304.84 123.827 304.72 124.28C304.613 124.72 304.487 125.107 304.34 125.44H309.18ZM314.549 116.4H316.309V124.4L321.789 116.4H323.549V127H321.789V119L316.309 127H314.549V116.4ZM329.776 127.2C329.19 127.2 328.67 127.12 328.216 126.96C327.776 126.787 327.403 126.553 327.096 126.26C326.79 125.967 326.556 125.62 326.396 125.22C326.236 124.82 326.156 124.38 326.156 123.9C326.156 122.847 326.463 122.087 327.076 121.62C327.703 121.153 328.596 120.92 329.756 120.92H333.196V120.2C333.196 119.293 332.99 118.667 332.576 118.32C332.176 117.973 331.57 117.8 330.756 117.8C329.996 117.8 329.443 117.947 329.096 118.24C328.75 118.52 328.556 118.84 328.516 119.2H326.756C326.783 118.773 326.896 118.38 327.096 118.02C327.31 117.647 327.59 117.327 327.936 117.06C328.296 116.793 328.723 116.587 329.216 116.44C329.71 116.28 330.256 116.2 330.856 116.2C332.11 116.2 333.103 116.5 333.836 117.1C334.583 117.687 334.956 118.653 334.956 120V124.3C334.956 124.86 334.956 125.353 334.956 125.78C334.97 126.193 335.003 126.6 335.056 127H333.516C333.476 126.693 333.45 126.407 333.436 126.14C333.423 125.86 333.416 125.547 333.416 125.2C333.136 125.76 332.683 126.233 332.056 126.62C331.43 127.007 330.67 127.2 329.776 127.2ZM330.156 125.6C330.57 125.6 330.956 125.547 331.316 125.44C331.69 125.32 332.016 125.153 332.296 124.94C332.576 124.713 332.796 124.44 332.956 124.12C333.116 123.8 333.196 123.427 333.196 123V122.28H330.056C329.403 122.28 328.89 122.413 328.516 122.68C328.143 122.933 327.956 123.34 327.956 123.9C327.956 124.393 328.13 124.8 328.476 125.12C328.836 125.44 329.396 125.6 330.156 125.6ZM6 154.2C5.32 154.2 4.67333 154.093 4.06 153.88C3.44667 153.653 2.90667 153.32 2.44 152.88C1.97333 152.427 1.6 151.86 1.32 151.18C1.04 150.5 0.9 149.707 0.9 148.8V148.4C0.9 147.547 1.04 146.793 1.32 146.14C1.6 145.487 1.97333 144.947 2.44 144.52C2.90667 144.08 3.44667 143.753 4.06 143.54C4.67333 143.313 5.32 143.2 6 143.2C6.68 143.2 7.32667 143.313 7.94 143.54C8.55333 143.753 9.09333 144.08 9.56 144.52C10.0267 144.947 10.4 145.487 10.68 146.14C10.96 146.793 11.1 147.547 11.1 148.4V148.8C11.1 149.707 10.96 150.5 10.68 151.18C10.4 151.86 10.0267 152.427 9.56 152.88C9.09333 153.32 8.55333 153.653 7.94 153.88C7.32667 154.093 6.68 154.2 6 154.2ZM6 152.6C6.4 152.6 6.8 152.533 7.2 152.4C7.6 152.253 7.95333 152.033 8.26 151.74C8.56667 151.433 8.81333 151.04 9 150.56C9.2 150.08 9.3 149.493 9.3 148.8V148.4C9.3 147.76 9.2 147.213 9 146.76C8.81333 146.307 8.56667 145.933 8.26 145.64C7.95333 145.347 7.6 145.133 7.2 145C6.8 144.867 6.4 144.8 6 144.8C5.6 144.8 5.2 144.867 4.8 145C4.4 145.133 4.04667 145.347 3.74 145.64C3.43333 145.933 3.18 146.307 2.98 146.76C2.79333 147.213 2.7 147.76 2.7 148.4V148.8C2.7 149.493 2.79333 150.08 2.98 150.56C3.18 151.04 3.43333 151.433 3.74 151.74C4.04667 152.033 4.4 152.253 4.8 152.4C5.2 152.533 5.6 152.6 6 152.6ZM22.6922 154.2C22.0122 154.2 21.3789 154.093 20.7922 153.88C20.2055 153.653 19.6989 153.32 19.2722 152.88C18.8455 152.427 18.5055 151.86 18.2522 151.18C18.0122 150.5 17.8922 149.707 17.8922 148.8V148.4C17.8922 147.547 18.0255 146.793 18.2922 146.14C18.5589 145.487 18.9122 144.947 19.3522 144.52C19.7922 144.08 20.2989 143.753 20.8722 143.54C21.4589 143.313 22.0655 143.2 22.6922 143.2C23.3189 143.2 23.8789 143.287 24.3722 143.46C24.8789 143.633 25.3122 143.873 25.6722 144.18C26.0455 144.487 26.3455 144.847 26.5722 145.26C26.8122 145.673 26.9855 146.12 27.0922 146.6H25.2922C25.1855 146.347 25.0589 146.113 24.9122 145.9C24.7789 145.673 24.6055 145.48 24.3922 145.32C24.1922 145.16 23.9522 145.033 23.6722 144.94C23.3922 144.847 23.0655 144.8 22.6922 144.8C22.3055 144.8 21.9322 144.873 21.5722 145.02C21.2122 145.153 20.8922 145.367 20.6122 145.66C20.3322 145.94 20.1055 146.307 19.9322 146.76C19.7722 147.213 19.6922 147.76 19.6922 148.4V148.8C19.6922 149.48 19.7722 150.067 19.9322 150.56C20.1055 151.04 20.3322 151.433 20.6122 151.74C20.8922 152.033 21.2122 152.253 21.5722 152.4C21.9322 152.533 22.3055 152.6 22.6922 152.6C23.3455 152.6 23.8922 152.44 24.3322 152.12C24.7855 151.8 25.1055 151.36 25.2922 150.8H27.0922C26.8389 151.853 26.3189 152.687 25.5322 153.3C24.7455 153.9 23.7989 154.2 22.6922 154.2ZM29.4906 143.4H31.2506V151.4L36.7306 143.4H38.4906V154H36.7306V146L31.2506 154H29.4906V143.4ZM46.0977 154.2C45.391 154.2 44.731 154.067 44.1177 153.8C43.5177 153.533 42.991 153.147 42.5377 152.64C42.0977 152.12 41.7443 151.487 41.4777 150.74C41.2243 149.993 41.0977 149.147 41.0977 148.2V147.8C41.0977 146.6 41.1843 145.533 41.3577 144.6C41.531 143.653 41.8243 142.853 42.2377 142.2C42.6643 141.533 43.2177 141.013 43.8977 140.64C44.591 140.267 45.4577 140.053 46.4977 140C47.3377 139.96 48.071 139.927 48.6977 139.9C49.3243 139.86 49.8577 139.727 50.2977 139.5V141.2C50.0843 141.32 49.691 141.413 49.1177 141.48C48.5577 141.547 47.7843 141.593 46.7977 141.62C46.1577 141.633 45.591 141.713 45.0977 141.86C44.6177 142.007 44.2043 142.24 43.8577 142.56C43.5243 142.88 43.2577 143.3 43.0577 143.82C42.871 144.327 42.751 144.953 42.6977 145.7C43.0177 144.993 43.511 144.433 44.1777 144.02C44.8443 143.607 45.6177 143.4 46.4977 143.4C47.1777 143.4 47.7977 143.52 48.3577 143.76C48.9177 143.987 49.3977 144.313 49.7977 144.74C50.211 145.167 50.531 145.693 50.7577 146.32C50.9843 146.933 51.0977 147.627 51.0977 148.4V148.8C51.0977 149.627 50.971 150.373 50.7177 151.04C50.4643 151.693 50.1177 152.26 49.6777 152.74C49.2377 153.207 48.711 153.567 48.0977 153.82C47.4843 154.073 46.8177 154.2 46.0977 154.2ZM46.0977 152.6C47.031 152.6 47.7977 152.28 48.3977 151.64C48.9977 150.987 49.2977 150.04 49.2977 148.8V148.4C49.2977 147.88 49.2177 147.413 49.0577 147C48.8977 146.587 48.6777 146.233 48.3977 145.94C48.1177 145.633 47.7777 145.4 47.3777 145.24C46.991 145.08 46.5643 145 46.0977 145C45.631 145 45.1977 145.08 44.7977 145.24C44.411 145.4 44.0777 145.633 43.7977 145.94C43.5177 146.233 43.2977 146.587 43.1377 147C42.9777 147.413 42.8977 147.88 42.8977 148.4V148.8C42.8977 149.387 42.9777 149.92 43.1377 150.4C43.311 150.867 43.5443 151.267 43.8377 151.6C44.131 151.92 44.471 152.167 44.8577 152.34C45.2443 152.513 45.6577 152.6 46.0977 152.6ZM53.5922 143.4H55.3522V151.4L60.8322 143.4H62.5922V154H60.8322V146L55.3522 154H53.5922V143.4ZM65.7992 143.4H67.4392V145.4C67.7992 144.693 68.2992 144.153 68.9392 143.78C69.5926 143.393 70.3459 143.2 71.1992 143.2C72.5326 143.2 73.5992 143.64 74.3992 144.52C75.1992 145.387 75.5992 146.68 75.5992 148.4V148.8C75.5992 149.707 75.4926 150.5 75.2792 151.18C75.0659 151.847 74.7659 152.407 74.3792 152.86C73.9926 153.3 73.5259 153.633 72.9792 153.86C72.4459 154.087 71.8526 154.2 71.1992 154.2C70.2926 154.2 69.5326 154 68.9192 153.6C68.3192 153.2 67.8659 152.7 67.5592 152.1V158H65.7992V143.4ZM70.7992 152.64C71.2259 152.64 71.6259 152.56 71.9992 152.4C72.3726 152.227 72.6926 151.98 72.9592 151.66C73.2392 151.34 73.4526 150.94 73.5992 150.46C73.7592 149.98 73.8392 149.427 73.8392 148.8V148.4C73.8392 147.827 73.7592 147.313 73.5992 146.86C73.4526 146.407 73.2392 146.027 72.9592 145.72C72.6926 145.4 72.3726 145.16 71.9992 145C71.6259 144.84 71.2259 144.76 70.7992 144.76C70.3192 144.76 69.8792 144.84 69.4792 145C69.0792 145.147 68.7392 145.36 68.4592 145.64C68.1792 145.907 67.9592 146.227 67.7992 146.6C67.6392 146.973 67.5592 147.373 67.5592 147.8V149.4C67.5592 149.88 67.6392 150.32 67.7992 150.72C67.9592 151.12 68.1792 151.46 68.4592 151.74C68.7392 152.02 69.0792 152.24 69.4792 152.4C69.8792 152.56 70.3192 152.64 70.7992 152.64ZM80.1839 149.8C79.3039 149.6 78.6706 149.24 78.2839 148.72C77.8972 148.187 77.7039 147.507 77.7039 146.68C77.7039 145.64 78.0172 144.833 78.6439 144.26C79.2839 143.687 80.3039 143.4 81.7039 143.4H86.3039V154H84.5439V149.96H81.8439L79.2639 154H77.3039L80.1839 149.8ZM79.4639 146.68C79.4639 147.24 79.6239 147.667 79.9439 147.96C80.2772 148.253 80.8306 148.4 81.6039 148.4H84.5439V144.96H81.6039C80.8306 144.96 80.2772 145.107 79.9439 145.4C79.6239 145.693 79.4639 146.12 79.4639 146.68ZM89.5102 143.4H91.2702V147.84H92.6702L96.6302 143.4H98.7102L94.1102 148.48L98.9102 154H96.6702L92.6702 149.36H91.2702V154H89.5102V143.4ZM103.839 154.2C103.252 154.2 102.732 154.12 102.279 153.96C101.839 153.787 101.465 153.553 101.159 153.26C100.852 152.967 100.619 152.62 100.459 152.22C100.299 151.82 100.219 151.38 100.219 150.9C100.219 149.847 100.525 149.087 101.139 148.62C101.765 148.153 102.659 147.92 103.819 147.92H107.259V147.2C107.259 146.293 107.052 145.667 106.639 145.32C106.239 144.973 105.632 144.8 104.819 144.8C104.059 144.8 103.505 144.947 103.159 145.24C102.812 145.52 102.619 145.84 102.579 146.2H100.819C100.845 145.773 100.959 145.38 101.159 145.02C101.372 144.647 101.652 144.327 101.999 144.06C102.359 143.793 102.785 143.587 103.279 143.44C103.772 143.28 104.319 143.2 104.919 143.2C106.172 143.2 107.165 143.5 107.899 144.1C108.645 144.687 109.019 145.653 109.019 147V151.3C109.019 151.86 109.019 152.353 109.019 152.78C109.032 153.193 109.065 153.6 109.119 154H107.579C107.539 153.693 107.512 153.407 107.499 153.14C107.485 152.86 107.479 152.547 107.479 152.2C107.199 152.76 106.745 153.233 106.119 153.62C105.492 154.007 104.732 154.2 103.839 154.2ZM104.219 152.6C104.632 152.6 105.019 152.547 105.379 152.44C105.752 152.32 106.079 152.153 106.359 151.94C106.639 151.713 106.859 151.44 107.019 151.12C107.179 150.8 107.259 150.427 107.259 150V149.28H104.119C103.465 149.28 102.952 149.413 102.579 149.68C102.205 149.933 102.019 150.34 102.019 150.9C102.019 151.393 102.192 151.8 102.539 152.12C102.899 152.44 103.459 152.6 104.219 152.6ZM115.007 148.62L111.227 143.4H113.267L116.067 147.26L118.867 143.4H120.827L117.047 148.52L121.027 154H118.947L115.987 149.86L113.027 154H111.027L115.007 148.62ZM128.123 143.4H129.883V151.4L135.363 143.4H137.123V154H135.363V146L129.883 154H128.123V143.4ZM145.33 143.4H147.09V151.4L152.57 143.4H154.33V154H152.57V146L147.09 154H145.33V143.4ZM160.418 148.62L156.638 143.4H158.678L161.478 147.26L164.278 143.4H166.238L162.458 148.52L166.438 154H164.358L161.398 149.86L158.438 154H156.438L160.418 148.62ZM177.634 154.2C176.954 154.2 176.32 154.093 175.734 153.88C175.147 153.653 174.64 153.32 174.214 152.88C173.787 152.427 173.447 151.86 173.194 151.18C172.954 150.5 172.834 149.707 172.834 148.8V148.4C172.834 147.547 172.967 146.793 173.234 146.14C173.5 145.487 173.854 144.947 174.294 144.52C174.734 144.08 175.24 143.753 175.814 143.54C176.4 143.313 177.007 143.2 177.634 143.2C178.26 143.2 178.82 143.287 179.314 143.46C179.82 143.633 180.254 143.873 180.614 144.18C180.987 144.487 181.287 144.847 181.514 145.26C181.754 145.673 181.927 146.12 182.034 146.6H180.234C180.127 146.347 180 146.113 179.854 145.9C179.72 145.673 179.547 145.48 179.334 145.32C179.134 145.16 178.894 145.033 178.614 144.94C178.334 144.847 178.007 144.8 177.634 144.8C177.247 144.8 176.874 144.873 176.514 145.02C176.154 145.153 175.834 145.367 175.554 145.66C175.274 145.94 175.047 146.307 174.874 146.76C174.714 147.213 174.634 147.76 174.634 148.4V148.8C174.634 149.48 174.714 150.067 174.874 150.56C175.047 151.04 175.274 151.433 175.554 151.74C175.834 152.033 176.154 152.253 176.514 152.4C176.874 152.533 177.247 152.6 177.634 152.6C178.287 152.6 178.834 152.44 179.274 152.12C179.727 151.8 180.047 151.36 180.234 150.8H182.034C181.78 151.853 181.26 152.687 180.474 153.3C179.687 153.9 178.74 154.2 177.634 154.2ZM188.832 154.2C188.152 154.2 187.505 154.093 186.892 153.88C186.279 153.653 185.739 153.32 185.272 152.88C184.805 152.427 184.432 151.86 184.152 151.18C183.872 150.5 183.732 149.707 183.732 148.8V148.4C183.732 147.547 183.872 146.793 184.152 146.14C184.432 145.487 184.805 144.947 185.272 144.52C185.739 144.08 186.279 143.753 186.892 143.54C187.505 143.313 188.152 143.2 188.832 143.2C189.512 143.2 190.159 143.313 190.772 143.54C191.385 143.753 191.925 144.08 192.392 144.52C192.859 144.947 193.232 145.487 193.512 146.14C193.792 146.793 193.932 147.547 193.932 148.4V148.8C193.932 149.707 193.792 150.5 193.512 151.18C193.232 151.86 192.859 152.427 192.392 152.88C191.925 153.32 191.385 153.653 190.772 153.88C190.159 154.093 189.512 154.2 188.832 154.2ZM188.832 152.6C189.232 152.6 189.632 152.533 190.032 152.4C190.432 152.253 190.785 152.033 191.092 151.74C191.399 151.433 191.645 151.04 191.832 150.56C192.032 150.08 192.132 149.493 192.132 148.8V148.4C192.132 147.76 192.032 147.213 191.832 146.76C191.645 146.307 191.399 145.933 191.092 145.64C190.785 145.347 190.432 145.133 190.032 145C189.632 144.867 189.232 144.8 188.832 144.8C188.432 144.8 188.032 144.867 187.632 145C187.232 145.133 186.879 145.347 186.572 145.64C186.265 145.933 186.012 146.307 185.812 146.76C185.625 147.213 185.532 147.76 185.532 148.4V148.8C185.532 149.493 185.625 150.08 185.812 150.56C186.012 151.04 186.265 151.433 186.572 151.74C186.879 152.033 187.232 152.253 187.632 152.4C188.032 152.533 188.432 152.6 188.832 152.6ZM200.524 154.2C199.844 154.2 199.211 154.093 198.624 153.88C198.038 153.653 197.531 153.32 197.104 152.88C196.678 152.427 196.338 151.86 196.084 151.18C195.844 150.5 195.724 149.707 195.724 148.8V148.4C195.724 147.547 195.858 146.793 196.124 146.14C196.391 145.487 196.744 144.947 197.184 144.52C197.624 144.08 198.131 143.753 198.704 143.54C199.291 143.313 199.898 143.2 200.524 143.2C201.151 143.2 201.711 143.287 202.204 143.46C202.711 143.633 203.144 143.873 203.504 144.18C203.878 144.487 204.178 144.847 204.404 145.26C204.644 145.673 204.818 146.12 204.924 146.6H203.124C203.018 146.347 202.891 146.113 202.744 145.9C202.611 145.673 202.438 145.48 202.224 145.32C202.024 145.16 201.784 145.033 201.504 144.94C201.224 144.847 200.898 144.8 200.524 144.8C200.138 144.8 199.764 144.873 199.404 145.02C199.044 145.153 198.724 145.367 198.444 145.66C198.164 145.94 197.938 146.307 197.764 146.76C197.604 147.213 197.524 147.76 197.524 148.4V148.8C197.524 149.48 197.604 150.067 197.764 150.56C197.938 151.04 198.164 151.433 198.444 151.74C198.724 152.033 199.044 152.253 199.404 152.4C199.764 152.533 200.138 152.6 200.524 152.6C201.178 152.6 201.724 152.44 202.164 152.12C202.618 151.8 202.938 151.36 203.124 150.8H204.924C204.671 151.853 204.151 152.687 203.364 153.3C202.578 153.9 201.631 154.2 200.524 154.2ZM211.723 154.2C211.043 154.2 210.396 154.093 209.783 153.88C209.169 153.667 208.629 153.34 208.163 152.9C207.696 152.447 207.323 151.88 207.043 151.2C206.763 150.52 206.623 149.72 206.623 148.8V148.4C206.623 147.52 206.756 146.76 207.023 146.12C207.289 145.467 207.643 144.927 208.083 144.5C208.536 144.06 209.056 143.733 209.643 143.52C210.243 143.307 210.869 143.2 211.523 143.2C213.083 143.2 214.289 143.627 215.143 144.48C215.996 145.333 216.423 146.54 216.423 148.1V149.22H208.383C208.383 149.847 208.483 150.373 208.683 150.8C208.883 151.227 209.143 151.573 209.463 151.84C209.783 152.107 210.136 152.3 210.523 152.42C210.923 152.54 211.323 152.6 211.723 152.6C212.523 152.6 213.136 152.467 213.563 152.2C214.003 151.933 214.316 151.567 214.503 151.1H216.223C216.116 151.607 215.923 152.053 215.643 152.44C215.376 152.827 215.043 153.153 214.643 153.42C214.256 153.673 213.809 153.867 213.303 154C212.809 154.133 212.283 154.2 211.723 154.2ZM211.623 144.8C211.209 144.8 210.809 144.86 210.423 144.98C210.036 145.087 209.689 145.267 209.383 145.52C209.089 145.76 208.849 146.067 208.663 146.44C208.476 146.813 208.383 147.26 208.383 147.78H214.763C214.749 147.233 214.656 146.773 214.483 146.4C214.323 146.013 214.103 145.707 213.823 145.48C213.543 145.24 213.209 145.067 212.823 144.96C212.449 144.853 212.049 144.8 211.623 144.8ZM217.529 152.44H218.829C218.976 152.24 219.109 151.933 219.229 151.52C219.349 151.107 219.456 150.62 219.549 150.06C219.642 149.5 219.709 148.893 219.749 148.24C219.802 147.573 219.829 146.893 219.829 146.2V143.4H227.229V152.44H228.729V156.5H227.049V154H219.209V156.5H217.529V152.44ZM225.469 152.44V144.96H221.549V146.6C221.549 147.16 221.529 147.72 221.489 148.28C221.449 148.827 221.389 149.353 221.309 149.86C221.229 150.353 221.129 150.827 221.009 151.28C220.902 151.72 220.776 152.107 220.629 152.44H225.469ZM233.114 149.8C232.234 149.6 231.6 149.24 231.214 148.72C230.827 148.187 230.634 147.507 230.634 146.68C230.634 145.64 230.947 144.833 231.574 144.26C232.214 143.687 233.234 143.4 234.634 143.4H239.234V154H237.474V149.96H234.774L232.194 154H230.234L233.114 149.8ZM232.394 146.68C232.394 147.24 232.554 147.667 232.874 147.96C233.207 148.253 233.76 148.4 234.534 148.4H237.474V144.96H234.534C233.76 144.96 233.207 145.107 232.874 145.4C232.554 145.693 232.394 146.12 232.394 146.68ZM245.32 148.62L241.54 143.4H243.58L246.38 147.26L249.18 143.4H251.14L247.36 148.52L251.34 154H249.26L246.3 149.86L243.34 154H241.34L245.32 148.62Z" fill="white"/>
<defs>
<clipPath id="clip0_5066_3282">
<rect width="453.965" height="42.5376" fill="white"/>
</clipPath>
</defs>
</svg>
