<svg width="454" height="43" viewBox="0 0 454 43" fill="none" xmlns="http://www.w3.org/2000/svg">
<g clip-path="url(#clip0_1067_10604)">
<path d="M38.8921 29.855C38.8921 39.0648 32.1575 42.5184 17.1916 42.5184C12.5867 42.5184 5.42993 41.6167 5.42993 41.6167L0 42.5184V0.90179L5.42993 0H20.7987C27.8787 0 35.2657 2.32163 35.2657 9.30571C35.2657 14.9275 32.2534 17.1916 29.2602 17.8631C34.7477 19.2638 38.8921 22.9285 38.8921 29.855ZM5.42993 0.90179V20.722C11.7808 20.2423 16.1555 17.4218 22.7366 17.2108H22.6215C27.2648 17.1916 29.855 13.6995 29.855 9.05628C29.855 3.24261 24.5402 0.90179 19.8969 0.90179H5.42993ZM18.0934 41.6167C29.6056 41.6167 33.4622 35.6111 33.4622 29.855C33.4622 22.6791 28.8957 18.5155 23.5041 18.0934C16.4625 18.0934 12.0303 21.1441 5.41074 21.643V40.7149C5.41074 40.7149 13.4693 41.6167 18.0742 41.6167H18.0934Z" fill="white"/>
<path d="M128.073 20.8179C128.073 35.2849 118.115 42.5184 106.373 42.5184C94.6304 42.5184 84.6724 35.2849 84.6724 20.8179C84.6724 6.35091 94.6112 0 106.373 0C118.135 0 128.073 6.33172 128.073 20.7987V20.8179ZM122.643 20.8179C122.643 6.35091 112.685 0.920977 104.55 0.920977C93.6903 0.920977 90.0831 10.879 90.0831 20.8179C90.0831 35.2849 100.041 41.6167 108.176 41.6167C119.036 41.6167 122.643 30.7568 122.643 20.8179Z" fill="white"/>
<path d="M211.748 36.3211C207.469 40.4655 201.675 42.7104 195.708 42.4993C183.946 42.4993 174.007 35.2658 174.007 20.7988C174.007 6.33176 183.965 4.00813e-05 195.708 4.00813e-05C200.485 -0.0958951 205.167 1.28557 209.139 3.95257L207.565 7.61729C204.265 3.43452 199.238 0.959391 193.904 0.90183C183.044 0.90183 179.437 10.8599 179.437 20.7988C179.437 35.2658 189.395 41.5975 197.53 41.5975C202.941 41.4632 207.834 38.3357 210.194 33.4622L211.767 36.3211H211.748Z" fill="white"/>
<path d="M288.995 0V5.42993L283.565 6.33172V1.82277H274.528V41.6167L269.098 42.5184V1.82277H260.061V5.44911L254.631 6.3509V0.90179L260.042 0V0.90179H269.079L274.528 0V0.90179H283.565L288.995 0Z" fill="white"/>
<path d="M373.917 20.8179C373.917 35.2849 363.959 42.5184 352.216 42.5184C340.474 42.5184 330.516 35.2849 330.516 20.8179C330.516 6.35091 340.435 0 352.197 0C363.959 0 373.898 6.33172 373.898 20.7987L373.917 20.8179ZM368.487 20.8179C368.487 6.35091 358.529 0.920977 350.394 0.920977C339.534 0.920977 335.927 10.879 335.927 20.8179C335.927 35.2849 345.885 41.6167 354.02 41.6167C364.88 41.6167 368.487 30.7568 368.487 20.8179Z" fill="white"/>
<path d="M453.351 41.6167L449.725 42.5184C449.725 36.2635 445.312 19.4365 432.111 19.0143L427.103 23.2163V41.6167L421.673 42.5184V0.90179L427.122 0V22.0267L453.37 0L453.946 0.690733L433.185 18.1126C447.192 18.573 453.332 33.5965 453.332 41.6167H453.351Z" fill="white"/>
</g>
<defs>
<clipPath id="clip0_1067_10604">
<rect width="453.965" height="42.5376" fill="white"/>
</clipPath>
</defs>
</svg>
