<svg width="519" height="52" viewBox="0 0 519 52" fill="none" xmlns="http://www.w3.org/2000/svg">
<g clip-path="url(#clip0_1067_10596)">
<path d="M33.4715 20.061C33.4715 27.3542 26.236 31.0105 19.9025 31.0105H5.43144V51.0715L0 51.9807V10.0402L5.43144 9.13098H19.0004C26.0824 9.13098 33.4715 12.7872 33.4715 20.0804V20.061ZM19.9025 30.1012C26.236 30.1012 28.04 24.7619 28.04 20.061C28.04 17.3914 27.0037 14.8378 25.1228 12.9613C23.2611 11.0849 20.7278 10.0209 18.0792 10.0209H5.43144V30.0819H19.9025V30.1012Z" fill="white"/>
<path d="M112.813 9.59521L90.588 48.4018C89.6283 50.1428 87.9778 51.4003 86.0394 51.8452C84.1009 52.2902 82.0857 51.8646 80.4736 50.7038L81.318 48.8854C83.1797 50.4137 87.7475 52.1354 89.8011 47.9568L96.1729 36.8333L92.5648 39.7931L76.8846 12.6324L81.1453 9.15027L96.6528 36.0208L112.045 9.16961L112.832 9.6339L112.813 9.59521Z" fill="white"/>
<path d="M191.405 45.7515C187.126 49.93 181.329 52.1934 175.361 51.9806C163.596 51.9806 153.654 44.6875 153.654 30.1012C153.654 15.5149 163.615 9.13094 175.361 9.13094C180.14 9.03421 184.822 10.4271 188.795 13.1161L187.222 16.811C183.92 12.5937 178.892 10.0982 173.557 10.0402C162.694 10.0402 159.085 20.0803 159.085 30.1012C159.085 44.6875 169.046 51.0714 177.184 51.0714C182.596 50.936 187.49 47.7827 189.851 42.869L191.425 45.7515H191.405Z" fill="white"/>
<path d="M273.894 45.7515C269.614 49.93 263.818 52.1934 257.849 51.9806C246.085 51.9806 236.143 44.6875 236.143 30.1012C236.143 15.5149 246.104 9.13094 257.849 9.13094C262.628 9.03421 267.311 10.4271 271.284 13.1161L269.71 16.811C266.409 12.5937 261.381 10.0982 256.045 10.0402C245.182 10.0402 241.574 20.0803 241.574 30.1012C241.574 44.6875 251.535 51.0714 259.673 51.0714C265.085 50.936 269.979 47.7827 272.34 42.869L273.913 45.7515H273.894Z" fill="white"/>
<path d="M351.662 51.0715L348.034 51.9807C348.034 45.6741 343.62 28.7084 330.416 28.2828L325.407 32.5194V51.0715L319.975 51.9807V10.0402L325.407 9.13098V31.3393L351.662 9.13098L352.237 9.82741L331.471 27.3929C345.482 27.8572 351.623 43.0045 351.623 51.0908L351.662 51.0715Z" fill="white"/>
<path d="M434.419 9.11157V51.0714L428.988 51.9806V19.2485L404.556 50.9166V51.0714L399.125 51.9806V10.0401L404.556 9.13092V49.4271L428.988 17.7589V10.0401L434.419 9.13092V9.11157Z" fill="white"/>
<path d="M519 9.11155V51.0714L513.569 51.9806V19.2485L489.137 50.9166V51.0714L483.705 51.9806V10.0401L489.137 9.13089V49.427L513.569 17.7589V10.0401L519 9.13089V9.11155ZM509.039 3.65619C504.241 4.39131 499.405 4.68149 494.568 4.56542V2.74697C504.529 2.74697 508.137 0.0192871 508.137 0.0192871L509.039 3.67554V3.65619Z" fill="white"/>
</g>
<defs>
<clipPath id="clip0_1067_10596">
<rect width="519" height="52" fill="white"/>
</clipPath>
</defs>
</svg>
