<svg width="29" height="17" viewBox="0 0 29 17" fill="none" xmlns="http://www.w3.org/2000/svg">
<path d="M28.3391 1.15281C28.5383 0.48875 28.3391 0 27.3808 0H24.2099C23.4023 0 23.0309 0.419687 22.8317 0.887187C22.8317 0.887187 21.2166 4.77063 18.934 7.28875C18.1964 8.01656 17.8573 8.25031 17.4535 8.25031C17.2543 8.25031 16.9475 8.01656 16.9475 7.3525V1.15281C16.9475 0.355937 16.7213 0 16.0538 0H11.0686C10.5625 0 10.2611 0.371875 10.2611 0.717188C10.2611 1.47156 11.4024 1.64688 11.5208 3.77188V8.38313C11.5208 9.3925 11.3378 9.57844 10.934 9.57844C9.8573 9.57844 7.24089 5.67906 5.69043 1.21656C5.37818 0.350625 5.07132 0 4.2584 0H1.08748C0.183041 0 0 0.419687 0 0.887187C0 1.71594 1.07671 5.83313 5.0121 11.2731C7.63389 14.9866 11.327 17 14.6864 17C16.7052 17 16.9528 16.5538 16.9528 15.7834C16.9528 12.2347 16.7698 11.9 17.7819 11.9C18.2503 11.9 19.0578 12.1338 20.9421 13.9241C23.0955 16.0491 23.4508 17 24.6567 17H27.8276C28.7321 17 29.1897 16.5537 28.9259 15.6719C28.3229 13.8178 24.2476 10.0034 24.0645 9.74844C23.5962 9.15344 23.7307 8.88781 24.0645 8.35656C24.0699 8.35125 27.9407 2.975 28.3391 1.15281Z" fill="#118595"/>
</svg>
