<svg width="26" height="16" viewBox="0 0 26 16" fill="none" xmlns="http://www.w3.org/2000/svg">
<path d="M25.3613 1.70949C25.5347 1.11797 25.3613 0.682617 24.5274 0.682617H21.7678C21.065 0.682617 20.7417 1.05646 20.5684 1.47288C20.5684 1.47288 19.1628 4.93208 17.1763 7.17512C16.5344 7.82342 16.2392 8.03164 15.8878 8.03164C15.7145 8.03164 15.4474 7.82342 15.4474 7.2319V1.70949C15.4474 0.999671 15.2507 0.682617 14.6697 0.682617H10.3312C9.89079 0.682617 9.62842 1.01387 9.62842 1.32146C9.62842 1.99342 10.6217 2.14958 10.7248 4.04244V8.14994C10.7248 9.04905 10.5655 9.21467 10.2141 9.21467C9.27703 9.21467 7.00002 5.74128 5.65068 1.76628C5.37894 0.994939 5.11189 0.682617 4.40442 0.682617H1.64484C0.857722 0.682617 0.698425 1.05646 0.698425 1.47288C0.698425 2.2111 1.63547 5.87851 5.06035 10.7242C7.34204 14.032 10.5561 15.8255 13.4797 15.8255C15.2366 15.8255 15.4521 15.428 15.4521 14.7418C15.4521 11.5807 15.2928 11.2826 16.1736 11.2826C16.5813 11.2826 17.284 11.4908 18.9239 13.0856C20.7979 14.9784 21.1072 15.8255 22.1567 15.8255H24.9162C25.7033 15.8255 26.1016 15.428 25.872 14.6424C25.3473 12.9909 21.8006 9.59324 21.6413 9.3661C21.2337 8.8361 21.3508 8.59949 21.6413 8.12628C21.646 8.12155 25.0146 3.33262 25.3613 1.70949Z" fill="white"/>
</svg>
