<svg width="17" height="28" viewBox="0 0 17 28" fill="none" xmlns="http://www.w3.org/2000/svg">
<path d="M8.59871 0C4.63905 0 1.4292 3.20995 1.4292 7.16951C1.4292 11.1292 4.63905 14.3393 8.59871 14.3393C12.5584 14.3393 15.7682 11.1292 15.7682 7.16951C15.7682 3.20995 12.5584 0 8.59871 0ZM8.59871 10.1334C6.96192 10.1334 5.63499 8.80639 5.63499 7.16961C5.63499 5.53283 6.96192 4.2059 8.59871 4.2059C10.2355 4.2059 11.5624 5.53283 11.5624 7.16961C11.5624 8.80639 10.2355 10.1334 8.59871 10.1334Z" fill="#118595"/>
<path d="M11.1287 20.0442C13.999 19.4595 15.719 18.1002 15.81 18.0273C16.6499 17.3537 16.7848 16.1268 16.1112 15.2868C15.4378 14.4469 14.211 14.312 13.3709 14.9855C13.3531 14.9998 11.5186 16.4071 8.50023 16.4092C5.48193 16.4071 3.60865 14.9998 3.5909 14.9855C2.75081 14.312 1.52402 14.4469 0.850549 15.2868C0.176978 16.1268 0.311898 17.3537 1.15178 18.0273C1.24402 18.1012 3.03501 19.4959 5.9857 20.0669L1.87337 24.3646C1.12603 25.1396 1.1485 26.3737 1.92354 27.121C2.30183 27.4858 2.78939 27.6671 3.27653 27.6671C3.78728 27.6671 4.29751 27.4675 4.68 27.0708L8.50033 23.0011L12.7065 27.0971C13.4686 27.858 14.7027 27.8568 15.4634 27.095C16.2241 26.3331 16.2232 25.0988 15.4612 24.3381L11.1287 20.0442Z" fill="#118595"/>
<path d="M8.50173 16.4088C8.4941 16.4088 8.5092 16.409 8.50173 16.4091C8.49426 16.409 8.50936 16.4088 8.50173 16.4088Z" fill="#118595"/>
</svg>
