<svg width="26" height="26" viewBox="0 0 26 26" fill="none" xmlns="http://www.w3.org/2000/svg">
<g clip-path="url(#clip0_1074_11130)">
<path d="M0.105892 12.7192C0.105892 14.9272 0.682418 17.0768 1.78252 18.9803L0 25.4698L6.66534 23.7303C8.50081 24.726 10.5716 25.2531 12.6777 25.2531C19.6077 25.2531 25.2553 19.6363 25.2553 12.7367C25.2553 9.39238 23.9493 6.24718 21.5726 3.88095C19.2077 1.50887 16.0486 0.202759 12.6836 0.202759C5.75349 0.202759 0.105892 5.81962 0.105892 12.7192ZM4.07686 18.6523L3.82978 18.2599C2.78262 16.6023 2.22962 14.6871 2.22962 12.725C2.22962 6.98516 6.92419 2.32299 12.6894 2.32299C15.4838 2.32299 18.1076 3.40654 20.0784 5.37449C22.055 7.34244 23.1375 9.95466 23.1375 12.7367C23.1375 18.4766 18.4429 23.1446 12.6836 23.1446C10.8069 23.1446 8.96556 22.6409 7.36541 21.6921L6.98302 21.4695L3.02382 22.5003L4.08274 18.6582L4.07686 18.6523Z" fill="#118595"/>
<path fill-rule="evenodd" clip-rule="evenodd" d="M9.54227 7.48891C9.30695 6.96764 9.05987 6.95593 8.83632 6.95007C8.65395 6.94421 8.44216 6.94421 8.23626 6.94421C8.03036 6.94421 7.68327 7.02035 7.40089 7.33663C7.11262 7.64705 6.30078 8.40846 6.30078 9.94885C6.30078 11.4892 7.42442 12.9769 7.58326 13.1878C7.74209 13.3986 9.75993 16.6551 12.9544 17.9085C15.6075 18.9511 16.1488 18.7461 16.7253 18.6933C17.3018 18.6406 18.5843 17.9378 18.849 17.2057C19.1138 16.4735 19.1138 15.8468 19.0314 15.718C18.9549 15.5891 18.7431 15.5071 18.4313 15.3549C18.1196 15.1967 16.5723 14.4412 16.2841 14.3357C15.9958 14.2303 15.784 14.1776 15.5781 14.4939C15.3663 14.8043 14.7663 15.513 14.5839 15.718C14.4016 15.9288 14.2192 15.9523 13.9015 15.7941C13.5897 15.636 12.572 15.308 11.3719 14.242C10.4365 13.4103 9.807 12.3912 9.62463 12.0749C9.44226 11.7645 9.60698 11.5947 9.75993 11.4365C9.90112 11.296 10.0717 11.0734 10.2306 10.886C10.3894 10.7044 10.4424 10.5756 10.5424 10.3647C10.6483 10.1538 10.5953 9.97228 10.5188 9.81414C10.4424 9.656 9.83053 8.10976 9.54815 7.48891" fill="#118595"/>
</g>
<defs>
<clipPath id="clip0_1074_11130">
<rect width="25.2612" height="25.2612" fill="white" transform="translate(0 0.202759)"/>
</clipPath>
</defs>
</svg>
