<svg width="42" height="42" viewBox="0 0 42 42" fill="none" xmlns="http://www.w3.org/2000/svg">
<path d="M0 20.1719C0 10.8018 0 6.11676 2.91092 3.20584C5.82183 0.294922 10.5068 0.294922 19.877 0.294922H21.5334C30.9035 0.294922 35.5885 0.294922 38.4995 3.20584C41.4104 6.11676 41.4104 10.8018 41.4104 20.1719V21.8283C41.4104 31.1985 41.4104 35.8834 38.4995 38.7944C35.5885 41.7053 30.9035 41.7053 21.5334 41.7053H19.877C10.5068 41.7053 5.82183 41.7053 2.91092 38.7944C0 35.8834 0 31.1985 0 21.8283V20.1719Z" fill="#0077FF"/>
<path d="M22.0335 30.1278C12.5954 30.1278 7.2121 23.6574 6.98779 12.8907H11.7155C11.8708 20.7932 15.3561 24.1405 18.1167 24.8307V12.8907H22.5685V19.7061C25.2947 19.4128 28.1586 16.307 29.1248 12.8907H33.5765C32.8346 17.1007 29.7288 20.2065 27.5203 21.4833C29.7288 22.5186 33.2661 25.2275 34.612 30.1278H29.7116C28.6591 26.8494 26.0367 24.313 22.5685 23.968V30.1278H22.0335Z" fill="white"/>
</svg>
