<svg width="42" height="42" viewBox="0 0 42 42" fill="none" xmlns="http://www.w3.org/2000/svg">
<path d="M0 21.0001C0 9.56464 9.26764 0.294922 20.7052 0.294922C32.1386 0.294922 41.4104 9.56464 41.4104 21.0001C41.4104 32.4356 32.1386 41.7053 20.7052 41.7053C9.26764 41.7053 0 32.4356 0 21.0001Z" fill="#FC3F1D"/>
<path d="M23.3558 12.0265H21.4426C17.9352 12.0265 16.0903 13.8031 16.0903 16.4223C16.0903 19.3831 17.3658 20.7703 19.985 22.5489L22.1487 24.0066L15.9309 33.297H11.2847L16.8647 24.9859C13.6554 22.6856 11.8541 20.4515 11.8541 16.6728C11.8541 11.9354 15.1565 8.70129 21.4199 8.70129H27.6376V33.2742H23.3558V12.0265Z" fill="white"/>
</svg>
