<svg width="519" height="202" viewBox="0 0 519 202" fill="none" xmlns="http://www.w3.org/2000/svg">
<g clip-path="url(#clip0_5065_3011)">
<path d="M33.4715 20.061C33.4715 27.3542 26.236 31.0105 19.9025 31.0105H5.43144V51.0715L0 51.9807V10.0402L5.43144 9.13098H19.0004C26.0824 9.13098 33.4715 12.7872 33.4715 20.0804V20.061ZM19.9025 30.1012C26.236 30.1012 28.04 24.7619 28.04 20.061C28.04 17.3914 27.0037 14.8378 25.1228 12.9613C23.2611 11.0849 20.7278 10.0209 18.0792 10.0209H5.43144V30.0819H19.9025V30.1012Z" fill="white"/>
<path d="M112.813 9.59521L90.588 48.4018C89.6283 50.1428 87.9778 51.4003 86.0394 51.8452C84.1009 52.2902 82.0857 51.8646 80.4736 50.7038L81.318 48.8854C83.1797 50.4137 87.7475 52.1354 89.8011 47.9568L96.1729 36.8333L92.5648 39.7931L76.8846 12.6324L81.1453 9.15027L96.6528 36.0208L112.045 9.16961L112.832 9.6339L112.813 9.59521Z" fill="white"/>
<path d="M191.405 45.7515C187.126 49.93 181.329 52.1934 175.361 51.9806C163.596 51.9806 153.654 44.6875 153.654 30.1012C153.654 15.5149 163.615 9.13094 175.361 9.13094C180.14 9.03421 184.822 10.4271 188.795 13.1161L187.222 16.811C183.92 12.5937 178.892 10.0982 173.557 10.0402C162.694 10.0402 159.085 20.0803 159.085 30.1012C159.085 44.6875 169.046 51.0714 177.184 51.0714C182.596 50.936 187.49 47.7827 189.851 42.869L191.425 45.7515H191.405Z" fill="white"/>
<path d="M273.894 45.7515C269.614 49.93 263.818 52.1934 257.849 51.9806C246.085 51.9806 236.143 44.6875 236.143 30.1012C236.143 15.5149 246.104 9.13094 257.849 9.13094C262.628 9.03421 267.311 10.4271 271.284 13.1161L269.71 16.811C266.409 12.5937 261.381 10.0982 256.045 10.0402C245.182 10.0402 241.574 20.0803 241.574 30.1012C241.574 44.6875 251.535 51.0714 259.673 51.0714C265.085 50.936 269.979 47.7827 272.34 42.869L273.913 45.7515H273.894Z" fill="white"/>
<path d="M351.662 51.0715L348.034 51.9807C348.034 45.6741 343.62 28.7084 330.416 28.2828L325.407 32.5194V51.0715L319.975 51.9807V10.0402L325.407 9.13098V31.3393L351.662 9.13098L352.237 9.82741L331.471 27.3929C345.482 27.8572 351.623 43.0045 351.623 51.0908L351.662 51.0715Z" fill="white"/>
<path d="M434.419 9.11157V51.0714L428.988 51.9806V19.2485L404.556 50.9166V51.0714L399.125 51.9806V10.0401L404.556 9.13092V49.4271L428.988 17.7589V10.0401L434.419 9.13092V9.11157Z" fill="white"/>
<path d="M519 9.11155V51.0714L513.569 51.9806V19.2485L489.137 50.9166V51.0714L483.705 51.9806V10.0401L489.137 9.13089V49.427L513.569 17.7589V10.0401L519 9.13089V9.11155ZM509.039 3.65619C504.241 4.39131 499.405 4.68149 494.568 4.56542V2.74697C504.529 2.74697 508.137 0.0192871 508.137 0.0192871L509.039 3.67554V3.65619Z" fill="white"/>
</g>
<path d="M2 113H6.8C7.72 113 8.52 113.107 9.2 113.32C9.88 113.533 10.44 113.833 10.88 114.22C11.3333 114.593 11.6667 115.047 11.88 115.58C12.0933 116.1 12.2 116.673 12.2 117.3C12.2 117.927 12.0933 118.507 11.88 119.04C11.6667 119.56 11.3333 120.013 10.88 120.4C10.44 120.773 9.88 121.067 9.2 121.28C8.52 121.493 7.72 121.6 6.8 121.6H3.88V127H2V113ZM6.7 119.96C7.36667 119.96 7.92667 119.9 8.38 119.78C8.84667 119.647 9.22 119.467 9.5 119.24C9.79333 119.013 10 118.733 10.12 118.4C10.2533 118.067 10.32 117.7 10.32 117.3C10.32 116.9 10.2533 116.533 10.12 116.2C10 115.867 9.79333 115.587 9.5 115.36C9.22 115.133 8.84667 114.96 8.38 114.84C7.92667 114.707 7.36667 114.64 6.7 114.64H3.88V119.96H6.7ZM16.4961 131.2C16.2961 131.2 16.0961 131.18 15.8961 131.14V129.54C16.0961 129.58 16.2961 129.6 16.4961 129.6C16.6961 129.6 16.8694 129.567 17.0161 129.5C17.1628 129.433 17.3028 129.307 17.4361 129.12C17.5694 128.933 17.7094 128.667 17.8561 128.32C18.0161 127.987 18.1961 127.547 18.3961 127L13.8961 116.4H15.8561L19.2961 125L22.4161 116.4H24.2961L20.2961 127C20.0161 127.747 19.7494 128.387 19.4961 128.92C19.2428 129.453 18.9694 129.887 18.6761 130.22C18.3961 130.567 18.0828 130.813 17.7361 130.96C17.3894 131.12 16.9761 131.2 16.4961 131.2ZM29.9969 127.2C29.3169 127.2 28.6835 127.093 28.0969 126.88C27.5102 126.653 27.0035 126.32 26.5769 125.88C26.1502 125.427 25.8102 124.86 25.5569 124.18C25.3169 123.5 25.1969 122.707 25.1969 121.8V121.4C25.1969 120.547 25.3302 119.793 25.5969 119.14C25.8635 118.487 26.2169 117.947 26.6569 117.52C27.0969 117.08 27.6035 116.753 28.1769 116.54C28.7635 116.313 29.3702 116.2 29.9969 116.2C30.6235 116.2 31.1835 116.287 31.6769 116.46C32.1835 116.633 32.6169 116.873 32.9769 117.18C33.3502 117.487 33.6502 117.847 33.8769 118.26C34.1169 118.673 34.2902 119.12 34.3969 119.6H32.5969C32.4902 119.347 32.3635 119.113 32.2169 118.9C32.0835 118.673 31.9102 118.48 31.6969 118.32C31.4969 118.16 31.2569 118.033 30.9769 117.94C30.6969 117.847 30.3702 117.8 29.9969 117.8C29.6102 117.8 29.2369 117.873 28.8769 118.02C28.5169 118.153 28.1969 118.367 27.9169 118.66C27.6369 118.94 27.4102 119.307 27.2369 119.76C27.0769 120.213 26.9969 120.76 26.9969 121.4V121.8C26.9969 122.48 27.0769 123.067 27.2369 123.56C27.4102 124.04 27.6369 124.433 27.9169 124.74C28.1969 125.033 28.5169 125.253 28.8769 125.4C29.2369 125.533 29.6102 125.6 29.9969 125.6C30.6502 125.6 31.1969 125.44 31.6369 125.12C32.0902 124.8 32.4102 124.36 32.5969 123.8H34.3969C34.1435 124.853 33.6235 125.687 32.8369 126.3C32.0502 126.9 31.1035 127.2 29.9969 127.2ZM40.8953 127.2C40.2153 127.2 39.582 127.093 38.9953 126.88C38.4086 126.653 37.902 126.32 37.4753 125.88C37.0486 125.427 36.7086 124.86 36.4553 124.18C36.2153 123.5 36.0953 122.707 36.0953 121.8V121.4C36.0953 120.547 36.2286 119.793 36.4953 119.14C36.762 118.487 37.1153 117.947 37.5553 117.52C37.9953 117.08 38.502 116.753 39.0753 116.54C39.662 116.313 40.2686 116.2 40.8953 116.2C41.522 116.2 42.082 116.287 42.5753 116.46C43.082 116.633 43.5153 116.873 43.8753 117.18C44.2486 117.487 44.5486 117.847 44.7753 118.26C45.0153 118.673 45.1886 119.12 45.2953 119.6H43.4953C43.3886 119.347 43.262 119.113 43.1153 118.9C42.982 118.673 42.8086 118.48 42.5953 118.32C42.3953 118.16 42.1553 118.033 41.8753 117.94C41.5953 117.847 41.2686 117.8 40.8953 117.8C40.5086 117.8 40.1353 117.873 39.7753 118.02C39.4153 118.153 39.0953 118.367 38.8153 118.66C38.5353 118.94 38.3086 119.307 38.1353 119.76C37.9753 120.213 37.8953 120.76 37.8953 121.4V121.8C37.8953 122.48 37.9753 123.067 38.1353 123.56C38.3086 124.04 38.5353 124.433 38.8153 124.74C39.0953 125.033 39.4153 125.253 39.7753 125.4C40.1353 125.533 40.5086 125.6 40.8953 125.6C41.5486 125.6 42.0953 125.44 42.5353 125.12C42.9886 124.8 43.3086 124.36 43.4953 123.8H45.2953C45.042 124.853 44.522 125.687 43.7353 126.3C42.9486 126.9 42.002 127.2 40.8953 127.2ZM47.6938 116.4H49.4538V120.84H50.8538L54.8138 116.4H56.8938L52.2938 121.48L57.0938 127H54.8538L50.8538 122.36H49.4538V127H47.6938V116.4ZM62.0223 127.2C61.4357 127.2 60.9157 127.12 60.4623 126.96C60.0223 126.787 59.649 126.553 59.3423 126.26C59.0357 125.967 58.8023 125.62 58.6423 125.22C58.4823 124.82 58.4023 124.38 58.4023 123.9C58.4023 122.847 58.709 122.087 59.3223 121.62C59.949 121.153 60.8423 120.92 62.0023 120.92H65.4423V120.2C65.4423 119.293 65.2357 118.667 64.8223 118.32C64.4223 117.973 63.8157 117.8 63.0023 117.8C62.2423 117.8 61.689 117.947 61.3423 118.24C60.9957 118.52 60.8023 118.84 60.7623 119.2H59.0023C59.029 118.773 59.1423 118.38 59.3423 118.02C59.5557 117.647 59.8357 117.327 60.1823 117.06C60.5423 116.793 60.969 116.587 61.4623 116.44C61.9557 116.28 62.5023 116.2 63.1023 116.2C64.3557 116.2 65.349 116.5 66.0823 117.1C66.829 117.687 67.2023 118.653 67.2023 120V124.3C67.2023 124.86 67.2023 125.353 67.2023 125.78C67.2157 126.193 67.249 126.6 67.3023 127H65.7623C65.7223 126.693 65.6957 126.407 65.6823 126.14C65.669 125.86 65.6623 125.547 65.6623 125.2C65.3823 125.76 64.929 126.233 64.3023 126.62C63.6757 127.007 62.9157 127.2 62.0223 127.2ZM62.4023 125.6C62.8157 125.6 63.2023 125.547 63.5623 125.44C63.9357 125.32 64.2623 125.153 64.5423 124.94C64.8223 124.713 65.0423 124.44 65.2023 124.12C65.3623 123.8 65.4423 123.427 65.4423 123V122.28H62.3023C61.649 122.28 61.1357 122.413 60.7623 122.68C60.389 122.933 60.2023 123.34 60.2023 123.9C60.2023 124.393 60.3757 124.8 60.7223 125.12C61.0823 125.44 61.6423 125.6 62.4023 125.6ZM72.3909 122.8C71.5109 122.6 70.8776 122.24 70.4909 121.72C70.1043 121.187 69.9109 120.507 69.9109 119.68C69.9109 118.64 70.2243 117.833 70.8509 117.26C71.4909 116.687 72.5109 116.4 73.9109 116.4H78.5109V127H76.7509V122.96H74.0509L71.4709 127H69.5109L72.3909 122.8ZM71.6709 119.68C71.6709 120.24 71.8309 120.667 72.1509 120.96C72.4843 121.253 73.0376 121.4 73.8109 121.4H76.7509V117.96H73.8109C73.0376 117.96 72.4843 118.107 72.1509 118.4C71.8309 118.693 71.6709 119.12 71.6709 119.68ZM85.5172 125.44H86.8172C86.9639 125.24 87.0972 124.933 87.2172 124.52C87.3372 124.107 87.4439 123.62 87.5372 123.06C87.6305 122.5 87.6972 121.893 87.7372 121.24C87.7905 120.573 87.8172 119.893 87.8172 119.2V116.4H95.2172V125.44H96.7172V129.5H95.0372V127H87.1972V129.5H85.5172V125.44ZM93.4572 125.44V117.96H89.5372V119.6C89.5372 120.16 89.5172 120.72 89.4772 121.28C89.4372 121.827 89.3772 122.353 89.2972 122.86C89.2172 123.353 89.1172 123.827 88.9972 124.28C88.8905 124.72 88.7639 125.107 88.6172 125.44H93.4572ZM100.031 131.2C99.8313 131.2 99.6313 131.18 99.4313 131.14V129.54C99.6313 129.58 99.8313 129.6 100.031 129.6C100.231 129.6 100.405 129.567 100.551 129.5C100.698 129.433 100.838 129.307 100.971 129.12C101.105 128.933 101.245 128.667 101.391 128.32C101.551 127.987 101.731 127.547 101.931 127L97.4313 116.4H99.3913L102.831 125L105.951 116.4H107.831L103.831 127C103.551 127.747 103.285 128.387 103.031 128.92C102.778 129.453 102.505 129.887 102.211 130.22C101.931 130.567 101.618 130.813 101.271 130.96C100.925 131.12 100.511 131.2 100.031 131.2ZM112.898 121.62L109.118 116.4H111.158L113.958 120.26L116.758 116.4H118.718L114.938 121.52L118.918 127H116.838L113.878 122.86L110.918 127H108.918L112.898 121.62ZM125.023 127.2C124.343 127.2 123.697 127.093 123.083 126.88C122.47 126.653 121.93 126.32 121.463 125.88C120.997 125.427 120.623 124.86 120.343 124.18C120.063 123.5 119.923 122.707 119.923 121.8V121.4C119.923 120.547 120.063 119.793 120.343 119.14C120.623 118.487 120.997 117.947 121.463 117.52C121.93 117.08 122.47 116.753 123.083 116.54C123.697 116.313 124.343 116.2 125.023 116.2C125.703 116.2 126.35 116.313 126.963 116.54C127.577 116.753 128.117 117.08 128.583 117.52C129.05 117.947 129.423 118.487 129.703 119.14C129.983 119.793 130.123 120.547 130.123 121.4V121.8C130.123 122.707 129.983 123.5 129.703 124.18C129.423 124.86 129.05 125.427 128.583 125.88C128.117 126.32 127.577 126.653 126.963 126.88C126.35 127.093 125.703 127.2 125.023 127.2ZM125.023 125.6C125.423 125.6 125.823 125.533 126.223 125.4C126.623 125.253 126.977 125.033 127.283 124.74C127.59 124.433 127.837 124.04 128.023 123.56C128.223 123.08 128.323 122.493 128.323 121.8V121.4C128.323 120.76 128.223 120.213 128.023 119.76C127.837 119.307 127.59 118.933 127.283 118.64C126.977 118.347 126.623 118.133 126.223 118C125.823 117.867 125.423 117.8 125.023 117.8C124.623 117.8 124.223 117.867 123.823 118C123.423 118.133 123.07 118.347 122.763 118.64C122.457 118.933 122.203 119.307 122.003 119.76C121.817 120.213 121.723 120.76 121.723 121.4V121.8C121.723 122.493 121.817 123.08 122.003 123.56C122.203 124.04 122.457 124.433 122.763 124.74C123.07 125.033 123.423 125.253 123.823 125.4C124.223 125.533 124.623 125.6 125.023 125.6ZM132.616 116.4H137.216C138.522 116.4 139.482 116.673 140.096 117.22C140.709 117.753 141.016 118.447 141.016 119.3C141.016 119.527 140.976 119.76 140.896 120C140.816 120.227 140.702 120.44 140.556 120.64C140.422 120.84 140.256 121.013 140.056 121.16C139.869 121.307 139.656 121.42 139.416 121.5C140.069 121.66 140.562 121.967 140.896 122.42C141.242 122.86 141.416 123.38 141.416 123.98C141.416 124.9 141.109 125.633 140.496 126.18C139.882 126.727 138.922 127 137.616 127H132.616V116.4ZM137.616 125.44C138.362 125.44 138.889 125.307 139.196 125.04C139.502 124.773 139.656 124.393 139.656 123.9C139.656 123.393 139.502 123.007 139.196 122.74C138.889 122.46 138.362 122.32 137.616 122.32H134.376V125.44H137.616ZM137.216 120.88C137.976 120.88 138.502 120.747 138.796 120.48C139.102 120.213 139.256 119.847 139.256 119.38C139.256 118.94 139.102 118.593 138.796 118.34C138.502 118.087 137.976 117.96 137.216 117.96H134.376V120.88H137.216ZM143.924 116.4H145.684V120.82H151.164V116.4H152.924V127H151.164V122.38H145.684V127H143.924V116.4ZM159.151 127.2C158.565 127.2 158.045 127.12 157.591 126.96C157.151 126.787 156.778 126.553 156.471 126.26C156.165 125.967 155.931 125.62 155.771 125.22C155.611 124.82 155.531 124.38 155.531 123.9C155.531 122.847 155.838 122.087 156.451 121.62C157.078 121.153 157.971 120.92 159.131 120.92H162.571V120.2C162.571 119.293 162.365 118.667 161.951 118.32C161.551 117.973 160.945 117.8 160.131 117.8C159.371 117.8 158.818 117.947 158.471 118.24C158.125 118.52 157.931 118.84 157.891 119.2H156.131C156.158 118.773 156.271 118.38 156.471 118.02C156.685 117.647 156.965 117.327 157.311 117.06C157.671 116.793 158.098 116.587 158.591 116.44C159.085 116.28 159.631 116.2 160.231 116.2C161.485 116.2 162.478 116.5 163.211 117.1C163.958 117.687 164.331 118.653 164.331 120V124.3C164.331 124.86 164.331 125.353 164.331 125.78C164.345 126.193 164.378 126.6 164.431 127H162.891C162.851 126.693 162.825 126.407 162.811 126.14C162.798 125.86 162.791 125.547 162.791 125.2C162.511 125.76 162.058 126.233 161.431 126.62C160.805 127.007 160.045 127.2 159.151 127.2ZM159.531 125.6C159.945 125.6 160.331 125.547 160.691 125.44C161.065 125.32 161.391 125.153 161.671 124.94C161.951 124.713 162.171 124.44 162.331 124.12C162.491 123.8 162.571 123.427 162.571 123V122.28H159.431C158.778 122.28 158.265 122.413 157.891 122.68C157.518 122.933 157.331 123.34 157.331 123.9C157.331 124.393 157.505 124.8 157.851 125.12C158.211 125.44 158.771 125.6 159.531 125.6ZM169.52 122.8C168.64 122.6 168.007 122.24 167.62 121.72C167.233 121.187 167.04 120.507 167.04 119.68C167.04 118.64 167.353 117.833 167.98 117.26C168.62 116.687 169.64 116.4 171.04 116.4H175.64V127H173.88V122.96H171.18L168.6 127H166.64L169.52 122.8ZM168.8 119.68C168.8 120.24 168.96 120.667 169.28 120.96C169.613 121.253 170.167 121.4 170.94 121.4H173.88V117.96H170.94C170.167 117.96 169.613 118.107 169.28 118.4C168.96 118.693 168.8 119.12 168.8 119.68ZM183.846 116.4H185.726L189.506 123L193.286 116.4H195.046V127H193.286V119.3L190.146 124.7H188.746L185.606 119.3V127H183.846V116.4ZM198.241 116.4H200.001V124.4L205.481 116.4H207.241V127H205.481V119L200.001 127H198.241V116.4ZM214.548 127.2C213.868 127.2 213.234 127.093 212.648 126.88C212.061 126.653 211.554 126.32 211.128 125.88C210.701 125.427 210.361 124.86 210.108 124.18C209.868 123.5 209.748 122.707 209.748 121.8V121.4C209.748 120.547 209.881 119.793 210.148 119.14C210.414 118.487 210.768 117.947 211.208 117.52C211.648 117.08 212.154 116.753 212.728 116.54C213.314 116.313 213.921 116.2 214.548 116.2C215.174 116.2 215.734 116.287 216.228 116.46C216.734 116.633 217.168 116.873 217.528 117.18C217.901 117.487 218.201 117.847 218.428 118.26C218.668 118.673 218.841 119.12 218.948 119.6H217.148C217.041 119.347 216.914 119.113 216.768 118.9C216.634 118.673 216.461 118.48 216.248 118.32C216.048 118.16 215.808 118.033 215.528 117.94C215.248 117.847 214.921 117.8 214.548 117.8C214.161 117.8 213.788 117.873 213.428 118.02C213.068 118.153 212.748 118.367 212.468 118.66C212.188 118.94 211.961 119.307 211.788 119.76C211.628 120.213 211.548 120.76 211.548 121.4V121.8C211.548 122.48 211.628 123.067 211.788 123.56C211.961 124.04 212.188 124.433 212.468 124.74C212.748 125.033 213.068 125.253 213.428 125.4C213.788 125.533 214.161 125.6 214.548 125.6C215.201 125.6 215.748 125.44 216.188 125.12C216.641 124.8 216.961 124.36 217.148 123.8H218.948C218.694 124.853 218.174 125.687 217.388 126.3C216.601 126.9 215.654 127.2 214.548 127.2ZM225.446 127.2C224.766 127.2 224.133 127.093 223.546 126.88C222.959 126.653 222.453 126.32 222.026 125.88C221.599 125.427 221.259 124.86 221.006 124.18C220.766 123.5 220.646 122.707 220.646 121.8V121.4C220.646 120.547 220.779 119.793 221.046 119.14C221.313 118.487 221.666 117.947 222.106 117.52C222.546 117.08 223.053 116.753 223.626 116.54C224.213 116.313 224.819 116.2 225.446 116.2C226.073 116.2 226.633 116.287 227.126 116.46C227.633 116.633 228.066 116.873 228.426 117.18C228.799 117.487 229.099 117.847 229.326 118.26C229.566 118.673 229.739 119.12 229.846 119.6H228.046C227.939 119.347 227.813 119.113 227.666 118.9C227.533 118.673 227.359 118.48 227.146 118.32C226.946 118.16 226.706 118.033 226.426 117.94C226.146 117.847 225.819 117.8 225.446 117.8C225.059 117.8 224.686 117.873 224.326 118.02C223.966 118.153 223.646 118.367 223.366 118.66C223.086 118.94 222.859 119.307 222.686 119.76C222.526 120.213 222.446 120.76 222.446 121.4V121.8C222.446 122.48 222.526 123.067 222.686 123.56C222.859 124.04 223.086 124.433 223.366 124.74C223.646 125.033 223.966 125.253 224.326 125.4C224.686 125.533 225.059 125.6 225.446 125.6C226.099 125.6 226.646 125.44 227.086 125.12C227.539 124.8 227.859 124.36 228.046 123.8H229.846C229.593 124.853 229.073 125.687 228.286 126.3C227.499 126.9 226.553 127.2 225.446 127.2ZM232.245 116.4H234.005V124.4L239.485 116.4H241.245V127H239.485V119L234.005 127H232.245V116.4ZM246.532 122.8C245.652 122.6 245.018 122.24 244.632 121.72C244.245 121.187 244.052 120.507 244.052 119.68C244.052 118.64 244.365 117.833 244.992 117.26C245.632 116.687 246.652 116.4 248.052 116.4H252.652V127H250.892V122.96H248.192L245.612 127H243.652L246.532 122.8ZM245.812 119.68C245.812 120.24 245.972 120.667 246.292 120.96C246.625 121.253 247.178 121.4 247.952 121.4H250.892V117.96H247.952C247.178 117.96 246.625 118.107 246.292 118.4C245.972 118.693 245.812 119.12 245.812 119.68ZM260.858 116.4H265.458C266.764 116.4 267.724 116.673 268.338 117.22C268.951 117.753 269.258 118.447 269.258 119.3C269.258 119.527 269.218 119.76 269.138 120C269.058 120.227 268.944 120.44 268.798 120.64C268.664 120.84 268.498 121.013 268.298 121.16C268.111 121.307 267.898 121.42 267.658 121.5C268.311 121.66 268.804 121.967 269.138 122.42C269.484 122.86 269.658 123.38 269.658 123.98C269.658 124.9 269.351 125.633 268.738 126.18C268.124 126.727 267.164 127 265.858 127H260.858V116.4ZM265.858 125.44C266.604 125.44 267.131 125.307 267.438 125.04C267.744 124.773 267.898 124.393 267.898 123.9C267.898 123.393 267.744 123.007 267.438 122.74C267.131 122.46 266.604 122.32 265.858 122.32H262.618V125.44H265.858ZM265.458 120.88C266.218 120.88 266.744 120.747 267.038 120.48C267.344 120.213 267.498 119.847 267.498 119.38C267.498 118.94 267.344 118.593 267.038 118.34C266.744 118.087 266.218 117.96 265.458 117.96H262.618V120.88H265.458ZM279.586 117.96H275.966V116.4H284.966V117.96H281.346V127H279.586V117.96ZM286.971 116.4H288.611V118.4C288.971 117.693 289.471 117.153 290.111 116.78C290.764 116.393 291.518 116.2 292.371 116.2C293.704 116.2 294.771 116.64 295.571 117.52C296.371 118.387 296.771 119.68 296.771 121.4V121.8C296.771 122.707 296.664 123.5 296.451 124.18C296.238 124.847 295.938 125.407 295.551 125.86C295.164 126.3 294.698 126.633 294.151 126.86C293.618 127.087 293.024 127.2 292.371 127.2C291.464 127.2 290.704 127 290.091 126.6C289.491 126.2 289.038 125.7 288.731 125.1V131H286.971V116.4ZM291.971 125.64C292.398 125.64 292.798 125.56 293.171 125.4C293.544 125.227 293.864 124.98 294.131 124.66C294.411 124.34 294.624 123.94 294.771 123.46C294.931 122.98 295.011 122.427 295.011 121.8V121.4C295.011 120.827 294.931 120.313 294.771 119.86C294.624 119.407 294.411 119.027 294.131 118.72C293.864 118.4 293.544 118.16 293.171 118C292.798 117.84 292.398 117.76 291.971 117.76C291.491 117.76 291.051 117.84 290.651 118C290.251 118.147 289.911 118.36 289.631 118.64C289.351 118.907 289.131 119.227 288.971 119.6C288.811 119.973 288.731 120.373 288.731 120.8V122.4C288.731 122.88 288.811 123.32 288.971 123.72C289.131 124.12 289.351 124.46 289.631 124.74C289.911 125.02 290.251 125.24 290.651 125.4C291.051 125.56 291.491 125.64 291.971 125.64ZM303.676 127.2C302.996 127.2 302.349 127.093 301.736 126.88C301.122 126.667 300.582 126.34 300.116 125.9C299.649 125.447 299.276 124.88 298.996 124.2C298.716 123.52 298.576 122.72 298.576 121.8V121.4C298.576 120.52 298.709 119.76 298.976 119.12C299.242 118.467 299.596 117.927 300.036 117.5C300.489 117.06 301.009 116.733 301.596 116.52C302.196 116.307 302.822 116.2 303.476 116.2C305.036 116.2 306.242 116.627 307.096 117.48C307.949 118.333 308.376 119.54 308.376 121.1V122.22H300.336C300.336 122.847 300.436 123.373 300.636 123.8C300.836 124.227 301.096 124.573 301.416 124.84C301.736 125.107 302.089 125.3 302.476 125.42C302.876 125.54 303.276 125.6 303.676 125.6C304.476 125.6 305.089 125.467 305.516 125.2C305.956 124.933 306.269 124.567 306.456 124.1H308.176C308.069 124.607 307.876 125.053 307.596 125.44C307.329 125.827 306.996 126.153 306.596 126.42C306.209 126.673 305.762 126.867 305.256 127C304.762 127.133 304.236 127.2 303.676 127.2ZM303.576 117.8C303.162 117.8 302.762 117.86 302.376 117.98C301.989 118.087 301.642 118.267 301.336 118.52C301.042 118.76 300.802 119.067 300.616 119.44C300.429 119.813 300.336 120.26 300.336 120.78H306.716C306.702 120.233 306.609 119.773 306.436 119.4C306.276 119.013 306.056 118.707 305.776 118.48C305.496 118.24 305.162 118.067 304.776 117.96C304.402 117.853 304.002 117.8 303.576 117.8ZM311.887 131.2C311.687 131.2 311.487 131.18 311.287 131.14V129.54C311.487 129.58 311.687 129.6 311.887 129.6C312.087 129.6 312.26 129.567 312.407 129.5C312.553 129.433 312.693 129.307 312.827 129.12C312.96 128.933 313.1 128.667 313.247 128.32C313.407 127.987 313.587 127.547 313.787 127L309.287 116.4H311.247L314.687 125L317.807 116.4H319.687L315.687 127C315.407 127.747 315.14 128.387 314.887 128.92C314.633 129.453 314.36 129.887 314.067 130.22C313.787 130.567 313.473 130.813 313.127 130.96C312.78 131.12 312.367 131.2 311.887 131.2ZM321.678 116.4H328.878V117.96H323.438V127H321.678V116.4ZM335.082 127.2C334.402 127.2 333.755 127.093 333.142 126.88C332.529 126.653 331.989 126.32 331.522 125.88C331.055 125.427 330.682 124.86 330.402 124.18C330.122 123.5 329.982 122.707 329.982 121.8V121.4C329.982 120.547 330.122 119.793 330.402 119.14C330.682 118.487 331.055 117.947 331.522 117.52C331.989 117.08 332.529 116.753 333.142 116.54C333.755 116.313 334.402 116.2 335.082 116.2C335.762 116.2 336.409 116.313 337.022 116.54C337.635 116.753 338.175 117.08 338.642 117.52C339.109 117.947 339.482 118.487 339.762 119.14C340.042 119.793 340.182 120.547 340.182 121.4V121.8C340.182 122.707 340.042 123.5 339.762 124.18C339.482 124.86 339.109 125.427 338.642 125.88C338.175 126.32 337.635 126.653 337.022 126.88C336.409 127.093 335.762 127.2 335.082 127.2ZM335.082 125.6C335.482 125.6 335.882 125.533 336.282 125.4C336.682 125.253 337.035 125.033 337.342 124.74C337.649 124.433 337.895 124.04 338.082 123.56C338.282 123.08 338.382 122.493 338.382 121.8V121.4C338.382 120.76 338.282 120.213 338.082 119.76C337.895 119.307 337.649 118.933 337.342 118.64C337.035 118.347 336.682 118.133 336.282 118C335.882 117.867 335.482 117.8 335.082 117.8C334.682 117.8 334.282 117.867 333.882 118C333.482 118.133 333.129 118.347 332.822 118.64C332.515 118.933 332.262 119.307 332.062 119.76C331.875 120.213 331.782 120.76 331.782 121.4V121.8C331.782 122.493 331.875 123.08 332.062 123.56C332.262 124.04 332.515 124.433 332.822 124.74C333.129 125.033 333.482 125.253 333.882 125.4C334.282 125.533 334.682 125.6 335.082 125.6ZM341.979 127.2C341.779 127.2 341.579 127.18 341.379 127.14V125.38C341.446 125.393 341.546 125.4 341.679 125.4C341.972 125.4 342.226 125.307 342.439 125.12C342.666 124.933 342.846 124.607 342.979 124.14C343.112 123.673 343.212 123.04 343.279 122.24C343.346 121.44 343.379 120.427 343.379 119.2V116.4H350.979V127H349.219V117.96H345.139V119.6C345.139 121.08 345.072 122.307 344.939 123.28C344.806 124.253 344.606 125.033 344.339 125.62C344.086 126.193 343.759 126.6 343.359 126.84C342.959 127.08 342.499 127.2 341.979 127.2ZM354.178 116.4H355.938V120.4H358.478C359.811 120.4 360.791 120.693 361.418 121.28C362.058 121.867 362.378 122.68 362.378 123.72C362.378 124.733 362.058 125.533 361.418 126.12C360.791 126.707 359.811 127 358.478 127H354.178V116.4ZM358.378 125.44C359.205 125.44 359.785 125.293 360.118 125C360.451 124.707 360.618 124.273 360.618 123.7C360.618 123.127 360.451 122.693 360.118 122.4C359.785 122.107 359.205 121.96 358.378 121.96H355.938V125.44H358.378ZM364.686 116.4H366.446V120.82H371.926V116.4H373.686V127H371.926V122.38H366.446V127H364.686V116.4ZM376.893 116.4H378.653V124.4L384.133 116.4H385.893V127H384.133V119L378.653 127H376.893V116.4ZM389.1 116.4H390.86V120.84H392.26L396.22 116.4H398.3L393.7 121.48L398.5 127H396.26L392.26 122.36H390.86V127H389.1V116.4ZM404.613 127.2C403.933 127.2 403.287 127.093 402.673 126.88C402.06 126.667 401.52 126.34 401.053 125.9C400.587 125.447 400.213 124.88 399.933 124.2C399.653 123.52 399.513 122.72 399.513 121.8V121.4C399.513 120.52 399.647 119.76 399.913 119.12C400.18 118.467 400.533 117.927 400.973 117.5C401.427 117.06 401.947 116.733 402.533 116.52C403.133 116.307 403.76 116.2 404.413 116.2C405.973 116.2 407.18 116.627 408.033 117.48C408.887 118.333 409.313 119.54 409.313 121.1V122.22H401.273C401.273 122.847 401.373 123.373 401.573 123.8C401.773 124.227 402.033 124.573 402.353 124.84C402.673 125.107 403.027 125.3 403.413 125.42C403.813 125.54 404.213 125.6 404.613 125.6C405.413 125.6 406.027 125.467 406.453 125.2C406.893 124.933 407.207 124.567 407.393 124.1H409.113C409.007 124.607 408.813 125.053 408.533 125.44C408.267 125.827 407.933 126.153 407.533 126.42C407.147 126.673 406.7 126.867 406.193 127C405.7 127.133 405.173 127.2 404.613 127.2ZM404.513 117.8C404.1 117.8 403.7 117.86 403.313 117.98C402.927 118.087 402.58 118.267 402.273 118.52C401.98 118.76 401.74 119.067 401.553 119.44C401.367 119.813 401.273 120.26 401.273 120.78H407.653C407.64 120.233 407.547 119.773 407.373 119.4C407.213 119.013 406.993 118.707 406.713 118.48C406.433 118.24 406.1 118.067 405.713 117.96C405.34 117.853 404.94 117.8 404.513 117.8ZM2 140H11.1V141.62H3.88V145.6H7C7.92 145.6 8.72 145.7 9.4 145.9C10.08 146.1 10.64 146.387 11.08 146.76C11.5333 147.133 11.8667 147.58 12.08 148.1C12.2933 148.607 12.4 149.173 12.4 149.8C12.4 150.427 12.2933 151 12.08 151.52C11.8667 152.027 11.5333 152.467 11.08 152.84C10.64 153.213 10.08 153.5 9.4 153.7C8.72 153.9 7.92 154 7 154H2V140ZM6.9 152.36C8.23333 152.36 9.16667 152.14 9.7 151.7C10.2467 151.247 10.52 150.613 10.52 149.8C10.52 148.987 10.2467 148.36 9.7 147.92C9.16667 147.467 8.23333 147.24 6.9 147.24H3.88V152.36H6.9ZM15.6953 158.2C15.4953 158.2 15.2953 158.18 15.0953 158.14V156.54C15.2953 156.58 15.4953 156.6 15.6953 156.6C15.8953 156.6 16.0686 156.567 16.2153 156.5C16.362 156.433 16.502 156.307 16.6353 156.12C16.7686 155.933 16.9086 155.667 17.0553 155.32C17.2153 154.987 17.3953 154.547 17.5953 154L13.0953 143.4H15.0553L18.4953 152L21.6153 143.4H23.4953L19.4953 154C19.2153 154.747 18.9486 155.387 18.6953 155.92C18.442 156.453 18.1686 156.887 17.8753 157.22C17.5953 157.567 17.282 157.813 16.9353 157.96C16.5886 158.12 16.1753 158.2 15.6953 158.2ZM25.4867 143.4H27.1267V145.4C27.4867 144.693 27.9867 144.153 28.6267 143.78C29.2801 143.393 30.0334 143.2 30.8867 143.2C32.2201 143.2 33.2867 143.64 34.0867 144.52C34.8867 145.387 35.2867 146.68 35.2867 148.4V148.8C35.2867 149.707 35.1801 150.5 34.9667 151.18C34.7534 151.847 34.4534 152.407 34.0667 152.86C33.6801 153.3 33.2134 153.633 32.6667 153.86C32.1334 154.087 31.5401 154.2 30.8867 154.2C29.9801 154.2 29.2201 154 28.6067 153.6C28.0067 153.2 27.5534 152.7 27.2467 152.1V158H25.4867V143.4ZM30.4867 152.64C30.9134 152.64 31.3134 152.56 31.6867 152.4C32.0601 152.227 32.3801 151.98 32.6467 151.66C32.9267 151.34 33.1401 150.94 33.2867 150.46C33.4467 149.98 33.5267 149.427 33.5267 148.8V148.4C33.5267 147.827 33.4467 147.313 33.2867 146.86C33.1401 146.407 32.9267 146.027 32.6467 145.72C32.3801 145.4 32.0601 145.16 31.6867 145C31.3134 144.84 30.9134 144.76 30.4867 144.76C30.0067 144.76 29.5667 144.84 29.1667 145C28.7667 145.147 28.4267 145.36 28.1467 145.64C27.8667 145.907 27.6467 146.227 27.4867 146.6C27.3267 146.973 27.2467 147.373 27.2467 147.8V149.4C27.2467 149.88 27.3267 150.32 27.4867 150.72C27.6467 151.12 27.8667 151.46 28.1467 151.74C28.4267 152.02 28.7667 152.24 29.1667 152.4C29.5667 152.56 30.0067 152.64 30.4867 152.64ZM39.8714 149.8C38.9914 149.6 38.3581 149.24 37.9714 148.72C37.5847 148.187 37.3914 147.507 37.3914 146.68C37.3914 145.64 37.7047 144.833 38.3314 144.26C38.9714 143.687 39.9914 143.4 41.3914 143.4H45.9914V154H44.2314V149.96H41.5314L38.9514 154H36.9914L39.8714 149.8ZM39.1514 146.68C39.1514 147.24 39.3114 147.667 39.6314 147.96C39.9647 148.253 40.5181 148.4 41.2914 148.4H44.2314V144.96H41.2914C40.5181 144.96 39.9647 145.107 39.6314 145.4C39.3114 145.693 39.1514 146.12 39.1514 146.68ZM51.6177 144.96H47.9977V143.4H56.9977V144.96H53.3777V154H51.6177V144.96ZM59.0023 143.4H60.7623V151.4L66.2423 143.4H68.0023V154H66.2423V146L60.7623 154H59.0023V143.4ZM73.2894 149.8C72.4094 149.6 71.776 149.24 71.3894 148.72C71.0027 148.187 70.8094 147.507 70.8094 146.68C70.8094 145.64 71.1227 144.833 71.7494 144.26C72.3894 143.687 73.4094 143.4 74.8094 143.4H79.4094V154H77.6494V149.96H74.9494L72.3694 154H70.4094L73.2894 149.8ZM72.5694 146.68C72.5694 147.24 72.7294 147.667 73.0494 147.96C73.3827 148.253 73.936 148.4 74.7094 148.4H77.6494V144.96H74.7094C73.936 144.96 73.3827 145.107 73.0494 145.4C72.7294 145.693 72.5694 146.12 72.5694 146.68ZM81.8156 147.58H87.8156V149.22H81.8156V147.58ZM90.6133 140H92.5733L97.2533 148.9L101.933 140H103.813V154H101.933V143.4L97.9133 151H96.5133L92.4933 143.4V154H90.6133V140ZM111.82 154.2C111.14 154.2 110.494 154.093 109.88 153.88C109.267 153.653 108.727 153.32 108.26 152.88C107.794 152.427 107.42 151.86 107.14 151.18C106.86 150.5 106.72 149.707 106.72 148.8V148.4C106.72 147.547 106.86 146.793 107.14 146.14C107.42 145.487 107.794 144.947 108.26 144.52C108.727 144.08 109.267 143.753 109.88 143.54C110.494 143.313 111.14 143.2 111.82 143.2C112.5 143.2 113.147 143.313 113.76 143.54C114.374 143.753 114.914 144.08 115.38 144.52C115.847 144.947 116.22 145.487 116.5 146.14C116.78 146.793 116.92 147.547 116.92 148.4V148.8C116.92 149.707 116.78 150.5 116.5 151.18C116.22 151.86 115.847 152.427 115.38 152.88C114.914 153.32 114.374 153.653 113.76 153.88C113.147 154.093 112.5 154.2 111.82 154.2ZM111.82 152.6C112.22 152.6 112.62 152.533 113.02 152.4C113.42 152.253 113.774 152.033 114.08 151.74C114.387 151.433 114.634 151.04 114.82 150.56C115.02 150.08 115.12 149.493 115.12 148.8V148.4C115.12 147.76 115.02 147.213 114.82 146.76C114.634 146.307 114.387 145.933 114.08 145.64C113.774 145.347 113.42 145.133 113.02 145C112.62 144.867 112.22 144.8 111.82 144.8C111.42 144.8 111.02 144.867 110.62 145C110.22 145.133 109.867 145.347 109.56 145.64C109.254 145.933 109 146.307 108.8 146.76C108.614 147.213 108.52 147.76 108.52 148.4V148.8C108.52 149.493 108.614 150.08 108.8 150.56C109 151.04 109.254 151.433 109.56 151.74C109.867 152.033 110.22 152.253 110.62 152.4C111.02 152.533 111.42 152.6 111.82 152.6ZM119.413 143.4H121.173V147.82H126.653V143.4H128.413V154H126.653V149.38H121.173V154H119.413V143.4ZM131.62 143.4H138.82V144.96H133.38V154H131.62V143.4ZM145.023 154.2C144.343 154.2 143.697 154.093 143.083 153.88C142.47 153.653 141.93 153.32 141.463 152.88C140.997 152.427 140.623 151.86 140.343 151.18C140.063 150.5 139.923 149.707 139.923 148.8V148.4C139.923 147.547 140.063 146.793 140.343 146.14C140.623 145.487 140.997 144.947 141.463 144.52C141.93 144.08 142.47 143.753 143.083 143.54C143.697 143.313 144.343 143.2 145.023 143.2C145.703 143.2 146.35 143.313 146.963 143.54C147.577 143.753 148.117 144.08 148.583 144.52C149.05 144.947 149.423 145.487 149.703 146.14C149.983 146.793 150.123 147.547 150.123 148.4V148.8C150.123 149.707 149.983 150.5 149.703 151.18C149.423 151.86 149.05 152.427 148.583 152.88C148.117 153.32 147.577 153.653 146.963 153.88C146.35 154.093 145.703 154.2 145.023 154.2ZM145.023 152.6C145.423 152.6 145.823 152.533 146.223 152.4C146.623 152.253 146.977 152.033 147.283 151.74C147.59 151.433 147.837 151.04 148.023 150.56C148.223 150.08 148.323 149.493 148.323 148.8V148.4C148.323 147.76 148.223 147.213 148.023 146.76C147.837 146.307 147.59 145.933 147.283 145.64C146.977 145.347 146.623 145.133 146.223 145C145.823 144.867 145.423 144.8 145.023 144.8C144.623 144.8 144.223 144.867 143.823 145C143.423 145.133 143.07 145.347 142.763 145.64C142.457 145.933 142.203 146.307 142.003 146.76C141.817 147.213 141.723 147.76 141.723 148.4V148.8C141.723 149.493 141.817 150.08 142.003 150.56C142.203 151.04 142.457 151.433 142.763 151.74C143.07 152.033 143.423 152.253 143.823 152.4C144.223 152.533 144.623 152.6 145.023 152.6ZM151.92 154.2C151.72 154.2 151.52 154.18 151.32 154.14V152.38C151.387 152.393 151.487 152.4 151.62 152.4C151.914 152.4 152.167 152.307 152.38 152.12C152.607 151.933 152.787 151.607 152.92 151.14C153.054 150.673 153.154 150.04 153.22 149.24C153.287 148.44 153.32 147.427 153.32 146.2V143.4H160.92V154H159.16V144.96H155.08V146.6C155.08 148.08 155.014 149.307 154.88 150.28C154.747 151.253 154.547 152.033 154.28 152.62C154.027 153.193 153.7 153.6 153.3 153.84C152.9 154.08 152.44 154.2 151.92 154.2ZM164.12 143.4H165.88V151.4L171.36 143.4H173.12V154H171.36V146L165.88 154H164.12V143.4ZM178.407 149.8C177.527 149.6 176.893 149.24 176.507 148.72C176.12 148.187 175.927 147.507 175.927 146.68C175.927 145.64 176.24 144.833 176.867 144.26C177.507 143.687 178.527 143.4 179.927 143.4H184.527V154H182.767V149.96H180.067L177.487 154H175.527L178.407 149.8ZM177.687 146.68C177.687 147.24 177.847 147.667 178.167 147.96C178.5 148.253 179.053 148.4 179.827 148.4H182.767V144.96H179.827C179.053 144.96 178.5 145.107 178.167 145.4C177.847 145.693 177.687 146.12 177.687 146.68ZM186.933 147.58H192.933V149.22H186.933V147.58ZM195.73 140H197.61V146.02H199.21L204.69 140H206.93L200.81 146.68L207.13 154H204.73L199.21 147.58H197.61V154H195.73V140ZM209.334 143.4H211.094V151.4L216.574 143.4H218.334V154H216.574V146L211.094 154H209.334V143.4ZM223.961 144.96H220.341V143.4H229.341V144.96H225.721V154H223.961V144.96ZM233.975 154.2C233.389 154.2 232.869 154.12 232.415 153.96C231.975 153.787 231.602 153.553 231.295 153.26C230.989 152.967 230.755 152.62 230.595 152.22C230.435 151.82 230.355 151.38 230.355 150.9C230.355 149.847 230.662 149.087 231.275 148.62C231.902 148.153 232.795 147.92 233.955 147.92H237.395V147.2C237.395 146.293 237.189 145.667 236.775 145.32C236.375 144.973 235.769 144.8 234.955 144.8C234.195 144.8 233.642 144.947 233.295 145.24C232.949 145.52 232.755 145.84 232.715 146.2H230.955C230.982 145.773 231.095 145.38 231.295 145.02C231.509 144.647 231.789 144.327 232.135 144.06C232.495 143.793 232.922 143.587 233.415 143.44C233.909 143.28 234.455 143.2 235.055 143.2C236.309 143.2 237.302 143.5 238.035 144.1C238.782 144.687 239.155 145.653 239.155 147V151.3C239.155 151.86 239.155 152.353 239.155 152.78C239.169 153.193 239.202 153.6 239.255 154H237.715C237.675 153.693 237.649 153.407 237.635 153.14C237.622 152.86 237.615 152.547 237.615 152.2C237.335 152.76 236.882 153.233 236.255 153.62C235.629 154.007 234.869 154.2 233.975 154.2ZM234.355 152.6C234.769 152.6 235.155 152.547 235.515 152.44C235.889 152.32 236.215 152.153 236.495 151.94C236.775 151.713 236.995 151.44 237.155 151.12C237.315 150.8 237.395 150.427 237.395 150V149.28H234.255C233.602 149.28 233.089 149.413 232.715 149.68C232.342 149.933 232.155 150.34 232.155 150.9C232.155 151.393 232.329 151.8 232.675 152.12C233.035 152.44 233.595 152.6 234.355 152.6ZM242.264 143.4H244.024V151.4L249.504 143.4H251.264V154H249.504V146L244.024 154H242.264V143.4ZM246.764 142.1C245.724 142.1 244.964 141.88 244.484 141.44C244.004 140.987 243.764 140.34 243.764 139.5H245.484C245.484 140.407 245.911 140.86 246.764 140.86C247.644 140.86 248.084 140.407 248.084 139.5H249.764C249.764 140.34 249.524 140.987 249.044 141.44C248.564 141.88 247.804 142.1 246.764 142.1Z" fill="white"/>
<defs>
<clipPath id="clip0_5065_3011">
<rect width="519" height="52" fill="white"/>
</clipPath>
</defs>
</svg>
