<svg width="224" height="188" viewBox="0 0 224 188" fill="none" xmlns="http://www.w3.org/2000/svg">
<path d="M217.403 48.7258C213.55 36.3383 205.103 26.1952 193.619 20.1612C185.371 15.8266 176.157 13.9557 166.966 14.7445L166.375 14.7943L166.753 15.2494C167.211 15.8013 169.063 16.7717 169.625 16.7538C177.552 16.5014 185.501 18.3422 192.611 22.0785C203.583 27.8436 211.651 37.5357 215.333 49.3684C219.016 61.2031 217.867 73.7623 212.104 84.734C207.881 92.7711 201.493 99.3247 193.635 103.686L193.533 103.743L193.493 103.852C193.275 104.454 193.526 105.079 193.887 105.386C194.066 105.539 194.271 105.613 194.473 105.607C194.595 105.603 194.714 105.57 194.827 105.507C202.99 100.943 209.627 94.1087 214.022 85.7417C220.056 74.259 221.256 61.1112 217.403 48.7258Z" fill="white"/>
<path d="M9.24084 138.704C9.30754 138.723 9.37424 138.741 9.43901 138.764C9.68137 138.849 9.33018 138.72 9.24084 138.704Z" fill="white"/>
<path d="M20.6032 116.946C20.6155 116.951 20.6278 116.955 20.6422 116.961C20.6134 116.949 20.5949 116.942 20.6032 116.946Z" fill="white"/>
<path d="M7.45115 144.628C7.51798 144.65 7.58268 144.671 7.64938 144.69C7.50134 144.647 7.26937 144.563 7.45115 144.628Z" fill="white"/>
<path d="M48.7886 15.3053C48.5884 14.9873 48.4502 14.6694 48.4053 14.361C48.4556 14.7085 48.5899 15.0327 48.7886 15.3053Z" fill="white"/>
<path d="M22.79 111.487C22.8068 111.493 22.8235 111.498 22.8382 111.506C22.8989 111.529 22.8026 111.491 22.7921 111.487L22.79 111.487Z" fill="white"/>
<path d="M7.92006 144.749C7.86394 144.738 7.80576 144.728 7.74951 144.713C7.80569 144.726 7.86394 144.738 7.92006 144.749Z" fill="white"/>
<path d="M11.1047 78.7046C11.2744 78.4554 11.5186 78.208 11.8167 77.9692C11.5442 78.1679 11.3021 78.4152 11.1047 78.7046Z" fill="white"/>
<path d="M93.7802 183.266C93.6392 182.989 93.5686 182.655 93.5486 182.285C93.5468 182.62 93.6236 182.955 93.7802 183.266Z" fill="white"/>
<path d="M83.9354 56.5104C82.1543 56.4679 80.5336 56.3355 79.6745 56.0363C78.8091 55.7351 78.6251 55.4082 78.7663 55.106C78.9657 54.6801 78.5109 54.2894 77.9881 54.3598C69.0039 55.5761 39.6395 59.372 30.0531 58.4267C22.0158 57.6346 17.0979 53.6012 16.4977 52.0203C15.7036 49.9331 17.2207 48.3716 17.276 48.6138C17.3312 48.8559 24.2165 52.3513 31.0183 53.4866C35.5673 54.245 45.2835 53.2948 53.7005 52.1834C52.7108 52.2604 51.7206 52.325 50.7301 52.3772C50.5381 52.3875 50.3763 52.2397 50.3662 52.0498C50.356 51.86 50.4997 51.6983 50.6894 51.686C51.7208 51.6181 52.7538 51.5356 53.7822 51.4387C48.2549 51.8318 42.2067 52.0306 37.5682 51.5809C31.1611 50.9601 28.9569 48.9942 28.2921 47.0703C27.9392 46.05 28.3645 45.3212 28.8439 44.8595C29.1868 44.5282 29.7685 44.553 30.0089 44.8968C30.2146 45.192 30.5736 45.5589 31.1954 45.936C35.9252 48.8013 50.1042 47.9115 54.4792 47.2947C54.51 47.2896 54.543 47.2865 54.5738 47.2814C54.6417 47.2709 54.7032 47.2545 54.7625 47.234C53.7295 47.3145 52.6939 47.3826 51.6578 47.4321L51.5836 46.1405C52.0293 46.1159 52.4769 46.0851 52.9224 46.0544C51.4227 46.0216 50.0992 45.9376 49.2112 45.7716C42.8478 44.5768 40.8042 41.6797 40.2224 40.2864C39.6406 38.8931 41.0732 37.014 41.1966 37.6426C41.3199 38.2712 43.2202 40.4308 46.4927 41.4779C53.3698 43.6795 60.8538 42.0252 65.3387 41.4835C69.8236 40.9417 91.0555 34.5996 100.184 32.7855C102.904 32.2441 106.394 31.5645 110.518 31.0632C110.403 30.8043 110.326 30.5339 110.296 30.2558C108.44 30.0669 106.431 29.7919 104.924 29.4057C102.936 29.746 101.186 30.0932 99.7046 30.3885C95.1116 31.3016 87.7392 33.2789 80.6106 35.1906C73.9863 36.9664 67.1366 38.8051 65.0423 39.0579C64.3278 39.1447 63.5521 39.2562 62.729 39.3734C58.4202 39.9943 52.5208 40.8416 47.233 39.1495C45.1717 38.4896 43.8452 37.273 43.4889 36.7965C43.207 35.9931 42.5633 35.3831 41.7398 35.1613C41.2581 35.0319 40.0209 34.8688 38.9119 36.134C37.9087 37.2801 37.1833 39.3641 37.962 41.2287C38.3402 42.1344 39.4595 43.9158 42.6843 45.4792C38.3616 45.4018 34.277 44.949 32.458 43.8473C32.2557 43.7256 32.1368 43.626 32.0729 43.566C31.9082 43.0028 31.5432 42.5121 31.0369 42.1913C30.3575 41.7602 29.5119 41.69 28.7716 42.005C26.6831 42.8922 25.051 45.1911 25.9755 47.8696C26.3534 48.9614 26.9874 49.9148 27.8732 50.7279C25.9784 50.4286 24.1955 49.9396 22.7908 49.3187C20.8073 48.4393 19.6528 47.5624 19.3016 47.2449C18.9715 46.7469 18.4658 46.3786 17.8634 46.2241C17.4091 46.1063 16.2323 45.9598 15.1624 47.1535C14.1463 48.2876 13.2857 50.471 14.2082 52.8912C14.8015 54.4495 16.7095 56.3359 19.1876 57.8156C21.3706 59.1187 25.0138 60.708 29.9677 60.8707C36.757 61.0948 65.8127 58.0569 76.7577 56.8774C77.1307 57.4257 77.7722 57.9655 78.8654 58.3462C79.5552 58.5867 80.542 58.7413 81.6738 58.8397C82.4176 58.0512 83.1702 57.2768 83.9292 56.5106L83.9354 56.5104Z" fill="white"/>
<path d="M101.11 36.7559C105.623 35.4029 110.226 34.1587 114.87 33.213C112.73 33 112.031 32.6584 111.55 32.3099C111.493 32.2683 111.44 32.2225 111.387 32.1787C107.766 33.0423 104.175 34.0641 100.64 35.1544C84.9911 39.942 69.3009 44.9148 52.9161 46.0547C52.4706 46.0854 52.0251 46.1161 51.5773 46.1407L51.6515 47.4323C52.6897 47.3828 53.7231 47.3147 54.7562 47.2343C70.6044 45.9916 85.9637 41.2732 101.106 36.756L101.11 36.7559Z" fill="white"/>
<path d="M53.778 51.437C52.7475 51.5318 51.7166 51.6143 50.6852 51.6843C50.4955 51.6966 50.3518 51.8582 50.3619 52.0481C50.3722 52.24 50.536 52.3857 50.7258 52.3755C51.7164 52.3233 52.7066 52.2587 53.6963 52.1817C60.8949 51.6259 68.0402 50.4371 75.0681 48.8036C83.9053 46.8664 92.8314 43.8908 101.819 41.3659C103.057 40.4934 104.311 39.6411 105.579 38.8111C95.2245 41.6627 84.9663 45.3898 74.8271 47.7921C67.9072 49.505 60.8762 50.7789 53.778 51.437Z" fill="white"/>
<path d="M135.298 135.806C131.21 137.202 127.65 138.154 124.864 138.888C115.404 141.378 92.5307 145.191 88.0242 146.744C83.5177 148.295 75.6918 150.184 70.0141 155.396C67.3128 157.876 66.3754 160.766 66.5138 161.411C66.6521 162.054 64.5169 160.956 64.5062 159.387C64.4956 157.819 65.2683 154.172 70.8657 150.137C71.6578 149.566 72.911 148.869 74.3576 148.14C73.9064 148.318 73.4532 148.498 73.0043 148.682L72.5094 147.486C73.5414 147.048 74.5781 146.627 75.6215 146.221C75.5452 146.228 75.4649 146.239 75.379 146.266C75.3463 146.278 75.3135 146.287 75.2828 146.296C70.8509 147.725 56.9359 153.398 53.5804 158.247C53.1398 158.885 52.9451 159.394 52.87 159.762C52.7804 160.195 52.2336 160.485 51.7719 160.332C51.1285 160.121 50.4247 159.633 50.3458 158.519C50.1982 156.415 51.5048 153.567 57.377 150.048C61.6894 147.463 67.6624 144.835 73.1718 142.647C72.0707 143.058 70.9741 143.479 69.8843 143.919C69.7067 143.991 69.5055 143.904 69.4337 143.727C69.362 143.551 69.4465 143.35 69.622 143.279C70.6522 142.849 71.689 142.429 72.7303 142.024C64.1923 144.855 54.4117 148.455 50.3444 151.272C44.3052 155.454 39.1478 161.881 39.193 162.132C39.2382 162.383 37.155 161.618 37.0648 159.304C36.9965 157.549 40.0562 151.525 47.4147 147.097C56.1909 141.815 85.7985 131.895 94.8813 128.908C95.4112 128.734 95.6843 128.159 95.3231 127.852C95.0661 127.635 95.1074 127.245 95.8113 126.565C97.2394 125.19 101.972 123.014 104.894 121.745C105.522 121.472 105.519 120.737 104.89 120.589C104.099 120.404 103.555 120.014 104.135 119.214C104.45 118.78 105.535 118.194 107.001 117.552C105.845 117.138 104.79 116.746 103.834 116.389C102.836 116.969 102.436 117.393 102.157 117.778C101.521 118.654 101.309 119.649 101.542 120.557C98.6861 121.872 95.4438 123.528 94.116 124.804C93.2236 125.663 92.8564 126.467 92.7583 127.15C81.9466 131.023 52.7048 141.591 46.2892 144.925C41.6733 147.323 38.8724 150.44 37.334 152.633C35.596 155.113 34.556 157.703 34.6224 159.398C34.7231 161.977 36.3658 163.644 37.7423 164.287C39.2007 164.97 40.2077 164.463 40.6779 164.1C41.1761 163.714 41.4998 163.167 41.6047 162.568C41.8072 162.111 42.563 160.725 44.1554 158.929C45.269 157.676 46.8088 156.372 48.5369 155.203C48.0337 156.344 47.8267 157.504 47.91 158.692C48.1148 161.619 50.6867 163.058 53.0041 162.935C53.7862 162.891 54.5006 162.476 54.9241 161.819C55.2412 161.328 55.3674 160.745 55.2935 160.179C55.3297 160.082 55.4129 159.902 55.5947 159.64C56.9148 157.731 60.7138 155.384 64.8829 153.298C62.4048 156.231 62.0562 158.398 62.0636 159.407C62.0782 161.424 63.5117 163.013 64.9245 163.694C65.5018 163.971 66.0132 164.06 66.4509 164.046C67.2067 164.022 67.7398 163.689 67.9919 163.491C68.6695 162.959 69.0235 162.133 68.9611 161.277C69.1005 160.655 69.8901 158.837 71.6715 157.201C76.082 153.152 82.098 151.228 86.4893 149.825C87.3222 149.559 88.11 149.309 88.8256 149.061C90.9419 148.332 98.2429 146.904 105.302 145.526C112.89 144.044 120.736 142.511 125.492 141.258C127.138 140.825 129.104 140.305 131.325 139.65C132.279 138.484 133.815 137.073 135.302 135.81L135.298 135.806Z" fill="white"/>
<path d="M75.6192 146.217C74.5758 146.622 73.5391 147.044 72.5071 147.482L73.002 148.677C73.453 148.493 73.9041 148.314 74.3553 148.136C82.1293 145.073 90.1794 142.76 98.3485 141.005C110.298 138.328 123.01 137.066 135.199 134.401C135.187 134.019 135.245 133.621 135.383 133.224C135.459 133.004 135.561 132.771 135.744 132.497C131.946 133.376 128.102 134.102 124.265 134.758C107.869 137.492 91.1938 140.146 75.6192 146.217Z" fill="white"/>
<path d="M147.028 124.078C142.448 125.876 137.688 127.259 132.902 128.323C116.089 132.056 98.7602 133.677 82.2889 138.983C79.2292 139.942 76.2016 141.004 73.2145 142.168C72.1731 142.573 71.1384 142.99 70.1062 143.422C69.9308 143.496 69.8482 143.695 69.9179 143.871C69.9897 144.048 70.1909 144.135 70.3685 144.063C71.4584 143.625 72.5549 143.202 73.656 142.79C76.5834 141.699 79.547 140.705 82.5406 139.81C94.9231 136.061 107.713 134.215 120.481 132.183C127.883 131.057 135.428 129.63 142.666 127.392C144.833 125.915 146.92 124.594 147.775 124.056C147.645 124.061 147.515 124.065 147.387 124.069C147.265 124.073 147.147 124.074 147.025 124.076L147.028 124.078Z" fill="white"/>
<path d="M186.719 71.7092C186.709 71.7401 186.718 71.7398 186.719 71.7092V71.7092Z" fill="white"/>
<path d="M186.746 71.6468C186.746 71.6468 186.75 71.6402 186.754 71.6357C186.754 71.6357 186.75 71.6402 186.746 71.6468Z" fill="white"/>
<path d="M119.803 78.4739C119.863 78.4906 119.924 78.5073 119.982 78.524C120.235 78.1668 120.51 77.7779 120.807 77.3677C120.471 77.7358 120.136 78.1039 119.803 78.4739Z" fill="white"/>
<path d="M146.461 83.5786C147.757 83.6407 149.184 83.5891 150.403 83.5069C150.655 83.3727 150.91 83.2489 151.16 83.1355C149.498 83.3827 147.885 83.5498 146.461 83.5786Z" fill="white"/>
<path d="M143.988 77.7002C144.402 77.7221 144.81 77.7381 145.197 77.7527C145.38 77.6641 145.565 77.5797 145.751 77.4931C145.166 77.5717 144.577 77.6442 143.988 77.7002Z" fill="white"/>
<path d="M139.674 69.4677C140.064 70.2181 141.824 70.4493 143.64 70.4742C144.206 70.2763 144.777 70.0887 145.35 69.9112C143.088 70.1424 140.978 70.1021 139.672 69.4698L139.674 69.4677Z" fill="white"/>
<path d="M189.753 64.2241L189.758 64.2159C189.758 64.2159 189.755 64.2187 189.753 64.2241Z" fill="white"/>
<path d="M145.235 62.3371C145.435 62.3721 145.634 62.4029 145.825 62.4299C145.935 62.3871 146.045 62.3423 146.157 62.2995C145.84 62.322 145.533 62.3359 145.235 62.3371Z" fill="white"/>
<path d="M179.53 34.6041C181.804 36.2412 183.777 38.2786 185.181 40.6917C189.213 47.6617 184.577 48.8656 184.902 53.157C185.167 55.1805 186.034 57.0112 186.866 58.812C187.429 59.9869 188.034 61.1334 188.653 62.2692C188.758 62.4767 189.652 64.0585 189.733 64.2503C189.727 64.2567 189.723 64.263 189.715 64.2715C189.038 64.8243 188.13 65.0165 187.281 65.2957C187.04 65.3696 186.826 65.4219 186.565 65.5149C185.898 65.7202 185.851 66.5402 186.08 67.0869C186.098 67.1401 186.13 67.1887 186.177 67.2265C186.534 67.583 186.981 68.0587 187.046 68.5424C187.035 68.6523 187.049 68.6333 186.882 68.7936C186.373 69.2336 185.69 69.5985 185.074 69.9137L184.934 69.9822L184.864 70.0154L184.83 70.031C184.742 70.0731 184.653 70.1338 184.606 70.2635C184.565 70.3681 184.579 70.4648 184.595 70.5201C184.671 70.6231 184.842 70.7417 184.989 70.7556C185.106 70.7747 185.177 70.7496 185.256 70.7513C185.874 70.6841 186.613 71.045 186.715 71.6722C186.716 71.6763 186.716 71.6784 186.716 71.6825C186.29 72.2645 185.884 72.8211 185.655 73.5395C185.602 73.6942 185.565 74.0881 185.663 74.271C185.756 74.5161 185.906 74.7366 186.025 74.9209C186.442 75.5526 186.893 76.2121 187.178 76.9059C187.242 77.0981 187.361 77.2866 187.341 77.4877C187.048 78.4272 185.103 79.1879 184.197 78.9087C181.849 78.0699 180.804 80.2694 181.14 82.299C181.392 83.8558 182.259 85.1677 182.979 86.5028C183.06 86.6449 183.145 86.789 183.23 86.933C183.825 86.9616 184.397 87.0034 184.94 87.0564C184.343 86.0976 183.772 85.1277 183.262 84.1518C182.849 83.3236 182.468 82.5916 182.44 81.6995C182.42 81.0986 182.467 80.2186 183.136 80.0629C183.325 80.0259 183.556 80.0764 183.742 80.149C184.2 80.3081 184.609 80.3033 184.99 80.2664C186.39 80.0854 188.289 79.2311 188.602 77.6915C188.683 77.2527 188.516 76.8116 188.349 76.4179C187.979 75.5078 187.35 74.7093 186.852 73.89C186.85 73.8859 186.85 73.8839 186.848 73.8798C186.976 73.4127 187.398 72.7833 187.697 72.3169C187.878 72.0734 187.889 71.7155 187.827 71.459C187.657 70.741 187.127 70.2431 186.491 70.0174C186.858 69.7948 187.21 69.5459 187.533 69.2359C187.967 68.8397 187.821 68.156 187.575 67.7504C187.349 67.3586 187.085 67.0508 186.784 66.7503C186.751 66.6087 186.712 66.3764 186.787 66.312C186.791 66.3119 186.83 66.2982 186.838 66.2959C187.702 66.0554 188.556 65.8711 189.414 65.5214C190.13 65.2443 191.077 64.6457 190.56 63.7423L190.449 63.5164C189.599 61.865 188.664 60.0157 187.918 58.3341C187.193 56.627 186.424 54.8676 186.234 53.0422C186.133 51.1147 187.504 49.8246 188.043 47.8602C189.647 42.6558 185.262 36.8629 181.409 33.8105C181.014 33.5047 180.614 33.2074 180.204 32.9228C180.053 33.5043 179.829 34.0696 179.532 34.6103L179.53 34.6041ZM189.754 64.2145C189.754 64.2145 189.752 64.2186 189.75 64.2208C189.75 64.2166 189.752 64.2125 189.754 64.2145ZM186.754 71.6359C186.754 71.6359 186.75 71.6422 186.746 71.6464C186.75 71.6422 186.752 71.638 186.754 71.6359ZM186.719 71.7093C186.709 71.7406 186.718 71.7403 186.719 71.7093V71.7093Z" fill="white"/>
<path d="M140.014 67.6713C140.07 67.7481 140.145 67.8181 140.23 67.8815C141.824 66.0861 145.853 64.0085 145.853 64.0085L146.299 63.6677C143.188 65.1042 140.548 66.5753 140.014 67.6713Z" fill="white"/>
<path d="M137.977 75.1732C137.953 75.2153 137.944 75.2466 137.939 75.2695C140.148 73.2975 148.147 70.2335 148.147 70.2335C148.147 70.2335 148.038 70.2453 147.848 70.2658C145.353 71.1679 142.891 72.1393 140.533 73.3203C139.619 73.8228 138.526 74.3558 137.977 75.1732Z" fill="white"/>
<path d="M143.326 59.5037C144.196 58.7318 145.254 58.0532 145.254 58.0532L145.573 57.5594C144.765 58.1659 143.978 58.7718 143.326 59.5037Z" fill="white"/>
<path d="M110.516 31.0632C110.703 31.4789 110.999 31.8581 111.389 32.1785C111.442 32.2223 111.495 32.2681 111.552 32.3097C112.033 32.6582 112.73 33.0019 114.872 33.2127C114.889 33.2143 114.907 33.2158 114.924 33.2173C116.169 32.5368 117.428 31.8766 118.697 31.2326C115.957 31.1793 113.45 31.0008 112.83 30.5492C112.161 30.064 112.483 29.5949 113.05 29.2213C113.501 28.9237 113.307 28.3263 112.743 28.2843C110.118 28.0785 105.835 27.6465 104.351 26.9351C103.618 26.5843 103.481 26.2786 103.624 26.0301C103.682 25.929 103.691 25.8233 103.666 25.7249C103.462 25.9526 103.354 26.1979 103.396 26.4632C103.423 26.5553 103.474 26.6612 103.539 26.7377C103.543 26.7417 103.564 26.7679 103.541 26.7376C104.282 27.6794 102.947 28.7989 102.149 27.9023C101.636 27.2303 101.506 26.2609 101.872 25.5009C101.903 25.4379 101.939 25.3768 101.976 25.3177C93.0858 25.4582 68.9672 25.6661 61.0175 23.9265C54.0775 22.4091 50.0694 18.386 49.6514 16.944C49.1009 15.0412 50.5239 13.8342 50.5556 14.0502C50.5873 14.2662 56.344 18.0249 62.1857 19.7138C66.0558 20.8328 74.4497 21.0079 81.7972 20.9083C80.9981 20.8717 80.1968 20.829 79.397 20.7718C79.2272 20.7607 79.0985 20.6139 79.1096 20.444C79.1208 20.2762 79.2655 20.1476 79.4333 20.1567C80.2614 20.1986 81.0893 20.2301 81.9169 20.2534C77.1408 20.0251 71.9588 19.5782 68.0123 18.7241C62.4777 17.5257 60.6919 15.5837 60.2435 13.8368C60.0052 12.91 60.4246 12.3179 60.8702 11.9647C61.1908 11.7106 61.6957 11.7937 61.8818 12.1185C62.0415 12.3966 62.3278 12.7534 62.8447 13.1462C66.7681 16.1323 79.1655 16.8124 83.0137 16.7229C83.0405 16.7221 83.0694 16.7212 83.0963 16.7203C83.1459 16.7187 83.1912 16.7132 83.2364 16.7055C82.334 16.6702 81.4291 16.6204 80.5259 16.5582L80.5947 15.4109C80.9489 15.4327 81.303 15.4503 81.657 15.468C80.3883 15.2893 79.2758 15.0829 78.5326 14.8523C73.0752 13.1574 71.4914 10.4193 71.0807 9.14249C70.6681 7.86782 72.0406 6.37507 72.106 6.93524C72.1714 7.49541 73.6805 9.57648 76.4571 10.8255C82.2936 13.453 88.9157 12.777 92.8553 12.7652C96.7948 12.7535 115.693 9.40036 123.755 8.75296C127.926 8.41962 134.146 7.95698 141.693 8.73987C150.645 8.47133 159.494 9.75228 167.808 14.0496L166.992 15.6714C163.519 13.841 159.941 12.5617 156.292 11.7146C159.33 12.6515 162.47 13.8289 165.69 15.3057C171.407 17.9266 174.62 21.4169 176.378 24.7407C176.962 25.183 177.51 25.6927 178.011 26.2948C180.144 28.8832 180.434 31.958 179.468 34.7236C179.489 34.6836 179.513 34.6457 179.534 34.6057C179.829 34.0651 180.055 33.4998 180.206 32.9182C180.431 32.0491 180.493 31.1479 180.377 30.238C179.844 26.038 177.346 18.2584 166.597 13.3296C147.679 4.6548 131.405 5.95853 123.582 6.58591C119.523 6.91157 112.976 7.87867 106.643 8.81622C100.763 9.68561 94.6877 10.5881 92.8481 10.5909C92.2197 10.5923 91.536 10.6099 90.8132 10.6288C87.0252 10.7267 81.839 10.8629 77.349 8.8416C75.5643 8.03851 74.4794 6.81626 74.2043 6.35785C74.0134 5.61977 73.484 5.02683 72.7647 4.77067C72.3466 4.62275 71.2601 4.38863 70.1874 5.43154C69.237 6.35479 68.4642 8.11784 69.0121 9.80989C69.2713 10.6119 70.089 12.2086 72.6363 13.8514C69.0004 13.3368 65.6344 12.5323 64.1642 11.4154C63.9756 11.2705 63.8709 11.1622 63.8172 11.0978C63.7163 10.5904 63.435 10.1322 63.0175 9.80854C62.4643 9.37966 61.7385 9.24154 61.0648 9.44283C59.1298 10.0192 57.5028 11.8983 58.1399 14.3771C58.3758 15.2957 58.8012 16.1255 59.4181 16.8687C57.9053 16.4228 56.502 15.8473 55.3962 15.2025C53.705 14.2166 52.7524 13.3208 52.4697 13.0094C52.2126 12.5319 51.7852 12.1589 51.2522 11.9733C50.8551 11.8351 49.823 11.6219 48.7856 12.6058C47.8265 13.517 46.9322 15.3562 47.5663 17.5479C48.2352 19.8583 52.9122 24.8957 60.6932 26.0742C66.5901 26.9676 92.1068 27.3002 101.695 27.3959C101.972 27.9142 102.487 28.4517 103.413 28.8956C103.808 29.0856 104.33 29.2551 104.926 29.4076C106.431 29.7938 108.44 30.0688 110.299 30.2577C110.328 30.5358 110.405 30.8062 110.521 31.0651L110.516 31.0632ZM48.4053 14.3585C48.4502 14.6671 48.5865 14.9852 48.7888 15.3033C48.5899 15.0285 48.4577 14.7061 48.4053 14.3585Z" fill="white"/>
<path d="M124.419 12.2915C135.036 10.3969 145.94 9.31168 156.29 11.7127C159.939 12.5598 163.516 13.8391 166.99 15.6696L167.806 14.0477C159.492 9.74833 150.643 8.46944 141.691 8.73798C135.852 8.91355 129.971 9.74577 124.168 10.8298C110.11 13.4252 95.9941 16.1733 81.6568 15.464C81.3028 15.4463 80.9487 15.4287 80.5946 15.4069L80.5257 16.5542C81.4289 16.6164 82.3338 16.6662 83.2362 16.7015C97.0826 17.2487 110.859 14.6953 124.419 12.2915Z" fill="white"/>
<path d="M106.83 24.2271C108.834 23.6817 110.934 23.4081 113.009 23.1973C113.369 23.1528 113.332 22.6248 112.976 22.6216C110.206 22.6768 103.583 22.6086 101.978 25.3139C101.943 25.375 101.905 25.434 101.874 25.497C101.508 26.2591 101.638 27.2265 102.151 27.8985C102.949 28.795 104.286 27.6755 103.543 26.7338C103.566 26.764 103.543 26.74 103.541 26.7339C103.476 26.6574 103.423 26.5516 103.397 26.4594C103.354 26.1941 103.464 25.9487 103.667 25.7211C104.346 24.9636 106.088 24.4327 106.832 24.225L106.83 24.2271Z" fill="white"/>
<path d="M166.736 20.4901C146.631 8.67182 122.88 16.9194 101.398 19.2364C94.9339 20.0107 88.4214 20.429 81.9167 20.2516C81.0891 20.2284 80.2614 20.1989 79.4331 20.155C79.2654 20.1459 79.1207 20.2745 79.1095 20.4423C79.0983 20.6122 79.227 20.759 79.3969 20.7701C80.1966 20.8273 80.998 20.87 81.797 20.9066C95.7492 21.531 109.639 19.1435 123.389 17.1843C136.455 15.2964 150.664 14.3871 162.722 20.374C163.928 20.5299 165.131 20.7293 166.328 20.9806C166.615 21.0397 166.9 21.1029 167.185 21.1703C167.157 20.917 167.018 20.6692 166.734 20.4901L166.736 20.4901Z" fill="white"/>
<path d="M193.948 103.848C193.727 104.183 193.488 104.532 193.229 104.896C193.341 108.311 192.488 112.398 189.752 116.986C187.947 120.011 186.031 122.747 184.063 125.224C186.589 122.484 188.811 119.426 190.621 115.964L192.213 116.835C187.824 125.1 181.358 130.964 173.946 135.657C168.131 140.588 162.683 143.715 159.024 145.787C152.015 149.756 134.521 157.544 131.273 159.733C128.025 161.922 122.182 165.064 118.898 170.483C117.335 173.061 117.296 175.615 117.566 176.113C117.836 176.611 115.844 176.149 115.447 174.868C115.049 173.589 114.771 170.449 118.282 166.009C118.757 165.409 119.545 164.627 120.475 163.779C120.198 163.984 119.924 164.192 119.649 164.399L118.946 163.487C119.656 162.929 120.373 162.385 121.096 161.851C121.051 161.869 121.006 161.892 120.961 161.922C120.937 161.937 120.915 161.952 120.893 161.968C117.674 164.042 107.862 171.519 106.358 176.168C106.161 176.78 106.13 177.234 106.16 177.551C106.195 177.922 105.828 178.273 105.415 178.243C104.844 178.201 104.156 177.948 103.817 177.051C103.176 175.362 103.525 172.767 107.387 168.692C110.117 165.81 114.08 162.581 117.851 159.743C117.215 160.199 116.582 160.664 115.955 161.137C115.819 161.24 115.624 161.213 115.521 161.078C115.419 160.943 115.446 160.752 115.577 160.651C116.259 160.12 116.95 159.598 117.644 159.086C111.495 163.129 104.581 168.021 102.018 171.131C98.1849 175.782 95.6199 182.087 95.7192 182.285C95.8185 182.482 93.9476 182.281 93.303 180.408C92.8134 178.989 93.7859 173.439 98.6232 168.318C104.158 162.455 124.105 149.177 131.516 144.321C130.707 143.911 130.136 143.063 130.186 142.098C130.326 140.905 132.059 141.057 131.994 142.253C131.973 142.705 132.267 142.927 132.677 143.023C132.641 142.932 132.577 142.853 132.472 142.803C132.21 142.677 132.148 142.35 132.547 141.651C133.273 140.381 135.979 138.044 138.004 136.396C137.815 136.415 137.623 136.429 137.433 136.437C136.478 136.424 136.495 135.024 137.457 135.043C137.831 135.048 138.248 135.018 138.66 134.97C138.584 134.933 138.492 134.911 138.387 134.912C137.703 134.922 137.167 134.715 137.438 133.942C138.05 132.192 148.838 125.507 148.838 125.507L151.911 123.656C150.338 123.774 148.796 123.859 147.291 123.911C146.436 124.448 144.349 125.77 142.182 127.246C142.17 127.255 142.158 127.264 142.146 127.272C137.808 130.228 136.345 131.6 135.749 132.497C135.565 132.774 135.465 133.006 135.388 133.224C135.249 133.621 135.19 134.02 135.204 134.402C135.218 134.835 135.326 135.249 135.526 135.617C135.451 135.679 135.375 135.744 135.3 135.808C133.811 137.071 132.276 138.48 131.324 139.648C131.053 139.979 130.827 140.29 130.667 140.572C130.161 141.454 130.042 142.185 130.108 142.766C122.249 148.211 101.481 162.699 97.1482 166.723C91.4081 172.055 90.4664 178.835 91.2522 181.116C92.0016 183.292 93.809 184.291 95.1277 184.482C95.323 184.511 95.5051 184.52 95.6724 184.515C96.7152 184.481 97.2767 183.872 97.4865 183.58C97.8131 183.125 97.9506 182.575 97.886 182.038C97.9389 181.623 98.2047 180.362 99.0215 178.62C99.5693 177.451 100.413 176.168 101.426 174.936C101.322 175.944 101.441 176.906 101.789 177.821C102.687 180.19 105.086 180.823 106.994 180.22C107.669 180.009 108.198 179.481 108.412 178.807C108.574 178.297 108.542 177.75 108.33 177.271C108.338 177.193 108.36 177.049 108.43 176.834C108.996 175.084 111.337 172.516 114.062 170.048C112.866 172.885 113.122 174.694 113.376 175.511C113.908 177.226 115.569 178.232 116.888 178.44C118.353 178.67 119.102 177.859 119.357 177.499C119.798 176.875 119.889 176.087 119.62 175.374C119.583 174.848 119.77 173.25 120.763 171.609C123.283 167.45 127.626 164.67 130.797 162.64C131.402 162.251 131.976 161.885 132.494 161.536C134.006 160.518 139.527 157.866 144.87 155.3C150.623 152.537 156.57 149.679 160.101 147.68C166.903 143.827 181.06 135.813 191.625 118.1C195.554 111.513 195.871 105.895 195.063 101.745C194.768 102.464 194.401 103.168 193.954 103.848L193.948 103.848ZM93.5488 182.286C93.5688 182.655 93.6394 182.99 93.7805 183.266C93.6239 182.957 93.547 182.621 93.5488 182.286Z" fill="white"/>
<path d="M157.491 142.518C144.975 148.095 132.192 153.666 121.093 161.854C120.37 162.387 119.652 162.933 118.944 163.489L119.647 164.401C119.921 164.192 120.196 163.986 120.473 163.781C126.03 159.64 131.993 156.076 138.18 152.956C149.725 147.061 162.891 142.661 173.944 135.659C181.356 130.964 187.822 125.103 192.211 116.837L190.619 115.966C188.809 119.428 186.587 122.488 184.061 125.226C176.902 132.995 167.281 138.172 157.489 142.521L157.491 142.518Z" fill="white"/>
<path d="M132.954 150.735C151.381 141.555 171.984 138.555 183.539 119.529C184.167 118.436 182.605 117.544 181.964 118.56C178.588 124.204 174.015 129.064 168.57 132.762C157.495 140.242 144.316 143.719 132.539 149.907C127.327 152.541 122.337 155.617 117.642 159.082C116.947 159.596 116.257 160.116 115.575 160.646C115.442 160.75 115.417 160.941 115.518 161.074C115.622 161.211 115.817 161.238 115.952 161.132C116.578 160.66 117.212 160.197 117.849 159.739C122.618 156.315 127.675 153.299 132.954 150.731L132.954 150.735Z" fill="white"/>
<path d="M132.377 144.571C135.405 144.888 139.653 142.006 142.131 140.387C142.435 140.178 142.145 139.723 141.832 139.896C139.55 141.108 137.203 142.319 134.685 142.912C134.18 143.019 133.294 143.165 132.677 143.021C132.267 142.927 131.973 142.703 131.993 142.251C132.059 141.055 130.326 140.903 130.186 142.096C130.138 143.061 130.707 143.907 131.516 144.319C131.782 144.456 132.075 144.543 132.379 144.571L132.377 144.571Z" fill="white"/>
<path d="M139.764 136.102C143.436 135.291 146.895 133.742 150.203 132.002C151.361 131.386 152.924 130.464 154.065 129.77C154.163 129.711 154.2 129.584 154.145 129.482C154.088 129.375 153.952 129.336 153.845 129.395L151.887 130.429C147.966 132.381 143.864 134.12 139.528 134.849C139.254 134.893 138.958 134.933 138.657 134.968C138.245 135.014 137.829 135.046 137.455 135.041C136.493 135.022 136.475 136.422 137.431 136.435C137.623 136.429 137.812 136.415 138.002 136.394C138.595 136.334 139.185 136.22 139.762 136.1L139.764 136.102Z" fill="white"/>
<path d="M53.1 93.6959C50.5383 93.484 47.807 93.5276 44.9514 94.0174C40.4408 94.7915 36.9714 97.1676 36.4808 97.9274C35.9903 98.6871 35.2906 96.1235 36.7495 94.4853C38.2105 92.8492 42.253 89.5785 50.5689 89.1214C51.8008 89.0532 53.5722 89.1808 55.5308 89.4078C54.9771 89.287 54.4214 89.1682 53.8638 89.0537L54.1827 87.4477C55.3434 87.6754 56.5005 87.9217 57.6539 88.1806C57.6818 88.1466 57.7096 88.1127 57.7375 88.0787C52.7998 86.605 36.2212 83.2178 28.9637 86.0142C28.008 86.3816 27.3758 86.78 26.9668 87.1134C26.4893 87.5027 25.7741 87.4408 25.5422 86.9727C25.2197 86.3236 25.1059 85.3474 26.0865 84.1379C27.9362 81.8548 31.665 79.7682 39.7206 80.0305C45.4172 80.215 52.398 81.388 58.7226 82.7266C57.6374 82.4697 56.5131 82.2161 55.6903 82.017C55.455 81.9624 55.3089 81.7253 55.3634 81.4899C55.4181 81.2587 55.645 81.1151 55.8759 81.1594C56.5085 81.2902 58.1786 81.6111 59.3206 81.8373C49.8265 79.1154 38.7347 76.399 32.8729 76.6084C24.0604 76.9221 13.8609 80.1553 13.6635 80.4468C13.466 80.7384 12.4911 78.5535 14.5872 76.0889C16.1752 74.2213 24.299 70.0041 34.4109 70.3147C41.1397 70.5221 54.4782 73.5556 66.7189 76.7109C67.2811 75.9964 67.8434 75.2839 68.4078 74.5714C54.855 71.2346 39.9082 67.7459 34.7159 67.2353C23.983 66.1818 14.634 71.2607 12.233 74.0843C9.92968 76.7933 9.88346 79.6908 10.544 81.3503C11.0384 82.5955 12.0631 83.4186 13.2807 83.5514C14.1913 83.6506 15.085 83.3493 15.7459 82.7453C16.2792 82.4203 18.303 81.3843 21.531 80.5146C23.2321 80.0574 24.9501 79.8042 26.5191 79.6757C25.417 80.3806 24.4701 81.219 23.6825 82.1908C22.2404 83.9689 22.1157 85.6349 22.266 86.7194C22.5701 88.934 24.1764 90.1706 24.4936 90.3962C25.238 90.9223 26.1758 91.095 27.0594 90.8664C27.8139 90.6708 28.4623 90.1974 28.8821 89.5515C28.9866 89.4593 29.3296 89.1942 30.079 88.9057C32.7378 87.8805 37.2647 87.879 41.9404 88.3295C37.2403 89.7091 35.1259 91.6637 34.4412 92.4297C32.6948 94.385 32.4605 97.1541 33.1293 98.8775C33.6314 100.17 34.6899 101.019 35.9653 101.148C37.1143 101.266 38.2309 100.759 38.9388 99.817C39.5077 99.309 42.109 97.6489 45.4765 97.0724C47.0925 96.7957 48.6742 96.6771 50.2101 96.6778C50.4528 96.4468 50.6935 96.2159 50.9364 95.987C51.7455 95.2377 52.4024 94.5078 53.1023 93.7021L53.1 93.6959ZM11.1047 78.7051C11.3022 78.4156 11.5445 78.1682 11.8172 77.9693C11.5189 78.2103 11.2746 78.4558 11.1047 78.7051Z" fill="white"/>
<path d="M146.539 123.934C146.661 123.931 146.779 123.931 146.901 123.927C147.029 123.923 147.159 123.919 147.289 123.915C148.796 123.863 150.336 123.778 151.909 123.66C155.92 123.359 160.151 122.84 164.606 122.047C180.675 119.187 189.252 110.492 193.231 104.9C193.49 104.536 193.729 104.185 193.95 103.852C194.397 103.172 194.766 102.468 195.059 101.749C196.126 99.1563 196.192 96.3801 195.197 93.8672C193.922 90.6583 191.09 88.3196 187.426 87.4482C186.706 87.2768 185.865 87.1506 184.942 87.0601C184.399 87.0071 183.827 86.9675 183.233 86.9368C178.239 86.6865 171.692 87.2092 167.729 87.5256L167.354 87.5561C166.861 87.5945 166.362 87.6332 165.855 87.6679C169.316 87.566 172.786 87.3976 176.232 87.1659C177.616 87.1156 177.748 89.1393 176.34 89.2441C170.674 89.4431 165.025 89.5217 159.361 89.3176C157.395 89.1817 149.82 89.1005 148.33 87.2792C147.136 87.1023 145.934 86.8863 144.729 86.6229L126.412 80.4509C126.397 80.4451 126.383 80.4415 126.368 80.4357C126.228 80.3906 123.446 79.5014 119.982 78.5265C119.922 78.5098 119.863 78.4931 119.803 78.4764C119.03 79.332 118.259 80.1916 117.491 81.0512C121.682 82.1849 125.422 83.3846 125.422 83.3846L135.874 86.9069C145.628 90.1931 156.372 91.5171 167.348 90.6591C167.43 90.6523 167.515 90.6455 167.597 90.6387C172.337 90.2624 182.359 89.4245 186.71 90.458C192.321 91.7903 194.508 97.3722 191.363 102.146C187.437 108.109 179.198 116.302 164.064 118.996C158.716 119.948 153.694 120.496 148.996 120.735C154.344 120.806 159.87 120.248 165.694 118.953L166.231 121.48C151.861 124.538 139.962 123.301 128.854 119.867C118.129 118.346 110.154 115.438 104.862 113.467C99.1046 111.322 89.3361 106.668 81.109 102.837C80.275 103.587 79.4411 104.34 78.6071 105.088C80.1596 105.807 81.7607 106.556 83.3492 107.299C90.9053 110.831 98.7174 114.481 103.78 116.368C103.797 116.374 103.813 116.38 103.83 116.387C104.786 116.743 105.84 117.136 106.997 117.549C115.156 120.473 128.33 124.456 146.541 123.934L146.539 123.934Z" fill="white"/>
<path d="M53.8638 89.0534C54.4193 89.168 54.975 89.2868 55.5308 89.4076C55.8493 89.478 56.1679 89.5506 56.4865 89.6231C56.8784 89.1435 57.2661 88.6619 57.656 88.1802C56.5025 87.9193 55.3454 87.675 54.1847 87.4474L53.8658 89.0534L53.8638 89.0534Z" fill="white"/>
<path d="M109.288 109.394C102.655 106.116 96.0974 102.639 89.396 99.4624C88.6419 99.8647 87.8311 100.24 86.9999 100.492C101.949 107.633 114.762 115.516 128.85 119.869C139.956 123.301 151.856 124.54 166.227 121.482L165.689 118.955C159.868 120.25 154.342 120.808 148.992 120.737C135.234 120.553 122.657 116.187 109.284 109.396L109.288 109.394Z" fill="white"/>
<path d="M135.17 114.505C136.896 114.896 138.761 115.308 140.526 115.574C141.038 115.657 141.825 115.796 142.327 115.848C143.366 115.955 144.936 116.159 145.952 116.22L147.772 116.313C153.207 116.57 158.696 116.005 163.992 114.794C164.239 114.741 164.417 114.514 164.401 114.252C164.381 113.965 164.135 113.748 163.848 113.767C162.065 113.871 160.274 114.09 158.496 114.14C145.934 114.918 133.855 112.75 122.267 107.834C113.312 104.065 104.683 99.4802 95.9283 95.1844C95.3587 95.6015 94.7827 96.0147 94.2023 96.4197C94.6814 96.6629 95.1604 96.906 95.6395 97.1512C108.44 103.683 121.054 111.087 135.165 114.503L135.17 114.505Z" fill="white"/>
<path d="M59.3206 81.8387C58.1785 81.6125 56.5084 81.2915 55.8758 81.1608C55.645 81.1165 55.418 81.2601 55.3634 81.4913C55.3089 81.7266 55.4549 81.9638 55.6902 82.0183C56.5131 82.2195 57.6374 82.4711 58.7225 82.728C59.5182 82.9176 60.2953 83.1078 60.9127 83.2825C61.0858 83.3286 61.265 83.3746 61.4464 83.4226C61.6948 83.1087 61.9411 82.795 62.1895 82.4811C61.5105 82.3208 60.817 82.1589 60.2901 82.0352C60.0903 81.9919 59.7407 81.9204 59.3226 81.8386L59.3206 81.8387Z" fill="white"/>
<path d="M116.493 90.478C118.386 91.3252 121.247 92.3462 123.225 93.0005C123.622 93.1243 123.796 92.5565 123.432 92.4172C119.789 90.9725 115.929 89.1978 112.615 87.1163C112.483 87.0338 112.348 86.9471 112.215 86.8604C111.893 87.2034 111.571 87.5465 111.247 87.8876C112.948 88.8545 114.72 89.7221 116.495 90.4779L116.493 90.478Z" fill="white"/>
<path d="M152.089 98.2187C152.188 98.1969 152.266 98.1138 152.279 98.008C152.295 97.8711 152.192 97.7462 152.055 97.7361C150.991 97.6129 149.937 97.5679 148.887 97.5062C141.632 97.0489 134.286 96.4436 127.361 94.0782C127.086 93.9649 126.9 94.3367 127.124 94.4991C128.466 95.432 129.949 96.1042 131.458 96.6907C137.486 98.9132 144.172 99.5664 150.511 98.5232C151.04 98.4299 151.566 98.3346 152.089 98.2166L152.089 98.2187Z" fill="white"/>
<path d="M163.53 105.588C159.967 105.546 156.282 105.51 152.723 105.278C143.199 104.73 133.65 103.209 124.542 100.342C118.864 98.5367 113.214 96.3085 108.054 93.3142C107.915 93.2236 107.726 93.2523 107.62 93.3859C107.509 93.5259 107.534 93.7318 107.674 93.841C109.618 95.3543 111.706 96.6066 113.856 97.7825C116.002 98.9545 118.22 99.9877 120.474 100.933C132.335 105.802 145.347 107.99 158.146 107.179C159.904 107.073 161.871 106.87 163.6 106.637C164.273 106.535 164.16 105.586 163.527 105.588L163.53 105.588Z" fill="white"/>
<path d="M83.6207 100.573C83.6521 100.584 83.6814 100.595 83.7148 100.605C84.7877 100.934 85.9127 100.82 87.0019 100.49C87.8332 100.238 88.6439 99.8627 89.398 99.4604C89.9753 99.1526 90.519 98.8294 91.0139 98.5346C92.1023 97.855 93.1629 97.1453 94.2064 96.4175C94.7867 96.0125 95.3627 95.5993 95.9323 95.1822C96.605 94.6895 97.2713 94.1928 97.9311 93.6861C98.8342 94.3932 100.062 94.7861 101.495 94.7198C104.534 94.4907 106.995 92.06 109.031 90.1616C109.78 89.4122 110.517 88.6529 111.245 87.8876C111.569 87.5466 111.893 87.2055 112.212 86.8604C114.004 84.9451 115.746 82.994 117.489 81.0472C118.257 80.1876 119.028 79.3279 119.8 78.4723C120.134 78.102 120.469 77.7337 120.805 77.3655C122.371 75.6495 123.958 73.9535 125.599 72.3055C130.841 66.7971 136.69 62.0405 143.01 57.9469C143.679 57.3013 144.422 56.7381 144.855 56.3709C147.932 53.997 151.21 51.9743 154.517 49.9693C157.822 47.9872 161.157 46.0867 164.547 44.2445C165.743 43.6421 166.676 45.2888 165.634 46.0123C167.33 45.1315 169.009 44.2223 170.649 43.2688C172.527 42.1547 174.312 41.0747 176.024 39.6042C177.615 38.2699 178.817 36.5634 179.461 34.7176C180.427 31.9521 180.137 28.8772 178.004 26.2889C177.504 25.6888 176.956 25.1771 176.371 24.7347C175.382 23.9869 174.29 23.4409 173.133 23.0002C171.201 22.239 169.207 21.6307 167.185 21.1638C166.9 21.0985 166.615 21.0352 166.327 20.9741C165.131 20.7228 163.928 20.5234 162.722 20.3675C153.321 19.162 143.683 20.8187 134.886 24.1995L133.062 24.8819L131.249 25.599C126.939 27.2907 122.753 29.1666 118.693 31.2266C117.423 31.8706 116.165 32.5329 114.919 33.2113C111.721 34.9565 108.606 36.821 105.574 38.8048C104.307 39.6348 103.054 40.4871 101.815 41.3596C95.4527 45.8452 89.4844 50.8909 83.929 56.5043C83.1699 57.2706 82.4174 58.0449 81.6735 58.8334C80.2378 60.3551 78.8323 61.9171 77.4549 63.5195C74.3471 67.1243 71.3562 70.8308 68.4013 74.5651C67.8369 75.2776 67.2747 75.9921 66.7124 76.7046C65.2006 78.6276 63.693 80.5546 62.181 82.4735C61.9326 82.7873 61.6863 83.1011 61.4379 83.4149C60.208 84.9734 58.9737 86.5259 57.731 88.0703C57.7031 88.1042 57.6753 88.1382 57.6474 88.1722C57.2576 88.6538 56.8698 89.1354 56.4779 89.615C55.4414 90.8863 54.3984 92.1473 53.3427 93.3985C53.259 93.4962 53.1752 93.5919 53.0914 93.6876C52.3915 94.4933 51.7326 95.2233 50.9255 95.9725C50.6827 96.2014 50.4399 96.4324 50.1992 96.6633C47.6936 99.0562 45.2513 101.49 42.5855 103.593C38.844 106.577 34.7093 109.03 30.1739 110.516C28.0799 111.166 25.7172 111.555 23.5577 111.51C23.2371 111.504 22.9635 111.482 22.6956 111.44C22.3191 111.302 21.7413 111.204 21.29 111.25C19.5822 111.366 18.3363 112.944 18.3994 114.535C18.4304 115.768 18.9389 116.74 19.6375 117.648C20.6193 118.878 22.0659 119.71 23.6104 119.982C26.2962 120.454 29.4972 120.036 32.6636 119.179C29.0079 121.614 22.2275 125.952 18.1864 125.568C18.1802 125.568 18.1968 125.57 18.2178 125.579L18.245 125.589L18.2827 125.604L18.3414 125.631L18.4002 125.66L18.4359 125.678L18.5411 125.737L14.2474 126.959C13.5217 128.381 13.4046 130.092 14.072 131.578C15.1407 133.913 17.5158 134.757 19.8042 135.087C20.4415 135.17 21.0774 135.212 21.7081 135.219C17.6889 137.077 13.4245 138.313 9.01508 138.629C8.99443 138.629 8.97584 138.63 8.95519 138.631C7.54364 138.38 6.02547 139.195 5.49728 140.525C4.91894 141.837 5.33816 143.382 5.99904 144.467C7.14115 146.318 8.94552 147.35 10.9246 147.897C12.5812 148.311 14.3517 148.282 15.9805 148.213C22.6341 147.811 29.1618 145.79 34.8492 142.308C36.0013 141.616 37.2657 140.689 38.3357 139.884C44.3171 135.251 49.9484 130.332 55.6477 125.409C63.3633 118.691 70.9981 111.907 78.5965 105.08C79.4304 104.33 80.2644 103.58 81.0984 102.83C81.9363 102.075 82.7742 101.319 83.6122 100.565L83.6207 100.573ZM22.7901 111.487C22.8005 111.491 22.8969 111.531 22.8361 111.506C22.8214 111.498 22.8026 111.493 22.788 111.487L22.7901 111.487ZM20.6409 116.959C20.6283 116.953 20.6158 116.949 20.6011 116.944C20.5907 116.94 20.6116 116.947 20.6409 116.959ZM9.44114 138.766C9.37627 138.741 9.3096 138.725 9.24286 138.706C9.33231 138.724 9.68571 138.851 9.44114 138.766ZM7.64948 144.689C7.58274 144.671 7.518 144.65 7.45113 144.628C7.26924 144.563 7.50135 144.647 7.64948 144.689ZM7.74952 144.715C7.8058 144.73 7.86395 144.738 7.92016 144.751C7.86401 144.741 7.8058 144.73 7.74952 144.715ZM34.4148 138.924C24.5605 144.755 14.2631 145.626 11.6935 144.908C8.30005 143.958 8.09961 141.558 8.45133 141.698C8.80305 141.837 20.6352 138.982 29.533 134.401C35.4695 131.345 45.0539 122.879 53.0235 115.312C51.9316 116.209 50.736 117.156 49.8578 117.881C49.6704 118.033 49.3926 118.005 49.2398 117.816C49.087 117.626 49.1175 117.35 49.3028 117.198C50.1821 116.444 51.0832 115.659 51.988 114.863C46.4082 119.514 40.0689 124.4 34.4878 127.716C26.6467 132.372 21.839 132.643 18.7873 131.715C17.1697 131.223 16.7629 130.328 16.7354 129.596C16.7186 129.069 17.3907 128.622 18.073 128.691C18.6557 128.751 19.4947 128.743 20.6373 128.531C29.3238 126.923 43.9501 114.898 48.051 110.929C48.0811 110.901 48.1091 110.871 48.1392 110.843C48.2675 110.719 48.3441 110.593 48.3796 110.474C47.2007 111.491 46.0025 112.488 44.7872 113.468L43.7545 112.196C44.2844 111.762 44.81 111.325 45.3333 110.883C43.4409 112.212 41.6807 113.347 40.3823 113.988C31.8999 118.176 26.1477 117.608 23.8281 117.017C21.5065 116.425 20.8313 113.85 21.7239 114.229C22.6166 114.608 27.321 114.727 32.2033 112.903C42.4664 109.07 48.7616 101.825 53.0743 97.8244C57.3871 93.8237 73.2585 72.0167 81.1782 63.3369C85.7143 58.3657 92.7803 50.726 104.03 42.8869C113.495 34.3088 124.319 27.7793 137.79 23.334L138.461 25.3425C132.734 27.2344 127.633 29.4164 123.001 31.8811C127.248 29.8441 131.865 27.8801 136.886 26.0376C153.319 20.0075 165.856 22.463 172.928 25.3901C178.592 27.7337 179.406 33.6983 174.557 37.9228C170.798 41.199 160.421 46.0006 155.522 48.2878C155.437 48.3277 155.349 48.3656 155.263 48.4076C119.762 66.0213 108.838 92.4023 101.083 91.6736C99.9618 91.5687 99.5178 91.3865 99.4037 90.9188C99.4265 91.0504 99.4552 91.1735 99.4938 91.2818C99.6982 91.8583 99.3959 92.4922 98.8195 92.6966C98.2431 92.9009 97.6092 92.5987 97.4048 92.0222C97.2085 91.4394 97.1613 90.8683 97.186 90.3466C93.9646 92.8511 89.0125 96.5085 86.4674 97.4019C85.6129 97.7019 85.063 97.7649 84.7233 97.6786C84.8876 97.8387 85.0992 97.9271 85.3497 97.9377C86.0623 97.9233 86.653 98.4915 86.6675 99.2042C86.6819 99.9169 86.1136 100.508 85.4009 100.522C83.9213 100.534 82.4674 99.4723 82.0931 98.0394C82.086 98.0127 82.0811 97.9881 82.074 97.9614C73.0385 106.588 45.9367 132.103 34.4086 138.924L34.4148 138.924Z" fill="white"/>
<path d="M99.3785 90.6445C99.376 90.5682 99.3797 90.4875 99.3872 90.3984C99.3916 90.3425 99.3879 90.291 99.378 90.2417C99.3782 90.2458 99.3784 90.252 99.3765 90.2562C99.3684 90.3928 99.3704 90.5208 99.3764 90.6425L99.3785 90.6445Z" fill="white"/>
<path d="M78.1582 77.2951C92.3354 57.6568 103.485 42.2676 123.007 31.8809C127.64 29.4162 132.74 27.2321 138.468 25.3423L137.796 23.3338C124.326 27.7812 113.501 34.3107 104.036 42.8867C97.6633 48.6626 91.9048 55.3656 86.3721 62.9896C79.8439 71.7429 73.6747 80.737 66.7219 89.1421C60.2586 97.0128 53.1283 104.324 45.3375 110.883C44.8141 111.323 44.2864 111.762 43.7587 112.196L44.7914 113.468C46.0067 112.488 47.2028 111.491 48.3838 110.474C59.6705 100.746 69.3939 89.3133 78.1603 77.2971L78.1582 77.2951Z" fill="white"/>
<path d="M60.3828 108.765C72.4797 97.4093 82.2074 83.7729 91.9544 70.4852C99.5446 60.2201 107.788 50.2835 118.163 42.7472C119.071 42.1188 120.455 41.1156 121.365 40.4995C121.935 40.1444 123.233 39.2907 123.83 38.9058C125.185 38.0234 126.646 37.2204 128.025 36.3806C128.628 36.0513 129.97 35.3306 130.611 34.9774L131.471 34.5014C131.759 34.3476 132.057 34.2079 132.348 34.0601C133.355 33.567 134.415 33.0207 135.424 32.5131C136.769 31.9018 138.111 31.2761 139.444 30.6301C139.687 30.5252 139.817 30.2503 139.732 29.9905C139.643 29.7184 139.348 29.5686 139.076 29.6579C137.659 30.1226 136.234 30.6166 134.825 31.1141C120.982 36.3217 109.544 45.4484 100.055 56.6566C93.1607 64.7436 87.2187 73.5361 80.9861 82.0981C74.0278 91.692 66.6048 100.974 58.0824 109.227C56.1925 111.091 54.0833 113.017 51.9922 114.859C51.0874 115.657 50.1842 116.44 49.3069 117.194C49.1196 117.346 49.0911 117.622 49.2439 117.812C49.3967 117.999 49.6725 118.027 49.862 117.877C50.7402 117.152 51.9358 116.204 53.0276 115.308C53.5473 114.88 54.0446 114.463 54.473 114.088C56.397 112.451 58.5483 110.485 60.3889 108.76L60.3828 108.765Z" fill="white"/>
<path d="M84.3869 96.7179C84.4562 91.1056 93.7421 80.0175 97.4337 75.4681C102.125 69.7148 107.16 64.2626 112.786 59.4221C114.663 57.8162 116.599 56.2765 118.579 54.7975C118.759 54.6657 118.803 54.4142 118.673 54.2302C118.543 54.0442 118.287 54.0006 118.101 54.1306C114.008 56.9874 110.121 60.1375 106.476 63.5485C99.2363 70.4703 92.6381 77.936 86.7412 86.0676C85.2869 88.1769 83.9227 90.3206 82.8948 92.7057C82.2295 94.3392 81.6098 96.1676 82.0783 97.9635C82.0854 97.9902 82.0903 98.0148 82.0973 98.0415C82.4696 99.4745 83.9255 100.536 85.4052 100.524C86.1179 100.51 86.6861 99.919 86.6717 99.2063C86.6573 98.4936 86.0687 97.9253 85.3539 97.9398C85.1035 97.9313 84.8919 97.8408 84.7276 97.6807C84.5227 97.4785 84.3948 97.1621 84.3869 96.7179Z" fill="white"/>
<path d="M99.3785 90.2581C99.3785 90.2581 99.3782 90.2477 99.3802 90.2436C99.4772 88.9423 99.979 87.6923 100.54 86.4714C101.335 84.782 102.338 83.1481 103.42 81.5715C110.109 72.0958 118.987 64.2247 128.527 57.6741C129.034 57.2921 128.502 56.6166 128.025 56.9088C118.141 63.3029 108.969 71.0076 101.878 80.4796C99.9166 83.2665 97.6232 86.6118 97.2115 90.1059C97.2037 90.1847 97.2001 90.2654 97.1965 90.3482C97.1718 90.8699 97.2209 91.4409 97.4152 92.0239C97.6196 92.6003 98.2535 92.9026 98.8299 92.6982C99.4063 92.4938 99.7086 91.8599 99.5042 91.2835C99.4636 91.1752 99.4348 91.0521 99.4141 90.9205C99.399 90.8341 99.3898 90.7414 99.3826 90.6445C99.3746 90.5228 99.3746 90.3946 99.3827 90.2579L99.3785 90.2581Z" fill="white"/>
<path d="M180.455 54.8862C178.945 53.8325 177.14 54.7251 176.209 56.0446C175.762 56.617 175.339 57.2134 174.978 57.847C174.605 58.4439 174.399 59.1367 173.873 59.6145C173.835 59.6488 173.822 59.707 173.848 59.7537C174.026 60.0189 174.702 59.1808 174.819 59.02C174.837 58.9946 174.857 58.9671 174.877 58.9396C174.835 58.9203 174.793 58.901 174.751 58.8816C174.631 58.8234 174.695 58.6353 174.827 58.6663C174.899 58.6764 174.972 58.6885 175.045 58.7028C175.581 57.9581 176.181 57.1865 176.788 56.5285C177.037 56.227 177.328 55.9531 177.646 55.7384C177.736 55.1857 178.031 54.7876 178.451 54.7309C178.811 54.6801 179.153 54.9008 179.391 55.2901C179.395 55.2899 179.399 55.2919 179.403 55.2917C179.605 55.3287 179.808 55.3967 180.008 55.5061C180.43 55.78 180.858 55.1958 180.457 54.884L180.455 54.8862Z" fill="white"/>
<path d="M174.403 55.9987C174.029 56.5956 173.824 57.2863 173.297 57.7641C173.257 57.7984 173.246 57.8566 173.271 57.9055C173.449 58.1706 174.123 57.3347 174.242 57.1717C174.833 56.3343 175.518 55.4319 176.211 54.6822C176.993 53.7416 178.248 53.0092 179.43 53.6599C179.854 53.9295 180.278 53.3497 179.879 53.0378C179.524 52.7845 179.119 52.6466 178.691 52.594C176.572 52.401 175.361 54.4633 174.403 55.9987Z" fill="white"/>
<path d="M179.47 57.7656C179.366 57.9405 179.248 58.1344 179.104 58.2837C178.049 59.4439 176.421 58.9355 175.045 58.7003C174.972 58.6881 174.897 58.676 174.826 58.6638C174.695 58.6329 174.629 58.821 174.751 58.8791C174.793 58.8985 174.835 58.9178 174.877 58.9371C175.73 59.3275 176.566 59.7515 177.547 59.7658C178.628 59.8203 179.799 59.1628 180.154 58.089C180.256 57.7819 179.971 57.5512 179.718 57.5964C179.624 57.6119 179.535 57.6643 179.472 57.7676L179.47 57.7656Z" fill="white"/>
<path d="M179.686 56.1734C179.64 55.8318 179.533 55.5292 179.387 55.29C179.149 54.9007 178.807 54.68 178.447 54.7308C178.029 54.7875 177.732 55.1856 177.642 55.7383C177.608 55.9564 177.603 56.1964 177.638 56.4516C177.689 56.8344 177.822 57.1878 178.011 57.4484C178.227 57.7475 178.511 57.91 178.8 57.9008C178.825 57.9 178.85 57.8992 178.876 57.8942C179.459 57.8157 179.807 57.075 179.686 56.1755L179.686 56.1734Z" fill="white"/>
<path d="M171.895 57.2712C172.51 56.096 173.226 54.9487 174.024 53.8898C174.827 52.843 175.71 51.8558 176.743 51.1346C177.218 50.797 177.754 50.5008 178.321 50.3815C180.098 49.9611 181.278 51.3188 181.626 53.0999C181.718 53.529 182.138 53.8071 182.57 53.7189C183.003 53.6307 183.283 53.2063 183.195 52.773C183.045 52.0377 182.784 51.2957 182.339 50.6174C181.124 48.744 178.764 48.3333 176.878 49.4683C174.207 51.1615 172.543 54.2139 171.486 57.1043C171.397 57.3676 171.778 57.5147 171.895 57.2712Z" fill="white"/>
<path d="M157.554 58.8751C157.573 58.953 157.53 59.0309 157.459 59.058C156.417 59.4963 154.44 60.2517 152.176 61.1651C155.345 60.318 158.308 59.248 159.552 58.8177C160.05 58.622 159.774 57.8907 159.277 58.0575C158.04 58.471 156.789 58.8664 155.528 59.2352C156.139 59.0711 156.751 58.911 157.365 58.7612C157.449 58.7399 157.533 58.791 157.552 58.8751L157.554 58.8751Z" fill="white"/>
<path d="M141.692 60.8891C142.126 61.9543 143.464 62.3458 145.235 62.3369C145.531 62.3358 145.838 62.3219 146.158 62.2993C146.566 62.1395 146.975 61.9818 147.385 61.8261C149.416 61.0752 151.468 60.3959 153.538 59.7904C151.788 60.2534 150.021 60.6508 148.244 60.9368C147.314 61.078 146.377 61.1843 145.461 61.1949C144.676 61.193 143.672 61.1588 143.063 60.7235C142.915 60.6083 142.838 60.4888 142.798 60.333C142.835 60.1354 142.974 59.9284 143.136 59.7207C143.198 59.6463 143.264 59.574 143.328 59.4996C143.98 58.7677 144.769 58.1617 145.575 57.5552C145.615 57.525 145.654 57.4969 145.692 57.4667C147.211 56.3559 148.818 55.3332 150.444 54.3408C155.34 51.3819 160.413 48.6758 165.511 46.0908C165.558 46.0666 165.6 46.0383 165.641 46.0102C166.682 45.2866 165.749 43.6399 164.553 44.2423C161.162 46.0846 157.826 47.9851 154.524 49.9672C151.216 51.9722 147.938 53.9948 144.861 56.3687C144.428 56.7359 143.686 57.2991 143.016 57.9447C142.067 58.8596 141.262 59.9436 141.693 60.8828L141.692 60.8891Z" fill="white"/>
<path d="M147.383 61.8282C146.975 61.9838 146.564 62.1416 146.156 62.3014C146.046 62.3441 145.933 62.3891 145.823 62.4319C143.876 63.2029 141.951 64.0579 140.191 65.2426C138.913 66.0854 137.562 67.6126 139.005 69.0301C139.192 69.1999 139.418 69.3436 139.672 69.4657C140.976 70.1002 143.086 70.1405 145.35 69.9071C148.189 69.0209 151.097 68.3516 154.006 67.7835C154.18 67.7552 154.277 68.0126 154.083 68.0849C153.689 68.2235 153.294 68.3601 152.898 68.4989C153.458 68.3611 153.952 68.2379 154.354 68.1362C156.039 67.6836 157.71 67.2025 159.364 66.6351C159.844 66.4627 159.632 65.7584 159.147 65.8586C156.167 66.4455 142.647 69.6728 140.229 67.879C140.143 67.8157 140.07 67.7456 140.014 67.6689C140.549 66.5728 143.188 65.1017 146.298 63.6652C148.205 62.7859 150.288 61.9196 152.174 61.1588C154.437 60.2475 156.414 59.49 157.457 59.0517C157.528 59.0246 157.571 58.9467 157.552 58.8688C157.531 58.7847 157.446 58.7337 157.364 58.7549C156.749 58.9068 156.138 59.0668 155.527 59.2289C154.861 59.4072 154.197 59.5916 153.536 59.7843C151.465 60.3897 149.414 61.069 147.383 61.8199L147.383 61.8282Z" fill="white"/>
<path d="M154.006 67.7877C151.097 68.3537 148.189 69.0251 145.35 69.9114C144.777 70.0908 144.206 70.2785 143.64 70.4743C142.36 70.9202 141.099 71.4131 139.859 71.9673C138.664 72.5883 137.383 73.1438 136.571 74.3851C135.984 75.2988 136.456 76.4889 137.362 77.0161C137.988 77.4117 138.728 77.5825 139.411 77.6868C140.943 77.8861 142.471 77.8436 143.988 77.7002C144.577 77.6442 145.166 77.5717 145.751 77.4932C147.906 76.5067 150.155 75.7902 152.432 75.1492C152.907 75.0204 153.385 74.8936 153.86 74.773C148.892 75.6423 139.852 77.1394 138.004 75.4392C137.965 75.3949 137.958 75.3435 137.936 75.3028C137.936 75.307 137.933 75.2946 137.939 75.2717C137.944 75.2509 137.954 75.2196 137.977 75.1754C138.526 74.358 139.617 73.823 140.533 73.3225C142.891 72.1415 145.355 71.1701 147.848 70.268C149.524 69.6627 151.215 69.0879 152.9 68.503C153.295 68.3664 153.691 68.2277 154.086 68.0891C154.28 68.0167 154.183 67.7594 154.008 67.7877L154.006 67.7877Z" fill="white"/>
<path d="M165.004 87.6912C161.28 87.7746 157.525 87.8198 153.82 87.5285C152.9 87.4503 151.983 87.3472 151.103 87.1727C150.468 87.0213 149.749 86.9119 149.285 86.4926C149.077 85.7943 149.95 85.1733 150.498 84.7899C152.827 83.3494 155.567 82.6193 158.217 81.9003C160.026 81.4375 161.861 81.036 163.694 80.7047C164.212 80.5952 164.078 79.8408 163.559 79.909C161.805 80.1944 160.06 80.5104 158.332 80.8982C159.76 80.6956 161.188 80.4869 162.618 80.2739C162.702 80.2609 162.783 80.3203 162.794 80.4047C162.805 80.4829 162.757 80.5547 162.684 80.5777C160.207 81.2809 155.514 82.4866 151.156 83.136C150.906 83.2494 150.651 83.3732 150.399 83.5073C149.005 84.2504 147.734 85.3141 148.095 86.8323C148.133 86.9902 148.212 87.1386 148.324 87.2756C149.814 89.0968 157.389 89.1781 159.355 89.3139C165.019 89.5181 170.666 89.4395 176.334 89.2404C177.74 89.1336 177.609 87.112 176.226 87.1623C172.779 87.394 169.31 87.5623 165.849 87.6643C165.566 87.6733 165.283 87.6823 165.002 87.6913L165.004 87.6912Z" fill="white"/>
<path d="M145.751 77.4933C145.565 77.5777 145.38 77.6622 145.197 77.7528C145.168 77.7661 145.138 77.7795 145.109 77.7928C143.874 78.4605 142.512 79.1343 141.779 80.5075C141.255 81.5805 141.692 82.7303 142.789 83.1523C143.699 83.4912 144.976 83.6118 146.459 83.5811C147.883 83.5523 149.496 83.3872 151.158 83.1379C155.516 82.4886 160.209 81.2829 162.686 80.5797C162.759 80.5588 162.809 80.4848 162.796 80.4067C162.783 80.3224 162.704 80.2628 162.62 80.2759C161.19 80.4888 159.762 80.6976 158.334 80.9002C156.396 81.1748 154.459 81.4329 152.525 81.6516C150.765 81.8275 144.255 82.5764 143.197 81.4938C143.65 78.7736 157.203 75.1752 160.122 74.2616C160.611 74.1137 160.442 73.4018 159.948 73.4733C157.893 73.8116 155.869 74.2564 153.856 74.7712C153.378 74.8939 152.903 75.0186 152.427 75.1474C150.151 75.7883 147.902 76.5049 145.746 77.4913L145.751 77.4933Z" fill="white"/>
</svg>
