<svg width="199" height="379" viewBox="0 0 199 379" fill="none" xmlns="http://www.w3.org/2000/svg">
<path d="M79.7792 125.234L85.1262 123.999L84.56 120.907L60.6979 126.127L61.5996 129.435L68.5122 127.837L74.1457 126.532L75.257 126.281L79.7792 125.234Z" fill="white" fill-opacity="0.99"/>
<path d="M75.1182 146.427C74.9784 148.046 76.1736 149.47 77.7952 149.616C79.4168 149.756 80.8426 148.563 80.9894 146.944C81.1012 145.687 80.3953 144.55 79.3189 144.041L77.928 134.634C77.8791 134.801 77.8232 134.955 77.7603 135.101C76.9635 136.867 76.2645 137.39 74.3983 137.948L75.7193 144.906C75.3908 145.332 75.1742 145.848 75.1252 146.427H75.1182Z" fill="white" fill-opacity="0.99"/>
<path d="M54.4719 217.809L51.711 237.502V252.303L48.0206 261.751L61.72 242.924L59.0849 222.987L67.2486 204.327L72.4418 185.925L73.3714 152.589L69.7509 184.369L54.4719 217.809Z" fill="white" fill-opacity="0.99"/>
<path d="M105.55 233.231H96.0448L89.4537 251.263L100.134 251.723L108.654 258.953L107.34 252.03L105.55 233.231Z" fill="white" fill-opacity="0.99"/>
<path d="M70.9105 131.424L73.1262 128.081L68.1986 129.17L67.6744 131.354L67.4787 131.905C67.1082 132.945 66.3044 133.776 65.277 134.18C61.6774 135.597 52.8427 138.919 46.657 139.944C42.7568 140.593 35.5018 138.249 35.5018 138.249C35.5018 138.249 28.1908 137.844 26.5482 139.289C24.8987 140.733 21.1454 141.724 21.8723 143.099C22.5992 144.48 29.1693 146.434 42.4144 144.676C55.6594 142.917 69.2959 135.869 70.9105 131.431V131.424Z" fill="white" fill-opacity="0.99"/>
<path d="M79.5297 227.341L75.0355 253.182L77.1603 253.991L80.7319 228.151L79.5297 227.341Z" fill="white" fill-opacity="0.99"/>
<path d="M88.3703 253.949L84.596 255.254L84.0788 263.154H84.1696C84.0787 264.389 83.9739 265.596 83.8691 266.559C83.4986 270.027 83.7572 289.336 84.7218 291.283C85.6863 293.237 85.6444 293.754 85.6444 293.754C85.6444 293.754 84.1487 290.586 83.0094 294.228C82.3873 296.203 82.1916 309.999 82.1357 322.218C82.8975 322.142 83.8411 322.016 84.9874 321.786C86.4622 321.493 88.2445 321.088 89.8381 320.711C91.4247 312.051 92.6968 304.375 92.8366 301.381C93.235 292.923 90.0687 288.499 92.1726 285.373C94.2764 282.246 97.6454 258.171 97.6454 258.171L97.4566 258.199L97.6454 256.95L88.3563 253.935L88.3703 253.949Z" fill="white" fill-opacity="0.99"/>
<path d="M83.1289 229.532L80.2632 249.469L81.3047 251.242L84.1564 230.453L83.1289 229.532Z" fill="white" fill-opacity="0.99"/>
<path d="M102.775 204.962L100.49 226.476L102.88 227.76L104.53 228.646L108.653 229.19L108.751 228.186L111.254 202.791L112.169 193.454L104.942 202.303L102.775 204.962Z" fill="white" fill-opacity="0.99"/>
<path d="M75.7813 121.717L58.9576 25.7442L55.7355 20.1406L54.3236 26.7421L70.5113 122.764L75.7813 121.717Z" fill="white" fill-opacity="0.99"/>
<path d="M62.8175 99.3932L62.6847 99.5049C62.7336 99.5886 62.7826 99.6793 62.8315 99.7561C62.8315 99.6305 62.8245 99.5118 62.8175 99.3862V99.3932Z" fill="white" fill-opacity="0.99"/>
<path d="M96.6603 49.8331C92.823 51.5637 91.495 54.4946 91.2294 57.2581C92.4736 55.2902 94.4935 53.5944 97.4501 52.3802C100.686 51.0473 105.614 51.3125 107.585 51.9476C105.39 49.4284 101.881 47.4744 96.6603 49.8331Z" fill="white" fill-opacity="0.99"/>
<path d="M77.6984 121.333L77.8312 121.305C77.7893 121.27 77.7404 121.284 77.6984 121.333Z" fill="white" fill-opacity="0.99"/>
<path d="M35.0757 133.406L40.171 135.325L37.7457 132.568L34.7472 131.654L38.6404 131.801L40.9329 132.952L38.2489 130.51L37.5849 129.868L45.9793 120.538L43.6448 121.877C43.6448 121.877 28.247 133.894 28.1911 134.062C28.1352 134.229 35.0827 133.399 35.0827 133.399L35.0757 133.406Z" fill="white" fill-opacity="0.99"/>
<path d="M46.6495 117.718C48.0124 118.242 55.4912 111.075 55.7777 111.012C57.609 110.601 59.2515 110.175 60.7403 109.756L60.244 113.378L55.8896 117.021L50.0044 122.631L51.5002 124.997L63.6269 114.173L65.556 112.15C65.6888 110.866 65.584 109.554 65.3394 108.249C64.6754 104.774 63.1936 102.513 61.0898 101.11C61.0408 101.075 60.9849 101.04 60.936 101.005L44.1962 115.283C44.1962 115.283 45.2935 117.188 46.6565 117.718H46.6495Z" fill="white" fill-opacity="0.99"/>
<path d="M58.1678 127.983L54.2327 129.825C54.2327 129.825 50.4793 133.015 46.2996 135.743C46.2018 135.806 46.0969 135.862 45.9921 135.925C45.5867 136.685 45.1953 137.481 44.8039 138.304C45.9292 138.255 47.1104 138.172 48.3405 138.018C55.4488 137.132 66.0449 132.533 66.0449 132.533C66.0449 132.533 66.4363 130.593 66.5971 129.63L60.7049 130.935L59.5517 127.348L58.1748 127.99L58.1678 127.983Z" fill="white" fill-opacity="0.99"/>
<path d="M103.342 64.4038C104.314 63.5106 106.467 63.5874 107.927 63.4687L107.466 63.1198C107.466 63.1198 106.816 62.6313 105.202 62.6313C103.342 62.6313 103.426 64.1177 103.342 64.4108V64.4038Z" fill="white" fill-opacity="0.99"/>
<path d="M187.397 203.587L152.561 319.12L153.113 320.174L188.969 203.936H188.934C188.452 203.852 187.935 203.74 187.397 203.594V203.587Z" fill="white" fill-opacity="0.99"/>
<path d="M124.989 280.314L125.513 284.089C125.513 284.089 122.088 290.209 121.823 295.15C121.683 297.738 121.907 305.694 122.151 312.672C124.164 311.932 126.813 310.872 129.329 309.595C129.749 309.378 130.147 309.169 130.539 308.96L131.566 292.637C132.936 291.981 133.991 290.802 134.404 289.351C134.641 288.499 134.655 287.599 134.928 286.755C138.695 274.975 139.206 256.259 139.206 256.259L126.694 262.63C126.694 262.63 124.451 276.531 124.982 280.307L124.989 280.314Z" fill="white" fill-opacity="0.99"/>
<path d="M191.375 193.873C190.815 194.019 186.538 192.84 186.538 192.84C186.538 192.84 179.954 193.238 177.913 193.266C177.102 193.28 175.306 193.468 173.474 193.712L157.678 183.496C157.678 183.496 154.757 186.797 154.435 187.662C154.114 188.527 153.729 190.091 153.729 190.091C153.729 190.091 176.319 198.458 177.57 198.786C178.821 199.114 182.155 198.13 182.917 197.571C183.672 197.013 186.307 195.206 186.538 195.206C186.671 195.206 187.74 195.241 188.837 195.206L190.326 195.101C190.55 195.073 190.759 195.038 190.927 194.989C192.129 194.668 191.927 193.733 191.368 193.88L191.375 193.873Z" fill="white" fill-opacity="0.99"/>
<path d="M194.631 193.057C194.191 193.092 192.43 194.766 192.374 195.346C192.367 195.429 192.388 195.492 192.465 195.52C193.003 195.75 195.33 195.087 195.484 195.045C195.33 195.122 192.192 196.63 192.192 197.502C192.192 198.088 193.331 197.907 194.254 197.627C194.254 197.627 194.289 197.62 194.303 197.613C194.429 197.579 194.547 197.537 194.659 197.495C194.673 197.495 194.694 197.481 194.708 197.481C193.555 198.074 191.311 199.351 191.521 199.958C191.682 200.419 192.611 200.363 193.429 200.209C194.044 200.098 194.589 199.937 194.701 199.902C194.457 200.007 190.577 201.689 191.507 202.477C191.773 202.701 192.164 202.812 192.604 202.798C192.604 202.798 192.632 202.798 192.639 202.798C192.765 202.798 192.891 202.777 193.024 202.75C193.038 202.75 193.052 202.75 193.066 202.743C193.205 202.715 193.345 202.666 193.492 202.61C193.52 202.596 193.548 202.582 193.583 202.575C193.695 202.526 193.807 202.47 193.918 202.401C193.953 202.38 193.988 202.366 194.023 202.338C194.156 202.254 194.282 202.156 194.408 202.052C194.443 202.024 194.471 201.989 194.499 201.961C194.596 201.87 194.687 201.773 194.771 201.668C194.806 201.626 194.848 201.584 194.883 201.535C194.988 201.396 195.093 201.242 195.184 201.075C195.204 201.04 195.218 201.005 195.232 200.97C195.309 200.824 195.372 200.67 195.435 200.502C195.456 200.44 195.477 200.377 195.498 200.314C195.561 200.112 195.624 199.902 195.666 199.672C195.666 199.665 195.666 199.651 195.673 199.644C195.91 198.332 196.141 196.867 196.155 195.653C196.169 194.096 195.82 192.945 194.631 193.043V193.057Z" fill="white" fill-opacity="0.99"/>
<path d="M195.372 190.063C193.373 189.26 189.116 189.539 182.442 190.286C181.533 190.391 180.505 190.502 180.275 190.502C179.359 190.502 175.913 189.951 172.244 187.509C168.868 185.262 159.768 178.876 157.342 177.174C157.3 176.909 157.244 176.581 157.182 176.176L158.118 175.303C158.16 175.262 158.202 175.22 158.244 175.171C159.726 173.475 161.18 171.703 162.542 169.93C162.57 169.895 162.605 169.853 162.626 169.819C176.521 151.745 183.029 131.514 187.145 115.904C190.731 102.303 189.515 91.5635 187.858 84.948C185.181 74.2223 179.38 66.2042 173.09 64.5084C170.755 63.8804 168.484 64.2991 166.338 65.7436C163.647 67.1393 158.684 74.8364 154.945 81.1378C154.882 81.2355 154.805 81.3681 154.714 81.5286C154.714 81.5426 154.7 81.5495 154.693 81.5635C154.679 81.5844 154.672 81.6054 154.658 81.6263C154.316 82.2823 153.82 83.4477 153.386 85.3458L152.995 86.5111C152.757 87.1741 152.575 87.6975 152.513 87.8859C152.415 88.172 152.037 89.3304 151.611 90.6004L150.304 94.5572C149.661 96.0296 148.857 97.5788 148.57 97.8928L148.424 98.0533C147.767 98.7512 146.39 100.21 145.195 100.698C143.741 101.298 141.413 101.975 139.764 102.052C139.386 102.073 139.114 102.059 138.855 102.073L135.871 96.2529C135.801 96.1133 135.71 95.9877 135.605 95.8761L130.74 90.5307C141.665 83.1615 148.375 70.6843 148.375 57.4673C148.375 35.4855 130.461 17.5931 108.444 17.5931C90.8583 17.5931 75.4185 29.0655 70.2882 45.6739C70.1275 45.4367 69.9597 45.2133 69.778 44.997C69.4215 44.5644 69.0441 44.2713 68.7366 44.041C68.6387 43.9642 68.5409 43.8875 68.443 43.8107C68.2193 43.6153 67.9538 43.4897 67.6742 43.4339C67.7021 43.3571 67.7301 43.2873 67.758 43.2106C69.5543 38.3257 69.2817 34.048 66.8494 28.912C66.5768 28.3328 66.2833 27.8094 65.9967 27.293C65.8429 27.0208 65.6892 26.7417 65.5424 26.4626C64.9902 25.4158 64.8294 24.1248 64.6827 22.6663C64.5569 21.4033 64.2563 20.2169 63.788 19.1423C63.4455 18.3607 62.5928 17.942 61.7611 18.1514C61.6702 18.1723 61.5793 18.2072 61.4885 18.2421C61.2928 17.8513 61.0901 17.4465 60.8594 17.0209C59.818 15.039 59.832 14.3482 59.839 13.7899C59.8459 13.3852 59.8529 12.8757 59.6502 12.2407C59.3637 11.3684 58.4271 10.859 57.5394 11.0893C56.3512 11.3963 55.6243 13.1898 55.5055 15.046C55.0791 13.7759 55.142 12.4501 55.2748 11.2079L55.2888 11.0544C55.4426 9.65872 55.5963 8.21421 55.5754 6.70689C55.5474 4.59943 55.0022 2.57571 53.9957 0.859039C53.5834 0.161206 52.7516 -0.159798 51.9758 0.0774657C51.1999 0.314729 50.6897 1.05443 50.7456 1.85694C50.7666 2.17794 50.8365 2.43614 50.8924 2.65945C51.2838 4.09001 51.4446 5.42985 51.3607 6.74875C51.2629 8.40262 50.7736 9.77735 50.2564 11.2358L50.2214 11.3335C48.8864 15.1158 49.0751 18.6817 50.8016 22.2476C51.0462 22.7501 51.2279 23.2665 51.3467 23.7968C51.0322 22.9315 50.6338 22.1639 50.1376 21.473C49.6203 20.7543 48.6488 20.531 47.873 20.9566C47.0971 21.3823 46.7616 22.3244 47.0971 23.1409C48.0058 25.3739 48.1595 27.6489 47.5864 30.5309C47.2858 32.0382 47.0901 33.2874 46.9713 34.4597C46.6009 37.9977 47.4256 41.2845 49.2289 43.6502C49.0961 43.8595 49.0052 44.0968 48.9703 44.348C48.8934 44.9203 48.8585 45.4506 48.8235 45.96C48.8026 46.2461 48.7816 46.5323 48.7536 46.8114C47.2159 46.937 45.5944 47.1882 43.9099 47.565C30.5949 50.5727 18.3773 63.4477 12.7857 80.3632C8.9555 91.9403 6.14573 108.612 5.59356 116.197C5.53765 116.93 5.48173 117.732 5.42581 118.577C5.05537 123.81 4.20265 136.015 2.95153 137.851C2.88164 137.886 2.72787 137.928 2.63002 137.955C2.20366 138.081 1.309 138.346 0.931571 139.288C0.756833 139.721 0.651993 140.412 1.14126 141.256C1.94505 142.666 3.58059 143.133 5.06236 142.959L4.97848 143.768C4.97149 143.845 4.96451 143.922 4.9715 144.006C5.62152 166.078 5.38388 175.659 4.9715 177.271C4.83171 177.446 4.70589 177.523 4.636 177.551C3.79726 177.467 3.28703 178.025 3.06337 178.855C2.9096 179.442 2.91658 180.356 3.42682 181.165C3.76231 181.71 4.45427 182.414 5.81722 182.687C6.05487 182.735 6.27853 182.77 6.48821 182.791V182.819C6.39036 185.422 6.39735 187.92 6.39735 190.335C6.39735 194.948 6.40434 198.925 5.6984 200.984C5.11128 202.7 3.95103 203.056 3.86716 203.084C3.14025 203.238 2.59507 203.838 2.5042 204.571C2.46926 204.878 2.39937 205.931 3.09832 206.769C3.53166 207.285 4.14674 207.585 4.84569 207.62C5.73335 207.669 7.18017 207.327 8.43828 206.601C8.2286 210.893 7.93504 215.973 7.68342 217.39C6.73983 222.624 5.97099 223.838 5.62851 224.075C4.88063 224.403 3.12627 225.164 3.26606 226.845C3.39886 228.527 5.30699 229.023 6.02691 229.204C6.80973 229.407 7.66944 229.204 8.57807 228.625C10.2206 227.571 12.1567 225.199 13.5546 222.156C13.3239 225.596 12.8137 228.939 12.0379 232.135C11.4158 234.682 10.9964 235.666 10.8007 236.022C10.3814 236.797 10.0389 237.48 9.73833 238.088C9.10228 239.365 8.68291 240.209 8.2216 240.488C7.90009 240.684 7.69739 240.767 7.59954 240.809C7.29899 240.788 7.00543 240.851 6.73284 240.984C6.26455 241.214 5.92905 241.64 5.80324 242.142C5.51667 243.321 5.97798 245.31 8.41731 245.945C11.6674 246.797 15.4977 241.947 16.4552 240.181C16.63 239.853 16.8187 239.497 17.0214 239.078C16.6509 244.696 15.8961 250.697 14.7009 253.245C12.1916 258.597 10.2765 261.877 9.68241 262.561C9.60552 262.602 9.52165 262.637 9.43778 262.672C8.79475 262.965 7.72535 263.454 7.45276 264.633C7.33394 265.143 7.34093 265.931 8.03988 266.783C8.35441 267.166 9.0883 267.78 10.4652 267.634C12.7228 267.397 16.0428 265.233 18.1047 261.933C17.6364 265.303 17.0493 268.478 16.3853 270.027C15.6444 271.744 14.8756 273.977 14.1347 276.14C13.254 278.702 11.919 282.568 11.283 283.23C8.50818 285.757 7.8232 286.175 7.72535 286.224C6.82371 286.643 6.34143 287.606 6.48821 288.667C6.66994 289.916 7.73933 291.381 9.38186 291.632C9.76628 291.695 10.6679 291.828 13.0793 289.999C15.6654 288.039 24.2345 280.397 26.0867 264.605C28.1766 246.797 31.245 200.467 31.2729 200.028L31.7692 193.852C33.1321 193.196 34.7537 191.333 35.3967 183.015C36.1446 173.357 38.7796 161.807 39.7721 157.453C39.9259 156.762 40.0447 156.26 40.1076 155.974C40.2125 155.457 40.8625 153.224 41.9109 150.161C45.0073 149.637 48.0197 148.932 50.8924 148.053C57.3507 146.071 61.4745 144.355 64.7945 142.966C65.5703 142.645 66.2972 142.338 66.9892 142.059C67.5344 152.694 67.3736 162.603 66.5069 171.549C65.2209 184.934 60.8315 193.517 56.5819 201.814C51.151 212.428 45.5385 223.398 46.8595 243.775C47.6143 255.436 38.3393 265.492 38.2484 265.589C37.885 265.973 37.7172 266.496 37.7941 267.02C37.864 267.543 38.1646 268.004 38.6189 268.276C39.0452 268.534 49.2079 274.668 55.5474 274.089C59.0352 273.775 64.5359 270.628 69.8549 267.585C73.4545 265.526 77.9347 262.965 79.3047 262.937C79.8219 262.93 80.3531 262.923 80.8843 262.917C80.6816 272.24 80.5768 283.719 81.1289 289.539C79.8009 293.621 79.088 297.717 79.0111 301.702V302.107C78.9202 306.05 78.7735 313.195 78.7036 320.823C78.6756 320.837 78.6546 320.858 78.6337 320.879C78.2632 321.165 78.0186 321.597 77.9697 322.065L77.3756 327.334C77.3267 327.738 77.4315 328.15 77.6552 328.485C77.753 328.638 78.0605 329.043 78.6756 329.448C78.6826 334.04 78.7385 338.01 78.8364 341.262C78.8364 341.276 78.8364 341.29 78.8364 341.304C78.9063 343.579 79.0041 345.547 79.116 347.159C79.2907 355.861 78.1584 357.766 77.9277 358.059C77.2987 358.869 76.4669 359.846 75.5933 360.892C71.9587 365.198 69.743 367.961 69.7011 369.943C69.7011 370.194 69.6871 370.453 69.6801 370.704V370.871C69.6452 371.841 69.6312 372.658 69.7361 373.356C69.7361 373.537 69.764 373.719 69.8199 373.9L70.3372 375.498C70.3791 375.617 70.428 375.735 70.4909 375.84C70.6587 376.119 70.8194 376.356 70.9942 376.559C71.2738 377.382 71.8119 377.808 72.1474 378.003C72.6018 378.268 73.077 378.359 73.5244 378.359C74.3491 378.359 75.076 378.052 75.3906 377.919C77.4035 377.068 80.2762 373.474 81.8139 371.409C83.1139 369.657 83.736 368.22 84.2392 367.061C84.7215 365.945 84.9801 365.386 85.5043 364.989C85.8608 364.716 86.2452 364.451 86.6366 364.186C88.2932 363.056 90.3481 361.653 90.404 359.259C90.4249 358.22 90.0615 357.229 89.6771 356.182C89.1459 354.73 88.5448 353.084 88.8453 350.983C89.6211 348.227 90.2502 344.64 90.6975 340.313C91.1658 335.854 91.7949 331.604 92.6686 326.971C94.0245 325.645 94.4439 324.41 94.5487 324.033L95.723 320.16C95.9047 319.56 95.7509 318.904 95.3106 318.45C95.0939 318.22 94.8213 318.059 94.5278 317.976C95.7719 312.163 96.8063 307.027 96.8483 301.276C96.8762 297.906 96.7784 294.535 96.5617 291.242C99.4903 286.922 101.958 280.809 103.908 273.056C104.467 270.83 104.97 268.75 105.424 266.803L119.138 266.14C119.208 266.14 119.278 266.127 119.347 266.12L121.165 265.813L121.696 270.858C121.165 276.406 121.116 280.935 121.542 284.34C121.256 284.863 120.983 285.415 120.745 285.994C120.745 286.001 120.745 286.008 120.738 286.022C119.858 288.136 119.305 290.607 119.096 293.377C118.432 297.536 117.761 304.068 118.18 312.149C117.404 312.414 116.915 313.174 117.006 313.991L117.334 317.02C117.39 317.543 117.677 318.01 118.117 318.297C118.292 318.408 118.467 318.485 118.697 318.541C119.292 324.57 119.893 329.678 120.382 333.837C121.207 340.823 121.752 345.442 121.458 347.634C121.158 349.915 120.284 352.49 119.648 354.368C119.11 355.945 118.83 356.803 118.774 357.473C118.648 358.973 119.117 361.095 122.08 362.693C123.835 363.642 125.414 365.358 126.134 366.552C126.281 366.796 126.47 367.124 126.686 367.508C128.413 370.557 130.272 373.621 132.39 374.591C134.696 375.652 136.989 375.735 137.751 375.763H137.849C138.499 375.798 139.121 375.526 139.68 374.996C139.924 374.758 140.686 373.956 140.812 372.874C141.008 372.093 141.155 371.032 140.931 369.971C141.169 368.408 141.085 365.931 139.477 364.779C137.66 363.481 131.097 356.838 131.285 353.586C131.362 352.246 131.97 347.941 132.732 342.483C133.955 333.768 135.605 321.96 136.318 313.656C136.94 313.328 137.31 313.119 137.31 313.119C137.828 312.833 138.163 312.302 138.205 311.709L138.666 304.682C138.715 303.97 138.317 303.3 137.674 302.993C137.646 302.979 137.618 302.965 137.59 302.958C139.086 295.868 139.966 289.309 140.05 284.521C142.021 280.258 147.424 267.131 146.599 252.735L147.522 252.247C148.144 251.919 148.508 251.249 148.445 250.551L147.347 238.206C147.48 237.941 147.543 237.641 147.529 237.341L147.228 231.13C149.332 230.404 150.842 229.644 151.709 228.869C152.226 228.409 152.513 228.15 152.596 221.8C152.631 218.974 152.582 214.675 152.191 209.4C152.506 209.037 152.659 208.548 152.596 208.046C152.596 208.046 151.464 199.274 150.528 192.072C156.077 195.296 175.557 201.723 184.168 204.424L149.186 320.369C148.927 321.234 149.367 322.156 150.206 322.491L153.715 323.893C154.169 324.075 154.672 324.061 155.113 323.851C155.553 323.642 155.881 323.265 156.035 322.805L193.625 205.143C198.566 203.133 198.986 197.034 199 196.762C199 196.734 199 196.706 199 196.678C199.021 194.766 198.266 191.221 195.309 190.042L195.372 190.063ZM158.265 82.0311C161.85 72.6452 166.38 64.5154 172.642 66.1972C177.814 67.5859 183.497 74.6619 186.167 85.3737C188.215 93.5732 188.501 103.908 185.461 115.464C180.009 136.148 172.328 156.406 156.93 174.033L151.765 146.86C155.455 139.386 158.447 126.811 156.497 105.953C155.532 95.6248 156.091 89.5049 156.846 86.0157C157.482 84.2223 158.237 82.1148 158.272 82.0311H158.265ZM139.855 103.803C141.728 103.72 144.223 102.994 145.873 102.317C147.522 101.64 149.116 99.8816 149.857 99.1001C150.597 98.3185 151.96 95.1852 151.96 95.1852C151.96 95.1852 153.952 89.1559 154.19 88.4441C154.281 88.172 154.637 87.1601 155.043 86.0227C155.581 83.5523 156.21 82.4009 156.476 82.0241C156.476 82.0241 155.7 84.1943 155.043 86.0227C154.288 89.5118 153.729 95.6318 154.693 105.96C156.406 124.25 154.316 136.176 151.282 143.873C151.178 143.022 151.059 142.149 150.919 141.221C148.151 122.924 141.294 108.36 138.974 103.824C139.219 103.824 139.498 103.824 139.862 103.803H139.855ZM192.283 203.796L154.428 322.295L150.919 320.893L186.405 203.294C176.403 200.209 155.525 193.245 151.045 190.328C150.541 190 150.136 189.742 149.794 189.532C149.577 188.821 147.543 183.133 147.543 183.133L148.382 188.681C149.353 196.071 150.919 208.283 150.919 208.283C150.919 208.283 150.604 207.704 150.283 206.901C151.401 219.134 150.716 227.487 150.604 227.585C149.794 228.311 148.039 229.12 145.481 229.902L145.845 237.446L145.607 237.704L146.76 250.725L144.838 251.744C145.796 263.621 142.14 276.154 138.366 284.145C138.31 290.432 136.842 298.918 135.172 306.043C136.36 305.17 136.975 304.591 136.975 304.591L136.514 311.618C136.514 311.618 135.815 312.009 134.71 312.574C133.648 325.91 129.811 349.797 129.594 353.509C129.328 358.066 137.241 365.31 138.513 366.217C139.442 366.88 139.456 368.855 139.198 370.062C139.198 370.083 139.212 370.097 139.219 370.118C139.491 371.018 139.295 372.044 139.142 372.609C139.142 373.216 138.394 374.067 137.995 374.047C137.534 374.026 135.318 374.005 133.187 373.028C131.055 372.051 128.643 367.236 127.7 365.673C126.756 364.109 124.911 362.225 122.982 361.185C121.053 360.146 120.48 358.931 120.592 357.647C120.703 356.37 122.744 351.876 123.269 347.885C123.786 343.956 122.01 334.144 120.368 316.894C119.271 316.936 119.145 316.852 119.145 316.852L118.816 313.823C118.816 313.823 119.292 313.677 120.081 313.412C119.522 305.059 120.158 298.262 120.906 293.607C121.116 290.718 121.696 288.457 122.43 286.699C122.737 285.952 123.08 285.303 123.429 284.731C122.863 280.914 123.045 275.875 123.534 270.879L122.793 263.803L119.138 264.424L105.403 265.087L105.327 259.49C104.593 263.133 103.6 267.459 102.293 272.658C100.14 281.228 97.4913 287.069 94.8633 290.774C95.0659 293.684 95.2127 297.236 95.1848 301.29C95.1358 307.655 93.8428 313.244 92.368 320.125C93.4304 319.86 94.1364 319.685 94.1364 319.685L92.9481 323.586C92.9481 323.586 92.6476 324.821 91.1379 326.105C90.355 330.181 89.6002 334.758 89.034 340.16C88.5587 344.703 87.9157 348.15 87.2028 350.641C87.2028 350.641 87.2028 350.641 87.2028 350.648C86.5598 354.758 88.7684 357.333 88.7265 359.245C88.6846 361.158 86.2662 362.281 84.5118 363.628C82.7575 364.975 82.9322 367.096 80.4859 370.397C78.0396 373.691 75.9078 375.868 74.7825 376.342C73.7061 376.796 72.7905 376.859 72.6437 375.686C72.455 375.554 72.2732 375.331 72.0705 374.989L71.5533 373.391C71.5533 373.391 71.5743 373.377 71.5813 373.363C71.4415 372.79 71.4625 371.897 71.4904 370.948C71.4974 370.634 71.5114 370.313 71.5184 369.999C71.5603 367.961 76.8723 362.365 79.3746 359.155C80.8214 357.299 81.0171 351.583 80.9262 347.103C80.8004 345.428 80.7096 343.447 80.6467 341.255V341.241C80.5278 337.417 80.4859 332.965 80.4859 328.408C79.5074 328.045 79.1789 327.55 79.1789 327.55L79.773 322.281C79.773 322.281 80.0106 322.316 80.5069 322.316C80.5698 313.893 80.7375 305.924 80.8214 301.765C80.9192 297.034 81.9537 292.819 82.9672 289.755C82.3591 283.879 82.4919 271.381 82.7365 261.186C81.6252 261.186 80.4509 261.193 79.3326 261.214C75.4395 261.277 61.2788 271.842 55.4496 272.365C49.6203 272.889 39.5834 266.796 39.5834 266.796C39.5834 266.796 49.4805 256.266 48.6628 243.677C46.3493 208.025 65.3187 202.763 68.3032 171.731C69.3656 160.67 69.2468 149.449 68.6527 139.588C64.466 141.068 60.0277 143.454 50.4311 146.392C47.2509 147.369 43.9099 148.109 40.6528 148.611C39.4157 152.135 38.5979 154.927 38.4511 155.625C38.0108 157.725 34.5859 171.577 33.7123 182.889C32.8316 194.194 30.2035 192.268 30.2035 192.268L29.5885 199.895C29.5885 199.895 26.5131 246.441 24.4093 264.41C22.3054 282.379 10.8427 290.097 9.70338 289.916C8.56409 289.741 7.85815 288.115 8.51517 287.815C9.17218 287.508 11.0174 285.889 12.5131 284.528C14.0089 283.168 16.1547 275.108 18.0418 270.725C19.929 266.343 20.9914 251.646 20.9914 251.646C20.9914 251.646 19.4118 255.792 17.1402 260.195C14.8686 264.598 10.2276 266.65 9.43778 265.687C8.64797 264.724 9.92005 264.459 10.7099 264.019C11.4997 263.579 14.0928 258.757 16.3294 253.984C18.566 249.204 19.0064 235.401 19.0064 235.401C19.0064 235.401 22.3404 225.317 22.4103 213.489C22.4732 201.654 23.4657 181.738 23.4657 181.738C23.4657 181.738 27.6803 182.589 28.1416 174.571C28.3793 170.461 29.0992 160.461 30.6648 149.358C30.0498 149.344 29.4557 149.323 28.8825 149.281C27.4567 159.805 26.7857 169.121 26.555 173.049C26.0937 181.068 21.8791 180.216 21.8791 180.216C21.8791 180.216 20.8935 200.139 20.8237 211.968C20.7607 223.803 17.4198 233.88 17.4198 233.88L15.7772 237.718C15.5116 238.29 15.2321 238.855 14.9595 239.358C13.7713 241.549 10.5701 244.703 8.89958 244.263C7.2291 243.824 7.53664 242.554 7.53664 242.554C7.53664 242.554 7.93504 242.728 9.1582 241.981C10.3883 241.235 10.8706 239.616 12.3594 236.852C12.8277 235.987 13.31 234.368 13.7573 232.547C14.9804 227.529 15.5116 222.372 15.4627 217.215L15.5186 206.95C15.5186 206.95 14.4213 211.368 13.4567 216.783C12.3174 223.182 7.92804 227.892 6.47423 227.522C4.48223 227.013 4.62901 226.427 6.34144 225.68C8.05386 224.933 8.93453 220.377 9.4168 217.704C9.89908 215.031 10.4303 201.542 10.4303 201.542C10.4303 201.542 9.57757 203.154 8.65495 204.236C7.73234 205.317 5.78926 205.931 4.95752 205.883C4.12577 205.841 4.25857 204.787 4.25857 204.787C4.25857 204.787 6.42531 204.319 7.37588 201.542C8.56409 198.06 7.96998 190.677 8.25655 182.875C8.5571 183.063 9.85714 183.664 10.9475 181.158C12.1986 178.297 12.4013 177.376 12.4013 176.085C12.4013 174.794 11.7513 153.182 11.7513 153.182C11.7513 153.182 11.29 172.575 10.8706 176.546C10.4932 180.139 8.8227 180.614 8.50118 180.67C8.50118 180.642 8.50118 180.614 8.50118 180.614C8.50118 180.614 7.92805 181.312 6.17368 180.963C4.41932 180.614 4.7688 179.295 4.7688 179.295C4.7688 179.295 5.7613 179.267 6.52316 178.109C7.58556 176.497 6.99845 152.938 6.73284 143.943C7.5576 143.119 12.9605 137.376 13.9809 127.572C14.3094 124.41 14.8966 104.418 14.8966 104.418C14.8966 104.418 14.2256 119.763 11.1502 131.207C9.1582 138.611 7.19415 140.223 6.628 140.544C6.628 140.51 6.628 140.482 6.628 140.482C6.628 140.482 6.60704 140.523 6.4952 140.607C6.47424 140.614 6.46725 140.614 6.46725 140.614C6.32746 140.719 6.07583 140.858 5.60754 141.033C4.64998 141.396 3.20315 141.298 2.67894 140.377C2.15473 139.456 3.45478 139.847 4.22362 139.065C6.06885 137.188 6.83769 123.496 7.3619 116.309C7.88611 109.121 10.647 92.4567 14.4702 80.8936C19.4118 65.946 30.6928 52.3313 44.3223 49.2468C46.4122 48.7723 48.2504 48.542 49.858 48.4722C49.823 48.549 49.7951 48.6258 49.7601 48.6955C49.4106 49.5609 49.201 50.482 49.0472 51.3962C48.6767 53.5455 48.7746 55.6878 49.5994 57.7255C50.0537 58.849 50.7177 59.7702 51.4865 60.6983C52.1925 61.5566 53.0661 62.5196 53.3038 63.6431C53.5694 64.9132 52.4161 66.1553 51.8709 67.2091C51.2 68.507 51.0182 70.0423 50.8575 71.4728C50.6757 73.0569 50.5359 74.627 50.5709 76.2321C50.6058 77.8161 50.7806 79.3932 51.0602 80.9494C51.3188 82.3869 51.6543 83.8036 52.2344 85.1504C52.4581 85.6737 52.7097 86.1971 52.9823 86.7135C48.0337 94.1175 40.499 106.218 36.1586 117.209C34.8795 120.447 33.7612 124.138 32.7827 128.06C33.6493 127.244 34.537 126.399 35.4526 125.541C36.1516 123.119 36.9134 120.831 37.7382 118.73C41.9808 107.977 49.2848 96.1622 54.2334 88.7233C54.2544 88.7512 54.2753 88.7861 54.2963 88.814C54.8205 89.4839 55.4496 90.0213 56.1066 90.5307C56.1066 90.5167 56.1066 90.4958 56.1066 90.4818C56.1066 90.5097 56.1136 90.5237 56.1205 90.5516C56.456 90.8098 56.7915 91.061 57.127 91.3122C57.7142 91.7449 58.2943 92.1915 58.7975 92.7219C59.2868 93.2383 59.7201 93.8035 60.2094 94.3199C60.8734 95.0108 61.6213 95.59 62.4181 96.1064C62.1734 95.0177 61.81 93.964 61.2998 92.9452C60.1954 90.7609 58.7067 89.4979 57.2459 88.179C55.7361 86.8112 54.4431 85.0736 53.5973 82.6103C52.7376 80.105 52.4301 77.5091 52.4161 74.8713C52.4021 71.7729 52.8774 68.9955 53.814 66.5042C53.8699 66.3647 53.9468 66.253 53.9398 66.274C53.8699 68.2279 53.6463 70.2656 53.7441 72.3521C53.9538 76.9229 55.4705 80.5656 58.0496 83.2243C59.7621 84.9899 60.7266 84.5781 62.446 87.3625C63.0192 88.2836 62.7116 88.1999 62.9982 89.2676C62.9982 89.2676 62.7606 85.2899 60.9433 83.1476C59.9787 82.0101 58.9723 80.9703 58.0916 79.6863C56.4491 77.2928 55.9458 74.4037 56.2394 71.3333C56.3232 70.4331 56.477 69.5677 56.5888 68.6815C56.9803 65.5273 56.0926 62.736 54.1355 60.9704C53.4646 60.3703 52.7656 59.8679 52.1086 59.2258C50.3682 57.5371 49.5015 54.4108 49.8929 51.2566C50.0607 49.9028 50.3123 48.5909 50.473 47.2301C50.5709 46.3997 50.5849 45.5134 50.7107 44.5783C50.9274 45.4018 51.186 46.2113 51.3467 47.0487C51.5494 48.1373 51.6473 49.2468 51.829 50.3354C52.0946 51.9195 52.7306 53.1058 53.6463 53.9642C54.2334 54.5155 54.8624 54.99 55.4006 55.6669C56.1066 56.5601 56.7356 57.6208 57.3577 58.542C57.2598 58.221 57.141 57.7185 56.9733 57.251C56.3232 55.4645 55.8829 53.6153 55.7291 51.6683C55.4845 48.5281 54.3033 46.288 52.5839 44.5923C52.1226 44.1387 51.6473 43.72 51.193 43.2385C49.0262 40.9775 48.4112 37.5651 48.7187 34.6272C48.8515 33.3362 49.0682 32.0801 49.3128 30.8519C49.858 28.1025 49.8999 25.346 48.7257 22.464C49.5854 23.6712 50.0607 25.1437 50.2843 26.7975C50.522 28.5351 50.3822 30.1681 50.2005 31.787C49.9349 34.1457 50.1236 36.4486 51.3747 38.4723C51.801 39.1562 52.3322 39.7144 52.8495 40.2238C53.9119 41.2636 55.0232 42.1708 55.806 43.8456C55.806 43.8456 56.0576 42.6104 54.9533 40.4332C54.5689 39.6795 54.0377 39.0096 53.6183 38.249C52.2134 35.674 52.0597 32.9454 52.528 30.189C52.6957 29.1771 52.9054 28.1932 53.1011 27.1953C53.4785 25.2483 53.2758 23.3083 52.3952 21.48C50.7526 18.0955 50.8085 14.9623 51.8919 11.9057C52.4441 10.3356 53.0102 8.77945 53.1221 6.83947C53.2129 5.26237 53.0172 3.72714 52.5909 2.18492C52.5489 2.03838 52.514 1.89183 52.5 1.73133C53.3667 3.20376 53.821 4.92043 53.842 6.71386C53.8629 8.17234 53.6952 9.59592 53.5484 10.9986C53.3737 12.6385 53.3457 14.2714 53.9748 15.8974C54.2753 16.672 55.6592 17.2093 56.2534 17.6489C57.3926 18.4933 58.0217 19.3028 58.3782 19.9169C58.0077 18.9469 57.5184 17.5582 57.3437 16.644C56.9104 14.397 57.9588 12.6245 58.0077 12.7711C58.3782 13.8946 57.5115 14.3482 59.3287 17.8164C61.6492 22.2407 62.0826 24.055 61.8519 28.2071C61.7051 30.824 62.1035 32.9175 63.103 35.3809C63.5853 36.5742 63.3267 38.1862 63.3057 39.519C63.3057 39.6865 63.3407 39.861 63.3686 40.1541C63.8719 38.6886 64.0886 37.3278 64.5219 35.9322C65.1649 33.8526 65.0252 31.6963 63.9488 29.5889C62.9702 27.6768 62.5229 25.6252 62.474 23.3712C62.453 22.2197 62.2993 21.0334 62.2014 19.8262C62.6068 20.7473 62.8584 21.7522 62.9563 22.8129C63.11 24.3691 63.2988 25.9113 64.0047 27.2581C64.4241 28.0536 64.8854 28.8073 65.2768 29.6377C67.5064 34.3411 67.751 38.1722 66.1295 42.5895C65.5354 44.2154 65.0461 45.9182 64.9413 47.914C64.8714 49.1352 64.9692 50.3564 65.4305 51.5287C66.1435 53.3361 67.15 53.5943 67.8908 52.1568C68.9113 50.1889 68.6597 47.3417 67.3247 45.1226C67.7021 45.4436 68.1075 45.6879 68.45 46.0926C70.428 48.4862 71.113 52.2056 70.1484 55.5273C69.771 56.8323 69.2398 57.9907 68.8065 59.2468C68.0656 61.4031 67.9887 63.7199 69.0162 66.1763C69.3167 66.902 69.093 67.4812 69.0162 67.9767C68.8903 68.7164 68.9183 69.47 68.9253 70.2167C68.9393 72.4638 69.4705 74.5712 70.4071 76.5531C70.3861 76.3507 70.3791 76.1413 70.3441 75.939C69.5613 71.8357 69.9178 68.3465 71.5184 65.4505C71.9447 64.6829 72.2872 63.7618 72.5388 62.8057C72.8953 61.438 72.7415 59.9516 72.2034 58.4931C72.1125 58.2419 72.0216 57.9837 71.9098 57.6487C73.1539 58.7653 74.0136 61.431 73.7131 63.6362C73.4475 65.611 72.1894 67.2091 73.4125 72.4707C73.7201 73.8036 74.433 74.0967 74.7755 79.463C74.9083 81.5775 73.2168 89.2885 73.126 93.322C73.126 93.3639 73.1539 93.4197 73.1889 93.5523C73.9927 90.8028 74.8244 89.0652 75.6701 87.3067C76.9772 84.5851 77.0051 82.1078 76.2083 76.4484C78.1234 79.8817 81.094 88.1301 77.1379 94.606C75.5583 97.195 74.0626 100.803 74.6986 104.836C75.1879 103.608 75.6631 102.198 76.2573 100.935C76.8514 99.6723 77.5643 98.5488 78.2283 97.3555C78.3471 98.7721 78.1863 100.112 77.9138 101.403C77.5853 102.994 77.2078 104.557 76.8933 106.162C76.7395 106.972 76.6836 107.858 76.6347 108.744C77.2707 106.692 78.2772 105.213 79.3117 103.755C80.7026 101.801 81.5902 99.9305 81.3386 95.7923C81.8279 97.4392 81.9327 99.107 81.5972 100.607C81.2897 101.954 80.8703 103.252 80.3531 104.39C79.1439 107.055 77.9417 109.693 77.4944 113.113C77.2917 114.655 77.3965 114.85 77.6062 116.734C78.3401 113.252 78.5917 111.738 80.2482 110.084C79.4934 111.856 79.0041 115.066 78.9762 117.132C78.9482 119.526 79.0391 119.428 78.9901 121.061L79.3326 120.991H79.8079C79.8499 120.803 79.9058 120.635 79.9407 120.454C80.3391 118.5 80.6466 116.532 81.059 114.578C81.2897 113.482 81.4784 112.401 81.6322 111.298C81.7021 110.775 81.7999 110.265 81.9397 109.749C82.0795 109.247 82.1843 108.758 82.0515 108.242C82.0026 108.067 81.7999 107.935 81.6182 107.997C81.4574 108.053 81.2967 108.095 81.1359 108.13C81.8698 106.518 82.7225 104.913 83.1908 103.21C83.3027 102.82 83.3865 102.422 83.4564 102.017L85.1409 101.933C85.728 102.554 92.4589 108.144 92.4589 108.144L89.3136 122.498L86.427 139.198L89.3136 144.452L89.6491 145.108C89.705 145.136 89.7609 145.164 89.8099 145.192L109.863 129.93C109.863 129.93 99.6161 132.582 99.6161 131.954C99.6161 131.884 99.693 131.738 99.8188 131.535C100.888 129.819 105.949 123.866 105.949 123.866L106.165 117.209L106.312 112.764C106.78 112.833 107.249 112.882 107.717 112.924C107.857 112.938 107.997 112.945 108.129 112.959C108.472 112.987 108.814 113.008 109.15 113.022C109.283 113.022 109.422 113.036 109.555 113.043C110.009 113.057 110.457 113.071 110.904 113.064C110.939 113.064 110.967 113.064 111.002 113.064C111.421 113.064 111.834 113.05 112.239 113.029C112.379 113.029 112.512 113.015 112.645 113.008C112.966 112.987 113.281 112.966 113.595 112.938C113.721 112.924 113.854 112.917 113.979 112.903C114.399 112.861 114.818 112.819 115.231 112.764C115.28 112.764 115.328 112.75 115.384 112.743C115.748 112.694 116.111 112.638 116.468 112.575C116.594 112.554 116.719 112.533 116.845 112.512C117.139 112.464 117.432 112.408 117.719 112.345C117.831 112.324 117.943 112.303 118.054 112.275C118.439 112.191 118.816 112.108 119.187 112.024C119.229 112.017 119.271 112.003 119.305 111.996C119.641 111.912 119.969 111.829 120.298 111.745C120.396 111.717 120.494 111.689 120.592 111.661C120.878 111.584 121.151 111.501 121.423 111.424C121.5 111.403 121.577 111.382 121.647 111.354C121.996 111.249 122.339 111.138 122.667 111.026C122.996 110.914 123.31 110.803 123.625 110.691C123.681 110.67 123.73 110.649 123.786 110.635C124.072 110.531 124.352 110.426 124.624 110.321C124.638 110.321 124.659 110.307 124.673 110.3C125.282 110.063 125.848 109.826 126.351 109.602L134.473 142.554L134.424 154.864L133.809 172.484L139.924 178.172L140.98 184.48L148.179 169.839L140.791 113.224L133.767 99.0373C133.767 99.0373 121.724 87.1183 120.515 85.9947L123.772 94.9549L124.282 97.8998L125.959 108.011C121.78 109.819 114.406 112.191 106.298 111.026C104.593 110.782 102.852 110.384 101.098 109.791C97.1488 108.444 93.724 106.344 91.1029 104.39C89.8169 103.427 88.7405 102.519 87.8808 101.738C87.6711 101.57 87.4754 101.396 87.3006 101.208C83.4285 97.0345 80.5558 91.4099 80.5558 91.4099L86.8952 88.8908C84.3161 87.1113 81.9747 85.0387 79.9197 82.7149C79.9058 82.4428 79.8918 82.1706 79.8568 81.8985C79.717 80.7191 79.4654 79.5258 79.1299 78.3744C81.8419 82.1567 85.2737 85.4225 89.2647 87.9487L91.2567 87.1532L91.7949 87.4672L98.2671 92.68L99.4693 93.4057C101.636 94.6549 105.683 96.6716 109.639 96.9717C113.602 97.2717 118.509 96.0505 121.207 95.255L119.089 85.4155C117.936 84.2013 117.076 83.022 116.733 81.9054C115.839 78.9955 116.188 73.5803 115.517 68.521C116.041 67.7324 116.524 66.8601 116.524 66.3089C116.524 65.1016 116.405 61.0332 114.602 62.6034C114.602 62.6034 114.427 62.8197 114.224 63.1477C113.546 61.438 112.582 59.9376 111.205 58.8211C106.948 55.3738 103.866 55.0737 102.335 55.2342C101.615 55.311 100.741 55.5762 99.9865 55.8065C98.0015 56.4206 94.2622 58.0116 93.3396 61.4729C93.1089 62.3382 93.011 63.2663 93.0949 64.2223C93.9966 63.5454 95.3455 63.0918 95.3455 63.0918L98.994 64.2712C98.994 64.2712 100.063 68.528 100.063 70.4191C100.063 72.3102 100.518 72.38 100.86 72.3102C101.203 72.2404 101.566 71.745 101.629 71.7031C101.692 71.6543 102.391 71.5705 102.643 71.3961C102.894 71.2216 103.362 71.424 103.418 71.7171C103.481 72.0102 102.782 72.6591 102.587 72.7987C102.391 72.9453 102.02 73.6361 102.454 73.8734C102.887 74.1106 103.258 73.8106 103.663 73.678C104.068 73.5454 105.893 73.6919 105.879 74.0269C105.865 74.3619 104.676 74.4596 104.676 74.4596C104.676 74.4596 103.188 74.5991 103.188 74.9829C103.188 75.3667 103.649 75.5203 103.649 75.5203L104.837 75.7226L105.438 76.3437C105.438 76.3437 103.474 76.253 103.006 76.253C102.538 76.253 102.014 77.1602 102.014 77.1602C102.014 77.1602 101.769 76.5949 102.055 76.26C102.51 75.7226 102.258 75.3667 102.09 75.3109C101.916 75.2481 100.979 75.8971 100.93 75.6249C100.881 75.3528 101.524 74.7666 101.587 74.5293C101.65 74.2991 101.713 74.32 101.713 74.32C101.713 74.32 100.252 73.5524 99.686 73.1616C99.1199 72.7708 99.3435 72.1776 99.3435 72.1776C99.3435 72.1776 99.2736 68.9816 99.2247 68.0325C99.1967 67.4882 98.994 66.7764 98.5887 66.1902C98.4978 66.5391 98.2951 67.1114 97.8268 67.5929C97.1069 68.3396 95.4015 67.9697 95.4015 67.9697L94.7724 66.7904C94.7724 66.7904 94.6606 66.4275 95.4574 66.0088C96.1004 65.6669 97.6451 65.7227 98.2182 65.7506C97.9736 65.5133 97.68 65.3179 97.3236 65.1993C95.059 64.4736 94.0874 65.946 93.7449 66.7276C94.0036 67.3068 94.3391 67.886 94.7724 68.4652C95.3805 69.2816 94.9961 70.133 95.4993 71.0053C96.6945 73.0848 98.5817 75.1644 99.6161 76.2949C100.28 77.0136 100.853 77.6835 101.315 78.3116C101.447 78.493 101.573 78.6675 101.685 78.8419C102.09 79.2537 102.88 79.7352 104.362 79.6375C108.695 79.3514 111.128 76.0646 111.128 76.0646C111.128 76.0646 107.857 80.9215 105.082 81.1867C104.11 81.2774 103.335 81.2285 102.733 81.1239C102.894 81.8636 102.859 82.5963 102.601 83.35C102.188 84.5921 101.077 86.0296 99.6371 87.209C99.5812 87.2718 99.5182 87.3206 99.4484 87.3625C98.8752 87.7114 97.5053 87.858 96.352 87.9208C95.2057 87.9836 94.0734 87.6835 93.1019 87.0764C93.696 86.2809 94.2202 85.9529 95.2756 85.8622C95.2756 85.8552 95.2756 85.8412 95.2756 85.8343C95.2756 84.5293 95.9886 83.3988 97.037 82.7847C97.2537 81.1308 98.5956 79.8399 100.273 79.7073C100.476 78.5 100.825 78.9117 98.0155 76.246C96.6875 74.9899 95.01 72.8545 93.9407 71.2146C93.2487 70.1539 93.1648 68.6466 92.6756 67.872C92.4799 67.5859 92.2981 67.2788 92.1164 66.9788C91.8788 66.595 91.739 66.3717 91.739 66.3717H91.7459C90.1873 63.5664 89.2857 60.3424 89.2857 56.909C89.2857 46.1275 98.0435 37.3837 108.842 37.3837C119.641 37.3837 129.335 46.1484 129.335 56.93C129.335 59.7981 128.413 63.2872 126.651 64.9481C126.805 65.5412 126.889 66.1553 126.889 66.7904C126.889 69.7282 125.17 72.2684 122.688 73.4686C123.031 74.32 123.22 75.2481 123.22 76.2181C123.22 77.7743 122.737 79.2118 121.927 80.4051C123.611 81.6263 124.722 83.5942 124.722 85.8343C124.722 86.1622 124.673 86.4832 124.624 86.8042C125.414 87.209 126.029 87.8929 126.344 88.7303C137.485 82.359 144.517 70.44 144.517 57.4603C144.517 37.593 128.329 21.4242 108.43 21.4242C90.397 21.4242 75.4115 34.697 72.7555 51.9754C72.6227 50.9844 72.3991 50.0144 72.0076 49.0793C71.8399 48.6746 71.6512 48.2768 71.4625 47.8791C75.7261 31.473 90.6835 19.3307 108.43 19.3307C129.489 19.3307 146.613 36.4346 146.613 57.4603C146.613 70.9355 139.449 83.336 128.042 90.1608L134.305 97.0415L137.953 104.159C139.1 106.344 145.188 118.674 149.227 140.991C153.708 165.708 155.714 178.165 155.714 178.165C155.714 178.165 167.302 186.315 171.251 188.946C175.2 191.577 178.975 192.233 180.254 192.233C181.533 192.233 192.066 190.614 194.694 191.661C197.329 192.714 197.287 196.657 197.287 196.657C197.287 196.657 196.945 202.512 192.262 203.775L192.283 203.796ZM53.4156 49.0375C53.6882 49.7772 53.8629 50.5727 53.9608 51.438C53.7861 51.0333 53.6533 50.5797 53.5694 50.0772C53.5135 49.7353 53.4645 49.3864 53.4156 49.0445V49.0375ZM66.7446 49.7842C66.6747 49.3445 66.6467 48.87 66.6677 48.3327C66.7516 48.8281 66.7795 49.3166 66.7446 49.7842ZM125.708 97.8021L132.467 114.438L135.416 139.421L125.708 97.8021ZM140.246 171.096V176.706L135.451 172.073L140.246 171.096ZM139.596 115.297C139.596 115.297 139.652 115.583 139.68 116.036L145.74 167.941L141.728 177.962C141.728 177.962 140.197 123.071 139.68 116.03L139.596 115.29V115.297ZM110.569 63.3989L110.534 63.6571L108.57 64.2712C108.073 64.4247 107.612 64.6759 107.207 65.0039L106.864 65.283C106.724 65.3947 106.564 65.4784 106.396 65.5203L105.41 65.7785C105.019 65.8832 104.607 65.8553 104.229 65.7017C103.719 65.4994 103.013 65.1923 102.657 64.976C102.363 65.1295 101.776 66.274 101.776 66.274L101.51 67.9976L101.14 67.4812L100.72 64.1665L101.552 61.7311L105.04 60.5378C105.04 60.5378 108.793 61.3473 109.625 62.1986C110.457 63.05 110.569 63.3989 110.569 63.3989Z" fill="white" fill-opacity="0.99"/>
<path d="M102.265 177.202C101.803 177.495 112.616 162.91 112.616 162.91L101.65 169.428L103.404 163.789L103.858 162.331L106.801 152.875L108.835 146.351L109.17 145.276V145.262L109.093 145.283L91.7734 149.477L89.439 151.85L88.5443 152.757L88.4674 152.833L88.4465 153.238C88.4465 153.238 88.4115 153.175 88.3975 153.147L87.5448 167.851L79.3112 195.045L75.2922 217.927L75.3272 218.116L76.1799 222.268L82.1489 224.026L87.0416 201.493L89.2433 201.891L89.1594 202.352L89.2433 202.366L85.6437 221.724L86.2518 224.026L94.7929 224.794L94.744 225.031L95.0375 225.059L97.3091 205.101L98.3156 201.5L98.8119 199.728L100.377 197.523H80.136C80.136 197.523 97.1833 193.008 97.8543 193.008C98.3645 193.008 104.375 189.288 107.486 187.537L108.024 186.783L112.588 180.37L101.636 184.745L114.196 171.521C114.196 171.521 102.712 176.916 102.251 177.216L102.265 177.202Z" fill="white" fill-opacity="0.99"/>
<path d="M135.256 239.741C135.256 239.741 135.242 239.874 135.263 240.118C135.27 239.888 135.263 239.748 135.256 239.741Z" fill="white" fill-opacity="0.99"/>
<path d="M124.988 259.909C125.079 259.357 125.17 258.841 125.261 258.332L129.881 254.71L131.237 229.546L125.575 231.193L119.851 262.567L124.995 258.541V259.909H124.988Z" fill="white" fill-opacity="0.99"/>
<path d="M135.263 240.118C135.2 242.128 134.424 251.528 134.424 251.528L133.809 252.317L136.444 251.046C136.444 251.046 135.41 242.072 135.263 240.118Z" fill="white" fill-opacity="0.99"/>
<path d="M133.656 223.691C133.544 223.636 130.405 204.766 130.405 204.766L130.874 224.787C130.874 224.787 133.767 223.747 133.656 223.691Z" fill="white" fill-opacity="0.99"/>
</svg>
