<svg width="16" height="17" viewBox="0 0 16 17" fill="none" xmlns="http://www.w3.org/2000/svg">
<path d="M3.38073 8.06616H0.852243C0.381562 8.06616 0 8.45249 0 8.92906V16.0262C0 16.5028 0.381562 16.8891 0.852243 16.8891H3.38073C3.85141 16.8891 4.23297 16.5028 4.23297 16.0262V8.92906C4.23297 8.45249 3.85141 8.06616 3.38073 8.06616Z" fill="#118595"/>
<path d="M14.8041 8.90047H14.653C15.3935 8.90047 16.0002 8.28625 16.0002 7.5365C16.0002 6.78674 15.3935 6.17252 14.653 6.17252H10.3316C10.8646 5.32205 11.5879 3.96678 11.5879 2.86018C11.5879 1.10703 10.6399 0.132226 10.021 0.0215659C9.40204 -0.0903374 8.9489 0.244129 8.76961 0.772562C8.59032 1.30099 8.90715 2.30439 8.78435 2.66124C8.59523 3.21205 7.64229 3.95062 6.35042 5.62917C5.19608 7.12867 5.36064 8.89923 5.36064 8.89923V14.8699C5.36064 15.3374 5.73764 15.7191 6.19937 15.7191H14.2269C14.7636 15.7191 15.2032 15.274 15.2032 14.7306C15.2032 14.1873 14.7636 13.7422 14.2269 13.7422H14.3645C15.0227 13.7422 15.5605 13.1976 15.5605 12.5311C15.5605 11.8647 15.0227 11.3201 14.3645 11.3201H14.8041C15.4623 11.3201 16.0002 10.7755 16.0002 10.109C16.0002 9.44258 15.4623 8.89799 14.8041 8.89799V8.90047Z" fill="#118595"/>
</svg>
