<svg width="129" height="114" viewBox="0 0 129 114" fill="none" xmlns="http://www.w3.org/2000/svg">
<path d="M123.026 46.8755C122.552 40.2145 119.489 34.1261 114.401 29.73C111.029 26.8165 106.992 24.8551 102.666 24.0137C102.324 23.6977 101.953 23.3834 101.551 23.0715C93.0193 16.463 84.6369 15.1651 80.6076 14.5416C78.5164 14.2181 75.0917 13.9175 71.7787 13.6277C68.7026 13.3581 65.5238 13.0817 64.5934 12.8626C64.2756 12.788 63.9279 12.7149 63.5602 12.6377C61.6336 12.2327 58.9955 11.6794 56.9661 10.1297C56.1594 9.51391 55.7563 8.77222 55.6718 8.50985C55.6631 8.11759 55.466 7.7574 55.1328 7.54301C54.9391 7.41888 54.4176 7.1715 53.7513 7.56487C53.1609 7.91301 52.5605 8.70272 52.6362 9.61517C52.6718 10.0476 52.8952 10.9447 53.9876 12.0721C52.2107 11.3788 50.6047 10.5728 49.9944 9.83765C49.9163 9.74253 49.8762 9.67579 49.8567 9.6371C49.866 9.3711 49.7784 9.10808 49.6058 8.89607C49.3772 8.61515 49.0267 8.45904 48.6622 8.47904C47.6153 8.53556 46.5693 9.281 46.5964 10.5979C46.6064 11.0859 46.7228 11.5521 46.9462 11.9979C46.2345 11.5935 45.5935 11.1374 45.1112 10.6821C44.3735 9.98603 43.9985 9.4236 43.8926 9.23388C43.8194 8.96406 43.6478 8.72621 43.4004 8.56944C43.216 8.45266 42.7196 8.22232 42.0782 8.59039C41.4849 8.93143 40.8139 9.7447 40.8738 10.9175C40.9371 12.1539 42.7022 15.2354 46.4956 16.7577C49.3705 17.9115 62.2308 21.1359 67.0667 22.3329C67.145 22.6255 67.3416 22.9563 67.7568 23.2893C67.9337 23.4317 68.1775 23.5791 68.4607 23.7269C67.4151 23.6589 66.4891 23.6229 65.7052 23.5932C63.2746 23.4998 59.3123 23.6058 55.4811 23.7082C51.9209 23.803 48.2393 23.9023 47.1505 23.7778C46.7789 23.7356 46.3735 23.6984 45.9434 23.6584C43.6913 23.4528 40.6081 23.1698 38.1361 21.6893C37.1726 21.112 36.6467 20.3442 36.5233 20.063C36.4764 19.6272 36.2235 19.2448 35.8336 19.0351C35.6055 18.9126 34.9994 18.6827 34.2882 19.183C33.6447 19.6363 33.0301 20.5923 33.2019 21.6188C33.2853 22.1174 33.6392 23.143 35.0835 24.3119C32.9074 23.7551 30.8964 23.039 30.1078 22.2696C30.02 22.1845 29.9718 22.1204 29.9466 22.0827C29.9303 21.7811 29.8042 21.4918 29.5864 21.2706C29.2943 20.9734 28.8751 20.8369 28.4634 20.9059C27.302 21.0996 26.2034 22.0545 26.3521 23.5057C26.4132 24.0974 26.6203 24.6505 26.9714 25.1636C26.0491 24.7867 25.2059 24.3283 24.5696 23.8493C23.6715 23.1714 23.1922 22.5942 23.0524 22.3933C22.9448 22.1045 22.733 21.8595 22.4468 21.71C22.2312 21.5966 21.6537 21.3823 20.9708 21.8514C20.3222 22.2973 19.6273 23.2868 19.8058 24.6085C19.9203 25.4595 20.6605 26.6322 21.7372 27.6697C22.6858 28.5834 24.3385 29.8154 26.8236 30.4905C30.2292 31.4163 45.2796 33.3782 50.9531 34.0996C51.0765 34.4187 51.3365 34.7657 51.8439 35.0872C52.164 35.2903 52.6445 35.4859 53.205 35.6707C52.2981 36.2602 51.4017 36.8735 50.515 37.5093C48.515 38.9409 46.5619 40.4373 44.6239 41.952C38.1693 38.6579 31.0281 35.1207 28.4639 34.2429C23.1633 32.4294 17.8326 33.8507 16.2829 34.9761C14.7962 36.0557 14.4281 37.5003 14.5646 38.4099C14.6664 39.0923 15.0865 39.6271 15.6863 39.8395C16.1348 39.9982 16.6225 39.9545 17.0284 39.7315C17.3367 39.6328 18.4831 39.3568 20.2184 39.3084C21.1328 39.2835 22.0315 39.3627 22.84 39.4864C22.199 39.7071 21.6205 40.0131 21.1067 40.4051C20.1661 41.1222 19.9049 41.9409 19.8518 42.5017C19.7421 43.6464 20.407 44.4578 20.5406 44.6087C20.8543 44.9612 21.3078 45.16 21.7817 45.1515C22.1864 45.1441 22.5706 44.9849 22.8596 44.7119C22.9234 44.6783 23.1284 44.5867 23.5416 44.5322C25.0076 44.3377 27.2964 44.8795 29.6066 45.6653C27.0663 45.7925 25.7648 46.5173 25.3276 46.8185C24.2121 47.5878 23.7642 48.9455 23.8973 49.8881C23.9973 50.5951 24.4315 51.1468 25.0609 51.3642C25.6276 51.5611 26.2525 51.4413 26.7225 51.0545C27.0705 50.8684 28.5831 50.3494 30.3541 50.4645C31.204 50.5197 32.0177 50.6499 32.7941 50.8343C31.2427 51.7315 29.7184 52.6571 28.1206 53.3897C25.874 54.4348 23.4919 55.1669 21.0223 55.367C19.8864 55.4411 18.6456 55.3529 17.5592 55.0716C17.3979 55.03 17.2622 54.986 17.1317 54.9334C16.9578 54.8187 16.6773 54.7008 16.4438 54.6694C15.5666 54.523 14.7491 55.1632 14.5916 55.9673C14.4605 56.5881 14.602 57.1354 14.8471 57.6736C15.1972 58.4066 15.8295 58.9966 16.578 59.3174C17.8796 59.8758 19.5476 60.0501 21.2503 60.0005C19.1125 60.7814 15.1685 62.1396 13.1715 61.4621C13.1684 61.4615 13.1766 61.4642 13.186 61.4716L13.1986 61.4796L13.2159 61.4918L13.2423 61.5123L13.2686 61.534L13.2846 61.547L13.3308 61.589L11.0147 61.6859C10.4786 62.3108 10.2158 63.1532 10.3765 63.9767C10.639 65.2732 11.7392 65.9804 12.8569 66.4199C13.1692 66.5378 13.4857 66.6349 13.8037 66.7139C11.5507 67.1621 9.24791 67.2694 6.98114 66.8991C6.97063 66.897 6.96116 66.8951 6.95064 66.8929C6.26686 66.5983 5.40237 66.8244 4.97718 67.4264C4.52866 68.0139 4.55675 68.8374 4.76179 69.4596C5.11897 70.5227 5.90839 71.2554 6.84387 71.7662C7.63202 72.1721 8.53064 72.3695 9.36219 72.5305C12.7737 73.1267 16.3142 72.8977 19.6037 71.8366C20.2684 71.6284 21.018 71.316 21.6547 71.0413C25.2297 69.4397 28.6618 67.6527 32.1289 65.8718C36.8286 63.4346 41.4954 60.9548 46.1491 58.4484C46.8483 58.9946 47.5686 59.5613 48.2833 60.1236C51.683 62.7966 55.1982 65.5594 57.533 67.1106C57.5407 67.1155 57.5485 67.1203 57.5561 67.1262C56.9823 67.2966 56.7297 67.4609 56.5427 67.6201C56.1171 67.9824 55.8915 68.4548 55.9015 68.9373C54.3011 69.253 52.4651 69.693 51.642 70.1726C51.0885 70.4957 50.8073 70.8538 50.6764 71.1839C44.7499 71.8264 28.7095 73.6107 25.0695 74.5103C22.4507 75.1572 20.6638 76.3817 19.6252 77.2946C18.4515 78.3275 17.6176 79.4991 17.4495 80.3553C17.1936 81.6578 17.8257 82.6892 18.4452 83.1757C19.1012 83.6924 19.6706 83.5591 19.9514 83.4342C20.2492 83.3008 20.478 83.0654 20.6023 82.7784C20.759 82.5739 21.3061 81.9707 22.3247 81.2631C23.0367 80.7695 23.9703 80.3016 24.983 79.9235C24.5929 80.434 24.3503 80.9897 24.251 81.5943C24.0064 83.0835 25.1353 84.1121 26.3216 84.3281C26.7221 84.4 27.1327 84.2777 27.4249 84C27.6437 83.7919 27.7768 83.5153 27.8069 83.2232C27.8366 83.1794 27.9001 83.099 28.0232 82.9897C28.9176 82.1927 31.1175 81.4733 33.4733 80.9289C31.8715 82.1 31.4375 83.1428 31.3212 83.6484C31.0886 84.6595 31.6242 85.6268 32.2575 86.1367C32.5164 86.3446 32.7643 86.4505 32.9873 86.496C33.3722 86.5745 33.6813 86.4716 33.8324 86.4026C34.2382 86.2175 34.5155 85.8467 34.5857 85.4109C34.7302 85.1161 35.3457 84.3013 36.4409 83.696C39.1523 82.1981 42.4226 81.9563 44.8095 81.7805C45.2622 81.747 45.6903 81.7161 46.0816 81.6777C47.2382 81.5666 51.099 81.7273 54.8314 81.8835C58.8442 82.0513 62.9929 82.2241 65.5462 82.1669C66.4299 82.1476 67.4855 82.1232 68.6868 82.0613C68.5106 82.1946 68.3595 82.3232 68.2448 82.4452C67.8844 82.8261 67.7371 83.1779 67.7014 83.4765C63.0803 85.2595 50.8575 90.0212 48.1884 91.5158C44.6521 93.4963 43.3695 96.7761 43.4953 98.0122C43.6153 99.1907 44.4103 99.9072 45.0541 100.161C45.1494 100.199 45.2405 100.225 45.3257 100.243C45.8568 100.351 46.2131 100.113 46.3539 99.9924C46.5731 99.8039 46.7081 99.5451 46.7394 99.2684C46.8155 99.067 47.0999 98.4677 47.7201 97.694C48.1361 97.1747 48.7154 96.6334 49.374 96.1386C49.2013 96.6306 49.1473 97.1261 49.2141 97.6256C49.3863 98.919 50.524 99.5231 51.56 99.4503C51.9266 99.4253 52.2567 99.2247 52.4452 98.9128C52.5875 98.6772 52.6365 98.3997 52.5865 98.1346C52.5998 98.0961 52.6281 98.0271 52.6889 97.9278C53.1835 97.1197 54.6724 96.1154 56.3434 95.2067C55.4015 96.4832 55.3158 97.4191 55.3467 97.8582C55.4116 98.7804 56.1317 99.4826 56.7739 99.7449C57.4869 100.036 57.9623 99.7194 58.134 99.5701C58.4313 99.3107 58.5709 98.9271 58.5199 98.5381C58.5635 98.2704 58.848 97.4933 59.5457 96.7907C61.3143 95.0114 63.8408 94.1407 65.6851 93.5049C66.0376 93.3827 66.3709 93.2685 66.6744 93.1557C67.5597 92.8276 70.6666 92.1621 73.6727 91.5182C76.9102 90.825 80.2567 90.1074 82.2797 89.5298C86.1768 88.417 94.2871 86.1028 101.736 78.5047C103.804 76.394 104.789 74.314 105.192 72.4904C109.725 71.1537 113.772 68.569 116.912 64.9968C121.328 59.9734 123.499 53.5374 123.025 46.8774L123.026 46.8755ZM53.7616 9.52803C53.7046 8.84067 54.5761 8.25812 54.5425 8.54629C54.5089 8.83446 55.0243 10.0568 56.2794 11.0146C58.9174 13.029 62.3456 13.4843 64.3386 13.9506C66.3316 14.4168 76.2845 15.0036 80.4371 15.6457C82.5854 15.9788 85.7848 16.4927 89.5071 17.7889C86.5348 17.1771 83.4625 16.8888 80.3999 16.7358C72.9839 16.3499 65.5209 16.0335 58.3571 13.9603C57.737 13.7188 57.1991 13.4822 56.8508 13.2777C54.2935 11.7755 53.8186 10.2154 53.7629 9.52721L53.7616 9.52803ZM48.2663 9.71613C48.4586 9.62737 48.704 9.7295 48.7594 9.91435C48.807 10.0727 48.9093 10.2855 49.1239 10.5441C50.7521 12.5086 56.9386 14.3347 58.8947 14.7511C58.9084 14.7539 58.9231 14.7569 58.9368 14.7597C58.962 14.7649 58.9854 14.7686 59.0094 14.7691C65.9442 16.7023 73.2129 17.0745 80.354 17.4976C85.9464 17.8218 91.5883 18.5855 96.535 21.0275C97.9591 21.8604 99.4066 22.826 100.859 23.9509C103.437 25.9477 104.646 28.0795 105.139 29.9535C104.728 29.4607 104.241 29.0566 103.708 28.6974C102.822 28.0849 101.887 27.5415 100.92 27.0656C100.936 26.9353 100.895 26.7948 100.773 26.671C92.0149 18.3472 79.0265 19.6282 67.8906 18.2134C64.5307 17.8262 61.1885 17.255 57.9212 16.3867C55.5339 15.7001 52.9673 14.8554 51.0738 13.955C48.4186 12.691 47.7466 11.5061 47.7278 10.5781C47.7176 10.0858 48 9.8397 48.2673 9.71635L48.2663 9.71613ZM106.068 45.1969C105.961 46.2413 106.181 47.2614 106.388 48.2623C106.533 48.9177 106.702 49.564 106.88 50.2066C106.909 50.3221 107.172 51.2218 107.19 51.3275C107.186 51.3299 107.184 51.3326 107.179 51.3359C106.771 51.5315 106.289 51.5189 105.826 51.5569C105.696 51.5649 105.582 51.5655 105.438 51.5807C105.077 51.6024 104.955 52.0083 105.006 52.3092C105.009 52.338 105.019 52.3662 105.038 52.3918C105.176 52.613 105.346 52.9046 105.321 53.1545C105.302 53.2082 105.312 53.2003 105.208 53.2606C104.899 53.4198 104.51 53.5205 104.161 53.6044L104.082 53.6219L104.043 53.6302L104.023 53.6349C103.974 53.6455 103.922 53.6652 103.882 53.7244C103.85 53.7719 103.845 53.822 103.846 53.8516C103.872 53.9122 103.945 53.992 104.018 54.0167C104.074 54.0401 104.113 54.0362 104.153 54.0464C104.474 54.0858 104.804 54.356 104.781 54.6822C104.781 54.6843 104.781 54.6854 104.78 54.6874C104.496 54.9277 104.224 55.1575 104.023 55.4896C103.978 55.5606 103.912 55.7523 103.94 55.8567C103.958 55.9905 104.007 56.1188 104.046 56.2253C104.182 56.5914 104.331 56.9755 104.392 57.3568C104.402 57.4607 104.44 57.5694 104.406 57.6676C104.146 58.1027 103.072 58.2502 102.647 58.0019C101.56 57.3007 100.77 58.2763 100.699 59.3312C100.641 60.1405 100.923 60.9009 101.128 61.6554C101.152 61.7373 101.178 61.8185 101.204 61.9008C98.7093 61.1771 95.3376 60.6541 93.2965 60.3375L93.1032 60.3078C92.8495 60.268 92.5926 60.2275 92.332 60.1841C92.1879 60.1547 92.0438 60.1253 91.9007 60.0962C90.008 59.6916 88.1046 59.2642 86.266 58.6744C85.8101 58.525 85.3588 58.3635 84.9347 58.1707C84.6315 58.0188 84.2812 57.8779 84.0965 57.6125C84.0743 57.2381 84.5897 57.0319 84.9123 56.9057C86.2612 56.464 87.7335 56.427 89.1587 56.3847C90.128 56.3699 91.1036 56.3889 92.0698 56.4428C92.3444 56.45 92.3666 56.0565 92.0963 56.0284C91.1753 55.962 90.2556 55.9111 89.336 55.897C88.3233 55.8022 87.3134 55.6992 86.3096 55.5768C85.3991 55.454 82.0188 55.0486 81.6128 54.38C82.1654 53.0729 89.4453 52.8964 91.0294 52.789C91.2944 52.7736 91.2934 52.397 91.0353 52.3736C89.9565 52.2967 88.8804 52.2768 87.8012 52.2931C85.186 52.1327 80.4381 51.7986 79.7059 50.7262C79.6916 50.6994 79.6938 50.6727 79.6875 50.6498C79.6871 50.6519 79.6873 50.6454 79.6928 50.6346C81.0442 49.9124 85.4527 49.3377 85.4527 49.3377C85.4527 49.3377 85.3961 49.3305 85.2979 49.318C86.217 49.216 87.1404 49.131 88.0617 49.0402C88.3611 49.0384 88.6256 49.0359 88.8409 49.0332C89.7465 49.0086 90.6487 48.9681 91.5525 48.8824C91.8158 48.8537 91.7921 48.4758 91.5352 48.4678C89.9585 48.4043 82.7398 48.3992 81.731 47.2118C82.7506 46.5043 85.0345 45.9474 85.0345 45.9474L85.3005 45.8303C86.3691 45.6188 87.5252 45.4349 88.5691 45.2802C90.2718 45.236 91.8972 45.0556 92.5768 44.9892C92.8519 44.951 92.7997 44.552 92.5286 44.5759C91.8538 44.6346 91.1746 44.6826 90.4929 44.716C90.135 44.7254 89.7774 44.7381 89.42 44.7552C88.48 44.7771 87.5393 44.7642 86.607 44.6944C86.1201 44.6536 85.6337 44.5945 85.1697 44.4901C84.7726 44.3961 84.2695 44.2577 84.0133 43.9668C83.952 43.8914 83.9277 43.8224 83.926 43.7396C83.9682 43.6452 84.0627 43.5582 84.1697 43.4737C84.21 43.4429 84.2519 43.4146 84.2928 43.386C84.8247 43.1041 85.44 42.8912 85.44 42.8912L85.6601 42.6823C85.6841 42.672 85.7069 42.6625 85.7298 42.652C86.63 42.2781 87.5639 41.9589 88.5041 41.6572C91.3311 40.7631 94.2179 40.0168 97.1026 39.3341C97.1291 39.3276 97.154 39.3185 97.1778 39.3093C98.1399 39.0717 99.0967 38.8178 100.039 38.5372C101.121 38.2048 102.152 37.8782 103.193 37.3475C104.156 36.8703 104.966 36.1605 105.512 35.3139C105.527 35.2965 105.544 35.2803 105.559 35.2629C106.514 36.3547 107.269 37.6108 107.692 38.9866C108.901 42.958 106.414 43.005 106.068 45.1915L106.068 45.1969ZM87.7002 75.649C84.8832 75.4843 82.279 75.1569 79.876 74.7134C72.9425 72.9724 67.1038 69.28 61.1508 64.2791C58.1878 61.8437 55.2861 59.3178 52.2762 56.9249C52.6046 56.8401 52.9179 56.7435 53.2032 56.6552C53.8343 56.4456 54.4549 56.2175 55.069 55.9783C55.2823 56.1574 55.4955 56.3365 55.7086 56.5166C61.4029 61.3195 66.8988 66.5363 73.6263 69.9371C74.4524 70.3399 75.3463 70.7696 76.2072 71.1144C76.4557 71.2172 76.8376 71.3808 77.0851 71.4671C77.5976 71.6454 78.3666 71.9357 78.8735 72.0879L79.7825 72.3525C82.4992 73.1323 85.3413 73.5071 88.1631 73.5361C88.2939 73.539 88.4113 73.4469 88.4341 73.3138C88.4584 73.1679 88.3595 73.0295 88.2123 73.0049C87.2986 72.8435 86.367 72.738 85.4621 72.5502C79.0189 71.4342 73.1704 68.9015 67.8972 65.0523C63.8185 62.0932 60.0014 58.7645 56.0867 55.5655C56.4853 55.3995 56.8813 55.2308 57.2751 55.0563C57.6476 55.5184 58.2216 55.8622 58.9537 56.0007C60.5176 56.2503 62.0509 55.3288 63.3059 54.6227C63.7738 54.3375 64.2365 54.0457 64.6956 53.75C65.4405 54.4378 66.2333 55.0844 67.0406 55.6753C67.8971 56.3262 69.2217 57.18 70.144 57.7445C70.3298 57.854 70.4854 57.5907 70.3179 57.4774C68.6482 56.3178 66.9079 54.9671 65.4803 53.5283C65.423 53.471 65.365 53.4115 65.3081 53.3522C66.4415 52.6083 67.5545 51.8407 68.6671 51.0752C70.6509 52.1448 72.3992 53.1935 72.3992 53.1935L77.264 56.2088C81.8041 59.0223 87.0779 60.9725 92.7288 61.8584C92.7713 61.8649 92.8149 61.8717 92.8574 61.8782C95.2986 62.258 100.465 63.0396 102.541 64.0783C105.22 65.4175 105.661 68.472 103.503 70.4852C100.809 72.9987 95.6691 76.1119 87.6975 75.6463L87.7002 75.649ZM83.303 43.888C83.3961 44.4732 84.0257 44.8294 84.9222 45.0373C85.0189 45.0787 85.1161 45.118 85.2095 45.1545C84.1332 45.3069 83.0587 45.5042 82.0277 45.8861C81.2816 46.1548 80.417 46.7572 80.9776 47.6395C81.0521 47.7469 81.1491 47.8458 81.263 47.9374C81.3708 48.3596 82.2332 48.6863 83.1482 48.9164C82.4481 48.9861 81.7516 49.0816 81.0592 49.2104C80.3808 49.3779 79.6674 49.5024 79.1092 50.0263C78.7038 50.4133 78.8008 51.0654 79.1959 51.4378C79.4656 51.7108 79.819 51.8849 80.1521 52.019C80.9028 52.3023 81.6805 52.4642 82.4644 52.5743C82.6711 52.6349 82.8753 52.6917 83.0693 52.7454C83.0533 52.7486 83.0362 52.7516 83.0202 52.7549C82.3161 52.941 81.5477 53.1151 81.0135 53.7144C80.621 54.1885 80.7054 54.8164 81.2096 55.159C81.6293 55.4377 82.2607 55.6511 83.0141 55.8135C83.6619 55.9999 84.3893 56.145 85.0154 56.2499C84.2221 56.4547 83.4533 56.8348 83.4549 57.6377C83.4553 57.7214 83.4777 57.8051 83.5179 57.8871C82.9353 57.6554 82.3535 57.4033 81.7755 57.127L73.2498 51.8431C73.2431 51.8385 73.2361 51.8349 73.2294 51.8302C73.164 51.7909 71.8636 51.0125 70.2281 50.1094C70.3986 49.9609 70.5839 49.7991 70.7829 49.6293C71.7787 48.9582 72.7829 48.2997 73.8083 47.6715C77.114 45.5432 80.637 43.8637 84.3186 42.5724C83.7301 42.9166 83.1944 43.3626 83.3005 43.8843L83.303 43.888ZM68.4653 22.4208C68.1369 22.1564 68.1033 21.988 68.2052 21.8807C68.2469 21.8372 68.2641 21.7854 68.2627 21.733C68.6959 21.4353 69.6398 21.3784 70.0405 21.3636C71.1187 21.3308 72.2128 21.4455 73.2868 21.5887C73.4742 21.6096 73.5181 21.3409 73.3387 21.2967C71.9316 20.9923 68.5914 20.1644 67.4583 21.326C62.9472 20.3308 50.7294 17.5444 46.9174 15.7211C43.5894 14.13 42.0418 11.6363 42.002 10.8646C41.9501 9.84633 42.8131 9.41281 42.8034 9.52473C42.7937 9.63664 45.2568 12.2076 48.0092 13.7528C49.8325 14.7767 54.0552 15.8703 57.7815 16.701C64.7607 18.6855 72.0665 19.1553 79.2508 19.8226C86.0809 20.4437 93.3725 21.6915 98.7561 26.1327C94.1472 24.4029 89.0777 24.0769 84.228 24.7145L83.2246 24.8374L82.2229 24.9791C79.8428 25.3092 77.5034 25.7463 75.2056 26.2906C73.8264 25.9355 72.5803 25.5457 72.3206 25.2454C72.0403 24.9225 72.2589 24.7263 72.5899 24.6072C72.8535 24.5124 72.8262 24.1901 72.5463 24.1016C71.2434 23.6839 69.1299 22.9545 68.4642 22.4206L68.4653 22.4208ZM34.4557 21.4179C34.3273 20.6509 35.2751 19.8822 35.2627 20.2115C35.2503 20.5409 35.954 21.8494 37.4838 22.7656C40.6986 24.6916 44.6789 24.7606 47.0107 25.027C49.3425 25.2933 60.8307 24.664 65.6614 24.85C67.1007 24.905 68.9461 24.9832 71.0908 25.2266C71.1358 25.4571 71.24 25.6822 71.3993 25.8894C69.466 25.8876 67.529 25.9686 65.6121 26.0906C57.1314 26.6112 48.6077 27.2195 40.1888 25.8263C39.4344 25.6311 38.7754 25.4295 38.3463 25.24C35.2712 23.8805 34.583 22.1847 34.4546 21.4177L34.4557 21.4179ZM28.1595 22.3418C28.3722 22.2171 28.6633 22.2992 28.7438 22.5011C28.8127 22.6735 28.9505 22.9002 29.22 23.1634C31.2702 25.1642 38.5442 26.4181 40.8293 26.6338C40.8455 26.6349 40.8626 26.6373 40.8788 26.6384C40.9143 26.6413 40.9474 26.6405 40.9798 26.6373C49.1396 27.9148 57.4658 27.3942 65.6584 26.9483C68.1008 26.812 70.5759 26.741 73.036 26.8242C73.0442 26.8269 73.0534 26.8299 73.0616 26.8327C71.2373 27.3228 69.4403 27.8825 67.6718 28.512C62.098 28.6982 56.4686 29.334 51.057 29.3212C47.3549 29.349 43.6488 29.144 39.9821 28.6226C37.141 28.1569 34.0597 27.5316 31.7682 26.7507C28.603 25.6721 27.7226 24.4242 27.6154 23.3816C27.5584 22.8287 27.8601 22.515 28.1574 22.3414L28.1595 22.3418ZM52.528 34.0271C52.1263 33.7727 52.0722 33.5871 52.1795 33.4528C52.331 33.2635 52.1475 33.0135 51.8749 32.986C47.1882 32.518 31.8916 30.8986 27.1577 29.2766C23.1887 27.917 21.1824 25.3091 21.067 24.4461C20.9139 23.3063 21.8667 22.7067 21.8658 22.8345C21.8649 22.9623 24.9298 25.5367 28.2334 26.92C30.4427 27.8458 35.4679 28.5337 39.8553 28.9862C43.5607 29.5707 47.3144 29.8321 51.0616 29.8569C55.7597 29.9465 60.6263 29.5271 65.4705 29.3406C61.7204 30.823 58.1029 32.6329 54.6265 34.7763C53.7311 34.5416 52.9275 34.2811 52.5288 34.0284L52.528 34.0271ZM16.2521 38.3333C16.1176 38.4556 15.8846 37.2453 17.2375 36.2631C18.2625 35.5188 22.8712 34.3819 27.9463 35.7491C31.3233 36.6593 37.7056 39.776 43.5184 42.822C42.5253 43.6032 41.5339 44.3869 40.5413 45.166C40.2171 45.0044 39.8858 44.8403 39.6341 44.7152C39.5382 44.6696 39.37 44.5919 39.1684 44.5009C34.6925 42.0009 29.4083 39.3122 26.4199 38.7145C21.9275 37.8154 16.3866 38.2111 16.2521 38.3333ZM23.3249 42.9521C22.798 43.0214 22.431 43.145 22.1846 43.2629C21.8968 43.4005 21.5427 43.2838 21.4811 43.0217C21.3953 42.6582 21.4539 42.1561 22.0936 41.6683C23.3003 40.7474 25.4336 40.15 29.4749 41.2467C32.3328 42.0217 35.7224 43.4454 38.7605 44.8732C39.1402 45.0635 39.5104 45.2518 39.8017 45.4132C39.8837 45.457 39.9689 45.5015 40.0549 45.5473C39.2477 46.1798 38.439 46.8088 37.627 47.4328C35.3061 46.1035 27.3278 42.4216 23.3262 42.9513L23.3249 42.9521ZM30.4552 48.8733C28.0828 48.7202 26.0462 49.4935 25.7078 49.8149C25.3694 50.1364 25.3207 48.7695 26.2531 48.1246C27.1856 47.4796 29.6192 46.3285 33.8776 47.0963C34.5085 47.2099 35.3889 47.486 36.352 47.8343C36.5046 47.9078 36.6571 47.9823 36.8095 48.0567C36.1343 48.5687 35.4569 49.0748 34.7744 49.5744C34.7204 49.6133 34.6667 49.6512 34.613 49.689C33.3431 49.2759 31.9571 48.9704 30.4552 48.8733ZM17.0423 57.8524C15.939 57.2781 15.904 55.9086 16.3102 56.2051C16.7166 56.5006 19.0805 57.125 21.7657 56.7975C27.4102 56.1094 31.4546 53.238 34.1109 51.7526C36.7672 50.2673 47.3853 41.2561 52.4217 37.8614C55.3063 35.9172 59.7875 32.9407 66.4073 30.3658C62.4983 32.4926 58.7897 35.1571 55.0856 38.3094C50.7439 41.9076 46.5551 45.6694 42.0402 49.0425C37.8363 52.2068 33.3618 55.0111 28.6428 57.3598C27.5282 57.7973 26.5031 58.1555 25.7704 58.3205C20.984 59.3995 18.1435 58.4263 17.0413 57.8522L17.0423 57.8524ZM19.787 70.0843C14.1115 71.8214 8.80195 71.0235 7.58837 70.3562C5.98588 69.4739 6.17005 68.2489 6.33124 68.361C6.49243 68.4731 12.8138 68.4622 17.857 67.236C21.2218 66.418 27.0744 63.3298 32.0036 60.4978C32.3173 60.346 32.6183 60.197 32.8795 60.0604C34.0469 59.4721 35.3683 58.746 36.504 58.1034C43.9705 53.8704 50.5107 48.2118 57.0191 42.7301C62.0775 38.5025 67.4271 34.5177 73.5686 31.9895C74.1027 31.7828 74.9215 31.4477 75.4551 31.2485C75.7853 31.139 76.543 30.8673 76.8909 30.7463C77.6808 30.4671 78.5147 30.2403 79.3117 29.9853C79.656 29.8928 80.4198 29.6928 80.7864 29.593L81.2774 29.4578C81.4416 29.4154 81.6086 29.3811 81.7732 29.342C82.3412 29.216 82.9419 29.0696 83.5124 28.9365C84.265 28.7917 85.018 28.6395 85.769 28.476C85.9041 28.4525 86.0024 28.3305 85.9905 28.1903C85.9777 28.0435 85.8468 27.9332 85.6987 27.9453C84.9267 28.008 84.1475 28.0844 83.3763 28.1646C75.7585 29.1118 68.8901 32.3084 62.7597 36.7804C58.312 40.0013 54.262 43.6894 50.0925 47.2273C45.4334 51.1947 40.5764 54.9503 35.2861 58.0589C34.1088 58.7656 32.8135 59.4764 31.5371 60.1478C28.1629 61.8066 24.3769 63.4921 21.1611 64.4815C16.6431 65.8722 14.1803 65.4317 12.748 64.6015C11.9887 64.1613 11.8895 63.6649 11.9628 63.2948C12.017 63.0293 12.4099 62.886 12.7466 63.0024C13.0341 63.1023 13.4592 63.1988 14.0621 63.2295C18.6448 63.4659 27.4697 59.2009 30.0151 57.7059C30.0336 57.6956 30.0513 57.684 30.0699 57.6737C30.1495 57.6271 30.2033 57.5729 30.2354 57.5177C37.0986 54.0021 43.3744 49.4459 49.2358 44.483C58.7395 36.354 66.2071 29.9888 77.3119 27.1303C79.7014 26.6199 82.2694 26.1903 85.0265 25.8699C94.0519 24.8216 100.098 27.5529 103.324 29.8653C105.909 31.7169 105.611 34.7995 102.657 36.3325C100.367 37.5216 94.5496 38.6809 91.801 39.2385C91.753 39.2482 91.7042 39.2567 91.656 39.2675C71.6126 43.8275 62.9515 55.7208 59.1181 54.4268C58.5635 54.2399 58.3607 54.0955 58.3587 53.8478C58.3613 53.8027 58.3677 53.7552 58.3756 53.7059C58.3834 53.6673 58.3949 53.6274 58.4093 53.5837C58.4182 53.5562 58.4224 53.53 58.4233 53.5041C58.6272 52.8645 59.0296 52.2991 59.4582 51.7553C60.0615 51.0052 60.7626 50.3076 61.4974 49.6484C66.0065 45.7079 71.431 42.8327 77.0332 40.6978C77.3348 40.5673 77.1462 40.1655 76.8705 40.2546C71.1131 42.27 65.5593 45.0266 60.848 48.9171C59.5246 50.0767 57.9672 51.476 57.3433 53.1753C57.33 53.2138 57.3186 53.2538 57.3069 53.2948C55.3804 54.1621 52.4418 55.399 51.0488 55.5411C50.5811 55.5888 50.2956 55.5544 50.1342 55.4705C50.0546 55.3448 50.0276 55.1711 50.0764 54.9479C50.7792 52.1475 56.7928 47.7113 59.2004 45.877C62.2564 43.5599 65.4507 41.4348 68.8705 39.6866C70.0107 39.1079 71.1723 38.5693 72.3497 38.0665C72.4562 38.0221 72.5082 37.9015 72.4645 37.7938C72.4209 37.6852 72.2968 37.6327 72.1873 37.6755C69.7783 38.6147 67.4384 39.7253 65.1898 40.9955C60.7062 43.5918 56.4823 46.5373 52.5337 49.9001C51.5476 50.7814 50.6029 51.6907 49.7995 52.7611C49.2688 53.4989 48.738 54.3397 48.7612 55.2946C43.167 58.5288 26.4302 68.05 19.7908 70.0818L19.787 70.0843ZM47.6839 57.6216C48.1973 57.3445 48.7108 57.0664 49.2244 56.7883C49.2389 56.7977 49.2524 56.807 49.2681 56.8156C49.7714 57.1092 50.3537 57.1868 50.9436 57.152C57.6516 62.5174 63.1912 67.9981 69.7954 71.864C64.5543 69.8175 60.8689 67.4061 58.4278 65.7855C55.7725 64.0225 51.3877 60.5226 47.6843 57.6195L47.6839 57.6216ZM19.4395 82.27C19.4325 82.4009 18.4704 81.7686 18.7001 80.5996C18.8744 79.7132 21.1379 77.0652 25.3848 75.7309C30.4499 74.1393 46.5981 72.723 51.5453 72.3168C51.8338 72.2932 52.0403 72.0381 51.8942 71.8413C51.7901 71.7018 51.8574 71.5116 52.2941 71.2558C53.1796 70.739 55.8311 70.217 57.4592 69.9319C57.809 69.871 57.8952 69.5024 57.5947 69.3533C57.2167 69.1655 56.9883 68.9052 57.3768 68.5745C57.5875 68.3951 58.2059 68.2317 59.0233 68.0861C62.8002 70.5269 68.9866 74.0993 78.2553 76.0205C78.3173 76.0332 78.3768 76.0475 78.4389 76.0602C78.5041 76.0735 78.5704 76.087 78.6366 76.1005C78.5907 76.1161 78.5379 76.1335 78.4814 76.1524C75.9536 76.5033 73.385 76.6247 70.8385 76.5835C61.8947 76.4369 52.9415 75.1712 43.9833 75.8524C42.3223 75.9659 40.6654 76.1344 39.0168 76.3588C38.4422 76.4369 37.8694 76.5217 37.2962 76.6142C37.1988 76.6301 37.1333 76.7198 37.1477 76.816C37.1487 76.8216 37.151 76.8264 37.1521 76.832C37.143 76.8335 37.1329 76.8346 37.1228 76.8358C37.0245 76.8505 36.9331 76.783 36.9179 76.6856C36.9025 76.5892 36.9692 76.4986 37.0665 76.4838C37.6384 76.3922 38.2124 76.3065 38.7871 76.2285C34.1339 76.622 28.7611 77.2516 26.3698 78.1738C22.8191 79.5428 19.4471 82.1414 19.4402 82.2723L19.4395 82.27ZM27.1763 82.05C26.8776 82.3167 26.7187 82.5478 26.6369 82.7231C26.5402 82.929 26.2292 83.0087 26.0139 82.8769C25.7138 82.6942 25.416 82.3656 25.5086 81.7988C25.6843 80.7282 26.6838 79.4592 30.0712 78.4018C32.0825 77.7741 34.6453 77.2621 37.163 76.8592C37.1954 76.9309 37.2717 76.9758 37.354 76.9644C37.9571 76.8759 38.5619 76.7953 39.1674 76.7215C40.7772 76.526 42.3937 76.3839 44.0136 76.2946C50.7196 75.9023 57.4053 76.5113 64.1017 77.0249C67.7556 77.3299 71.5074 77.515 75.2142 77.3243C72.9908 78.181 72.1656 78.6548 71.7804 79.0122C69.7556 78.9972 67.7257 78.8998 65.7083 78.7681C57.094 78.1713 48.348 77.501 39.7521 78.6727C39.713 78.6658 39.6709 78.6627 39.6242 78.6662C39.6065 78.6669 39.5886 78.6687 39.572 78.6696C37.1615 78.8536 29.4519 80.025 27.1786 82.0494L27.1763 82.05ZM65.5165 80.9059C60.4375 81.0184 48.4205 80.1852 45.9575 80.4224C43.4947 80.6587 39.3137 80.6658 35.8233 82.5938C34.1626 83.5111 33.3448 84.8454 33.3381 85.1846C33.3315 85.5228 32.3827 84.7175 32.5639 83.9312C32.7452 83.1449 33.5696 81.4128 36.8795 80.064C37.3478 79.8732 38.0643 79.6745 38.8823 79.4834C43.1768 78.8822 47.5217 78.6894 51.8603 78.7902C58.2198 78.8826 64.7964 79.7741 71.2758 79.9017C71.2312 80.1204 71.2366 80.3406 71.2939 80.5486C71.2488 80.5709 71.2025 80.594 71.1572 80.6173C68.9247 80.8256 67.0115 80.8757 65.5158 80.909L65.5165 80.9059ZM81.9659 88.4528C77.9502 89.5989 68.1796 91.3998 66.2772 92.1061C64.3747 92.8124 61.0473 93.6836 58.7423 96.0031C57.6453 97.1058 57.3219 98.3794 57.3992 98.6609C57.4766 98.9424 56.524 98.4726 56.4761 97.7838C56.4281 97.095 56.66 95.4915 58.9633 93.6901C59.2748 93.4467 59.7659 93.1499 60.337 92.8369C63.6389 91.4301 67.0779 90.3616 70.5767 89.5416C77.1147 87.9751 84.2942 87.3507 90.715 85.1712C87.1887 86.9422 84.0621 87.8543 81.9659 88.4528ZM100.927 77.7215C99.6543 79.0194 98.3602 80.1589 97.0708 81.1628C92.5275 84.1917 87.0477 85.6303 81.58 86.6332C74.5889 87.924 67.4636 89.1799 60.8789 91.9474C60.854 91.951 60.8288 91.9567 60.8027 91.9666C60.7886 91.9713 60.7755 91.9762 60.7625 91.9811C58.8885 92.6336 53.0384 95.1996 51.7252 97.3461C51.5525 97.6287 51.4828 97.852 51.4606 98.0145C51.434 98.2043 51.2069 98.3348 51.0018 98.2713C50.7177 98.1818 50.3999 97.9728 50.3354 97.4834C50.2124 96.5613 50.6977 95.3045 53.1349 93.7278C54.8578 92.6129 57.2455 91.4719 59.4896 90.5034C62.3081 89.3614 65.2236 88.4582 68.1975 87.8056C78.6055 85.42 89.3779 86.3877 97.483 78.251C97.9309 77.7795 97.2473 77.1454 96.802 77.5774C94.4241 79.997 91.5341 81.8815 88.3415 83.0795C81.8526 85.4957 74.7765 85.6563 68.0862 87.3415C65.1379 88.0351 62.2499 88.9753 59.4636 90.1477C55.874 91.434 51.7968 93.0535 50.1308 94.3027C47.6397 96.171 45.5927 99.0193 45.6195 99.1299C45.6462 99.2406 44.7242 98.9159 44.6212 97.9013C44.5425 97.1325 45.6945 94.4715 48.7492 92.4882C52.245 90.2175 63.9085 85.9632 68.2328 84.4211C68.3515 84.5213 68.4888 84.6003 68.6396 84.6505C70.1327 85.1721 72.6227 84.2386 74.0683 83.7254C74.2465 83.6576 74.1544 83.3948 73.9756 83.444C72.6774 83.7768 71.3468 84.1019 70.0036 84.0969C69.7355 84.0899 69.2701 84.0568 68.9756 83.911C68.9683 83.8607 68.945 83.8137 68.898 83.7759C68.7803 83.6814 68.7878 83.5104 69.0729 83.2085C69.5912 82.6602 71.2372 81.8148 72.4569 81.2328C72.7641 81.2737 73.0757 81.2874 73.3817 81.2967C75.3347 81.3307 77.2674 80.97 79.1467 80.4955C79.8057 80.3262 80.7052 80.052 81.3649 79.8417C81.4212 79.8238 81.4552 79.7646 81.4395 79.7072C81.4234 79.6464 81.3595 79.6106 81.298 79.6273L80.1853 79.9101C77.9707 80.4172 75.6903 80.7958 73.4114 80.6411C73.2679 80.6303 73.1132 80.615 72.9571 80.5962C72.9233 80.5687 72.8795 80.5467 72.8261 80.5347C72.4793 80.4575 72.2329 80.2901 72.4617 79.9365C72.9793 79.1342 79.2286 77.0814 79.2286 77.0814L81.0022 76.5234C83.0658 76.8533 85.2667 77.1006 87.6128 77.2375C96.077 77.7321 101.447 74.4088 104.124 72.087C103.775 73.8098 102.857 75.7528 100.928 77.7206L100.927 77.7215ZM116.064 64.2609C113.185 67.536 109.508 69.9423 105.386 71.2588C105.403 71.079 105.415 70.9024 105.422 70.7302C106.27 69.5604 106.634 68.179 106.429 66.8021C106.167 65.0435 105.013 63.5337 103.265 62.6585C102.921 62.4864 102.511 62.3225 102.055 62.1666C101.867 61.6152 101.694 61.0615 101.552 60.5119C101.442 60.0479 101.336 59.6359 101.428 59.1861C101.49 58.8831 101.618 58.4482 101.975 58.4505C102.075 58.4546 102.186 58.5076 102.271 58.5662C102.484 58.7007 102.691 58.7474 102.888 58.7746C103.618 58.8507 104.679 58.6519 105.021 57.9188C105.114 57.709 105.082 57.4682 105.044 57.2511C104.965 56.7513 104.742 56.2763 104.588 55.8066C104.587 55.8044 104.588 55.8033 104.587 55.801C104.707 55.5826 104.996 55.3182 105.202 55.1207C105.323 55.0204 105.371 54.8426 105.37 54.7069C105.37 54.3272 105.161 54.0145 104.866 53.8253C105.078 53.758 105.286 53.6755 105.486 53.5591C105.752 53.4128 105.76 53.0532 105.684 52.8207C105.616 52.5976 105.519 52.4119 105.403 52.2254C105.403 52.1506 105.411 52.0297 105.457 52.0064C105.459 52.0068 105.48 52.0046 105.484 52.0044C105.95 51.9877 106.404 51.9979 106.879 51.9255C107.274 51.8728 107.824 51.6866 107.67 51.1726L107.641 51.0463C107.407 50.1179 107.154 49.0804 106.977 48.1494C106.814 47.2083 106.635 46.2356 106.756 45.2993C106.934 44.3226 107.781 43.8412 108.287 42.9227C109.717 40.5104 108.189 37.0858 106.604 35.0965C106.442 34.8962 106.275 34.6995 106.101 34.5079C106.318 34.0998 106.457 33.6563 106.506 33.187C106.688 31.4766 106.515 28.4998 104.045 25.4741C107.571 26.4135 110.873 28.1588 113.665 30.5713C118.526 34.7713 121.452 40.5887 121.905 46.9516C122.359 53.3156 120.284 59.4632 116.065 64.2634L116.064 64.2609Z" fill="#118595"/>
<path d="M73.8704 60.5786C76.6535 62.4133 79.9555 63.5414 83.2846 63.7791C83.5627 63.7957 83.8401 63.8111 84.1187 63.8147C84.1711 63.8157 84.2204 63.7834 84.2396 63.732C84.2642 63.6655 84.2269 63.5906 84.1589 63.5691C83.6355 63.3799 83.1082 63.2311 82.5847 63.0745C78.9711 61.9761 75.3298 60.7929 72.11 58.7791C71.9847 58.6895 71.8462 58.8532 71.9402 58.9614C72.5078 59.5891 73.1775 60.1032 73.8708 60.5766L73.8704 60.5786Z" fill="#118595"/>
<path d="M89.0253 68.8745C87.229 68.4267 85.3704 67.9673 83.599 67.4247C78.8493 66.0089 74.2029 64.1032 69.9394 61.5772C67.2838 59.9931 64.6925 58.2008 62.4402 56.084C62.3806 56.0219 62.2815 56.0136 62.2124 56.0679C62.1395 56.1246 62.1277 56.2306 62.1854 56.3021C62.988 57.2923 63.8948 58.1693 64.8418 59.0155C65.7872 59.8591 66.7855 60.642 67.8127 61.3852C73.2298 65.2432 79.5475 67.8976 86.1142 69.0258C87.0154 69.1836 88.0343 69.3177 88.9361 69.4084C89.2883 69.4379 89.3442 68.9493 89.0242 68.8743L89.0253 68.8745Z" fill="#118595"/>
<path d="M103.614 45.5292C102.976 44.821 101.957 45.0514 101.329 45.6001C101.035 45.833 100.75 46.0807 100.493 46.3546C100.233 46.6086 100.047 46.9307 99.7238 47.1067C99.7004 47.1193 99.6871 47.1469 99.6948 47.1734C99.7532 47.3274 100.195 46.9891 100.273 46.9226C100.285 46.912 100.298 46.9006 100.311 46.8893C100.697 47.1869 101.069 47.4993 101.563 47.624C102.103 47.7807 102.773 47.5921 103.08 47.0972C103.168 46.9568 103.052 46.8062 102.919 46.7986C102.869 46.7949 102.818 46.8105 102.774 46.8547C102.7 46.9297 102.618 47.0126 102.527 47.0701C101.856 47.5243 101.093 47.0747 100.426 46.7921C100.785 46.4837 101.18 46.1695 101.566 45.9129C101.727 45.7919 101.907 45.6897 102.093 45.6203C102.05 45.7254 102.019 45.8449 102.006 45.9768C101.987 46.1746 102.012 46.3674 102.076 46.5204C102.15 46.6959 102.274 46.8113 102.421 46.8414C102.434 46.8439 102.447 46.8465 102.461 46.8472C102.765 46.8777 103.029 46.5488 103.074 46.0841C103.092 45.9076 103.074 45.7434 103.028 45.6061C103.031 45.6065 103.033 45.607 103.035 45.6084C103.132 45.6511 103.226 45.7094 103.314 45.7881C103.495 45.9758 103.781 45.7347 103.616 45.5307L103.614 45.5292Z" fill="#118595"/>
<path d="M100.202 45.9288C100.6 45.5806 101.054 45.211 101.494 44.9189C102.001 44.5419 102.722 44.3257 103.243 44.7931C103.425 44.9788 103.708 44.7394 103.544 44.5356C103.394 44.3663 103.206 44.2486 102.996 44.1711C101.948 43.8206 101.09 44.7075 100.423 45.361C100.163 45.615 99.9769 45.936 99.6539 46.112C99.6295 46.1244 99.6172 46.1523 99.6237 46.1796C99.6821 46.3336 100.122 45.9961 100.202 45.9288Z" fill="#118595"/>
<path d="M105.075 43.619C104.684 42.5358 103.54 42.0475 102.451 42.3895C100.9 42.9168 99.6955 44.245 98.8171 45.5648C98.7409 45.6859 98.916 45.8051 99.0037 45.6972C99.4548 45.1829 99.9533 44.6945 100.482 44.2601C101.013 43.8326 101.577 43.4443 102.185 43.2061C102.465 43.0941 102.772 43.0102 103.072 43.0184C104.021 43.0209 104.456 43.8418 104.42 44.7749C104.415 45.0007 104.595 45.1902 104.823 45.1978C105.053 45.2056 105.245 45.0267 105.252 44.7993C105.264 44.4134 105.22 44.0107 105.076 43.6179L105.075 43.619Z" fill="#118595"/>
</svg>
