<svg width="15" height="11" viewBox="0 0 15 11" fill="none" xmlns="http://www.w3.org/2000/svg">
<g clip-path="url(#clip0_3199_3136)">
<path d="M7.49947 11C4.21898 11 1.2372 8.87445 0.0773251 5.71179L0 5.5L0.0773251 5.28821C1.2372 2.12445 4.22004 0 7.49947 0C10.7789 0 13.7617 2.12445 14.9216 5.28821L14.9989 5.5L14.9216 5.71179C13.7628 8.87445 10.78 11 7.49947 11ZM1.24991 5.5C2.29221 8.08079 4.77615 9.79913 7.50053 9.79913C10.2249 9.79913 12.7088 8.08079 13.7511 5.5C12.7088 2.91921 10.2249 1.20087 7.50053 1.20087C4.77615 1.20087 2.29115 2.91921 1.24991 5.5Z" fill="#118595"/>
<path d="M7.49944 7.81221C9.56744 7.81221 11.2439 6.0844 11.2439 3.95304C11.2439 1.82168 9.56744 0.0938721 7.49944 0.0938721C5.43145 0.0938721 3.755 1.82168 3.755 3.95304C3.755 6.0844 5.43145 7.81221 7.49944 7.81221Z" fill="#118595"/>
</g>
<defs>
<clipPath id="clip0_3199_3136">
<rect width="15" height="11" fill="white"/>
</clipPath>
</defs>
</svg>
