<svg width="122" height="111" viewBox="0 0 122 111" fill="none" xmlns="http://www.w3.org/2000/svg">
<path d="M114.412 50.501C114.443 44.3867 112.09 38.6274 107.788 34.2823C104.699 31.1613 100.824 29.0098 96.5825 28.0568L96.3095 27.9951L96.4148 28.2534C96.542 28.5665 97.2362 29.266 97.4911 29.3379C101.089 30.3522 104.399 32.3102 107.062 35.0004C111.172 39.1518 113.419 44.6547 113.39 50.4954C113.361 56.3371 111.059 61.8171 106.908 65.9273C103.867 68.9379 100.065 70.974 95.9129 71.8159L95.8591 71.8271L95.8257 71.8703C95.6419 72.1098 95.666 72.4262 95.7846 72.6155C95.843 72.7098 95.9245 72.7723 96.0164 72.7982C96.0717 72.8137 96.1298 72.816 96.1899 72.8036C100.507 71.9141 104.461 69.7873 107.626 66.6528C111.971 62.3516 114.381 56.6144 114.412 50.501Z" fill="white"/>
<path d="M8.07556 61.3196C8.10291 61.3374 8.13026 61.3552 8.15615 61.3747C8.25298 61.4475 8.11349 61.3394 8.07556 61.3196Z" fill="white"/>
<path d="M16.2765 53.1589C16.2813 53.1633 16.2864 53.1668 16.2922 53.1715C16.2807 53.1621 16.2733 53.156 16.2765 53.1589Z" fill="white"/>
<path d="M6.4287 63.7266C6.45552 63.7463 6.48167 63.7648 6.50902 63.7827C6.44855 63.7423 6.35614 63.6718 6.4287 63.7266Z" fill="white"/>
<path d="M43.4006 11.4974C43.3559 11.326 43.339 11.1634 43.3627 11.0183C43.3358 11.1817 43.3501 11.3466 43.4006 11.4974Z" fill="white"/>
<path d="M18.0356 51.0173C18.0424 51.0223 18.0491 51.0272 18.0546 51.0328C18.0786 51.0517 18.0407 51.0208 18.0366 51.0176L18.0356 51.0173Z" fill="white"/>
<path d="M6.62223 63.848C6.59851 63.8353 6.57385 63.8222 6.55066 63.8076C6.57412 63.8213 6.59851 63.8353 6.62223 63.848Z" fill="white"/>
<path d="M17.4484 34.6244C17.5602 34.5365 17.7052 34.46 17.8732 34.3951C17.7224 34.4456 17.5783 34.5224 17.4484 34.6244Z" fill="white"/>
<path d="M39.7235 93.3696C39.6994 93.2252 39.7153 93.0648 39.7588 92.8959C39.7104 93.0462 39.6973 93.2074 39.7235 93.3696Z" fill="white"/>
<path d="M53.3317 35.0123C52.5374 34.7398 51.828 34.4498 51.4845 34.1931C51.1385 33.9347 51.1023 33.7616 51.2088 33.6459C51.359 33.4829 51.2102 33.2426 50.9653 33.1999C46.7553 32.4684 33.0206 29.9967 28.8475 28.2082C25.3487 26.7089 23.7126 24.1969 23.6678 23.4012C23.608 22.3503 24.5118 21.8645 24.5022 21.9812C24.4926 22.0979 27.0891 24.648 29.984 26.1257C31.9202 27.1137 36.4212 28.0689 40.3614 28.7669C39.9057 28.6607 39.4516 28.5488 38.9991 28.4314C38.9114 28.4087 38.8597 28.3193 38.8822 28.2325C38.9046 28.1457 38.9922 28.0935 39.0792 28.115C39.5523 28.2312 40.0282 28.3411 40.5041 28.4439C37.9645 27.8342 35.2185 27.0631 33.1982 26.2012C30.4075 25.0108 29.6968 23.8139 29.6718 22.8548C29.6583 22.3461 29.9531 22.0792 30.2342 21.9399C30.4354 21.8398 30.6932 21.9337 30.7524 22.1224C30.8028 22.2843 30.9119 22.5002 31.1377 22.7581C32.8554 24.7185 39.3532 26.3357 41.4068 26.6809C41.4214 26.683 41.4366 26.6863 41.4512 26.6884C41.4832 26.6934 41.5132 26.6947 41.5427 26.694C41.0671 26.5832 40.5921 26.4665 40.1195 26.3413L40.2699 25.7504C40.4737 25.8028 40.6792 25.8526 40.8837 25.9022C40.2145 25.6741 39.6317 25.448 39.2564 25.2471C36.567 23.805 36.0608 22.2125 35.9976 21.5037C35.9344 20.7948 36.8454 20.1543 36.8114 20.4543C36.7775 20.7543 37.3241 21.995 38.6456 22.9311C41.4226 24.8987 45.0208 25.22 47.1131 25.6146C49.2054 26.0091 59.648 26.1798 64.0079 26.6632C65.307 26.8068 66.972 26.998 68.8966 27.3595C68.8815 27.2267 68.8854 27.0943 68.9117 26.9651C68.1046 26.6161 67.2406 26.2067 66.6185 25.8188C65.6768 25.6889 64.841 25.596 64.1335 25.5179C61.9398 25.2749 58.3457 25.1146 54.8706 24.9595C51.6414 24.815 48.302 24.6668 47.325 24.4825C46.9916 24.4198 46.6272 24.3596 46.2406 24.2951C44.2162 23.9612 41.4448 23.5027 39.3095 21.9901C38.4771 21.4004 38.0541 20.665 37.9619 20.4002C37.9495 19.9991 37.747 19.6334 37.4085 19.4166C37.2105 19.29 36.6778 19.0406 35.9995 19.4514C35.3856 19.8237 34.7632 20.6569 34.8479 21.6055C34.889 22.0663 35.1385 23.026 36.3651 24.1872C34.4338 23.5375 32.6628 22.753 32.0022 21.9992C31.9286 21.9157 31.8893 21.854 31.8691 21.818C31.8752 21.5415 31.781 21.2691 31.5992 21.0529C31.3552 20.7626 30.9853 20.6107 30.6078 20.647C29.5431 20.7485 28.4827 21.5493 28.5171 22.8844C28.5316 23.4287 28.6808 23.9473 28.9632 24.4387C28.1544 24.0347 27.4228 23.5613 26.8799 23.0825C26.1138 22.4052 25.7197 21.8469 25.6071 21.6543C25.5296 21.3835 25.3548 21.1461 25.1061 20.991C24.9187 20.8734 24.4108 20.6402 23.7602 21.0244C23.1423 21.3894 22.445 22.2481 22.5152 23.4668C22.5601 24.2514 23.1491 25.3705 24.0521 26.3879C24.8476 27.284 26.2586 28.5164 28.4614 29.2942C31.4803 30.3608 44.9684 33.1291 50.0542 34.1562C50.1439 34.4556 50.3553 34.7894 50.7924 35.116C51.0681 35.3222 51.4895 35.532 51.9841 35.7372C52.4305 35.4887 52.8788 35.2478 53.3289 35.0115L53.3317 35.0123Z" fill="white"/>
<path d="M63.8594 28.5792C66.0796 28.6132 68.325 28.709 70.5461 28.9446C69.6148 28.5445 69.3492 28.2915 69.1829 28.0666C69.1632 28.0398 69.1458 28.0116 69.1282 27.9844C67.3783 27.8573 65.6193 27.8056 63.8757 27.7926C56.1631 27.7177 48.4054 27.7202 40.8809 25.9015C40.6763 25.8519 40.4718 25.8024 40.267 25.7497L40.1166 26.3407C40.5902 26.4661 41.0643 26.5825 41.5399 26.6933C48.8379 28.3895 56.4107 28.4543 63.8575 28.5787L63.8594 28.5792Z" fill="white"/>
<path d="M40.5024 28.4426C40.0259 28.3386 39.5509 28.229 39.0775 28.1137C38.9905 28.0922 38.9029 28.1444 38.8805 28.2312C38.8578 28.3189 38.9107 28.4076 38.9974 28.4301C39.45 28.5475 39.9041 28.6594 40.3598 28.7656C43.6735 29.5399 47.0533 30.0222 50.4436 30.2879C54.6901 30.6746 59.1243 30.6074 63.5221 30.7515C64.2022 30.5355 64.8871 30.3309 65.5748 30.1383C60.5165 29.9467 55.3769 30.1621 50.4792 29.7992C47.1261 29.5844 43.7855 29.1566 40.5024 28.4426Z" fill="white"/>
<path d="M65.1306 77.9501C63.0954 77.9955 61.3601 77.9171 60.0039 77.8505C55.3987 77.6236 44.5785 76.0829 42.3326 76.1397C40.0869 76.1957 36.3018 75.9309 33.0091 77.4653C31.4425 78.1952 30.6101 79.3608 30.5805 79.6702C30.5512 79.9786 29.748 79.1815 29.9664 78.4752C30.1847 77.7688 31.0506 76.2404 34.1399 75.2233C34.577 75.0795 35.2393 74.9444 35.9929 74.823C35.7649 74.8387 35.5357 74.855 35.3078 74.8737L35.2555 74.2661C35.7816 74.2161 36.3074 74.1741 36.8339 74.1404C36.7986 74.1325 36.761 74.1259 36.7185 74.1261C36.7022 74.1266 36.6861 74.1261 36.671 74.1259C34.4763 74.1375 27.4167 74.707 25.2192 76.4084C24.9304 76.6326 24.7705 76.8334 24.6844 76.9882C24.5826 77.1699 24.2956 77.2226 24.1099 77.0882C23.8508 76.9019 23.6039 76.5824 23.7269 76.0707C23.9599 75.1044 24.9523 74.0103 28.0915 73.2643C30.397 72.7163 33.4546 72.3855 36.2416 72.1857C35.6884 72.2139 35.1357 72.2473 34.5834 72.2899C34.4934 72.2969 34.4153 72.2293 34.4083 72.1393C34.401 72.0503 34.4676 71.9719 34.5567 71.9647C35.0807 71.9181 35.6063 71.8771 36.1318 71.8431C31.8926 71.9006 26.9856 72.127 24.7573 72.8141C21.4487 73.834 18.2169 75.9885 18.2016 76.1076C18.1862 76.2267 17.3589 75.5868 17.6476 74.534C17.8666 73.7358 20.0984 71.4643 24.0348 70.5212C28.7297 69.3963 43.4449 69.1506 47.9511 69.1006C48.2139 69.0978 48.4185 68.8782 48.2998 68.689C48.2152 68.5549 48.2893 68.3855 48.7023 68.1802C49.5395 67.7657 51.9757 67.461 53.4691 67.3063C53.79 67.2733 53.8934 66.9423 53.6318 66.7866C53.3026 66.5906 53.1137 66.338 53.4882 66.0612C53.6914 65.9111 54.2625 65.8019 55.0124 65.7219C54.5517 65.3715 54.1338 65.0453 53.7549 64.7493C53.2237 64.8676 52.9837 65.0013 52.8035 65.1346C52.3932 65.4378 52.1563 65.8547 52.1321 66.296C50.6616 66.4804 48.9692 66.7632 48.191 67.1478C47.6677 67.407 47.3884 67.7158 47.2472 68.0088C41.8381 68.211 27.1951 68.7998 23.8381 69.3852C21.4228 69.806 19.7207 70.8084 18.7176 71.5748C17.5838 72.4419 16.748 73.4579 16.5367 74.2289C16.2151 75.4019 16.7161 76.3849 17.2432 76.8694C17.8013 77.3839 18.326 77.2991 18.5888 77.2032C18.8676 77.1007 19.0909 76.9006 19.2233 76.6465C19.3793 76.47 19.9161 75.9546 20.887 75.3744C21.5656 74.9698 22.443 74.603 23.3858 74.3234C22.9975 74.7643 22.7395 75.2561 22.6079 75.8018C22.2836 77.146 23.2344 78.1587 24.2933 78.433C24.6509 78.5247 25.031 78.4396 25.3147 78.2049C25.5272 78.0291 25.6668 77.7851 25.7141 77.5203C25.7441 77.4822 25.8071 77.4129 25.9261 77.321C26.7908 76.6512 28.8317 76.1369 31.0018 75.7926C29.471 76.7582 29.0061 77.6824 28.8659 78.1366C28.5856 79.045 29.0036 79.9632 29.5416 80.47C29.7616 80.6766 29.9787 80.7894 30.1774 80.8455C30.5204 80.9422 30.8073 80.8683 30.9488 80.8151C31.329 80.6723 31.6055 80.3517 31.6992 79.9582C31.8504 79.6983 32.4638 78.994 33.497 78.5123C36.0548 77.3202 39.0317 77.3116 41.2045 77.306C41.6166 77.3048 42.0063 77.3043 42.3631 77.2946C43.4177 77.2682 46.9014 77.6655 50.2693 78.0504C53.89 78.464 57.6335 78.891 59.9487 79.0045C60.75 79.0442 61.7072 79.0904 62.7989 79.1119C63.3929 78.7239 64.284 78.3083 65.132 77.9525L65.1306 77.9501Z" fill="white"/>
<path d="M36.8335 74.1382C36.307 74.1718 35.7812 74.2138 35.2551 74.2638L35.3074 74.8715C35.5362 74.853 35.7645 74.8364 35.9925 74.8208C39.9214 74.5504 43.8677 74.6562 47.7881 75.0298C53.5383 75.5268 59.4299 76.7678 65.2862 77.3048C65.3351 77.1314 65.4177 76.9605 65.5363 76.8017C65.6015 76.7138 65.6805 76.6238 65.802 76.5265C63.9702 76.3814 62.1395 76.1608 60.3224 75.9096C52.566 74.8055 44.6954 73.6258 36.8335 74.1382Z" fill="white"/>
<path d="M72.0696 74.3487C69.7563 74.5049 67.4206 74.4495 65.1184 74.2467C57.0326 73.5324 49.0156 71.7954 40.8596 71.8364C39.3482 71.8322 37.8367 71.8786 36.3289 71.9766C35.8034 72.0105 35.2791 72.0509 34.7538 72.0981C34.6645 72.1063 34.5991 72.184 34.6054 72.2728C34.6124 72.3628 34.6905 72.4303 34.7805 72.4233C35.3325 72.3816 35.8855 72.3473 36.4388 72.3192C37.9095 72.2451 39.3825 72.2202 40.855 72.2438C46.9523 72.3206 52.9622 73.3107 58.9883 74.2142C62.4744 74.7609 66.0677 75.1932 69.6384 75.2174C70.8221 74.8621 71.9479 74.5653 72.4086 74.4453C72.3496 74.4287 72.2905 74.412 72.2324 74.3956C72.1771 74.38 72.124 74.364 72.0689 74.3475L72.0696 74.3487Z" fill="white"/>
<path d="M97.3543 56.4635C97.3458 56.4762 97.3495 56.4772 97.3543 56.4635V56.4635Z" fill="white"/>
<path d="M97.3754 56.4389C97.3754 56.4389 97.378 56.4367 97.3804 56.4354C97.3804 56.4354 97.378 56.4367 97.3754 56.4389Z" fill="white"/>
<path d="M66.3238 49.9842C66.3486 50.0003 66.3734 50.0164 66.3973 50.0322C66.5619 49.9077 66.7408 49.7719 66.9326 49.6297C66.7295 49.7475 66.5263 49.8652 66.3238 49.9842Z" fill="white"/>
<path d="M77.5765 56.0701C78.15 56.2824 78.7984 56.4621 79.3579 56.5986C79.4902 56.5742 79.6222 56.5547 79.7509 56.5394C78.9688 56.414 78.2201 56.2596 77.5765 56.0701Z" fill="white"/>
<path d="M77.3014 53.0767C77.4843 53.1455 77.6653 53.2107 77.8371 53.2723C77.932 53.2586 78.0274 53.247 78.123 53.2345C77.8491 53.1866 77.5742 53.1354 77.3014 53.0767Z" fill="white"/>
<path d="M76.5341 48.7639C76.6025 49.1565 77.3606 49.5109 78.1729 49.7804C78.4556 49.772 78.7387 49.7689 79.0215 49.7707C77.972 49.5527 77.0298 49.2345 76.5329 48.7646L76.5341 48.7639Z" fill="white"/>
<path d="M99.7826 53.5314L99.7855 53.5289C99.7855 53.5289 99.7842 53.5297 99.7826 53.5314Z" fill="white"/>
<path d="M80.0473 46.3509C80.132 46.395 80.2172 46.4373 80.2992 46.4766C80.3548 46.473 80.4107 46.4685 80.4673 46.4653C80.3214 46.4302 80.1812 46.3927 80.0473 46.3509Z" fill="white"/>
<path d="M99.4027 38.768C100.192 39.8271 100.788 41.0233 101.076 42.3073C101.896 46.0128 99.6418 45.8943 99.1773 47.8688C99.0085 48.8157 99.1374 49.7616 99.2553 50.6892C99.3409 51.2971 99.4496 51.8984 99.5663 52.4968C99.5843 52.6051 99.7609 53.443 99.7698 53.5407C99.7662 53.5427 99.7635 53.545 99.7587 53.5477C99.3759 53.6997 98.9407 53.657 98.5195 53.6617C98.4005 53.6605 98.2972 53.6537 98.1664 53.6583C97.8373 53.6555 97.6999 54.0174 97.7247 54.2956C97.7253 54.3221 97.733 54.3485 97.7486 54.3721C97.8581 54.5831 97.9914 54.8605 97.9518 55.087C97.9312 55.1349 97.9402 55.1283 97.8426 55.1766C97.5513 55.3019 97.1925 55.3687 96.8707 55.4227L96.7979 55.4335L96.762 55.4386L96.7443 55.4407C96.6989 55.4471 96.6503 55.4617 96.6105 55.5133C96.5776 55.5546 96.5699 55.5999 96.5693 55.6271C96.5886 55.6841 96.6487 55.7618 96.7128 55.789C96.7624 55.8141 96.7981 55.813 96.8332 55.8249C97.1205 55.8826 97.4012 56.15 97.3581 56.4464C97.3576 56.4483 97.3574 56.4492 97.3568 56.4511C97.0827 56.652 96.821 56.8444 96.6158 57.1345C96.57 57.1965 96.4973 57.3682 96.5157 57.4645C96.5224 57.5878 96.5583 57.7082 96.5858 57.808C96.6833 58.1512 96.7921 58.5117 96.8213 58.8639C96.8227 58.9594 96.8497 59.0611 96.8119 59.1485C96.5468 59.5291 95.5643 59.5941 95.1969 59.3398C94.2611 58.6288 93.4791 59.4686 93.341 60.4283C93.2329 61.1637 93.4356 61.8765 93.5695 62.5789C93.5857 62.6543 93.6034 62.7311 93.6212 62.808C93.8842 62.9054 94.1352 63.0055 94.3718 63.1066C94.2399 62.5908 94.1216 62.0739 94.031 61.5627C93.9632 61.1318 93.8962 60.7487 94.0104 60.3438C94.0872 60.0711 94.2333 59.6822 94.556 59.7075C94.6462 59.7177 94.7428 59.7733 94.8162 59.8324C94.9993 59.969 95.1838 60.0251 95.3603 60.0627C96.0151 60.1805 96.9901 60.0669 97.3496 59.4195C97.4485 59.2339 97.4362 59.0119 97.4169 58.8112C97.3801 58.3496 97.2111 57.9013 97.1041 57.4624C97.1037 57.4603 97.104 57.4593 97.1036 57.4572C97.2274 57.2655 97.5067 57.0427 97.7076 56.8758C97.8232 56.792 97.8793 56.6328 97.8879 56.5087C97.9139 56.1619 97.7463 55.8628 97.4928 55.6709C97.6894 55.6231 97.8828 55.5613 98.0721 55.468C98.3234 55.3517 98.3551 55.0237 98.3021 54.8064C98.2565 54.5983 98.1817 54.4224 98.0891 54.2445C98.0943 54.1762 98.1101 54.0663 98.1527 54.048C98.1545 54.0485 98.1739 54.0479 98.1779 54.048C98.6007 54.063 99.0107 54.1016 99.4455 54.0664C99.807 54.0439 100.317 53.9095 100.214 53.4301L100.196 53.3128C100.049 52.4498 99.8917 51.4858 99.7957 50.6241C99.7132 49.754 99.6179 48.854 99.792 48.0067C100.021 47.1262 100.82 46.7415 101.342 45.9355C102.803 43.8251 101.657 40.5983 100.36 38.6786C100.226 38.4851 100.089 38.2946 99.9448 38.1084C99.7942 38.3482 99.6132 38.5704 99.4028 38.7711L99.4027 38.768ZM99.7846 53.5276C99.7846 53.5276 99.7831 53.5292 99.7819 53.5299C99.7824 53.528 99.7839 53.5264 99.7846 53.5276ZM97.3804 56.4355C97.3804 56.4355 97.3778 56.4378 97.3754 56.4391C97.3778 56.4378 97.3792 56.4362 97.3804 56.4355ZM97.3543 56.4635C97.3457 56.4763 97.3494 56.4773 97.3543 56.4635V56.4635Z" fill="white"/>
<path d="M76.9424 48.0048C76.9568 48.0473 76.9803 48.0894 77.0093 48.1299C77.9812 47.55 80.0871 47.1896 80.0871 47.1896L80.3359 47.0999C78.7338 47.3028 77.3381 47.5882 76.9424 48.0048Z" fill="white"/>
<path d="M74.9599 51.0862C74.9433 51.1018 74.9347 51.1145 74.929 51.124C76.2021 50.5521 80.2324 50.3134 80.2324 50.3134C80.2324 50.3134 80.1817 50.3031 80.0936 50.2853C78.844 50.3358 77.5996 50.422 76.3719 50.6172C75.8897 50.7129 75.3227 50.7969 74.9599 51.0862Z" fill="white"/>
<path d="M79.5925 44.8062C80.0935 44.5832 80.6652 44.4287 80.6652 44.4287L80.8788 44.2522C80.4297 44.4098 79.9899 44.5702 79.5925 44.8062Z" fill="white"/>
<path d="M68.8956 27.3592C68.9205 27.5726 68.9992 27.785 69.1291 27.9845C69.1467 28.0117 69.1641 28.0399 69.1838 28.0667C69.3501 28.2917 69.6145 28.5453 70.547 28.9447C70.5542 28.9478 70.5624 28.9511 70.5696 28.9542C71.2261 28.8256 71.8855 28.7079 72.5475 28.5991C71.3236 28.1853 70.2226 27.7485 70.0082 27.4573C69.7767 27.1442 69.9882 26.9792 70.2961 26.892C70.5413 26.8225 70.5387 26.5264 70.2915 26.4273C69.141 25.9614 67.2782 25.158 66.7125 24.6272C66.4332 24.3654 66.4148 24.2084 66.5144 24.1171C66.5552 24.08 66.5743 24.0338 66.5766 23.9859C66.4528 24.0593 66.3694 24.1541 66.3503 24.2793C66.3496 24.3246 66.3575 24.3794 66.3755 24.423C66.3769 24.4254 66.3828 24.4402 66.3765 24.4232C66.5755 24.9518 65.8164 25.2649 65.5856 24.7486C65.4505 24.3736 65.53 23.9195 65.8028 23.6302C65.8257 23.6063 65.8502 23.5839 65.8754 23.5626C61.8607 22.361 50.9936 19.0234 47.6689 17.1108C44.7663 15.4417 43.5377 13.0637 43.555 12.3564C43.5783 11.423 44.3894 11.0831 44.3729 11.1847C44.3564 11.2863 46.4085 13.7941 48.7931 15.384C50.3729 16.4374 54.1198 17.7102 57.4355 18.7107C57.0816 18.5806 56.7276 18.4474 56.3764 18.3079C56.3017 18.2787 56.2647 18.1945 56.2939 18.1197C56.3228 18.0459 56.4061 18.0087 56.4802 18.0367C56.8464 18.1733 57.2139 18.3052 57.5824 18.4334C55.4688 17.6514 53.2039 16.7134 51.5521 15.7682C49.2356 14.4424 48.7095 13.3157 48.7565 12.467C48.7813 12.0166 49.0539 11.8102 49.3044 11.7149C49.4846 11.6463 49.6997 11.7555 49.7371 11.9279C49.7693 12.0756 49.8472 12.2767 50.0235 12.5267C51.3617 14.4266 56.8356 16.4958 58.5775 17.0031C58.5897 17.0065 58.6028 17.0102 58.615 17.0136C58.6375 17.02 58.6586 17.0239 58.6801 17.0269C58.2796 16.8827 57.8801 16.7316 57.483 16.5752L57.6772 16.0694C57.8333 16.1296 57.9898 16.1879 58.1464 16.2462C57.6018 15.9854 57.1312 15.7344 56.8301 15.525C54.6189 13.9871 54.2968 12.5314 54.2939 11.8993C54.2898 11.2678 55.1189 10.7923 55.0686 11.0533C55.0183 11.3144 55.4004 12.4641 56.4703 13.4204C58.7191 15.4313 61.7909 16.0696 63.5628 16.6247C65.3346 17.1799 74.3034 18.3616 78.018 19.2176C79.9397 19.6612 82.8003 20.3381 86.0801 21.7635C90.141 22.9164 93.9349 24.7508 97.0596 27.8645L96.4619 28.4771C95.1617 27.1606 93.7361 26.0768 92.2172 25.1771C93.4488 26.0302 94.6923 27.006 95.9291 28.1276C98.1249 30.1185 99.0725 32.1441 99.3894 33.8876C99.5891 34.1695 99.7626 34.4764 99.902 34.8182C100.492 36.2847 100.185 37.7076 99.3576 38.8129C99.373 38.798 99.389 38.7843 99.4043 38.7694C99.6137 38.5684 99.7957 38.3465 99.9462 38.1067C100.171 37.7481 100.327 37.352 100.404 36.9267C100.762 34.9637 100.746 31.1125 96.6176 27.3687C89.3513 20.7795 81.8531 19.0502 78.2488 18.2193C76.3783 17.7881 73.299 17.2913 70.32 16.8117C67.5542 16.3659 64.6959 15.9071 63.8688 15.6467C63.5863 15.5579 63.2766 15.4686 62.9491 15.3742C61.2331 14.8794 58.8833 14.2028 57.1533 12.6558C56.4656 12.0411 56.152 11.3375 56.0936 11.0924C56.1128 10.7336 55.9593 10.3918 55.6725 10.1744C55.5057 10.0485 55.0508 9.7887 54.4204 10.1047C53.862 10.3844 53.264 11.0667 53.2695 11.9049C53.2718 12.3022 53.4121 13.1359 54.323 14.2365C52.7625 13.488 51.3644 12.6477 50.8627 11.9367C50.7986 11.8447 50.7669 11.7812 50.7519 11.7446C50.7788 11.5022 50.7176 11.2563 50.576 11.0515C50.3884 10.7801 50.082 10.6148 49.7506 10.6094C48.7991 10.5931 47.8007 11.206 47.7344 12.4105C47.7097 12.8568 47.7828 13.2902 47.9543 13.7119C47.3379 13.2963 46.7893 12.8381 46.3841 12.3911C45.7644 11.7075 45.4638 11.1695 45.3811 10.9893C45.3335 10.7381 45.1945 10.5098 44.9814 10.3505C44.8226 10.2319 44.3892 9.98933 43.7831 10.2839C43.2225 10.5568 42.559 11.2561 42.5321 12.3311C42.504 13.4644 43.889 16.3933 47.2177 18.0297C49.7403 19.27 61.1587 23.0494 65.4535 24.4564C65.5042 24.7287 65.6593 25.0436 66.0121 25.3747C66.1624 25.5163 66.373 25.6667 66.6191 25.82C67.2403 26.2076 68.1042 26.6171 68.9123 26.9663C68.886 27.0955 68.8821 27.2279 68.8972 27.3607L68.8956 27.3592ZM43.3629 11.0173C43.3392 11.1624 43.3551 11.3247 43.4008 11.4964C43.3505 11.3446 43.3369 11.181 43.3629 11.0173Z" fill="white"/>
<path d="M77.8133 20.9021C82.8532 21.561 87.9075 22.6246 92.2166 25.1759C93.7355 26.0756 95.1611 27.1594 96.4613 28.4759L97.0589 27.8633C93.9346 24.7486 90.1404 22.9152 86.0795 21.7623C83.4312 21.0107 80.6701 20.548 77.9084 20.2095C71.2221 19.3758 64.4885 18.6026 58.147 16.2443C57.9904 16.186 57.8339 16.1277 57.6778 16.0675L57.4836 16.5733C57.8807 16.7297 58.2802 16.8808 58.6806 17.025C64.8246 19.2407 71.3782 20.0532 77.8133 20.9021Z" fill="white"/>
<path d="M68.2118 23.763C69.1899 23.803 70.1724 23.9788 71.1347 24.1793C71.3029 24.2105 71.3612 23.9679 71.2018 23.9159C69.9492 23.5466 66.9829 22.5738 65.8769 23.5611C65.8524 23.5835 65.8272 23.6047 65.8043 23.6286C65.5312 23.9189 65.452 24.3721 65.5871 24.7471C65.8179 25.2634 66.5779 24.9505 66.378 24.4217C66.3843 24.4386 66.3772 24.4245 66.377 24.4214C66.3589 24.3779 66.3502 24.3228 66.3518 24.2777C66.3699 24.1523 66.4542 24.0577 66.5781 23.9844C66.9908 23.7405 67.8492 23.7498 68.213 23.7623L68.2118 23.763Z" fill="white"/>
<path d="M95.6616 30.6057C88.3089 22.4352 76.4633 22.7624 66.4809 20.7476C63.4662 20.176 60.4803 19.4374 57.5828 18.4324C57.2142 18.3042 56.8464 18.1732 56.4805 18.0357C56.4064 18.0077 56.3231 18.0449 56.2942 18.1187C56.265 18.1935 56.302 18.2777 56.3767 18.3069C56.728 18.4464 57.0819 18.5796 57.4358 18.7097C63.6163 20.975 70.197 21.8781 76.6542 22.9538C82.7939 23.9643 89.3081 25.5771 93.8745 29.9826C94.3942 30.2242 94.9065 30.4849 95.4084 30.7681C95.529 30.8355 95.6482 30.9045 95.7668 30.9753C95.79 30.8574 95.7631 30.7264 95.6607 30.6055L95.6616 30.6057Z" fill="white"/>
<path d="M96.0306 71.9332C95.8836 72.0526 95.7266 72.1753 95.5584 72.3019C95.1233 73.8527 94.1582 75.5676 92.2765 77.2397C91.0348 78.3425 89.7847 79.2993 88.5482 80.1325C90.073 79.2602 91.5063 78.2023 92.8122 76.9041L93.4039 77.5221C90.2555 80.6117 86.5162 82.3267 82.5181 83.3809C79.2038 84.7696 76.3106 85.3997 74.3717 85.8103C70.6576 86.5965 61.6889 87.6072 59.918 88.1288C58.1471 88.6504 55.0747 89.2311 52.8283 91.199C51.7591 92.1349 51.3784 93.2771 51.429 93.5393C51.4795 93.8014 50.6497 93.3105 50.6539 92.6783C50.6569 92.0468 50.9787 90.5966 53.1881 89.1009C53.4868 88.8988 53.9519 88.6596 54.4905 88.4108C54.337 88.4636 54.1841 88.5177 54.0313 88.5717L53.8452 88.062C54.2435 87.9122 54.6428 87.7698 55.0436 87.6329C55.0209 87.6346 54.9976 87.6381 54.9733 87.6455C54.9602 87.6488 54.9481 87.6525 54.9359 87.6562C53.1945 88.1305 47.7218 90.0944 46.3848 91.9696C46.209 92.2164 46.1305 92.4159 46.0992 92.5629C46.062 92.7345 45.8471 92.8398 45.6661 92.7676C45.4151 92.6675 45.1419 92.4559 45.1173 92.0048C45.0696 91.1547 45.5958 90.0383 47.9108 88.7565C49.5474 87.85 51.7875 86.9629 53.8858 86.2239C53.5348 86.3385 53.1846 86.4573 52.8353 86.5804C52.7598 86.6077 52.6759 86.5678 52.6486 86.4923C52.6223 86.4171 52.6616 86.3351 52.7349 86.3083C53.1167 86.167 53.5012 86.0305 53.8862 85.8993C50.5481 86.8411 46.7456 88.0557 45.1513 89.0884C42.7672 90.6331 40.7176 93.1016 40.7342 93.2044C40.7507 93.3072 39.9386 92.9508 39.9154 92.0175C39.8973 91.3103 41.1238 88.9547 44.026 87.3416C47.3471 85.4946 58.1988 82.3659 62.2197 81.2382C61.9146 80.9387 61.7788 80.4765 61.9385 80.0501C62.171 79.5339 62.9281 79.8485 62.7285 80.377C62.655 80.5768 62.7557 80.7185 62.9263 80.8203C62.9232 80.7739 62.9054 80.7294 62.8654 80.6918C62.7654 80.5979 62.784 80.4422 63.0629 80.185C63.57 79.7178 65.1183 79.0525 66.2626 78.6001C66.1748 78.5814 66.0866 78.5606 66.0001 78.5372C65.5727 78.3955 65.7796 77.7689 66.2091 77.9143C66.3766 77.9696 66.5681 78.0155 66.76 78.0524C66.7313 78.025 66.6932 78.0022 66.6457 77.9878C66.3371 77.8947 66.1257 77.7258 66.3574 77.4168C66.8813 76.7177 72.68 75.2484 72.68 75.2484L74.324 74.8539C73.6002 74.6832 72.8955 74.5017 72.2118 74.311C71.751 74.431 70.6252 74.7278 69.4415 75.0831C69.4348 75.0852 69.4281 75.0874 69.4215 75.0896C67.0519 75.8006 66.1992 76.2087 65.8039 76.5273C65.6821 76.6255 65.604 76.7158 65.5381 76.8024C65.4195 76.9612 65.336 77.1319 65.288 77.3056C65.2326 77.5024 65.2223 77.7039 65.2598 77.8975C65.2174 77.9149 65.1739 77.933 65.1313 77.9514C64.2824 78.3069 63.3924 78.7218 62.7982 79.1107C62.6295 79.221 62.4838 79.3287 62.3715 79.4326C62.019 79.7571 61.8613 80.0688 61.8084 80.3392C57.5023 81.6678 46.1093 85.2235 43.59 86.4154C40.2522 87.9947 38.8647 90.9069 38.8932 92.044C38.9204 93.1282 39.5905 93.8341 40.1558 94.1077C40.2394 94.1485 40.32 94.1783 40.3959 94.1997C40.8693 94.3332 41.2082 94.1393 41.344 94.038C41.5555 93.8801 41.6955 93.6525 41.7429 93.4018C41.8257 93.2228 42.1246 92.6939 42.7394 92.0275C43.1518 91.5802 43.7136 91.1235 44.3439 90.7143C44.1536 91.1524 44.0705 91.6014 44.0965 92.062C44.1631 93.2544 45.1512 93.88 46.0939 93.8807C46.4275 93.8816 46.7402 93.7199 46.9324 93.4473C47.0775 93.2413 47.141 92.9911 47.114 92.7457C47.1287 92.7115 47.1592 92.6502 47.221 92.5635C47.7246 91.8576 49.1417 91.0369 50.717 90.3155C49.7763 91.4202 49.634 92.2694 49.6317 92.6724C49.6267 93.5189 50.23 94.2069 50.7932 94.4881C51.4186 94.8 51.8707 94.542 52.0365 94.4167C52.3235 94.1991 52.4764 93.8578 52.457 93.4992C52.515 93.2576 52.8263 92.5663 53.5064 91.9699C55.2302 90.4597 57.5773 89.8283 59.2906 89.3674C59.6181 89.2786 59.9278 89.1959 60.2103 89.1127C61.0343 88.8705 63.8927 88.4642 66.6582 88.0712C69.6367 87.6482 72.7155 87.21 74.5866 86.8138C78.1912 86.0503 85.6925 84.463 92.9596 78.007C95.662 75.6061 96.6037 73.1267 96.8309 71.1471C96.596 71.4279 96.3313 71.6922 96.0334 71.934L96.0306 71.9332ZM39.7588 92.8961C39.7152 93.0649 39.6994 93.2253 39.7234 93.3697C39.697 93.2085 39.7104 93.0463 39.7588 92.8961Z" fill="white"/>
<path d="M74.1481 84.1233C67.7306 84.8485 61.194 85.5332 55.0424 87.6335C54.6416 87.7704 54.2411 87.9135 53.8439 88.0625L54.03 88.5723C54.1831 88.5173 54.3357 88.4642 54.4892 88.4114C57.5753 87.3408 60.762 86.588 63.9858 86.0663C70.0122 85.0597 76.5542 84.9554 82.5169 83.3815C86.5153 82.3264 90.2542 80.6123 93.4026 77.5227L92.811 76.9047C91.5051 78.2029 90.0714 79.2617 88.547 80.133C84.2249 82.6054 79.1655 83.5628 74.1469 84.124L74.1481 84.1233Z" fill="white"/>
<path d="M61.9535 84.3248C71.5396 82.8214 81.2239 84.4042 89.1226 77.4989C89.5606 77.0973 88.9856 76.4739 88.5527 76.8395C86.2331 78.895 83.4869 80.4286 80.5143 81.3156C74.4737 83.1012 68.0573 82.7888 61.8848 83.8937C59.1681 84.3359 56.4887 85.0081 53.8858 85.8971C53.5005 86.0293 53.1163 86.1648 52.7345 86.3061C52.6599 86.3336 52.6216 86.4159 52.6482 86.4902C52.6752 86.5666 52.7591 86.6064 52.8348 86.5782C53.1832 86.4549 53.5341 86.3372 53.8853 86.2218C56.5155 85.3617 59.2169 84.726 61.954 84.323L61.9535 84.3248Z" fill="white"/>
<path d="M62.5713 81.4728C63.8869 82.046 66.2053 81.355 67.5493 80.9802C67.7153 80.9298 67.6501 80.6838 67.4849 80.7171C66.2868 80.9369 65.0598 81.1474 63.8443 81.0557C63.6021 81.0319 63.1831 80.9715 62.9266 80.8192C62.7557 80.7184 62.6552 80.5758 62.7288 80.376C62.9283 79.8474 62.1712 79.5328 61.9387 80.049C61.78 80.4758 61.9151 80.9367 62.2199 81.2372C62.3204 81.3363 62.4392 81.4174 62.5723 81.4731L62.5713 81.4728Z" fill="white"/>
<path d="M67.0953 78.7184C68.8608 78.8762 70.6352 78.6722 72.3691 78.3608C72.9774 78.2489 73.8106 78.0569 74.4222 77.9076C74.4744 77.8949 74.5092 77.8431 74.499 77.7896C74.4886 77.733 74.4333 77.6962 74.3765 77.7075L73.3497 77.8936C71.3101 78.2129 69.2197 78.4108 67.1674 78.1216C67.0383 78.1024 66.8994 78.0784 66.7594 78.0511C66.5677 78.0132 66.376 77.9683 66.2085 77.913C65.779 77.7676 65.572 78.3942 65.9994 78.536C66.0866 78.5605 66.1739 78.5811 66.262 78.5988C66.5372 78.6562 66.8183 78.6889 67.0946 78.7172L67.0953 78.7184Z" fill="white"/>
<path d="M34.1861 47.3348C33.0652 46.8751 31.8317 46.5062 30.4789 46.3201C28.342 46.0262 26.445 46.6003 26.1165 46.872C25.788 47.1436 25.8383 45.8921 26.7269 45.3635C27.6161 44.8362 29.8979 43.9416 33.6996 44.9192C34.2628 45.0638 35.0406 45.3731 35.8884 45.7538C35.6568 45.6207 35.424 45.4883 35.1897 45.3575L35.5615 44.6812C36.0507 44.9486 36.5356 45.224 37.017 45.5044C37.0344 45.4931 37.0517 45.4818 37.0691 45.4705C35.06 44.1058 28.0924 40.2254 24.4335 40.4495C23.9518 40.4786 23.611 40.5677 23.3798 40.6593C23.1099 40.7664 22.7973 40.6368 22.7597 40.3935C22.7071 40.0559 22.7949 39.6011 23.4076 39.1971C24.5635 38.4343 26.5358 38.0272 30.1182 39.291C32.6517 40.1843 35.6216 41.7045 38.2731 43.2057C37.822 42.9359 37.3529 42.662 37.0115 42.4554C36.9135 42.3975 36.8816 42.2701 36.9396 42.1721C36.997 42.076 37.1195 42.0438 37.2169 42.0965C37.4825 42.2453 38.1873 42.6271 38.6683 42.8911C34.7894 40.3175 30.1918 37.519 27.5281 36.7792C23.5237 35.6665 18.4806 35.6683 18.3504 35.7713C18.2203 35.8742 18.093 34.7537 19.3855 33.9445C20.3647 33.3312 24.615 32.5919 29.1145 34.1699C32.1086 35.2204 37.6706 38.481 42.7219 41.6401C43.0762 41.399 43.4302 41.1589 43.7852 40.919C38.17 37.4917 31.9501 33.7977 29.6896 32.8296C25.0168 30.8294 20.0933 31.7816 18.6128 32.7088C17.1924 33.5984 16.7595 34.8938 16.8202 35.7335C16.8653 36.3633 17.2086 36.879 17.7368 37.1118C18.1319 37.2859 18.5763 37.2777 18.9592 37.1003C19.2451 37.0301 20.3018 36.8525 21.876 36.921C22.7054 36.9575 23.5134 37.0881 24.2367 37.2536C23.6412 37.4135 23.0965 37.6555 22.6043 37.9802C21.7034 38.574 21.4104 39.3049 21.3236 39.8136C21.1452 40.8519 21.691 41.6361 21.8015 41.7826C22.0611 42.1249 22.458 42.3359 22.8875 42.3589C23.2544 42.3783 23.6131 42.2579 23.8936 42.0274C23.9537 42.0008 24.1455 41.9304 24.5233 41.9074C25.8638 41.825 27.8982 42.4683 29.9351 43.3359C27.6269 43.2872 26.3987 43.8647 25.9821 44.1115C24.9192 44.7416 24.42 45.9526 24.4754 46.8221C24.5171 47.4743 24.872 48.0063 25.4267 48.2457C25.9261 48.4624 26.5 48.3935 26.9522 48.0707C27.28 47.9234 28.6851 47.5475 30.2803 47.7675C31.0458 47.873 31.7733 48.0448 32.4634 48.2636C32.6053 48.1943 32.7463 48.1248 32.888 48.0565C33.3582 47.8349 33.7572 47.6004 34.1863 47.3379L34.1861 47.3348ZM17.4485 34.6246C17.5784 34.5227 17.7225 34.4459 17.8733 34.3954C17.705 34.4612 17.5603 34.5368 17.4485 34.6246Z" fill="white"/>
<path d="M71.8706 74.2147C71.9259 74.2303 71.9788 74.2472 72.0341 74.2628C72.0922 74.2792 72.1513 74.2959 72.2103 74.3125C72.895 74.5035 73.5987 74.6847 74.3226 74.8553C76.1677 75.2905 78.1429 75.6592 80.2572 75.9365C87.8848 76.9374 92.9755 74.2507 95.5589 72.3039C95.7271 72.1773 95.8844 72.0537 96.0311 71.9352C96.3289 71.6934 96.5946 71.4294 96.8286 71.1483C97.6768 70.1349 98.1017 68.8969 98.0117 67.6261C97.8956 66.0029 96.9558 64.5492 95.4335 63.6364C95.134 63.4569 94.774 63.2806 94.3722 63.1086C94.1357 63.0075 93.8844 62.9084 93.6217 62.81C91.4134 61.9872 88.3974 61.2907 86.5717 60.8691L86.3988 60.8295C86.1719 60.7766 85.9421 60.723 85.7092 60.6665C87.279 61.113 88.8619 61.5309 90.4436 61.9171C91.0724 62.0914 90.8441 63.0195 90.1963 62.8662C87.6221 62.1497 85.0726 61.3814 82.5565 60.4839C81.6924 60.1432 78.3005 59.0291 77.8898 57.9987C77.3784 57.7493 76.8691 57.4813 76.365 57.1915L69.0125 51.8125C69.0068 51.8078 69.0007 51.8041 68.995 51.7994C68.9385 51.7592 67.8151 50.964 66.397 50.033C66.3722 50.0169 66.3483 50.0011 66.3235 49.985C65.8546 50.2595 65.3861 50.5362 64.9185 50.8131C66.6404 51.9187 68.1505 52.9899 68.1505 52.9899L72.3458 56.0595C76.2612 58.9237 80.9004 61.047 85.9544 62.2228C85.9924 62.2315 86.0314 62.2405 86.0694 62.2492C88.2529 62.7545 92.8752 63.8036 94.6833 64.8869C97.0152 66.2839 97.2038 69.1031 95.1115 70.8008C92.4993 72.9216 87.6315 75.4314 80.4478 74.4888C77.9092 74.1556 75.5745 73.6876 73.4299 73.1266C75.8227 73.9195 78.3853 74.4547 81.1862 74.701L81.0681 75.9132C74.1759 75.243 69.0055 72.9942 64.5024 69.8713C59.8995 67.6621 56.73 65.2207 54.6323 63.5821C52.3504 61.7997 48.6231 58.3187 45.4713 55.427C44.9899 55.6453 44.5082 55.8647 44.027 56.0821C44.6223 56.6263 45.2351 57.1906 45.8432 57.7505C48.736 60.4125 51.7271 63.1638 53.7334 64.732C53.7401 64.737 53.7468 64.7419 53.7533 64.7477C54.1322 65.0438 54.5501 65.37 55.0108 65.7204C58.2611 68.1948 63.6143 71.8589 71.8716 74.215L71.8706 74.2147Z" fill="white"/>
<path d="M35.1897 45.3574C35.423 45.4879 35.6558 45.6203 35.8884 45.7536C36.0215 45.8306 36.1543 45.9085 36.2871 45.9864C36.5315 45.8267 36.7742 45.6654 37.0179 45.5045C36.5367 45.2231 36.0515 44.9487 35.5624 44.6813L35.1906 45.3576L35.1897 45.3574Z" fill="white"/>
<path d="M57.2005 62.3819C54.6867 59.9655 52.2345 57.4702 49.6751 55.0895C49.2791 55.163 48.8614 55.2162 48.452 55.2111C54.1535 60.5467 58.7894 65.9116 64.5002 69.8718C69.0026 72.9936 74.1737 75.2435 81.0659 75.9137L81.1841 74.7015C78.3841 74.4555 75.8215 73.9203 73.4278 73.1271C67.2718 71.0871 62.2416 67.336 57.1984 62.3824L57.2005 62.3819Z" fill="white"/>
<path d="M68.1032 68.36C68.8231 68.7815 69.6026 69.2319 70.3581 69.6027C70.5759 69.7127 70.9103 69.8869 71.1284 69.9818C71.58 70.1779 72.256 70.4929 72.7043 70.6648L73.5089 70.9655C75.9142 71.854 78.461 72.3807 81.0132 72.5903C81.1315 72.6014 81.2441 72.5249 81.2739 72.4048C81.306 72.2732 81.2261 72.1404 81.0945 72.1083C80.2786 71.9016 79.4426 71.7448 78.6364 71.5145C72.8811 70.0772 67.762 67.3846 63.2546 63.527C59.7669 60.5597 56.5416 57.2719 53.2189 54.0962C52.9036 54.2026 52.586 54.3063 52.2676 54.4058C52.4483 54.5832 52.6289 54.7606 52.8093 54.9389C57.6321 59.6949 62.2467 64.8161 68.1015 68.3586L68.1032 68.36Z" fill="white"/>
<path d="M38.668 42.892C38.187 42.6279 37.4822 42.2461 37.2166 42.0974C37.1191 42.0446 36.9967 42.0769 36.9393 42.173C36.8813 42.271 36.9132 42.3983 37.0112 42.4563C37.3523 42.6638 37.8217 42.9367 38.2728 43.2065C38.6033 43.4049 38.9254 43.601 39.178 43.7673C39.2492 43.8126 39.3232 43.8588 39.3979 43.9061C39.5541 43.8005 39.7095 43.6945 39.8657 43.5888C39.5834 43.4202 39.2948 43.2488 39.0757 43.1182C38.992 43.0704 38.8452 42.9885 38.6689 42.8923L38.668 42.892Z" fill="white"/>
<path d="M63.129 54.907C63.8594 55.557 64.9994 56.4227 65.7953 56.9982C65.9559 57.1102 66.1149 56.8799 65.9712 56.7655C64.5398 55.5981 63.0578 54.2515 61.8649 52.8448C61.817 52.7888 61.7686 52.7307 61.7212 52.6728C61.5278 52.7812 61.3343 52.8895 61.1402 52.9967C61.767 53.6732 62.4399 54.3151 63.13 54.9072L63.129 54.907Z" fill="white"/>
<path d="M78.0227 63.449C78.0701 63.4532 78.1169 63.427 78.1379 63.3813C78.1647 63.3221 78.1361 63.2513 78.0761 63.2273C77.6154 63.0205 77.1483 62.8504 76.6853 62.6733C73.4901 61.4357 70.2757 60.1188 67.5002 58.0707C67.393 57.9807 67.2563 58.1213 67.334 58.2261C67.8044 58.8363 68.3751 59.3493 68.9697 59.8275C71.3623 61.6837 74.2733 62.9282 77.2704 63.3614C77.521 63.3946 77.771 63.4266 78.023 63.4481L78.0227 63.449Z" fill="white"/>
<path d="M82.1151 68.3875C80.52 67.862 78.8694 67.3218 77.3033 66.7113C73.1017 65.11 69.0274 63.0681 65.3426 60.4844C63.0481 58.8653 60.8263 57.0603 58.9337 54.9808C58.884 54.9203 58.7949 54.9063 58.7286 54.9513C58.6586 54.9984 58.6406 55.0945 58.688 55.1635C59.3461 56.1199 60.1063 56.9797 60.9052 57.814C61.7026 58.6458 62.5522 59.4256 63.4307 60.171C68.0678 64.0461 73.6033 66.8803 79.4695 68.3368C80.2744 68.5394 81.1874 68.728 81.9975 68.8693C82.3142 68.9192 82.3986 68.4765 82.1141 68.3872L82.1151 68.3875Z" fill="white"/>
<path d="M46.922 54.7666C46.9345 54.7762 46.9461 54.7855 46.9597 54.7945C47.395 55.0952 47.9168 55.2039 48.4532 55.2104C48.8625 55.2155 49.2802 55.1623 49.6762 55.0888C49.9794 55.0326 50.2697 54.9647 50.5341 54.9026C51.1198 54.7521 51.6973 54.5841 52.2697 54.4055C52.5881 54.3061 52.9057 54.2023 53.221 54.096C53.5933 53.9703 53.9634 53.8419 54.332 53.708C54.6372 54.1542 55.1331 54.5055 55.7862 54.6795C57.1846 55.009 58.6362 54.2668 59.8209 53.7034C60.2642 53.4732 60.7032 53.2368 61.1392 52.9965C61.3333 52.8893 61.5274 52.7822 61.7202 52.6726C62.7975 52.0668 63.858 51.438 64.918 50.8111C65.3856 50.5341 65.8541 50.2575 66.323 49.9829C66.5255 49.864 66.7287 49.7462 66.9319 49.6285C67.8796 49.0802 68.8341 48.5439 69.8057 48.0368C72.945 46.3074 76.25 45.0022 79.6718 44.0617C80.0646 43.8669 80.4785 43.7195 80.7252 43.616C82.4454 42.987 84.2061 42.5445 85.9776 42.1141C87.7443 41.6935 89.5135 41.3141 91.2985 40.9684C91.9218 40.8679 92.1068 41.7406 91.5358 41.9176C92.4232 41.763 93.3067 41.5932 94.1792 41.3981C95.1819 41.1647 96.1375 40.9333 97.1161 40.5161C98.0206 40.1428 98.8036 39.5471 99.3556 38.8094C100.183 37.7041 100.49 36.2812 99.9 34.8147C99.7603 34.4738 99.5871 34.166 99.3873 33.8841C99.0492 33.4073 98.6361 33.0066 98.1789 32.6439C97.4189 32.027 96.6097 31.4701 95.7676 30.9727C95.6487 30.9027 95.5295 30.8337 95.4092 30.7654C94.9072 30.4823 94.3949 30.2215 93.8752 29.9799C89.8228 28.1009 85.2564 27.4743 80.8224 27.7419L79.9056 27.7891L78.989 27.8534C76.8118 28.0005 74.664 28.2479 72.5464 28.5959C71.8844 28.7047 71.2247 28.8232 70.5686 28.9509C68.8833 29.2801 67.218 29.6747 65.5737 30.1349C64.8861 30.3275 64.2021 30.5323 63.521 30.7481C60.024 31.8586 56.6244 33.2768 53.3296 35.0088C52.8795 35.2451 52.4312 35.486 51.9848 35.7345C51.1232 36.214 50.2694 36.7159 49.4226 37.24C47.5133 38.4177 45.6421 39.6577 43.7831 40.9153C43.4281 41.1552 43.0739 41.3963 42.7198 41.6364C41.7669 42.2854 40.8154 42.9369 39.863 43.584C39.7068 43.6897 39.5514 43.7956 39.3952 43.9013C38.6208 44.4267 37.8454 44.9486 37.0672 45.4658C37.0499 45.4771 37.0325 45.4884 37.0152 45.4997C36.7715 45.6607 36.5288 45.8219 36.2844 45.9817C35.6379 46.4055 34.9898 46.8237 34.3374 47.2357C34.2859 47.2678 34.2346 47.2988 34.1834 47.3299C33.7543 47.5924 33.3544 47.8267 32.8851 48.0485C32.7434 48.1168 32.6015 48.1861 32.4605 48.2556C30.9942 48.9744 29.5505 49.7208 28.0535 50.2862C25.9478 51.0949 23.741 51.6089 21.4916 51.6314C20.4583 51.6254 19.3412 51.4643 18.3773 51.1369C18.2341 51.0885 18.1143 51.0395 17.9998 50.983C17.8504 50.867 17.6046 50.741 17.3954 50.6972C16.6114 50.5066 15.8272 51.0382 15.6291 51.7624C15.4676 52.3209 15.5578 52.83 15.7426 53.3373C16.0088 54.0295 16.5404 54.6094 17.1958 54.951C18.3354 55.5454 19.8333 55.8129 21.378 55.8781C19.3889 56.4525 15.725 57.437 13.9639 56.6896C13.9611 56.6888 13.9683 56.6919 13.9763 56.6992L13.9872 56.7073L14.002 56.7196L14.0245 56.7401L14.0468 56.7616L14.0603 56.7745L14.0993 56.8158L11.9961 56.7541C11.4676 57.29 11.1716 58.0423 11.2601 58.8048C11.4082 60.006 12.3553 60.7232 13.3366 61.1971C13.6112 61.3251 13.891 61.4344 14.1734 61.5271C12.103 61.7903 10.0111 61.7388 7.98482 61.2536C7.97545 61.251 7.96701 61.2486 7.95764 61.2459C7.35903 60.9325 6.56088 61.0829 6.13441 61.6051C5.68784 62.1125 5.65639 62.8665 5.79902 63.448C6.04891 64.4422 6.71289 65.1625 7.5244 65.6898C8.2098 66.1116 9.0096 66.3503 9.7512 66.5512C12.7982 67.3171 16.0188 67.3377 19.0697 66.5821C19.6858 66.435 20.3859 66.1983 20.9812 65.9888C24.328 64.758 27.5581 63.3487 30.8195 61.9472C35.242 60.0262 39.6377 58.0642 44.0233 56.0771C44.5047 55.8587 44.9861 55.6404 45.4676 55.422C45.9514 55.2022 46.4355 54.9816 46.9193 54.7618L46.922 54.7666ZM18.0356 51.0173C18.0398 51.0205 18.0773 51.0524 18.0536 51.0325C18.0481 51.0269 18.0404 51.0217 18.0347 51.0171L18.0356 51.0173ZM16.2915 53.1703C16.2866 53.166 16.2815 53.1625 16.2758 53.1578C16.2716 53.1546 16.2799 53.161 16.2915 53.1703ZM8.15673 61.3759C8.13111 61.3555 8.1035 61.3387 8.07615 61.3208C8.11381 61.3416 8.2545 61.449 8.15673 61.3759ZM6.50899 63.7827C6.48164 63.7649 6.45549 63.7464 6.42867 63.7267C6.35612 63.6718 6.44853 63.7424 6.50899 63.7827ZM6.55028 63.8085C6.57348 63.8232 6.5984 63.8352 6.62185 63.8489C6.59813 63.8362 6.57348 63.8232 6.55028 63.8085ZM19.356 64.9995C14.0986 66.2177 9.3475 65.1444 8.29506 64.4562C6.90543 63.5464 7.15674 62.4396 7.29491 62.5524C7.43308 62.6652 13.156 63.0655 17.8057 62.2729C20.9081 61.7442 26.4191 59.3034 31.0766 57.0369C30.4585 57.2845 29.7864 57.5402 29.2887 57.7409C29.1828 57.7828 29.062 57.7306 29.0203 57.6237C28.9786 57.5168 29.0315 57.3972 29.1365 57.355C29.6388 57.1415 30.1554 56.9168 30.6752 56.688C27.5063 57.984 23.9627 59.2777 20.9833 59.9736C16.7975 60.9506 14.5986 60.3884 13.3594 59.5372C12.7025 59.086 12.647 58.6262 12.7389 58.2929C12.8063 58.0539 13.1719 57.9486 13.4686 58.0767C13.722 58.1866 14.1001 58.3023 14.6437 58.3695C18.7756 58.8828 27.0585 55.5601 29.4658 54.36C29.4833 54.3518 29.5001 54.3423 29.5176 54.3341C29.5929 54.2967 29.6454 54.2507 29.6782 54.2023C29.0038 54.4918 28.3235 54.7694 27.6381 55.0366L27.3549 54.3183C27.6548 54.1985 27.9531 54.0772 28.2512 53.9528C27.2117 54.281 26.2593 54.5406 25.5847 54.6439C21.1775 55.3187 18.6735 54.2455 17.7154 53.6497C16.7564 53.0535 16.8193 51.8005 17.1665 52.0977C17.5137 52.3949 19.6107 53.1176 22.0639 52.9927C27.2208 52.7305 31.0802 50.3705 33.5872 49.1863C36.0943 48.0021 46.3282 40.4612 51.1216 37.6876C53.867 36.0992 58.1289 33.6715 64.299 31.7495C69.7724 29.2414 75.565 27.8473 82.2502 27.7661L82.2663 28.7641C79.4235 28.7994 76.8213 29.0543 74.3891 29.5028C76.5873 29.1917 78.9415 28.9661 81.4594 28.8523C89.7016 28.4806 94.9855 31.3674 97.7468 33.6887C99.9585 35.5475 99.4758 38.3434 96.6959 39.5519C94.5407 40.4892 89.1948 41.1706 86.6683 41.5015C86.6242 41.5072 86.5794 41.5118 86.535 41.5185C68.0768 44.3826 59.4154 54.6827 56.0347 53.2522C55.5457 53.0455 55.3721 52.9005 55.3873 52.6741C55.3788 52.7364 55.3742 52.7958 55.3762 52.85C55.386 53.1381 55.16 53.3799 54.8719 53.3898C54.5838 53.3996 54.342 53.1736 54.3322 52.8855C54.3269 52.5957 54.3869 52.3324 54.4722 52.1015C52.6684 52.7686 49.923 53.7075 48.6522 53.7469C48.2256 53.7602 47.9695 53.7102 47.8292 53.6231C47.8802 53.7185 47.9627 53.7883 48.0738 53.8287C48.3961 53.9236 48.5806 54.2629 48.4857 54.5852C48.3908 54.9075 48.0515 55.0921 47.7292 54.9972C47.0626 54.7921 46.5603 54.1082 46.596 53.4111C46.5966 53.3981 46.5979 53.3863 46.5985 53.3733C41.3113 55.9642 25.5036 63.5739 19.3532 64.9987L19.356 64.9995Z" fill="white"/>
<path d="M55.4151 52.5474C55.4248 52.5127 55.438 52.4769 55.454 52.438C55.4639 52.4134 55.4696 52.3897 55.4722 52.3662C55.4717 52.3681 55.4709 52.3709 55.4694 52.3725C55.4464 52.4328 55.429 52.4906 55.4144 52.5462L55.4151 52.5474Z" fill="white"/>
<path d="M47.779 43.5299C56.9431 36.7224 64.1425 31.3935 74.392 29.5035C76.8242 29.055 79.4267 28.7992 82.2692 28.7648L82.2531 27.7667C75.5677 27.8489 69.775 29.243 64.302 31.7501C60.6167 33.4389 57.0756 35.6316 53.5049 38.2703C49.3263 41.2749 45.2747 44.4387 40.9549 47.2263C36.931 49.8435 32.687 52.1143 28.2532 53.9532C27.9553 54.0767 27.6559 54.1986 27.3569 54.3188L27.6401 55.037C28.3255 54.7699 29.0048 54.4919 29.6802 54.2027C36.1356 51.4374 42.1312 47.6834 47.7797 43.5311L47.779 43.5299Z" fill="white"/>
<path d="M35.3149 55.1418C42.3659 51.7603 48.6769 47.0167 54.9469 42.4325C59.8178 38.8998 64.9355 35.6075 70.6693 33.697C71.1668 33.5439 71.9314 33.29 72.4282 33.1427C72.7346 33.0642 73.4392 32.8652 73.7625 32.7772C74.4968 32.5735 75.2674 32.4204 76.0064 32.2392C76.3244 32.1771 77.0297 32.0441 77.3684 31.9767L77.8222 31.8851C77.9738 31.857 78.1273 31.8365 78.279 31.8115C78.8019 31.7333 79.3557 31.6385 79.8813 31.554C80.5726 31.4706 81.2647 31.3804 81.9558 31.2798C82.0797 31.2672 82.1771 31.1621 82.176 31.0333C82.1746 30.8983 82.0637 30.7892 81.9288 30.7906C81.2256 30.7978 80.515 30.817 79.8114 30.8402C72.8504 31.2109 66.4124 33.6847 60.5542 37.3712C56.3057 40.0242 52.3849 43.1298 48.3663 46.0904C43.8749 49.4115 39.219 52.5263 34.2155 55.0221C33.101 55.5912 31.8794 56.1563 30.6776 56.6866C30.1576 56.9164 29.6403 57.1399 29.1389 57.3536C29.033 57.3956 28.981 57.5155 29.0227 57.6224C29.0647 57.7283 29.1846 57.7803 29.2912 57.7395C29.7889 57.5389 30.4609 57.2832 31.0791 57.0356C31.3735 56.9172 31.6562 56.8006 31.9021 56.6929C32.9995 56.2313 34.2458 55.6539 35.3182 55.1407L35.3149 55.1418Z" fill="white"/>
<path d="M47.8147 53.1434C48.6443 50.6314 54.3941 46.97 56.7002 45.451C59.6265 43.5331 62.6648 41.7995 65.8811 40.4248C66.9532 39.9702 68.0419 39.5538 69.1423 39.1709C69.2419 39.1373 69.2973 39.0305 69.2651 38.9293C69.2332 38.8272 69.1245 38.7713 69.0224 38.8032C66.7769 39.5047 64.5821 40.3672 62.4589 41.3813C58.2211 43.4617 54.1942 45.8776 50.3877 48.6927C49.4342 49.4336 48.5162 50.2027 47.715 51.1282C47.1837 51.7676 46.6451 52.501 46.6002 53.3747C46.5995 53.3876 46.5982 53.3994 46.5976 53.4124C46.561 54.1093 47.0642 54.7934 47.7308 54.9985C48.0531 55.0934 48.3925 54.9089 48.4874 54.5866C48.5823 54.2643 48.3986 53.9252 48.0754 53.83C47.9641 53.7905 47.8819 53.7198 47.8308 53.6245C47.7675 53.5044 47.7551 53.3441 47.8147 53.1434Z" fill="white"/>
<path d="M55.47 52.3736C55.47 52.3736 55.4714 52.3689 55.4728 52.3673C55.7015 51.7964 56.1048 51.3061 56.5304 50.8373C57.1283 50.1914 57.8111 49.5997 58.5218 49.0454C62.8756 45.7391 67.9844 43.4652 73.203 41.8789C73.485 41.7793 73.342 41.4001 73.0863 41.4636C67.7355 42.9307 62.5179 45.0879 57.9844 48.3354C56.7064 49.3086 55.2 50.4855 54.5179 51.997C54.5032 52.0313 54.4901 52.067 54.4767 52.1037C54.3914 52.3346 54.3323 52.5982 54.3366 52.8878C54.3465 53.1759 54.5883 53.4019 54.8764 53.392C55.1645 53.3822 55.3905 53.1404 55.3806 52.8523C55.3778 52.7978 55.3824 52.7384 55.3918 52.6763C55.3973 52.6354 55.4063 52.5924 55.4169 52.5478C55.4306 52.492 55.4489 52.4344 55.4719 52.3742L55.47 52.3736Z" fill="white"/>
<path d="M96.9331 48.013C96.4047 47.3248 95.4666 47.469 94.8603 47.9294C94.5781 48.1231 94.303 48.3308 94.051 48.5643C93.7982 48.7794 93.6073 49.0615 93.3029 49.2012C93.2808 49.2112 93.2669 49.2356 93.272 49.2603C93.3143 49.4048 93.7373 49.1244 93.8127 49.0688C93.8243 49.0599 93.8371 49.0503 93.8499 49.0408C93.8338 49.0261 93.8177 49.0115 93.8016 48.9968C93.7561 48.9537 93.8118 48.8783 93.8663 48.9109C93.8975 48.9257 93.9285 48.9415 93.9592 48.9583C94.3062 48.7 94.6854 48.4386 95.052 48.2293C95.2066 48.1293 95.3764 48.0476 95.5497 47.9963C95.6687 47.7607 95.858 47.6239 96.0548 47.6581C96.2238 47.6865 96.346 47.8343 96.3975 48.0431C96.3993 48.0436 96.401 48.0451 96.4028 48.0456C96.4882 48.0909 96.5696 48.1503 96.6438 48.2279C96.7946 48.411 97.0699 48.2094 96.9343 48.0123L96.9331 48.013Z" fill="white"/>
<path d="M94.0553 47.6521C93.8025 47.8672 93.6119 48.1483 93.3074 48.2881C93.2845 48.2978 93.2714 48.3225 93.2754 48.3479C93.3176 48.4923 93.7395 48.2126 93.816 48.1563C94.2009 47.8642 94.6368 47.5561 95.0551 47.3178C95.5404 47.0065 96.2082 46.8558 96.6469 47.3164C96.7991 47.4979 97.0721 47.2976 96.9374 47.1008C96.8137 46.9364 96.6512 46.8168 96.4666 46.7323C95.542 46.3442 94.7041 47.0985 94.0553 47.6521Z" fill="white"/>
<path d="M96.0806 49.1669C96.009 49.2307 95.9284 49.3011 95.8425 49.3476C95.2036 49.7189 94.5441 49.2589 93.9593 48.9574C93.9284 48.9416 93.8965 48.9255 93.8665 48.91C93.8119 48.8774 93.7553 48.9525 93.8018 48.996C93.8179 49.0106 93.834 49.0253 93.8501 49.0399C94.1782 49.3368 94.4936 49.6463 94.9321 49.7921C95.4099 49.9704 96.03 49.8416 96.342 49.4096C96.4315 49.286 96.3365 49.1419 96.2165 49.1263C96.1718 49.1198 96.1242 49.1306 96.0813 49.1681L96.0806 49.1669Z" fill="white"/>
<path d="M96.4042 48.4821C96.4321 48.3221 96.4272 48.1709 96.3955 48.0426C96.3441 47.8339 96.2219 47.6861 96.0528 47.6577C95.857 47.6237 95.6668 47.7603 95.5477 47.9959C95.5012 48.089 95.465 48.1961 95.4444 48.3158C95.4131 48.4951 95.4226 48.6729 95.4701 48.8168C95.5247 48.9819 95.6293 49.0954 95.7605 49.1323C95.7718 49.1355 95.783 49.1387 95.7957 49.1402C96.0686 49.1878 96.3306 48.9045 96.4039 48.4831L96.4042 48.4821Z" fill="white"/>
<path d="M92.7471 47.8671C93.191 47.4266 93.6759 47.013 94.1848 46.6505C94.6949 46.2945 95.2318 45.9764 95.7987 45.7994C96.0602 45.7152 96.3433 45.6585 96.6149 45.6855C97.4731 45.7493 97.8102 46.5273 97.7133 47.3771C97.6937 47.5831 97.8429 47.7678 98.0493 47.7895C98.2565 47.8115 98.4427 47.6607 98.4647 47.4534C98.5022 47.1017 98.4903 46.7311 98.3867 46.363C98.1071 45.3483 97.1054 44.8282 96.0964 45.0698C94.6555 45.4508 93.4736 46.5856 92.5874 47.734C92.51 47.8397 92.6603 47.9599 92.7471 47.8671Z" fill="white"/>
<path d="M86.0754 46.5478C86.0729 46.5855 86.0425 46.6144 86.0065 46.6164C85.4758 46.6651 84.48 46.7233 83.3331 46.8118C84.8775 46.8819 86.3612 46.8226 86.981 46.8061C87.2326 46.7891 87.2129 46.4213 86.9659 46.4255C86.351 46.4353 85.7329 46.4351 85.1135 46.4213C85.4113 46.4345 85.7095 46.4497 86.0064 46.4697C86.0472 46.4721 86.0778 46.507 86.0745 46.5476L86.0754 46.5478Z" fill="white"/>
<path d="M78.661 45.1962C78.7049 45.7367 79.2502 46.1029 80.0474 46.3509C80.1803 46.3924 80.3205 46.4299 80.4674 46.4652C80.6736 46.4515 80.8795 46.4388 81.0861 46.4272C82.1055 46.3787 83.124 46.3653 84.1405 46.3878C83.2881 46.3468 82.4375 46.274 81.5984 46.1497C81.1605 46.0809 80.7243 45.9954 80.3114 45.8699C79.9587 45.7573 79.5126 45.5991 79.3008 45.3169C79.2505 45.244 79.2333 45.1795 79.2375 45.1037C79.2822 45.0202 79.3737 44.9469 79.4765 44.8767C79.5148 44.8521 79.5547 44.8289 79.5939 44.8046C79.9913 44.5686 80.432 44.4085 80.8802 44.2506C80.9027 44.2427 80.9239 44.2356 80.9454 44.2275C81.786 43.9444 82.6535 43.7134 83.5254 43.4989C86.1462 42.8658 88.8108 42.3715 91.4692 41.9352C91.4937 41.9309 91.5168 41.9243 91.539 41.9174C92.1099 41.7404 91.9249 40.8678 91.3017 40.9683C89.5157 41.3137 87.7465 41.6931 85.9807 42.114C84.2093 42.5444 82.4485 42.9869 80.7283 43.6159C80.4816 43.7193 80.0678 43.8667 79.6749 44.0615C79.1185 44.3377 78.6027 44.7103 78.6627 45.1936L78.661 45.1962Z" fill="white"/>
<path d="M81.085 46.4279C80.8793 46.4397 80.6724 46.4522 80.4662 46.4659C80.4106 46.4695 80.3537 46.4737 80.2981 46.4772C79.3133 46.5466 78.3271 46.6571 77.3674 46.939C76.6735 47.1359 75.8493 47.63 76.2958 48.4722C76.3558 48.5751 76.4368 48.6718 76.5336 48.7628C77.0292 49.2334 77.9715 49.5516 79.0221 49.7689C80.4238 49.7745 81.8256 49.8874 83.2135 50.046C83.2961 50.0581 83.3031 50.1876 83.2056 50.1925C83.0086 50.1986 82.8119 50.2039 82.6139 50.2098C82.8851 50.2276 83.1247 50.2425 83.3198 50.254C84.1412 50.2903 84.9607 50.3119 85.7847 50.2923C86.0251 50.2831 86.0297 49.9364 85.7977 49.9125C84.3749 49.7522 77.8409 49.2791 77.0097 48.1291C76.9797 48.0883 76.9571 48.0465 76.9427 48.004C77.3394 47.5877 78.7341 47.302 80.3363 47.0991C81.3182 46.9752 82.3774 46.8823 83.3329 46.8087C84.4796 46.7212 85.4757 46.662 86.0064 46.6133C86.0424 46.6113 86.0728 46.5825 86.0753 46.5447C86.0777 46.5039 86.0471 46.469 86.0072 46.4669C85.7091 46.4476 85.4119 46.4326 85.1143 46.4185C84.7896 46.4039 84.4651 46.3923 84.1404 46.3848C83.1239 46.3623 82.1054 46.3756 81.086 46.4242L81.085 46.4279Z" fill="white"/>
<path d="M83.213 50.0477C81.8253 49.8882 80.4232 49.7763 79.0215 49.7706C78.7385 49.7698 78.4553 49.7729 78.173 49.7803C77.5345 49.7986 76.8974 49.8406 76.2618 49.9133C75.6362 50.0223 74.9818 50.0897 74.4403 50.532C74.0466 50.8591 74.0893 51.461 74.4213 51.8267C74.6465 52.0936 74.9544 52.2755 75.2467 52.4196C75.9067 52.727 76.5994 52.9254 77.3014 53.0767C77.5742 53.1354 77.8491 53.1866 78.123 53.2344C79.2319 53.0978 80.3444 53.0958 81.4583 53.1316C81.6903 53.1414 81.923 53.1523 82.1539 53.1658C79.7976 52.8496 75.5229 52.2364 74.9342 51.2095C74.9232 51.1841 74.927 51.1599 74.9229 51.1385C74.9223 51.1403 74.923 51.1345 74.9287 51.1249C74.9342 51.1164 74.9428 51.1036 74.9596 51.0871C75.3224 50.7978 75.8887 50.7126 76.3717 50.6181C77.5993 50.4229 78.8447 50.3369 80.0933 50.2862C80.9324 50.2527 81.7741 50.235 82.6143 50.2118C82.811 50.2066 83.009 50.2007 83.206 50.1945C83.3035 50.1896 83.2965 50.0601 83.2139 50.048L83.213 50.0477Z" fill="white"/>
<path d="M85.3236 60.5557C83.6382 60.0633 81.9447 59.5495 80.3212 58.8915C79.9188 58.7255 79.5215 58.5487 79.1509 58.3451C78.887 58.1867 78.5796 58.0353 78.4308 57.7809C78.4365 57.4375 78.9172 57.2827 79.218 57.1884C80.4696 56.8724 81.8048 56.9342 83.0978 56.9881C83.9763 57.0374 84.858 57.1181 85.7289 57.23C85.977 57.2544 86.0243 56.8964 85.7815 56.8533C84.9527 56.732 84.1237 56.6257 83.292 56.5542C83.9625 56.6663 84.6338 56.7756 85.3066 56.8833C85.3464 56.8895 85.3741 56.9276 85.367 56.9671C85.3607 57.0038 85.3292 57.0293 85.2928 57.0292C84.0799 56.9928 81.7995 56.8669 79.7492 56.5388C79.6204 56.5541 79.4884 56.5736 79.3561 56.598C78.6238 56.7335 77.9017 57.0308 77.8477 57.7642C77.8423 57.8406 77.8568 57.9185 77.8875 57.996C78.2982 59.0264 81.6901 60.1404 82.5542 60.4812C85.0703 61.3786 87.6189 62.1467 90.194 62.8635C90.8412 63.0156 91.0701 62.0886 90.4414 61.9144C88.8596 61.5282 87.2767 61.1103 85.7069 60.6637C85.5785 60.6275 85.4501 60.5913 85.3227 60.5554L85.3236 60.5557Z" fill="white"/>
<path d="M78.1229 53.2344C78.0276 53.246 77.9323 53.2575 77.8371 53.2722C77.8224 53.2741 77.8067 53.2758 77.792 53.2777C77.1418 53.402 76.4342 53.5111 75.9093 54.0237C75.5212 54.4313 75.5543 55.0103 75.987 55.3559C76.3477 55.6376 76.9044 55.8735 77.5753 56.0707C78.2189 56.2602 78.9673 56.4156 79.7497 56.54C81.8001 56.8681 84.0805 56.994 85.2934 57.0304C85.3295 57.0315 85.3622 57.0053 85.3676 56.9683C85.3737 56.9286 85.347 56.8907 85.3072 56.8845C84.6344 56.7768 83.9631 56.6675 83.2926 56.5554C82.3824 56.403 81.4754 56.2434 80.5752 56.0665C79.7595 55.8953 76.7276 55.3056 76.4063 54.6687C76.9968 53.5108 83.5987 53.822 85.0401 53.8266C85.2811 53.8298 85.3062 53.4858 85.0741 53.4477C84.1029 53.3075 83.1302 53.2194 82.1522 53.1643C81.9201 53.1514 81.6886 53.1398 81.4567 53.1301C80.3427 53.0943 79.2302 53.0963 78.1213 53.2329L78.1229 53.2344Z" fill="white"/>
</svg>
