<svg width="13" height="13" viewBox="0 0 13 13" fill="none" xmlns="http://www.w3.org/2000/svg">
<g clip-path="url(#clip0_5067_3762)">
<path d="M6.5 2.62537C4.01621 2.62537 1.76378 3.98427 0.101718 6.19149C-0.0339061 6.37232 -0.0339061 6.62496 0.101718 6.80579C1.76378 9.01567 4.01621 10.3746 6.5 10.3746C8.98379 10.3746 11.2362 9.01567 12.8983 6.80845C13.0339 6.62762 13.0339 6.37498 12.8983 6.19415C11.2362 3.98427 8.98379 2.62537 6.5 2.62537ZM6.67817 9.22841C5.02941 9.33213 3.66784 7.97322 3.77156 6.3218C3.85665 4.96023 4.96026 3.85662 6.32183 3.77153C7.97059 3.66781 9.33216 5.02672 9.22844 6.67814C9.14069 8.03705 8.03708 9.14066 6.67817 9.22841ZM6.59573 7.9679C5.70753 8.02375 4.97356 7.29244 5.03207 6.40424C5.07727 5.67027 5.67296 5.07724 6.40692 5.02938C7.29513 4.97353 8.0291 5.70484 7.97059 6.59305C7.92273 7.32967 7.32704 7.9227 6.59573 7.9679Z" fill="#118595"/>
</g>
<defs>
<clipPath id="clip0_5067_3762">
<rect width="13" height="13" fill="white"/>
</clipPath>
</defs>
</svg>
