<?xml version="1.0" encoding="utf-8"?><svg viewBox="0 0 20 19" xmlns="http://www.w3.org/2000/svg" xmlns:xlink="http://www.w3.org/1999/xlink"><style>:root>svg{display:none}:root>svg:target{display:block}</style><svg viewBox="0 0 16 17" id="like" xmlns="http://www.w3.org/2000/svg"><path d="M3.38 8.066H.853A.858.858 0 000 8.93v7.097c0 .477.382.863.852.863h2.529c.47 0 .852-.386.852-.863V8.93a.858.858 0 00-.852-.863zM14.804 8.9h-.151A1.36 1.36 0 0016 7.536a1.36 1.36 0 00-1.347-1.363h-4.321c.533-.851 1.256-2.206 1.256-3.313 0-1.753-.948-2.728-1.567-2.838-.619-.112-1.072.222-1.251.75-.18.529.137 1.532.014 1.89-.189.55-1.142 1.289-2.434 2.967-1.154 1.5-.99 3.27-.99 3.27v5.97c0 .468.378.85.84.85h8.027a.986.986 0 00.976-.988.986.986 0 00-.976-.989h.137c.659 0 1.196-.544 1.196-1.21 0-.667-.537-1.212-1.196-1.212h.44c.658 0 1.196-.545 1.196-1.211s-.538-1.211-1.196-1.211V8.9z"/></svg><svg viewBox="0 0 20 19" id="logout" xmlns="http://www.w3.org/2000/svg"><path d="M12.238 15.176L18 9.44 12.247 3.71l-1.931 1.923 2.455 2.45H6v2.721h6.762l-2.455 2.445 1.931 1.927z"/><path d="M2.277 2.268H14V0H0v19h14v-2.268H2.277V2.268z"/></svg></svg>