<svg width="20" height="16" viewBox="0 0 20 16" fill="none" xmlns="http://www.w3.org/2000/svg">
<path d="M8.93746 4.875C8.96871 5.0625 8.99996 5.28125 8.99996 5.5C8.99996 5.75 8.96871 5.96875 8.93746 6.15625L9.62496 6.78125C9.84371 6.96875 9.93746 7.28125 9.81246 7.5625C9.74996 7.71875 9.65621 7.90625 9.59371 8.0625L9.49996 8.21875C9.37496 8.375 9.28121 8.53125 9.18746 8.6875C8.99996 8.90625 8.68746 9 8.40621 8.90625L7.53121 8.59375C7.18746 8.875 6.81246 9.09375 6.40621 9.25L6.18746 10.1562C6.15621 10.4688 5.90621 10.6875 5.62496 10.7188C5.40621 10.75 5.18746 10.75 4.99996 10.75C4.78121 10.75 4.56246 10.75 4.34371 10.7188C4.06246 10.6875 3.81246 10.4688 3.78121 10.1562L3.56246 9.25C3.15621 9.09375 2.78121 8.875 2.43746 8.59375L1.56246 8.90625C1.28121 9 0.968707 8.90625 0.781207 8.6875C0.687457 8.53125 0.562457 8.375 0.468707 8.21875L0.374957 8.0625C0.312457 7.90625 0.218707 7.71875 0.156207 7.5625C0.0312073 7.28125 0.124957 6.96875 0.343707 6.78125L1.03121 6.15625C0.999957 5.96875 0.968707 5.75 0.968707 5.5C0.968707 5.28125 0.999957 5.0625 1.03121 4.875L0.343707 4.25C0.124957 4.03125 0.0312073 3.71875 0.156207 3.46875C0.218707 3.28125 0.312457 3.125 0.374957 2.96875L0.468707 2.8125C0.562457 2.65625 0.687457 2.5 0.781207 2.34375C0.968707 2.125 1.28121 2.03125 1.56246 2.125L2.43746 2.4375C2.78121 2.15625 3.15621 1.9375 3.56246 1.78125L3.78121 0.875C3.81246 0.5625 4.06246 0.34375 4.34371 0.3125C4.56246 0.28125 4.78121 0.25 4.99996 0.25C5.18746 0.25 5.40621 0.28125 5.62496 0.3125C5.90621 0.34375 6.15621 0.5625 6.18746 0.875L6.40621 1.78125C6.81246 1.9375 7.18746 2.15625 7.53121 2.4375L8.40621 2.125C8.68746 2.03125 8.99996 2.125 9.18746 2.34375C9.28121 2.5 9.37496 2.65625 9.49996 2.8125L9.59371 2.96875C9.65621 3.125 9.74996 3.28125 9.81246 3.46875C9.93746 3.71875 9.84371 4.03125 9.62496 4.25L8.93746 4.875ZM4.99996 4C4.15621 4 3.49996 4.6875 3.49996 5.5C3.49996 6.34375 4.15621 7 4.99996 7C5.81246 7 6.49996 6.34375 6.49996 5.5C6.49996 4.6875 5.81246 4 4.99996 4ZM15.125 14.9688C14.9375 15 14.7188 15 14.5 15C14.25 15 14.0312 15 13.8438 14.9688L13.2188 15.6562C13 15.875 12.7188 15.9688 12.4375 15.8438C12.2812 15.7812 12.0938 15.6875 11.9375 15.625L11.7812 15.5C11.625 15.4062 11.4688 15.3125 11.3125 15.2188C11.0938 15.0312 11 14.7188 11.0938 14.4375L11.4062 13.5625C11.125 13.2188 10.9062 12.8438 10.75 12.4062L9.84371 12.2188C9.53121 12.1562 9.31246 11.9375 9.28121 11.6562C9.24996 11.4375 9.24996 11.2188 9.24996 11C9.24996 10.8125 9.24996 10.5938 9.28121 10.375C9.31246 10.0938 9.53121 9.84375 9.84371 9.78125L10.75 9.59375C10.9062 9.1875 11.125 8.8125 11.4062 8.46875L11.0938 7.59375C11 7.3125 11.0938 7 11.3125 6.8125C11.4688 6.71875 11.625 6.59375 11.7812 6.5L11.9375 6.40625C12.0938 6.34375 12.25 6.25 12.4375 6.1875C12.7188 6.0625 13 6.15625 13.2188 6.375L13.8438 7.0625C14.0312 7.03125 14.25 7 14.5 7C14.7188 7 14.9375 7.03125 15.125 7.0625L15.75 6.375C15.9688 6.15625 16.25 6.0625 16.5312 6.1875C16.7188 6.25 16.875 6.34375 17.0312 6.40625L17.1875 6.5C17.3438 6.59375 17.5 6.71875 17.6562 6.8125C17.875 7 17.9688 7.3125 17.875 7.59375L17.5625 8.46875C17.8438 8.8125 18.0625 9.1875 18.2188 9.59375L19.125 9.78125C19.4375 9.84375 19.6562 10.0938 19.6875 10.375C19.7188 10.5938 19.75 10.8125 19.75 11C19.75 11.2188 19.7188 11.4375 19.6875 11.6562C19.6562 11.9375 19.4375 12.1562 19.125 12.2188L18.2188 12.4062C18.0625 12.8438 17.8438 13.2188 17.5625 13.5625L17.875 14.4375C17.9688 14.7188 17.875 15.0312 17.6562 15.2188C17.5 15.3125 17.3438 15.4062 17.1875 15.5L17.0312 15.625C16.875 15.6875 16.6875 15.7812 16.5312 15.8438C16.25 15.9688 15.9688 15.875 15.75 15.6562L15.125 14.9688ZM16 11C16 10.1875 15.3125 9.5 14.5 9.5C13.6562 9.5 13 10.1875 13 11C13 11.8438 13.6562 12.5 14.5 12.5C15.3125 12.5 16 11.8438 16 11Z" fill="#118595"/>
</svg>
