<svg width="26" height="18" viewBox="0 0 26 18" fill="none" xmlns="http://www.w3.org/2000/svg">
<path d="M22.1071 5.6188L14.11 10.7924C13.8852 10.9377 13.6332 11.0106 13.3812 11.0106C13.1292 11.0106 12.8772 10.938 12.6525 10.7924L4.65475 5.6188L2.5022 4.22604C2.22143 4.04429 1.85919 4.25586 1.85919 4.60159V15.6123C1.85919 16.3228 2.40922 16.8985 3.08736 16.8985H23.6745C24.3529 16.8985 24.9027 16.3225 24.9027 15.6123V4.60159C24.9027 4.25586 24.5404 4.04461 24.2597 4.22604L22.1068 5.6188H22.1071Z" fill="white"/>
<path d="M23.6745 0.768066H3.08736C2.40922 0.768066 1.85919 1.34407 1.85919 2.05425C1.85919 2.15448 1.90886 2.24773 1.99034 2.3007L12.9172 9.36948C13.2034 9.55472 13.5587 9.55472 13.8446 9.36948L24.7715 2.3007C24.853 2.24805 24.9027 2.1548 24.9027 2.05425C24.9027 1.34376 24.3526 0.768066 23.6745 0.768066Z" fill="white"/>
</svg>
