<svg width="27" height="19" viewBox="0 0 27 19" fill="none" xmlns="http://www.w3.org/2000/svg">
<path d="M22.8783 5.44682L13.8422 11.2562C13.5883 11.4193 13.3036 11.5012 13.0188 11.5012C12.7341 11.5012 12.4494 11.4197 12.1954 11.2562L3.15871 5.44682L0.726538 3.88291C0.409298 3.67883 0 3.91639 0 4.30461V16.6685C0 17.4663 0.621476 18.1127 1.38771 18.1127H24.6493C25.4158 18.1127 26.037 17.4659 26.037 16.6685V4.30461C26.037 3.91639 25.6277 3.67918 25.3104 3.88291L22.8779 5.44682H22.8783Z" fill="#118595"/>
<path d="M24.6493 0H1.38771C0.621476 0 0 0.646792 0 1.44424C0 1.55679 0.0561245 1.6615 0.148182 1.72098L12.4945 9.65843C12.8179 9.86643 13.2194 9.86643 13.5424 9.65843L25.8888 1.72098C25.9809 1.66186 26.037 1.55715 26.037 1.44424C26.037 0.646436 25.4155 0 24.6493 0Z" fill="#118595"/>
</svg>
