<svg width="40" height="40" viewBox="0 0 40 40" fill="none" xmlns="http://www.w3.org/2000/svg">
<path d="M39.8885 34.0353C39.8885 37.2428 37.2884 39.8427 34.0812 39.8427H5.80733C2.6 39.8427 0 37.2428 0 34.0353V5.96505C0 2.75771 2.6 0.157715 5.80733 0.157715H34.0812C37.2885 0.157715 39.8885 2.75771 39.8885 5.96505V34.0353Z" fill="#FAAB62"/>
<path d="M39.6838 33.8912C39.6838 37.0656 37.1105 39.6388 33.9361 39.6388H5.95269C2.77834 39.6388 0.205078 37.0656 0.205078 33.8912V6.10918C0.205078 2.93483 2.77844 0.361572 5.95269 0.361572H33.9361C37.1105 0.361572 39.6838 2.93494 39.6838 6.10918V33.8912Z" fill="#F7931E"/>
<path d="M19.9226 6.08875C15.9693 6.08875 12.7646 9.29352 12.7646 13.2467C12.7646 17.1999 15.9693 20.4049 19.9226 20.4049C23.8758 20.4049 27.0805 17.1999 27.0805 13.2467C27.0805 9.29352 23.8758 6.08875 19.9226 6.08875ZM19.9226 16.2058C18.2884 16.2058 16.9637 14.8809 16.9637 13.2468C16.9637 11.6126 18.2884 10.2879 19.9226 10.2879C21.5567 10.2879 22.8815 11.6126 22.8815 13.2468C22.8815 14.8809 21.5567 16.2058 19.9226 16.2058Z" fill="white"/>
<path d="M22.4493 26.1006C25.315 25.5168 27.0322 24.1597 27.123 24.0869C27.9616 23.4144 28.0963 22.1895 27.4238 21.3509C26.7514 20.5124 25.5266 20.3776 24.6879 21.05C24.6701 21.0644 22.8386 22.4694 19.8251 22.4714C16.8117 22.4694 14.9414 21.0644 14.9237 21.05C14.0849 20.3776 12.8601 20.5124 12.1877 21.3509C11.5153 22.1895 11.65 23.4144 12.4885 24.0869C12.5806 24.1608 14.3687 25.5532 17.3146 26.1232L13.2089 30.414C12.4628 31.1878 12.4852 32.4199 13.259 33.166C13.6367 33.5302 14.1235 33.7112 14.6098 33.7112C15.1197 33.7112 15.6291 33.5119 16.011 33.1158L19.8252 29.0527L24.0246 33.1421C24.7855 33.9018 26.0176 33.9006 26.777 33.14C27.5365 32.3793 27.5355 31.147 26.7749 30.3876L22.4493 26.1006Z" fill="white"/>
<path d="M19.8253 22.4713C19.82 22.4713 19.8305 22.4714 19.8253 22.4715C19.8201 22.4714 19.8306 22.4713 19.8253 22.4713Z" fill="white"/>
</svg>
