<svg width="42" height="42" viewBox="0 0 42 42" fill="none" xmlns="http://www.w3.org/2000/svg">
<path d="M40.5821 21.4707C40.5821 20.0025 40.4503 18.5908 40.2056 17.2355H20.7051V25.2541H31.8482C31.3588 27.8328 29.8907 30.0163 27.6884 31.4845V36.6984H34.4081C38.3233 33.0844 40.5821 27.7764 40.5821 21.4707Z" fill="#4285F4"/>
<path d="M20.7053 41.7053C26.2957 41.7053 30.9826 39.8606 34.4084 36.6984L27.6886 31.4844C25.8439 32.7267 23.4911 33.4797 20.7053 33.4797C15.3219 33.4797 10.748 29.8468 9.11037 24.9529H2.22119V30.2986C5.62814 37.056 12.6114 41.7053 20.7053 41.7053Z" fill="#34A853"/>
<path d="M9.11028 24.9341C8.69618 23.6918 8.45148 22.3742 8.45148 21.0001C8.45148 19.6261 8.69618 18.3085 9.11028 17.0662V11.7205H2.2211C0.809385 14.5062 0 17.6497 0 21.0001C0 24.3506 0.809385 27.494 2.2211 30.2798L7.58563 26.1012L9.11028 24.9341Z" fill="#FBBC05"/>
<path d="M20.7053 8.53935C23.7546 8.53935 26.4651 9.59343 28.6297 11.6263L34.5589 5.69709C30.9638 2.34662 26.2957 0.294922 20.7053 0.294922C12.6114 0.294922 5.62814 4.94418 2.22119 11.7204L9.11037 17.0661C10.748 12.1722 15.3219 8.53935 20.7053 8.53935Z" fill="#EA4335"/>
</svg>
