<svg width="223" height="188" viewBox="0 0 223 188" fill="none" xmlns="http://www.w3.org/2000/svg">
<path d="M216.48 48.7258C212.627 36.3383 204.18 26.1952 192.696 20.1612C184.448 15.8266 175.233 13.9557 166.043 14.7445L165.452 14.7943L165.83 15.2494C166.288 15.8013 168.14 16.7717 168.702 16.7538C176.629 16.5014 184.578 18.3422 191.688 22.0785C202.66 27.8436 210.728 37.5357 214.41 49.3684C218.093 61.2031 216.944 73.7623 211.181 84.734C206.958 92.7711 200.57 99.3247 192.711 103.686L192.61 103.743L192.57 103.852C192.351 104.454 192.603 105.079 192.964 105.386C193.143 105.539 193.347 105.613 193.55 105.607C193.672 105.603 193.791 105.57 193.904 105.507C202.067 100.943 208.704 94.1087 213.098 85.7417C219.133 74.259 220.332 61.1112 216.48 48.7258Z" fill="white"/>
<path d="M8.31775 138.704C8.38445 138.723 8.45115 138.741 8.51591 138.764C8.75827 138.849 8.40708 138.72 8.31775 138.704Z" fill="white"/>
<path d="M19.6801 116.946C19.6924 116.951 19.7047 116.955 19.7191 116.961C19.6903 116.949 19.6718 116.942 19.6801 116.946Z" fill="white"/>
<path d="M6.52806 144.628C6.59489 144.65 6.65959 144.671 6.72628 144.69C6.57824 144.647 6.34627 144.563 6.52806 144.628Z" fill="white"/>
<path d="M47.8655 15.3054C47.6653 14.9874 47.5271 14.6695 47.4822 14.3611C47.5325 14.7086 47.6668 15.0328 47.8655 15.3054Z" fill="white"/>
<path d="M21.8669 111.487C21.8837 111.493 21.9004 111.498 21.9151 111.506C21.9758 111.529 21.8795 111.491 21.869 111.487L21.8669 111.487Z" fill="white"/>
<path d="M6.99696 144.749C6.94084 144.739 6.88266 144.728 6.82642 144.713C6.8826 144.726 6.94084 144.739 6.99696 144.749Z" fill="white"/>
<path d="M10.1816 78.7047C10.3513 78.4555 10.5955 78.2081 10.8936 77.9693C10.6211 78.168 10.379 78.4154 10.1816 78.7047Z" fill="white"/>
<path d="M92.8571 183.266C92.7161 182.989 92.6455 182.655 92.6255 182.286C92.6238 182.62 92.7005 182.955 92.8571 183.266Z" fill="white"/>
<path d="M83.0123 56.5105C81.2312 56.468 79.6105 56.3356 78.7514 56.0364C77.886 55.7353 77.702 55.4083 77.8433 55.1062C78.0426 54.6802 77.5878 54.2895 77.065 54.3599C68.0808 55.5762 38.7164 59.3721 29.1301 58.4268C21.0927 57.6347 16.1748 53.6013 15.5746 52.0205C14.7805 49.9332 16.2976 48.3717 16.3529 48.6139C16.4082 48.8561 23.2934 52.3514 30.0952 53.4867C34.6442 54.2452 44.3604 53.295 52.7774 52.1835C51.7877 52.2605 50.7975 52.3251 49.807 52.3774C49.615 52.3876 49.4532 52.2398 49.4431 52.0499C49.4329 51.8601 49.5766 51.6984 49.7663 51.6862C50.7977 51.6182 51.8307 51.5357 52.8591 51.4389C47.3318 51.8319 41.2836 52.0307 36.6451 51.581C30.238 50.9603 28.0338 48.9944 27.369 47.0704C27.0161 46.0501 27.4415 45.3214 27.9208 44.8596C28.2637 44.5283 28.8454 44.5532 29.0858 44.8969C29.2915 45.1922 29.6505 45.559 30.2723 45.9361C35.0021 48.8014 49.1811 47.9117 53.5561 47.2948C53.5869 47.2897 53.6199 47.2866 53.6508 47.2815C53.7186 47.2711 53.7801 47.2546 53.8394 47.2341C52.8064 47.3146 51.7708 47.3827 50.7347 47.4322L50.6605 46.1406C51.1062 46.1161 51.5538 46.0853 51.9993 46.0545C50.4996 46.0217 49.1761 45.9377 48.2881 45.7717C41.9247 44.577 39.8811 41.6799 39.2993 40.2866C38.7175 38.8933 40.1501 37.0141 40.2735 37.6427C40.3968 38.2713 42.2971 40.4309 45.5696 41.4781C52.4467 43.6797 59.9307 42.0254 64.4156 41.4836C68.9005 40.9418 90.1324 34.5998 99.2609 32.7856C101.981 32.2443 105.471 31.5647 109.595 31.0633C109.48 30.8045 109.403 30.5341 109.373 30.2559C107.517 30.067 105.507 29.792 104.001 29.4059C102.013 29.7462 100.262 30.0934 98.7815 30.3886C94.1885 31.3017 86.8161 33.2791 79.6875 35.1908C73.0632 36.9665 66.2135 38.8052 64.1193 39.058C63.4047 39.1448 62.629 39.2563 61.8059 39.3735C57.4971 39.9944 51.5977 40.8417 46.3099 39.1497C44.2486 38.4897 42.9221 37.2731 42.5658 36.7966C42.2839 35.9932 41.6402 35.3832 40.8167 35.1614C40.335 35.0321 39.0978 34.8689 37.9888 36.1341C36.9856 37.2802 36.2602 39.3643 37.039 41.2288C37.4171 42.1346 38.5364 43.9159 41.7612 45.4793C37.4385 45.402 33.3539 44.9491 31.5349 43.8474C31.3326 43.7257 31.2137 43.6261 31.1498 43.5661C30.9851 43.0029 30.6201 42.5122 30.1138 42.1914C29.4344 41.7603 28.5888 41.6901 27.8485 42.0052C25.76 42.8923 24.1279 45.1912 25.0524 47.8697C25.4303 48.9615 26.0643 49.9149 26.9501 50.728C25.0553 50.4287 23.2724 49.9397 21.8677 49.3189C19.8842 48.4394 18.7297 47.5625 18.3785 47.245C18.0484 46.747 17.5427 46.3787 16.9403 46.2242C16.486 46.1064 15.3092 45.9599 14.2393 47.1536C13.2232 48.2877 12.3626 50.4711 13.2851 52.8913C13.8784 54.4496 15.7864 56.3361 18.2645 57.8157C20.4475 59.1188 24.0907 60.7081 29.0446 60.8708C35.8339 61.0949 64.8896 58.0571 75.8346 56.8776C76.2076 57.4259 76.8491 57.9656 77.9423 58.3463C78.6321 58.5869 79.6189 58.7415 80.7507 58.8398C81.4945 58.0513 82.2471 57.2769 83.0061 56.5107L83.0123 56.5105Z" fill="white"/>
<path d="M100.187 36.7559C104.7 35.4029 109.303 34.1587 113.947 33.213C111.807 33 111.107 32.6584 110.627 32.3099C110.57 32.2683 110.517 32.2225 110.464 32.1787C106.843 33.0423 103.252 34.0641 99.7166 35.1544C84.068 39.942 68.3778 44.9148 51.993 46.0547C51.5475 46.0854 51.102 46.1161 50.6542 46.1407L50.7284 47.4323C51.7666 47.3828 52.8 47.3147 53.8331 47.2343C69.6813 45.9916 85.0406 41.2732 100.183 36.756L100.187 36.7559Z" fill="white"/>
<path d="M52.8549 51.437C51.8244 51.5318 50.7935 51.6143 49.7621 51.6843C49.5724 51.6966 49.4287 51.8582 49.4388 52.0481C49.4491 52.24 49.6129 52.3857 49.8028 52.3755C50.7933 52.3233 51.7835 52.2587 52.7732 52.1817C59.9718 51.6259 67.1172 50.4371 74.145 48.8036C82.9822 46.8664 91.9083 43.8908 100.896 41.3659C102.134 40.4934 103.388 39.6411 104.656 38.8111C94.3014 41.6627 84.0432 45.3898 73.904 47.7921C66.9841 49.505 59.9531 50.7789 52.8549 51.437Z" fill="white"/>
<path d="M134.375 135.806C130.287 137.202 126.727 138.154 123.941 138.888C114.481 141.378 91.6076 145.191 87.1011 146.744C82.5946 148.295 74.7687 150.184 69.091 155.396C66.3897 157.876 65.4523 160.766 65.5907 161.411C65.729 162.054 63.5938 160.956 63.5831 159.387C63.5725 157.819 64.3452 154.172 69.9426 150.137C70.7347 149.566 71.9879 148.869 73.4345 148.14C72.9833 148.318 72.5301 148.498 72.0812 148.682L71.5863 147.486C72.6183 147.048 73.655 146.627 74.6984 146.221C74.6221 146.228 74.5418 146.239 74.4559 146.266C74.4232 146.278 74.3904 146.287 74.3597 146.296C69.9278 147.725 56.0128 153.398 52.6573 158.247C52.2167 158.885 52.022 159.394 51.9469 159.762C51.8573 160.195 51.3105 160.485 50.8488 160.332C50.2054 160.121 49.5016 159.633 49.4227 158.519C49.2751 156.415 50.5817 153.567 56.4539 150.048C60.7663 147.463 66.7393 144.835 72.2487 142.647C71.1476 143.058 70.051 143.479 68.9612 143.919C68.7836 143.991 68.5824 143.904 68.5106 143.727C68.4389 143.551 68.5234 143.35 68.6989 143.279C69.7291 142.849 70.7659 142.429 71.8072 142.024C63.2692 144.855 53.4886 148.455 49.4213 151.272C43.3821 155.454 38.2247 161.881 38.2699 162.132C38.3151 162.383 36.2319 161.618 36.1417 159.304C36.0734 157.549 39.1331 151.525 46.4916 147.097C55.2678 141.815 84.8754 131.895 93.9582 128.908C94.4881 128.734 94.7612 128.159 94.4 127.852C94.143 127.635 94.1843 127.245 94.8882 126.565C96.3163 125.19 101.049 123.014 103.971 121.745C104.599 121.472 104.596 120.737 103.967 120.589C103.175 120.404 102.632 120.014 103.212 119.214C103.527 118.78 104.612 118.194 106.078 117.552C104.922 117.138 103.867 116.746 102.911 116.389C101.913 116.969 101.513 117.393 101.234 117.778C100.598 118.654 100.386 119.649 100.619 120.557C97.763 121.872 94.5207 123.528 93.193 124.804C92.3005 125.663 91.9333 126.467 91.8352 127.15C81.0235 131.023 51.7817 141.591 45.3661 144.925C40.7502 147.323 37.9493 150.44 36.4109 152.633C34.6729 155.113 33.6329 157.703 33.6993 159.398C33.8 161.977 35.4427 163.644 36.8192 164.287C38.2776 164.97 39.2847 164.463 39.7548 164.1C40.253 163.714 40.5767 163.167 40.6816 162.568C40.8841 162.111 41.64 160.725 43.2323 158.929C44.3459 157.676 45.8857 156.372 47.6138 155.203C47.1106 156.344 46.9036 157.504 46.9869 158.692C47.1917 161.619 49.7636 163.058 52.081 162.935C52.8631 162.891 53.5775 162.476 54.001 161.819C54.3181 161.328 54.4443 160.745 54.3704 160.179C54.4067 160.082 54.4898 159.902 54.6716 159.64C55.9917 157.731 59.7907 155.384 63.9598 153.298C61.4817 156.231 61.1331 158.398 61.1405 159.407C61.1551 161.424 62.5886 163.013 64.0014 163.694C64.5787 163.971 65.0901 164.06 65.5278 164.046C66.2836 164.022 66.8167 163.689 67.0688 163.491C67.7464 162.959 68.1004 162.133 68.038 161.277C68.1774 160.655 68.967 158.837 70.7484 157.201C75.1589 153.152 81.1749 151.228 85.5663 149.825C86.3991 149.559 87.1869 149.309 87.9025 149.061C90.0188 148.332 97.3198 146.904 104.379 145.526C111.967 144.044 119.813 142.511 124.569 141.258C126.215 140.825 128.18 140.305 130.402 139.65C131.355 138.484 132.892 137.073 134.379 135.81L134.375 135.806Z" fill="white"/>
<path d="M74.6961 146.217C73.6527 146.622 72.616 147.044 71.584 147.482L72.0789 148.677C72.5299 148.494 72.981 148.314 73.4322 148.136C81.2062 145.073 89.2563 142.76 97.4254 141.005C109.375 138.328 122.087 137.066 134.276 134.402C134.264 134.02 134.322 133.621 134.46 133.224C134.536 133.004 134.638 132.772 134.821 132.497C131.023 133.377 127.179 134.103 123.342 134.758C106.946 137.492 90.2707 140.146 74.6961 146.217Z" fill="white"/>
<path d="M146.104 124.078C141.525 125.876 136.765 127.259 131.979 128.323C115.166 132.057 97.8371 133.677 81.3658 138.983C78.3061 139.942 75.2785 141.004 72.2914 142.168C71.25 142.573 70.2153 142.991 69.1831 143.422C69.0077 143.496 68.9251 143.695 68.9948 143.871C69.0666 144.048 69.2678 144.135 69.4454 144.063C70.5353 143.625 71.6318 143.202 72.7329 142.791C75.6603 141.699 78.6239 140.705 81.6175 139.81C94 136.061 106.79 134.215 119.558 132.183C126.96 131.057 134.505 129.63 141.743 127.392C143.91 125.916 145.997 124.595 146.852 124.057C146.722 124.061 146.592 124.065 146.464 124.069C146.342 124.073 146.224 124.075 146.102 124.076L146.104 124.078Z" fill="white"/>
<path d="M185.796 71.7093C185.786 71.7402 185.794 71.7399 185.796 71.7093V71.7093Z" fill="white"/>
<path d="M185.823 71.6468C185.823 71.6468 185.827 71.6402 185.831 71.6357C185.831 71.6357 185.827 71.6402 185.823 71.6468Z" fill="white"/>
<path d="M118.88 78.4741C118.94 78.4907 119 78.5074 119.059 78.5241C119.312 78.1669 119.587 77.7781 119.883 77.3678C119.548 77.7359 119.213 78.104 118.88 78.4741Z" fill="white"/>
<path d="M145.538 83.5786C146.834 83.6407 148.261 83.5891 149.48 83.5069C149.732 83.3727 149.987 83.2489 150.237 83.1355C148.575 83.3827 146.962 83.5498 145.538 83.5786Z" fill="white"/>
<path d="M143.065 77.7003C143.479 77.7223 143.887 77.7382 144.274 77.7528C144.457 77.6643 144.642 77.5798 144.828 77.4933C144.243 77.5718 143.654 77.6443 143.065 77.7003Z" fill="white"/>
<path d="M138.751 69.468C139.141 70.2183 140.901 70.4496 142.717 70.4745C143.283 70.2766 143.854 70.0889 144.427 69.9115C142.165 70.1427 140.055 70.1024 138.749 69.4701L138.751 69.468Z" fill="white"/>
<path d="M188.829 64.2241L188.835 64.2159C188.835 64.2159 188.832 64.2187 188.829 64.2241Z" fill="white"/>
<path d="M144.312 62.3374C144.511 62.3723 144.711 62.4032 144.902 62.4301C145.012 62.3874 145.122 62.3426 145.234 62.2997C144.917 62.3222 144.609 62.3361 144.312 62.3374Z" fill="white"/>
<path d="M178.607 34.6043C180.881 36.2413 182.854 38.2787 184.258 40.6918C188.29 47.6619 183.654 48.8658 183.979 53.1571C184.244 55.1806 185.111 57.0114 185.943 58.8122C186.505 59.987 187.11 61.1336 187.73 62.2694C187.835 62.4768 188.729 64.0587 188.81 64.2504C188.804 64.2568 188.8 64.2631 188.792 64.2716C188.115 64.8244 187.207 65.0166 186.358 65.2959C186.117 65.3697 185.903 65.422 185.642 65.5151C184.974 65.7203 184.928 66.5403 185.156 67.087C185.175 67.1402 185.207 67.1888 185.254 67.2266C185.61 67.5832 186.058 68.0588 186.123 68.5425C186.112 68.6524 186.126 68.6334 185.959 68.7937C185.45 69.2337 184.767 69.5986 184.151 69.9138L184.01 69.9824L183.941 70.0156L183.907 70.0311C183.819 70.0732 183.73 70.1339 183.682 70.2636C183.642 70.3682 183.656 70.4649 183.672 70.5202C183.748 70.6233 183.919 70.7418 184.066 70.7558C184.182 70.7748 184.254 70.7498 184.333 70.7514C184.951 70.6842 185.69 71.0451 185.792 71.6723C185.792 71.6765 185.793 71.6785 185.793 71.6826C185.367 72.2647 184.961 72.8212 184.731 73.5396C184.678 73.6943 184.641 74.0882 184.74 74.2711C184.833 74.5162 184.982 74.7368 185.102 74.9211C185.519 75.5527 185.97 76.2122 186.255 76.906C186.319 77.0983 186.438 77.2867 186.418 77.4879C186.125 78.4274 184.18 79.188 183.274 78.9089C180.925 78.07 179.881 80.2696 180.217 82.2991C180.469 83.8559 181.335 85.1678 182.056 86.5029C182.137 86.645 182.222 86.7891 182.307 86.9331C182.902 86.9618 183.473 87.0035 184.017 87.0565C183.42 86.0977 182.849 85.1278 182.339 84.1519C181.926 83.3237 181.545 82.5917 181.516 81.6996C181.497 81.0987 181.544 80.2187 182.213 80.063C182.402 80.026 182.633 80.0765 182.819 80.1491C183.277 80.3082 183.686 80.3034 184.067 80.2665C185.467 80.0855 187.366 79.2312 187.679 77.6916C187.76 77.2529 187.593 76.8117 187.426 76.4181C187.056 75.5079 186.427 74.7094 185.929 73.8901C185.927 73.886 185.927 73.884 185.925 73.8799C186.052 73.4128 186.475 72.7834 186.774 72.317C186.954 72.0735 186.966 71.7156 186.904 71.4592C186.734 70.7411 186.204 70.2432 185.568 70.0175C185.935 69.795 186.287 69.546 186.61 69.236C187.044 68.8398 186.898 68.1561 186.651 67.7505C186.426 67.3588 186.162 67.0509 185.861 66.7504C185.827 66.6089 185.789 66.3765 185.864 66.3121C185.868 66.312 185.906 66.2983 185.915 66.296C186.779 66.0556 187.633 65.8713 188.49 65.5215C189.207 65.2444 190.153 64.6458 189.637 63.7424L189.526 63.5165C188.676 61.8651 187.74 60.0159 186.994 58.3343C186.27 56.6271 185.501 54.8677 185.311 53.0423C185.21 51.1148 186.581 49.8247 187.12 47.8603C188.724 42.656 184.339 36.863 180.486 33.8106C180.091 33.5048 179.691 33.2075 179.281 32.9229C179.13 33.5044 178.906 34.0697 178.609 34.6104L178.607 34.6043ZM188.831 64.2146C188.831 64.2146 188.829 64.2188 188.827 64.2209C188.827 64.2168 188.829 64.2126 188.831 64.2146ZM185.83 71.636C185.83 71.636 185.827 71.6423 185.823 71.6466C185.827 71.6423 185.828 71.6381 185.83 71.636ZM185.796 71.7094C185.786 71.7407 185.795 71.7405 185.796 71.7094V71.7094Z" fill="white"/>
<path d="M139.091 67.6715C139.147 67.7482 139.222 67.8182 139.306 67.8816C140.901 66.0862 144.93 64.0087 144.93 64.0087L145.376 63.6678C142.265 65.1043 139.625 66.5754 139.091 67.6715Z" fill="white"/>
<path d="M137.054 75.1733C137.03 75.2154 137.021 75.2467 137.016 75.2697C139.225 73.2976 147.224 70.2336 147.224 70.2336C147.224 70.2336 147.115 70.2454 146.925 70.2659C144.43 71.168 141.968 72.1394 139.61 73.3204C138.696 73.8229 137.602 74.3559 137.054 75.1733Z" fill="white"/>
<path d="M142.403 59.5037C143.273 58.7318 144.331 58.0532 144.331 58.0532L144.65 57.5594C143.842 58.1659 143.055 58.7718 142.403 59.5037Z" fill="white"/>
<path d="M109.593 31.0633C109.78 31.479 110.075 31.8582 110.466 32.1786C110.519 32.2224 110.572 32.2682 110.629 32.3098C111.11 32.6583 111.807 33.002 113.949 33.2129C113.966 33.2144 113.984 33.2159 114.001 33.2174C115.246 32.537 116.505 31.8767 117.774 31.2327C115.034 31.1794 112.527 31.0009 111.907 30.5493C111.238 30.0642 111.56 29.595 112.127 29.2214C112.578 28.9238 112.384 28.3265 111.82 28.2845C109.194 28.0787 104.912 27.6466 103.428 26.9352C102.695 26.5844 102.557 26.2787 102.7 26.0302C102.759 25.9291 102.768 25.8234 102.742 25.725C102.539 25.9527 102.431 26.198 102.472 26.4633C102.5 26.5555 102.551 26.6613 102.616 26.7378C102.62 26.7418 102.641 26.768 102.618 26.7378C103.359 27.6795 102.024 28.799 101.226 27.9024C100.713 27.2304 100.583 26.261 100.949 25.501C100.98 25.438 101.016 25.3769 101.053 25.3179C92.1627 25.4583 68.0441 25.6662 60.0944 23.9266C53.1544 22.4092 49.1463 18.3861 48.7283 16.9441C48.1778 15.0413 49.6008 13.8343 49.6325 14.0503C49.6642 14.2664 55.4209 18.025 61.2626 19.7139C65.1327 20.833 73.5266 21.008 80.8741 20.9084C80.075 20.8719 79.2737 20.8292 78.4739 20.7719C78.3041 20.7608 78.1754 20.614 78.1865 20.4442C78.1977 20.2764 78.3424 20.1477 78.5102 20.1569C79.3383 20.1987 80.1662 20.2302 80.9938 20.2535C76.2177 20.0252 71.0357 19.5784 67.0892 18.7242C61.5546 17.5258 59.7688 15.5838 59.3204 13.8369C59.0821 12.9102 59.5015 12.318 59.9471 11.9648C60.2677 11.7107 60.7726 11.7938 60.9587 12.1187C61.1184 12.3968 61.4047 12.7535 61.9216 13.1464C65.845 16.1324 78.2424 16.8125 82.0906 16.7231C82.1174 16.7222 82.1464 16.7213 82.1732 16.7204C82.2228 16.7189 82.2681 16.7133 82.3133 16.7056C81.4109 16.6703 80.506 16.6206 79.6028 16.5584L79.6716 15.411C80.0258 15.4328 80.3799 15.4505 80.7339 15.4681C79.4652 15.2894 78.3527 15.083 77.6095 14.8524C72.1521 13.1575 70.5683 10.4194 70.1576 9.14261C69.745 7.86794 71.1175 6.37519 71.1829 6.93536C71.2483 7.49554 72.7574 9.5766 75.534 10.8256C81.3705 13.4531 87.9926 12.7771 91.9322 12.7654C95.8717 12.7536 114.77 9.40048 122.832 8.75308C127.003 8.41974 133.223 7.9571 140.77 8.73999C149.722 8.47145 158.571 9.7524 166.885 14.0498L166.069 15.6716C162.595 13.8411 159.018 12.5618 155.369 11.7147C158.407 12.6516 161.547 13.8291 164.767 15.3058C170.483 17.9268 173.697 21.4171 175.455 24.7408C176.039 25.1832 176.587 25.6928 177.088 26.295C179.221 28.8833 179.511 31.9582 178.545 34.7237C178.566 34.6838 178.59 34.6458 178.611 34.6058C178.906 34.0652 179.132 33.4999 179.283 32.9184C179.508 32.0492 179.57 31.1481 179.454 30.2381C178.921 26.0381 176.422 18.2586 165.674 13.3297C146.756 4.65492 130.482 5.95865 122.659 6.58604C118.6 6.91169 112.053 7.87879 105.72 8.81634C99.84 9.68573 93.7646 10.5882 91.925 10.591C91.2966 10.5924 90.6129 10.61 89.8901 10.6289C86.1021 10.7268 80.9159 10.863 76.4259 8.84172C74.6412 8.03864 73.5563 6.81638 73.2813 6.35797C73.0903 5.61989 72.5609 5.02695 71.8416 4.7708C71.4235 4.62288 70.337 4.38875 69.2643 5.43166C68.3139 6.35491 67.5411 8.11796 68.089 9.81002C68.3482 10.6121 69.1659 12.2087 71.7132 13.8516C68.0773 13.3369 64.7113 12.5325 63.2411 11.4155C63.0525 11.2706 62.9478 11.1623 62.8941 11.0979C62.7932 10.5905 62.5119 10.1323 62.0944 9.80867C61.5412 9.37978 60.8154 9.24166 60.1417 9.44296C58.2067 10.0193 56.5797 11.8984 57.2168 14.3773C57.4527 15.2958 57.8781 16.1257 58.495 16.8688C56.9822 16.4229 55.5789 15.8475 54.4731 15.2026C52.7819 14.2167 51.8293 13.321 51.5466 13.0096C51.2895 12.532 50.8621 12.159 50.3291 11.9734C49.932 11.8352 48.8999 11.6221 47.8625 12.606C46.9035 13.5171 46.0091 15.3564 46.6432 17.548C47.3121 19.8584 51.9891 24.8958 59.7701 26.0744C65.667 26.9677 91.1837 27.3003 100.772 27.396C101.049 27.9143 101.564 28.4519 102.49 28.8958C102.885 29.0858 103.407 29.2552 104.003 29.4078C105.508 29.7939 107.517 30.069 109.375 30.2578C109.405 30.536 109.482 30.8064 109.598 31.0652L109.593 31.0633ZM47.4822 14.3586C47.5271 14.6672 47.6634 14.9854 47.8657 15.3034C47.6668 15.0287 47.5346 14.7063 47.4822 14.3586Z" fill="white"/>
<path d="M123.496 12.2916C134.113 10.397 145.017 9.3118 155.367 11.7129C159.016 12.56 162.593 13.8393 166.066 15.6697L166.883 14.0479C158.569 9.74845 149.72 8.46956 140.768 8.7381C134.929 8.91368 129.048 9.7459 123.245 10.8299C109.187 13.4253 95.071 16.1734 80.7337 15.4641C80.3797 15.4464 80.0256 15.4288 79.6715 15.407L79.6026 16.5544C80.5058 16.6165 81.4107 16.6663 82.3131 16.7016C96.1595 17.2488 109.936 14.6954 123.496 12.2916Z" fill="white"/>
<path d="M105.907 24.2271C107.911 23.6817 110.011 23.4081 112.086 23.1973C112.446 23.1528 112.409 22.6248 112.053 22.6216C109.283 22.6768 102.66 22.6086 101.055 25.3139C101.02 25.375 100.982 25.434 100.951 25.497C100.585 26.2591 100.715 27.2265 101.228 27.8985C102.026 28.795 103.363 27.6755 102.619 26.7338C102.643 26.764 102.62 26.74 102.617 26.7339C102.553 26.6574 102.5 26.5516 102.474 26.4594C102.431 26.1941 102.541 25.9487 102.744 25.7211C103.423 24.9636 105.165 24.4327 105.909 24.225L105.907 24.2271Z" fill="white"/>
<path d="M165.813 20.4901C145.708 8.67182 121.957 16.9194 100.475 19.2364C94.0108 20.0107 87.4983 20.429 80.9936 20.2516C80.1661 20.2284 79.3383 20.1989 78.51 20.155C78.3423 20.1459 78.1976 20.2745 78.1864 20.4423C78.1752 20.6122 78.3039 20.759 78.4738 20.7701C79.2735 20.8273 80.0749 20.87 80.8739 20.9066C94.8261 21.531 108.716 19.1435 122.466 17.1843C135.532 15.2964 149.741 14.3871 161.799 20.374C163.005 20.5299 164.208 20.7293 165.405 20.9806C165.692 21.0397 165.977 21.1029 166.262 21.1703C166.234 20.917 166.095 20.6692 165.811 20.4901L165.813 20.4901Z" fill="white"/>
<path d="M193.025 103.848C192.804 104.184 192.565 104.532 192.305 104.896C192.418 108.311 191.565 112.398 188.829 116.986C187.024 120.012 185.108 122.747 183.14 125.224C185.666 122.484 187.888 119.426 189.698 115.964L191.29 116.835C186.901 125.101 180.435 130.964 173.023 135.657C167.208 140.588 161.76 143.715 158.101 145.788C151.092 149.756 133.598 157.544 130.35 159.733C127.102 161.922 121.259 165.064 117.975 170.484C116.412 173.061 116.373 175.616 116.643 176.113C116.913 176.611 114.92 176.15 114.524 174.868C114.126 173.589 113.848 170.45 117.359 166.009C117.834 165.409 118.622 164.628 119.552 163.779C119.275 163.985 119 164.192 118.726 164.399L118.023 163.487C118.733 162.929 119.449 162.385 120.172 161.852C120.128 161.87 120.083 161.892 120.038 161.922C120.014 161.937 119.992 161.952 119.969 161.968C116.751 164.042 106.939 171.519 105.435 176.168C105.238 176.78 105.207 177.234 105.237 177.551C105.272 177.922 104.905 178.273 104.492 178.243C103.921 178.201 103.232 177.948 102.894 177.051C102.253 175.362 102.602 172.767 106.464 168.692C109.194 165.81 113.157 162.581 116.928 159.743C116.292 160.2 115.659 160.664 115.032 161.137C114.896 161.24 114.701 161.213 114.598 161.078C114.496 160.943 114.523 160.752 114.654 160.651C115.336 160.12 116.026 159.598 116.721 159.086C110.572 163.129 103.658 168.021 101.095 171.131C97.2618 175.782 94.6968 182.087 94.7961 182.285C94.8954 182.482 93.0245 182.281 92.3799 180.408C91.8903 178.989 92.8628 173.439 97.7001 168.318C103.235 162.455 123.182 149.177 130.593 144.321C129.784 143.911 129.213 143.063 129.263 142.098C129.403 140.905 131.136 141.057 131.07 142.254C131.05 142.705 131.344 142.927 131.754 143.024C131.718 142.932 131.654 142.853 131.549 142.803C131.286 142.677 131.224 142.35 131.624 141.651C132.35 140.381 135.056 138.044 137.081 136.396C136.892 136.415 136.7 136.429 136.51 136.437C135.554 136.424 135.572 135.024 136.534 135.043C136.908 135.048 137.325 135.018 137.736 134.97C137.661 134.933 137.569 134.911 137.464 134.912C136.78 134.922 136.244 134.715 136.515 133.942C137.127 132.192 147.915 125.507 147.915 125.507L150.988 123.656C149.415 123.774 147.873 123.859 146.368 123.911C145.513 124.449 143.426 125.77 141.259 127.246C141.247 127.255 141.235 127.264 141.222 127.272C136.885 130.228 135.421 131.6 134.826 132.497C134.642 132.774 134.542 133.006 134.464 133.224C134.326 133.621 134.267 134.02 134.281 134.402C134.295 134.835 134.403 135.25 134.603 135.617C134.528 135.68 134.452 135.744 134.377 135.808C132.888 137.071 131.353 138.48 130.4 139.648C130.13 139.979 129.904 140.29 129.744 140.572C129.238 141.454 129.119 142.185 129.185 142.766C121.326 148.211 100.558 162.699 96.2251 166.724C90.485 172.056 89.5433 178.835 90.3291 181.117C91.0785 183.292 92.8859 184.291 94.2046 184.482C94.3999 184.511 94.5821 184.52 94.7493 184.515C95.7922 184.481 96.3536 183.872 96.5634 183.58C96.89 183.126 97.0275 182.576 96.9629 182.038C97.0158 181.623 97.2816 180.362 98.0984 178.62C98.6462 177.451 99.4901 176.168 100.503 174.936C100.399 175.944 100.518 176.906 100.866 177.821C101.764 180.19 104.163 180.823 106.071 180.22C106.746 180.009 107.275 179.481 107.489 178.807C107.651 178.297 107.619 177.751 107.407 177.272C107.415 177.193 107.437 177.049 107.507 176.834C108.073 175.084 110.414 172.516 113.139 170.048C111.943 172.885 112.199 174.694 112.453 175.511C112.985 177.226 114.646 178.232 115.965 178.44C117.43 178.67 118.179 177.859 118.434 177.499C118.875 176.875 118.966 176.087 118.697 175.374C118.66 174.848 118.847 173.251 119.84 171.609C122.36 167.45 126.703 164.67 129.874 162.64C130.479 162.251 131.053 161.885 131.571 161.536C133.083 160.519 138.604 157.866 143.946 155.3C149.7 152.537 155.647 149.679 159.178 147.68C165.98 143.827 180.137 135.813 190.702 118.1C194.631 111.513 194.948 105.895 194.14 101.745C193.845 102.464 193.478 103.168 193.031 103.848L193.025 103.848ZM92.6257 182.286C92.6457 182.655 92.7163 182.99 92.8574 183.266C92.7008 182.957 92.624 182.621 92.6257 182.286Z" fill="white"/>
<path d="M156.568 142.518C144.052 148.095 131.268 153.666 120.17 161.854C119.447 162.387 118.729 162.933 118.021 163.489L118.724 164.401C118.998 164.192 119.273 163.986 119.55 163.781C125.106 159.64 131.07 156.076 137.257 152.956C148.802 147.061 161.968 142.661 173.021 135.659C180.433 130.964 186.898 125.103 191.288 116.837L189.696 115.966C187.886 119.428 185.664 122.488 183.138 125.226C175.979 132.995 166.358 138.172 156.566 142.521L156.568 142.518Z" fill="white"/>
<path d="M132.031 150.735C150.458 141.555 171.061 138.555 182.615 119.529C183.244 118.436 181.682 117.544 181.04 118.56C177.665 124.204 173.092 129.064 167.647 132.762C156.572 140.242 143.393 143.719 131.616 149.907C126.404 152.541 121.414 155.617 116.719 159.082C116.024 159.596 115.334 160.116 114.652 160.646C114.519 160.75 114.494 160.941 114.595 161.074C114.699 161.211 114.894 161.238 115.029 161.132C115.655 160.66 116.289 160.197 116.926 159.739C121.695 156.315 126.752 153.299 132.031 150.731L132.031 150.735Z" fill="white"/>
<path d="M131.454 144.571C134.482 144.888 138.729 142.006 141.208 140.387C141.511 140.179 141.222 139.723 140.909 139.896C138.626 141.108 136.28 142.319 133.762 142.912C133.257 143.019 132.371 143.165 131.754 143.022C131.344 142.927 131.05 142.703 131.07 142.252C131.136 141.055 129.403 140.903 129.263 142.096C129.215 143.061 129.784 143.907 130.593 144.319C130.859 144.456 131.152 144.544 131.456 144.571L131.454 144.571Z" fill="white"/>
<path d="M138.841 136.102C142.513 135.291 145.972 133.742 149.28 132.002C150.438 131.386 152.001 130.464 153.142 129.77C153.24 129.711 153.277 129.584 153.222 129.482C153.165 129.375 153.029 129.336 152.922 129.395L150.964 130.429C147.043 132.381 142.941 134.12 138.605 134.849C138.331 134.893 138.035 134.933 137.734 134.968C137.322 135.014 136.906 135.046 136.531 135.041C135.57 135.022 135.552 136.422 136.508 136.435C136.7 136.429 136.889 136.415 137.079 136.394C137.672 136.334 138.262 136.22 138.839 136.1L138.841 136.102Z" fill="white"/>
<path d="M52.1769 93.6961C49.6152 93.4841 46.8839 93.5277 44.0283 94.0176C39.5177 94.7917 36.0483 97.1677 35.5577 97.9275C35.0672 98.6873 34.3675 96.1236 35.8264 94.4855C37.2874 92.8493 41.3299 89.5786 49.6458 89.1215C50.8777 89.0534 52.6491 89.1809 54.6077 89.4079C54.054 89.2871 53.4983 89.1684 52.9407 89.0538L53.2596 87.4478C54.4203 87.6755 55.5774 87.9218 56.7308 88.1807C56.7587 88.1467 56.7866 88.1128 56.8144 88.0788C51.8767 86.6051 35.2981 83.2179 28.0406 86.0143C27.0849 86.3817 26.4527 86.7801 26.0437 87.1135C25.5662 87.5029 24.851 87.4409 24.6191 86.9728C24.2966 86.3237 24.1829 85.3475 25.1634 84.138C27.0131 81.8549 30.7419 79.7683 38.7975 80.0306C44.4941 80.2151 51.4749 81.3881 57.7995 82.7267C56.7143 82.4698 55.59 82.2162 54.7672 82.0171C54.5319 81.9626 54.3858 81.7254 54.4403 81.4901C54.495 81.2589 54.7219 81.1152 54.9528 81.1595C55.5854 81.2903 57.2555 81.6113 58.3975 81.8374C48.9034 79.1156 37.8116 76.3991 31.9498 76.6085C23.1373 76.9222 12.9378 80.1554 12.7404 80.447C12.5429 80.7385 11.568 78.5536 13.6641 76.089C15.2521 74.2215 23.3759 70.0042 33.4878 70.3148C40.2166 70.5222 53.5551 73.5557 65.7958 76.711C66.358 75.9965 66.9203 75.2841 67.4847 74.5715C53.9319 71.2348 38.9851 67.746 33.7928 67.2354C23.0599 66.1819 13.7109 71.2608 11.3099 74.0845C9.00659 76.7934 8.96036 79.6909 9.62094 81.3504C10.1154 82.5956 11.14 83.4188 12.3576 83.5515C13.2682 83.6507 14.162 83.3494 14.8228 82.7454C15.3561 82.4204 17.3799 81.3845 20.6079 80.5148C22.309 80.0575 24.027 79.8044 25.596 79.6758C24.4939 80.3807 23.547 81.2191 22.7594 82.1909C21.3174 83.9691 21.1926 85.635 21.3429 86.7196C21.647 88.9341 23.2533 90.1707 23.5705 90.3963C24.3149 90.9224 25.2527 91.0952 26.1363 90.8665C26.8908 90.6709 27.5392 90.1976 27.959 89.5517C28.0635 89.4595 28.4065 89.1943 29.1559 88.9058C31.8147 87.8806 36.3416 87.8791 41.0173 88.3297C36.3172 89.7093 34.2028 91.6639 33.5181 92.4298C31.7717 94.3851 31.5374 97.1542 32.2062 98.8776C32.7083 100.17 33.7668 101.019 35.0422 101.148C36.1912 101.266 37.3078 100.76 38.0158 99.8171C38.5846 99.3091 41.1859 97.649 44.5535 97.0726C46.1694 96.7958 47.7511 96.6772 49.287 96.6779C49.5297 96.4469 49.7704 96.216 50.0133 95.9871C50.8224 95.2378 51.4793 94.5079 52.1792 93.7022L52.1769 93.6961ZM10.1816 78.7052C10.3791 78.4158 10.6214 78.1683 10.8941 77.9694C10.5958 78.2104 10.3515 78.4559 10.1816 78.7052Z" fill="white"/>
<path d="M145.616 123.935C145.738 123.931 145.856 123.931 145.978 123.927C146.106 123.923 146.236 123.919 146.366 123.915C147.873 123.863 149.413 123.779 150.986 123.66C154.997 123.359 159.228 122.84 163.682 122.047C179.752 119.187 188.329 110.492 192.308 104.9C192.567 104.536 192.806 104.186 193.027 103.852C193.474 103.172 193.842 102.468 194.136 101.749C195.203 99.1564 195.269 96.3802 194.273 93.8673C192.999 90.6584 190.167 88.3197 186.503 87.4483C185.783 87.2769 184.942 87.1508 184.019 87.0603C183.476 87.0073 182.904 86.9676 182.309 86.9369C177.316 86.6866 170.769 87.2093 166.806 87.5257L166.431 87.5562C165.938 87.5947 165.439 87.6333 164.932 87.6681C168.393 87.5661 171.863 87.3977 175.309 87.166C176.693 87.1158 176.825 89.1394 175.417 89.2442C169.751 89.4432 164.102 89.5218 158.438 89.3177C156.472 89.1818 148.897 89.1006 147.407 87.2794C146.213 87.1024 145.011 86.8864 143.806 86.623L125.489 80.451C125.474 80.4452 125.46 80.4416 125.445 80.4358C125.305 80.3907 122.523 79.5015 119.059 78.5266C118.998 78.5099 118.94 78.4932 118.88 78.4765C118.107 79.3321 117.336 80.1917 116.568 81.0513C120.759 82.185 124.499 83.3847 124.499 83.3847L134.951 86.9071C144.705 90.1932 155.449 91.5172 166.424 90.6592C166.507 90.6524 166.591 90.6456 166.674 90.6388C171.414 90.2626 181.436 89.4246 185.787 90.4581C191.398 91.7905 193.585 97.3723 190.44 102.146C186.514 108.109 178.275 116.303 163.141 118.996C157.793 119.948 152.77 120.497 148.073 120.735C153.421 120.807 158.947 120.248 164.77 118.953L165.308 121.48C150.937 124.538 139.039 123.301 127.931 119.867C117.206 118.346 109.231 115.438 103.938 113.467C98.1815 111.323 88.413 106.668 80.1859 102.838C79.3519 103.588 78.518 104.34 77.684 105.088C79.2365 105.807 80.8376 106.556 82.4261 107.299C89.9822 110.831 97.7943 114.481 102.857 116.368C102.873 116.374 102.89 116.38 102.907 116.387C103.863 116.744 104.917 117.136 106.074 117.55C114.233 120.473 127.407 124.457 145.618 123.935L145.616 123.935Z" fill="white"/>
<path d="M52.9407 89.0537C53.4962 89.1683 54.0519 89.287 54.6077 89.4078C54.9262 89.4783 55.2448 89.5508 55.5634 89.6234C55.9553 89.1437 56.3431 88.6621 56.7329 88.1805C55.5794 87.9195 54.4223 87.6753 53.2616 87.4476L52.9427 89.0536L52.9407 89.0537Z" fill="white"/>
<path d="M108.365 109.394C101.732 106.116 95.1743 102.639 88.4729 99.4625C87.7188 99.8648 86.9081 100.24 86.0768 100.492C101.026 107.633 113.839 115.516 127.927 119.869C139.033 123.301 150.933 124.54 165.304 121.482L164.766 118.955C158.945 120.25 153.419 120.809 148.069 120.737C134.311 120.553 121.734 116.187 108.361 109.396L108.365 109.394Z" fill="white"/>
<path d="M134.246 114.505C135.973 114.896 137.838 115.308 139.603 115.574C140.114 115.657 140.902 115.796 141.404 115.848C142.443 115.955 144.013 116.16 145.029 116.22L146.849 116.313C152.284 116.57 157.772 116.005 163.069 114.794C163.315 114.741 163.494 114.514 163.478 114.252C163.458 113.965 163.212 113.748 162.925 113.767C161.142 113.872 159.351 114.09 157.573 114.14C145.011 114.919 132.932 112.75 121.344 107.834C112.389 104.065 103.76 99.4803 95.0052 95.1846C94.4356 95.6017 93.8596 96.0148 93.2792 96.4198C93.7583 96.663 94.2373 96.9061 94.7164 97.1513C107.517 103.683 120.131 111.087 134.242 114.503L134.246 114.505Z" fill="white"/>
<path d="M58.3975 81.8389C57.2554 81.6127 55.5853 81.2918 54.9527 81.161C54.7219 81.1167 54.4949 81.2604 54.4403 81.4915C54.3858 81.7269 54.5318 81.9641 54.7671 82.0186C55.5901 82.2198 56.7143 82.4713 57.7994 82.7282C58.5951 82.9178 59.3722 83.1081 59.9896 83.2827C60.1627 83.3289 60.3419 83.3749 60.5233 83.4228C60.7717 83.109 61.018 82.7952 61.2664 82.4814C60.5874 82.3211 59.8939 82.1592 59.367 82.0354C59.1672 81.9922 58.8176 81.9206 58.3995 81.8388L58.3975 81.8389Z" fill="white"/>
<path d="M115.57 90.4781C117.463 91.3253 120.324 92.3463 122.302 93.0006C122.699 93.1244 122.873 92.5566 122.509 92.4173C118.866 90.9726 115.006 89.1979 111.692 87.1165C111.56 87.0339 111.424 86.9472 111.291 86.8605C110.97 87.2036 110.648 87.5466 110.324 87.8877C112.025 88.8547 113.797 89.7222 115.572 90.4781L115.57 90.4781Z" fill="white"/>
<path d="M151.166 98.2187C151.265 98.1969 151.342 98.1138 151.356 98.008C151.372 97.8711 151.269 97.7462 151.132 97.7361C150.068 97.6129 149.014 97.5679 147.964 97.5062C140.708 97.0489 133.363 96.4436 126.438 94.0782C126.163 93.9649 125.977 94.3367 126.201 94.4991C127.543 95.432 129.026 96.1042 130.535 96.6907C136.563 98.9132 143.248 99.5664 149.588 98.5232C150.116 98.4299 150.643 98.3346 151.166 98.2166L151.166 98.2187Z" fill="white"/>
<path d="M162.606 105.588C159.043 105.546 155.359 105.51 151.8 105.279C142.276 104.73 132.727 103.209 123.619 100.343C117.941 98.5369 112.291 96.3086 107.131 93.3144C106.992 93.2237 106.803 93.2525 106.697 93.386C106.586 93.526 106.611 93.7319 106.751 93.8412C108.695 95.3544 110.783 96.6067 112.933 97.7827C115.079 98.9546 117.297 99.9878 119.551 100.933C131.412 105.802 144.424 107.99 157.223 107.179C158.98 107.074 160.948 106.87 162.677 106.638C163.35 106.535 163.237 105.586 162.604 105.588L162.606 105.588Z" fill="white"/>
<path d="M82.6976 100.573C82.729 100.584 82.7583 100.596 82.7917 100.605C83.8647 100.934 84.9896 100.82 86.0788 100.49C86.9101 100.238 87.7208 99.8628 88.4749 99.4605C89.0522 99.1528 89.5959 98.8295 90.0908 98.5347C91.1792 97.8551 92.2398 97.1454 93.2833 96.4176C93.8636 96.0126 94.4396 95.5994 95.0092 95.1823C95.6819 94.6896 96.3482 94.193 97.008 93.6862C97.9111 94.3933 99.1391 94.7862 100.572 94.7199C103.611 94.4909 106.072 92.0601 108.108 90.1618C108.857 89.4123 109.594 88.653 110.322 87.8877C110.646 87.5467 110.97 87.2056 111.289 86.8606C113.081 84.9452 114.823 82.9942 116.566 81.0473C117.334 80.1877 118.105 79.328 118.877 78.4724C119.211 78.1022 119.546 77.7339 119.882 77.3656C121.448 75.6496 123.035 73.9536 124.676 72.3056C129.918 66.7972 135.767 62.0406 142.086 57.947C142.756 57.3014 143.499 56.7382 143.932 56.371C147.009 53.9971 150.287 51.9745 153.594 49.9695C156.898 47.9873 160.234 46.0868 163.623 44.2446C164.82 43.6422 165.753 45.2889 164.711 46.0125C166.407 45.1316 168.086 44.2224 169.726 43.2689C171.604 42.1549 173.389 41.0748 175.101 39.6043C176.692 38.27 177.894 36.5635 178.538 34.7178C179.504 31.9522 179.214 28.8773 177.081 26.289C176.58 25.689 176.033 25.1772 175.448 24.7349C174.459 23.9871 173.367 23.441 172.21 23.0003C170.278 22.2392 168.284 21.6308 166.262 21.164C165.977 21.0986 165.692 21.0354 165.404 20.9742C164.208 20.7229 163.005 20.5235 161.799 20.3676C152.398 19.1621 142.76 20.8188 133.963 24.1997L132.139 24.882L130.326 25.5991C126.016 27.2908 121.83 29.1667 117.77 31.2267C116.5 31.8707 115.242 32.533 113.996 33.2114C110.798 34.9566 107.683 36.8211 104.651 38.8049C103.384 39.6349 102.131 40.4872 100.892 41.3597C94.5296 45.8453 88.5613 50.891 83.0059 56.5044C82.2468 57.2707 81.4943 58.045 80.7504 58.8336C79.3147 60.3552 77.9092 61.9172 76.5318 63.5197C73.424 67.1244 70.4331 70.8309 67.4782 74.5652C66.9138 75.2777 66.3516 75.9922 65.7893 76.7047C64.2775 78.6277 62.7699 80.5547 61.2579 82.4736C61.0095 82.7875 60.7632 83.1012 60.5148 83.4151C59.2849 84.9736 58.0506 86.526 56.8079 88.0704C56.78 88.1044 56.7522 88.1383 56.7243 88.1723C56.3345 88.6539 55.9467 89.1355 55.5548 89.6152C54.5183 90.8864 53.4753 92.1475 52.4196 93.3986C52.3359 93.4964 52.2521 93.592 52.1683 93.6877C51.4684 94.4935 50.8095 95.2235 50.0024 95.9726C49.7596 96.2016 49.5168 96.4325 49.2761 96.6635C46.7705 99.0563 44.3282 101.491 41.6624 103.593C37.9209 106.577 33.7862 109.03 29.2508 110.516C27.1568 111.166 24.7941 111.555 22.6346 111.51C22.314 111.504 22.0404 111.482 21.7725 111.441C21.396 111.302 20.8182 111.204 20.367 111.25C18.6591 111.366 17.4132 112.944 17.4763 114.535C17.5073 115.769 18.0158 116.74 18.7144 117.648C19.6962 118.878 21.1428 119.71 22.6873 119.982C25.3731 120.454 28.5741 120.036 31.7405 119.179C28.0849 121.614 21.3044 125.952 17.2633 125.568C17.2571 125.568 17.2737 125.57 17.2947 125.58L17.3219 125.589L17.3596 125.604L17.4183 125.631L17.4771 125.661L17.5128 125.678L17.6181 125.737L13.3243 126.959C12.5986 128.381 12.4815 130.092 13.1489 131.578C14.2176 133.913 16.5927 134.757 18.8812 135.087C19.5184 135.17 20.1543 135.212 20.785 135.219C16.7658 137.077 12.5014 138.313 8.09198 138.629C8.07133 138.629 8.05275 138.63 8.0321 138.631C6.62055 138.38 5.10238 139.195 4.57419 140.525C3.99585 141.837 4.41507 143.382 5.07595 144.467C6.21805 146.318 8.02243 147.35 10.0015 147.897C11.6581 148.311 13.4286 148.282 15.0574 148.213C21.711 147.811 28.2387 145.791 33.9261 142.308C35.0782 141.616 36.3426 140.689 37.4126 139.884C43.394 135.251 49.0253 130.332 54.7246 125.409C62.4402 118.691 70.075 111.908 77.6734 105.08C78.5073 104.33 79.3413 103.58 80.1753 102.83C81.0132 102.075 81.8511 101.319 82.6891 100.565L82.6976 100.573ZM21.867 111.487C21.8774 111.491 21.9738 111.531 21.9131 111.506C21.8983 111.499 21.8796 111.493 21.8649 111.487L21.867 111.487ZM19.7178 116.959C19.7052 116.953 19.6927 116.95 19.678 116.944C19.6676 116.94 19.6885 116.948 19.7178 116.959ZM8.51804 138.766C8.45317 138.741 8.3865 138.725 8.31976 138.706C8.40922 138.724 8.76261 138.851 8.51804 138.766ZM6.72638 144.69C6.65964 144.671 6.5949 144.65 6.52803 144.628C6.34614 144.563 6.57825 144.647 6.72638 144.69ZM6.82642 144.715C6.8827 144.73 6.94085 144.739 6.99707 144.751C6.94092 144.741 6.8827 144.73 6.82642 144.715ZM33.4917 138.924C23.6374 144.755 13.34 145.626 10.7704 144.908C7.37696 143.958 7.17651 141.558 7.52824 141.698C7.87996 141.837 19.7121 138.982 28.6099 134.401C34.5464 131.345 44.1308 122.879 52.1004 115.312C51.0085 116.209 49.8129 117.156 48.9347 117.881C48.7474 118.034 48.4695 118.005 48.3167 117.816C48.1639 117.626 48.1944 117.35 48.3797 117.198C49.259 116.444 50.1601 115.659 51.0649 114.863C45.4851 119.514 39.1458 124.4 33.5647 127.716C25.7237 132.372 20.9159 132.643 17.8642 131.715C16.2466 131.223 15.8398 130.329 15.8123 129.596C15.7956 129.069 16.4676 128.622 17.1499 128.691C17.7326 128.751 18.5716 128.743 19.7142 128.531C28.4007 126.923 43.027 114.898 47.1279 110.929C47.158 110.901 47.186 110.871 47.2161 110.843C47.3445 110.719 47.421 110.593 47.4565 110.474C46.2776 111.491 45.0794 112.489 43.8641 113.468L42.8314 112.196C43.3613 111.762 43.8869 111.326 44.4102 110.883C42.5178 112.212 40.7576 113.348 39.4592 113.988C30.9768 118.176 25.2246 117.608 22.905 117.017C20.5834 116.425 19.9082 113.85 20.8008 114.229C21.6935 114.608 26.3979 114.727 31.2802 112.903C41.5433 109.071 47.8385 101.825 52.1512 97.8246C56.464 93.8238 72.3354 72.0168 80.2551 63.337C84.7912 58.3659 91.8572 50.7261 103.107 42.887C112.572 34.3089 123.396 27.7794 136.867 23.3341L137.538 25.3426C131.811 27.2345 126.71 29.4165 122.078 31.8812C126.325 29.8442 130.942 27.8802 135.962 26.0377C152.396 20.0076 164.933 22.4631 172.005 25.3902C177.669 27.7338 178.483 33.6984 173.634 37.9229C169.875 41.1991 159.498 46.0007 154.599 48.2879C154.514 48.3278 154.426 48.3658 154.34 48.4078C118.838 66.0214 107.915 92.4025 100.16 91.6737C99.0387 91.5689 98.5947 91.3866 98.4806 90.919C98.5034 91.0505 98.5321 91.1736 98.5707 91.282C98.7751 91.8584 98.4728 92.4923 97.8964 92.6967C97.32 92.9011 96.6861 92.5988 96.4817 92.0224C96.2854 91.4395 96.2382 90.8684 96.263 90.3467C93.0415 92.8513 88.0894 96.5086 85.5443 97.402C84.6898 97.7021 84.1399 97.7651 83.8002 97.6787C83.9645 97.8389 84.1761 97.9272 84.4266 97.9378C85.1393 97.9234 85.7299 98.4917 85.7444 99.2044C85.7588 99.917 85.1905 100.508 84.4778 100.522C82.9982 100.534 81.5443 99.4725 81.17 98.0395C81.1629 98.0128 81.158 97.9882 81.1509 97.9615C72.1154 106.588 45.0136 132.103 33.4855 138.924L33.4917 138.924Z" fill="white"/>
<path d="M98.4554 90.6448C98.453 90.5684 98.4566 90.4877 98.4641 90.3987C98.4685 90.3427 98.4648 90.2912 98.455 90.2419C98.4551 90.2461 98.4553 90.2523 98.4534 90.2565C98.4453 90.3931 98.4473 90.5211 98.4533 90.6428L98.4554 90.6448Z" fill="white"/>
<path d="M77.2351 77.2954C91.4123 57.657 102.562 42.2679 122.084 31.8812C126.716 29.4164 131.817 27.2324 137.544 25.3426L136.873 23.334C123.402 27.7815 112.578 34.3109 103.113 42.887C96.7402 48.6628 90.9818 55.3659 85.449 62.9899C78.9208 71.7432 72.7516 80.7372 65.7988 89.1423C59.3355 97.013 52.2052 104.324 44.4144 110.883C43.891 111.323 43.3633 111.762 42.8356 112.196L43.8683 113.468C45.0836 112.489 46.2797 111.491 47.4607 110.474C58.7474 100.746 68.4708 89.3136 77.2372 77.2974L77.2351 77.2954Z" fill="white"/>
<path d="M59.4597 108.765C71.5566 97.4094 81.2843 83.773 91.0313 70.4853C98.6215 60.2202 106.865 50.2836 117.24 42.7473C118.148 42.1189 119.532 41.1157 120.442 40.4996C121.012 40.1446 122.31 39.2909 122.907 38.906C124.262 38.0236 125.723 37.2205 127.102 36.3807C127.705 36.0515 129.046 35.3307 129.688 34.9775L130.548 34.5016C130.836 34.3477 131.134 34.208 131.424 34.0602C132.432 33.5672 133.492 33.0208 134.501 32.5132C135.846 31.9019 137.188 31.2763 138.521 30.6302C138.764 30.5253 138.894 30.2504 138.809 29.9906C138.72 29.7185 138.425 29.5687 138.153 29.658C136.736 30.1228 135.311 30.6167 133.902 31.1142C120.059 36.3218 108.621 45.4485 99.1323 56.6568C92.2376 64.7437 86.2956 73.5363 80.063 82.0983C73.1047 91.6921 65.6817 100.974 57.1593 109.227C55.2694 111.091 53.1602 113.017 51.0691 114.859C50.1643 115.657 49.2611 116.44 48.3838 117.194C48.1965 117.346 48.168 117.622 48.3208 117.812C48.4736 117.999 48.7494 118.028 48.9389 117.877C49.8171 117.152 51.0127 116.205 52.1045 115.308C52.6242 114.88 53.1215 114.463 53.5499 114.088C55.4739 112.451 57.6252 110.485 59.4658 108.76L59.4597 108.765Z" fill="white"/>
<path d="M83.4638 96.7179C83.5331 91.1056 92.819 80.0175 96.5106 75.4681C101.202 69.7148 106.237 64.2626 111.863 59.4221C113.74 57.8162 115.676 56.2765 117.656 54.7975C117.836 54.6657 117.88 54.4142 117.75 54.2302C117.62 54.0442 117.364 54.0006 117.178 54.1306C113.085 56.9874 109.198 60.1375 105.553 63.5485C98.3132 70.4703 91.715 77.936 85.8181 86.0676C84.3639 88.1769 82.9996 90.3206 81.9717 92.7057C81.3065 94.3392 80.6867 96.1676 81.1552 97.9635C81.1623 97.9902 81.1672 98.0148 81.1742 98.0415C81.5465 99.4745 83.0024 100.536 84.4821 100.524C85.1948 100.51 85.7631 99.919 85.7486 99.2063C85.7342 98.4936 85.1456 97.9253 84.4308 97.9398C84.1804 97.9313 83.9688 97.8408 83.8045 97.6807C83.5996 97.4785 83.4717 97.1621 83.4638 96.7179Z" fill="white"/>
<path d="M98.4554 90.2581C98.4554 90.2581 98.4551 90.2477 98.4571 90.2436C98.5541 88.9423 99.0559 87.6923 99.6165 86.4714C100.412 84.782 101.414 83.1481 102.497 81.5715C109.186 72.0958 118.064 64.2247 127.604 57.6741C128.111 57.2921 127.578 56.6166 127.102 56.9088C117.218 63.3029 108.046 71.0076 100.955 80.4796C98.9935 83.2665 96.7001 86.6118 96.2884 90.1059C96.2806 90.1847 96.277 90.2654 96.2734 90.3482C96.2487 90.8699 96.2979 91.4409 96.4921 92.0239C96.6965 92.6003 97.3304 92.9026 97.9068 92.6982C98.4832 92.4938 98.7855 91.8599 98.5811 91.2835C98.5405 91.1752 98.5117 91.0521 98.491 90.9205C98.4759 90.8341 98.4667 90.7414 98.4595 90.6445C98.4515 90.5228 98.4515 90.3946 98.4596 90.2579L98.4554 90.2581Z" fill="white"/>
<path d="M179.532 54.8862C178.022 53.8325 176.217 54.7251 175.286 56.0446C174.839 56.617 174.415 57.2134 174.055 57.847C173.682 58.4439 173.476 59.1367 172.95 59.6145C172.912 59.6488 172.899 59.707 172.925 59.7537C173.103 60.0189 173.779 59.1808 173.896 59.02C173.914 58.9946 173.934 58.9671 173.954 58.9396C173.912 58.9203 173.87 58.901 173.828 58.8816C173.708 58.8234 173.772 58.6353 173.904 58.6663C173.976 58.6764 174.049 58.6885 174.122 58.7028C174.658 57.9581 175.258 57.1865 175.865 56.5285C176.114 56.227 176.405 55.9531 176.723 55.7384C176.813 55.1857 177.108 54.7876 177.528 54.7309C177.888 54.6801 178.23 54.9008 178.468 55.2901C178.472 55.2899 178.476 55.2919 178.48 55.2917C178.682 55.3287 178.885 55.3967 179.084 55.5061C179.507 55.78 179.934 55.1958 179.534 54.884L179.532 54.8862Z" fill="white"/>
<path d="M173.48 55.9988C173.106 56.5957 172.901 57.2864 172.374 57.7642C172.334 57.7985 172.323 57.8567 172.348 57.9056C172.526 58.1707 173.2 57.3348 173.319 57.1718C173.91 56.3344 174.594 55.4321 175.288 54.6824C176.07 53.7417 177.324 53.0093 178.507 53.66C178.931 53.9297 179.355 53.3498 178.956 53.0379C178.601 52.7847 178.196 52.6467 177.768 52.5941C175.649 52.4012 174.437 54.4634 173.48 55.9988Z" fill="white"/>
<path d="M178.546 57.7656C178.442 57.9405 178.325 58.1344 178.181 58.2837C177.126 59.4439 175.498 58.9355 174.122 58.7003C174.049 58.6881 173.974 58.676 173.903 58.6638C173.772 58.6329 173.706 58.821 173.828 58.8791C173.87 58.8985 173.911 58.9178 173.953 58.9371C174.807 59.3275 175.643 59.7515 176.624 59.7658C177.704 59.8203 178.876 59.1628 179.231 58.089C179.332 57.7819 179.048 57.5512 178.795 57.5964C178.701 57.6119 178.611 57.6643 178.549 57.7676L178.546 57.7656Z" fill="white"/>
<path d="M178.763 56.1734C178.717 55.8318 178.61 55.5292 178.464 55.29C178.226 54.9007 177.884 54.68 177.524 54.7308C177.106 54.7875 176.809 55.1856 176.719 55.7383C176.684 55.9564 176.68 56.1964 176.715 56.4516C176.766 56.8344 176.899 57.1878 177.087 57.4484C177.304 57.7475 177.588 57.91 177.877 57.9008C177.902 57.9 177.927 57.8992 177.953 57.8942C178.536 57.8157 178.884 57.075 178.763 56.1755L178.763 56.1734Z" fill="white"/>
<path d="M170.972 57.2713C171.587 56.0962 172.303 54.9489 173.1 53.8899C173.904 52.8432 174.787 51.8559 175.82 51.1347C176.295 50.7971 176.831 50.5009 177.398 50.3816C179.175 49.9612 180.355 51.3189 180.703 53.1C180.795 53.5291 181.215 53.8072 181.647 53.7191C182.08 53.6308 182.36 53.2064 182.272 52.7731C182.122 52.0378 181.861 51.2958 181.416 50.6175C180.2 48.7441 177.841 48.3335 175.955 49.4684C173.284 51.1617 171.62 54.214 170.563 57.1045C170.474 57.3677 170.855 57.5148 170.972 57.2713Z" fill="white"/>
<path d="M156.631 58.8753C156.65 58.9533 156.607 59.0311 156.536 59.0582C155.494 59.4965 153.517 60.252 151.253 61.1654C154.422 60.3182 157.385 59.2482 158.628 58.8179C159.127 58.6222 158.851 57.891 158.354 58.0577C157.117 58.4713 155.866 58.8666 154.605 59.2355C155.215 59.0713 155.828 58.9112 156.442 58.7615C156.526 58.7402 156.61 58.7912 156.629 58.8754L156.631 58.8753Z" fill="white"/>
<path d="M140.768 60.8892C141.203 61.9544 142.541 62.3459 144.312 62.3371C144.608 62.3359 144.915 62.322 145.235 62.2994C145.643 62.1396 146.052 61.9819 146.462 61.8262C148.493 61.0753 150.545 60.396 152.615 59.7906C150.865 60.2535 149.098 60.6509 147.321 60.9369C146.391 61.0781 145.454 61.1845 144.538 61.195C143.753 61.1932 142.749 61.159 142.14 60.7236C141.991 60.6084 141.915 60.4889 141.875 60.3331C141.912 60.1355 142.05 59.9285 142.213 59.7208C142.275 59.6465 142.341 59.5741 142.405 59.4997C143.057 58.7678 143.846 58.1619 144.652 57.5553C144.692 57.5251 144.731 57.497 144.769 57.4669C146.288 56.356 147.895 55.3333 149.521 54.341C154.417 51.3821 159.49 48.6759 164.588 46.0909C164.635 46.0667 164.677 46.0385 164.718 46.0103C165.759 45.2867 164.826 43.64 163.63 44.2424C160.238 46.0847 156.903 47.9852 153.601 49.9673C150.293 51.9723 147.015 53.995 143.938 56.3688C143.505 56.7361 142.763 57.2992 142.093 57.9448C141.144 58.8598 140.339 59.9438 140.77 60.883L140.768 60.8892Z" fill="white"/>
<path d="M146.46 61.8283C146.052 61.9839 145.641 62.1417 145.233 62.3015C145.122 62.3443 145.01 62.3892 144.9 62.432C142.952 63.203 141.028 64.058 139.268 65.2428C137.99 66.0855 136.639 67.6127 138.082 69.0303C138.269 69.2 138.495 69.3437 138.749 69.4659C140.053 70.1003 142.163 70.1406 144.427 69.9072C147.266 69.021 150.174 68.3517 153.082 67.7836C153.257 67.7553 153.354 68.0127 153.16 68.085C152.766 68.2237 152.371 68.3603 151.975 68.499C152.534 68.3613 153.029 68.238 153.431 68.1363C155.115 67.6837 156.787 67.2026 158.441 66.6352C158.921 66.4628 158.709 65.7585 158.224 65.8587C155.243 66.4456 141.724 69.6729 139.306 67.8792C139.219 67.8158 139.147 67.7457 139.091 67.669C139.626 66.5729 142.265 65.1018 145.375 63.6654C147.282 62.7861 149.365 61.9198 151.251 61.159C153.514 60.2476 155.491 59.4902 156.534 59.0518C156.605 59.0247 156.648 58.9469 156.629 58.8689C156.608 58.7849 156.523 58.7338 156.441 58.755C155.826 58.9069 155.215 59.0669 154.604 59.229C153.938 59.4073 153.274 59.5918 152.613 59.7844C150.542 60.3898 148.491 61.0691 146.46 61.8201L146.46 61.8283Z" fill="white"/>
<path d="M153.083 67.7879C150.174 68.3539 147.266 69.0252 144.427 69.9115C143.854 70.091 143.283 70.2786 142.717 70.4744C141.437 70.9204 140.175 71.4132 138.936 71.9674C137.741 72.5884 136.46 73.1439 135.648 74.3852C135.061 75.299 135.533 76.4891 136.439 77.0163C137.065 77.4118 137.805 77.5826 138.488 77.6869C140.02 77.8862 141.548 77.8437 143.065 77.7003C143.654 77.6443 144.243 77.5718 144.828 77.4933C146.983 76.5068 149.232 75.7903 151.508 75.1494C151.984 75.0205 152.462 74.8937 152.937 74.7731C147.969 75.6424 138.929 77.1395 137.081 75.4393C137.042 75.395 137.035 75.3436 137.013 75.303C137.013 75.3071 137.01 75.2948 137.016 75.2718C137.021 75.251 137.031 75.2197 137.054 75.1756C137.603 74.3581 138.694 73.8231 139.61 73.3226C141.968 72.1416 144.432 71.1702 146.925 70.2681C148.601 69.6628 150.292 69.088 151.977 68.5031C152.371 68.3666 152.768 68.2278 153.163 68.0892C153.357 68.0169 153.26 67.7595 153.085 67.7878L153.083 67.7879Z" fill="white"/>
<path d="M164.081 87.6912C160.357 87.7746 156.602 87.8198 152.897 87.5285C151.977 87.4503 151.06 87.3472 150.18 87.1727C149.544 87.0213 148.826 86.9119 148.362 86.4926C148.153 85.7943 149.027 85.1733 149.575 84.7899C151.904 83.3494 154.644 82.6193 157.294 81.9003C159.103 81.4375 160.938 81.036 162.771 80.7047C163.289 80.5952 163.155 79.8408 162.636 79.909C160.882 80.1944 159.137 80.5104 157.409 80.8982C158.837 80.6956 160.265 80.4869 161.695 80.2739C161.779 80.2609 161.86 80.3203 161.871 80.4047C161.882 80.4829 161.834 80.5547 161.76 80.5777C159.284 81.2809 154.591 82.4866 150.233 83.136C149.982 83.2494 149.728 83.3732 149.476 83.5073C148.082 84.2504 146.811 85.3141 147.172 86.8323C147.21 86.9902 147.289 87.1386 147.401 87.2756C148.891 89.0968 156.466 89.1781 158.432 89.3139C164.096 89.5181 169.743 89.4395 175.411 89.2404C176.817 89.1336 176.686 87.112 175.303 87.1623C171.856 87.394 168.387 87.5623 164.926 87.6643C164.643 87.6733 164.36 87.6823 164.079 87.6913L164.081 87.6912Z" fill="white"/>
<path d="M144.828 77.4934C144.642 77.5778 144.457 77.6623 144.274 77.7529C144.245 77.7662 144.214 77.7796 144.186 77.7929C142.95 78.4606 141.589 79.1345 140.855 80.5076C140.332 81.5806 140.769 82.7305 141.866 83.1524C142.776 83.4913 144.053 83.6119 145.536 83.5812C146.959 83.5524 148.573 83.3874 150.235 83.138C154.593 82.4887 159.286 81.283 161.762 80.5798C161.836 80.5589 161.886 80.485 161.873 80.4068C161.86 80.3225 161.781 80.263 161.697 80.276C160.267 80.489 158.839 80.6977 157.411 80.9003C155.473 81.175 153.536 81.433 151.602 81.6517C149.842 81.8276 143.332 82.5765 142.274 81.494C142.727 78.7737 156.28 75.1753 159.199 74.2617C159.688 74.1138 159.518 73.4019 159.025 73.4735C156.97 73.8117 154.946 74.2565 152.933 74.7713C152.455 74.894 151.98 75.0187 151.504 75.1475C149.228 75.7885 146.979 76.505 144.823 77.4915L144.828 77.4934Z" fill="white"/>
</svg>
